ISO-10303-21;
HEADER;
/* Generated by software containing ST-Developer
 * from STEP Tools, Inc. (www.steptools.com) 
 */
/* OPTION: using custom renumber hook */

FILE_DESCRIPTION(
/* description */ ('STEP AP242 Edition 2',
'CAx-IF Rec.Pracs.---Representation and Presentation of Product Manufa
cturing Information (PMI)---4.0---2014-10-13',
'CAx-IF Rec.Pracs.---3D Tessellated Geometry---0.4---2014-09-14','2;1',
'CAx-IF Rec.Pracs.---User Defined Attributes---1.5---2016-08-15'),
/* implementation_level */ '2;1');

FILE_NAME(
/* name */ 'Part Studio 1 - Main_Case',
/* time_stamp */ '2026-08-07T20:49:18Z',
/* author */ (''),
/* organization */ (''),
/* preprocessor_version */ 'ST-DEVELOPER v20',
/* originating_system */ 'ONSHAPE BY PTC INC, 1.219',
/* authorisation */ '  ');

FILE_SCHEMA (('AP242_MANAGED_MODEL_BASED_3D_ENGINEERING_MIM_LF { 1 0 10303 442 3 1 4 }'));
ENDSEC;

DATA;
#10=SHAPE_REPRESENTATION_RELATIONSHIP('','',#1311,#11);
#11=ADVANCED_BREP_SHAPE_REPRESENTATION('',(#1309),#2155);
#12=SPHERICAL_SURFACE('',#1395,0.0004);
#13=SPHERICAL_SURFACE('',#1396,0.0004);
#14=CONICAL_SURFACE('',#1362,0.00235,1.02974425867665);
#15=CONICAL_SURFACE('',#1365,0.00235,1.02974425867665);
#16=CONICAL_SURFACE('',#1368,0.00235,1.02974425867665);
#17=CONICAL_SURFACE('',#1371,0.00235,1.02974425867665);
#18=CYLINDRICAL_SURFACE('',#1328,0.0017);
#19=CYLINDRICAL_SURFACE('',#1331,0.0017);
#20=CYLINDRICAL_SURFACE('',#1334,0.0017);
#21=CYLINDRICAL_SURFACE('',#1337,0.0017);
#22=CYLINDRICAL_SURFACE('',#1346,0.00125);
#23=CYLINDRICAL_SURFACE('',#1349,0.00125);
#24=CYLINDRICAL_SURFACE('',#1352,0.00125);
#25=CYLINDRICAL_SURFACE('',#1355,0.00125);
#26=CYLINDRICAL_SURFACE('',#1364,0.00235);
#27=CYLINDRICAL_SURFACE('',#1367,0.00235);
#28=CYLINDRICAL_SURFACE('',#1370,0.00235);
#29=CYLINDRICAL_SURFACE('',#1373,0.00235);
#30=CYLINDRICAL_SURFACE('',#1374,0.0028);
#31=CYLINDRICAL_SURFACE('',#1377,0.0028);
#32=CYLINDRICAL_SURFACE('',#1380,0.0028);
#33=CYLINDRICAL_SURFACE('',#1383,0.0028);
#34=CYLINDRICAL_SURFACE('',#1415,0.002);
#35=CYLINDRICAL_SURFACE('',#1418,0.002);
#36=CYLINDRICAL_SURFACE('',#1421,0.002);
#37=CYLINDRICAL_SURFACE('',#1424,0.002);
#38=CIRCLE('',#1314,0.00125);
#39=CIRCLE('',#1315,0.00125);
#40=CIRCLE('',#1316,0.00125);
#41=CIRCLE('',#1317,0.00125);
#42=CIRCLE('',#1324,0.0028);
#43=CIRCLE('',#1325,0.0028);
#44=CIRCLE('',#1326,0.0028);
#45=CIRCLE('',#1327,0.0028);
#46=CIRCLE('',#1329,0.0017);
#47=CIRCLE('',#1330,0.0017);
#48=CIRCLE('',#1332,0.0017);
#49=CIRCLE('',#1333,0.0017);
#50=CIRCLE('',#1335,0.0017);
#51=CIRCLE('',#1336,0.0017);
#52=CIRCLE('',#1338,0.0017);
#53=CIRCLE('',#1339,0.0017);
#54=CIRCLE('',#1347,0.00125);
#55=CIRCLE('',#1350,0.00125);
#56=CIRCLE('',#1353,0.00125);
#57=CIRCLE('',#1356,0.00125);
#58=CIRCLE('',#1358,0.00235);
#59=CIRCLE('',#1359,0.00235);
#60=CIRCLE('',#1360,0.00235);
#61=CIRCLE('',#1361,0.00235);
#62=CIRCLE('',#1363,0.00235);
#63=CIRCLE('',#1366,0.00235);
#64=CIRCLE('',#1369,0.00235);
#65=CIRCLE('',#1372,0.00235);
#66=CIRCLE('',#1375,0.0028);
#67=CIRCLE('',#1378,0.0028);
#68=CIRCLE('',#1381,0.0028);
#69=CIRCLE('',#1384,0.0028);
#70=CIRCLE('',#1388,0.0004);
#71=CIRCLE('',#1392,0.0004);
#72=CIRCLE('',#1399,0.002);
#73=CIRCLE('',#1400,0.002);
#74=CIRCLE('',#1401,0.002);
#75=CIRCLE('',#1402,0.002);
#76=CIRCLE('',#1416,0.002);
#77=CIRCLE('',#1419,0.002);
#78=CIRCLE('',#1422,0.002);
#79=CIRCLE('',#1425,0.002);
#80=ORIENTED_EDGE('',*,*,#424,.F.);
#81=ORIENTED_EDGE('',*,*,#425,.F.);
#82=ORIENTED_EDGE('',*,*,#426,.F.);
#83=ORIENTED_EDGE('',*,*,#427,.F.);
#84=ORIENTED_EDGE('',*,*,#428,.F.);
#85=ORIENTED_EDGE('',*,*,#429,.F.);
#86=ORIENTED_EDGE('',*,*,#430,.F.);
#87=ORIENTED_EDGE('',*,*,#431,.F.);
#88=ORIENTED_EDGE('',*,*,#432,.F.);
#89=ORIENTED_EDGE('',*,*,#433,.T.);
#90=ORIENTED_EDGE('',*,*,#434,.T.);
#91=ORIENTED_EDGE('',*,*,#435,.T.);
#92=ORIENTED_EDGE('',*,*,#436,.T.);
#93=ORIENTED_EDGE('',*,*,#437,.F.);
#94=ORIENTED_EDGE('',*,*,#438,.F.);
#95=ORIENTED_EDGE('',*,*,#439,.T.);
#96=ORIENTED_EDGE('',*,*,#440,.T.);
#97=ORIENTED_EDGE('',*,*,#441,.T.);
#98=ORIENTED_EDGE('',*,*,#442,.F.);
#99=ORIENTED_EDGE('',*,*,#443,.F.);
#100=ORIENTED_EDGE('',*,*,#444,.T.);
#101=ORIENTED_EDGE('',*,*,#445,.T.);
#102=ORIENTED_EDGE('',*,*,#446,.F.);
#103=ORIENTED_EDGE('',*,*,#447,.T.);
#104=ORIENTED_EDGE('',*,*,#448,.F.);
#105=ORIENTED_EDGE('',*,*,#449,.T.);
#106=ORIENTED_EDGE('',*,*,#450,.T.);
#107=ORIENTED_EDGE('',*,*,#451,.T.);
#108=ORIENTED_EDGE('',*,*,#434,.F.);
#109=ORIENTED_EDGE('',*,*,#452,.T.);
#110=ORIENTED_EDGE('',*,*,#453,.F.);
#111=ORIENTED_EDGE('',*,*,#454,.F.);
#112=ORIENTED_EDGE('',*,*,#450,.F.);
#113=ORIENTED_EDGE('',*,*,#455,.T.);
#114=ORIENTED_EDGE('',*,*,#456,.T.);
#115=ORIENTED_EDGE('',*,*,#457,.T.);
#116=ORIENTED_EDGE('',*,*,#456,.F.);
#117=ORIENTED_EDGE('',*,*,#458,.T.);
#118=ORIENTED_EDGE('',*,*,#432,.T.);
#119=ORIENTED_EDGE('',*,*,#459,.T.);
#120=ORIENTED_EDGE('',*,*,#460,.F.);
#121=ORIENTED_EDGE('',*,*,#446,.T.);
#122=ORIENTED_EDGE('',*,*,#461,.F.);
#123=ORIENTED_EDGE('',*,*,#462,.T.);
#124=ORIENTED_EDGE('',*,*,#436,.F.);
#125=ORIENTED_EDGE('',*,*,#463,.T.);
#126=ORIENTED_EDGE('',*,*,#464,.F.);
#127=ORIENTED_EDGE('',*,*,#465,.T.);
#128=ORIENTED_EDGE('',*,*,#466,.F.);
#129=ORIENTED_EDGE('',*,*,#467,.F.);
#130=ORIENTED_EDGE('',*,*,#468,.F.);
#131=ORIENTED_EDGE('',*,*,#469,.T.);
#132=ORIENTED_EDGE('',*,*,#470,.F.);
#133=ORIENTED_EDGE('',*,*,#462,.F.);
#134=ORIENTED_EDGE('',*,*,#471,.F.);
#135=ORIENTED_EDGE('',*,*,#472,.T.);
#136=ORIENTED_EDGE('',*,*,#473,.T.);
#137=ORIENTED_EDGE('',*,*,#474,.F.);
#138=ORIENTED_EDGE('',*,*,#475,.F.);
#139=ORIENTED_EDGE('',*,*,#476,.F.);
#140=ORIENTED_EDGE('',*,*,#477,.F.);
#141=ORIENTED_EDGE('',*,*,#478,.F.);
#142=ORIENTED_EDGE('',*,*,#479,.F.);
#143=ORIENTED_EDGE('',*,*,#480,.F.);
#144=ORIENTED_EDGE('',*,*,#481,.F.);
#145=ORIENTED_EDGE('',*,*,#482,.F.);
#146=ORIENTED_EDGE('',*,*,#483,.F.);
#147=ORIENTED_EDGE('',*,*,#484,.T.);
#148=ORIENTED_EDGE('',*,*,#485,.F.);
#149=ORIENTED_EDGE('',*,*,#486,.F.);
#150=ORIENTED_EDGE('',*,*,#487,.T.);
#151=ORIENTED_EDGE('',*,*,#464,.T.);
#152=ORIENTED_EDGE('',*,*,#488,.T.);
#153=ORIENTED_EDGE('',*,*,#489,.T.);
#154=ORIENTED_EDGE('',*,*,#490,.T.);
#155=ORIENTED_EDGE('',*,*,#491,.T.);
#156=ORIENTED_EDGE('',*,*,#492,.T.);
#157=ORIENTED_EDGE('',*,*,#493,.T.);
#158=ORIENTED_EDGE('',*,*,#494,.T.);
#159=ORIENTED_EDGE('',*,*,#495,.T.);
#160=ORIENTED_EDGE('',*,*,#496,.F.);
#161=ORIENTED_EDGE('',*,*,#497,.F.);
#162=ORIENTED_EDGE('',*,*,#498,.F.);
#163=ORIENTED_EDGE('',*,*,#499,.T.);
#164=ORIENTED_EDGE('',*,*,#500,.F.);
#165=ORIENTED_EDGE('',*,*,#499,.F.);
#166=ORIENTED_EDGE('',*,*,#501,.F.);
#167=ORIENTED_EDGE('',*,*,#467,.T.);
#168=ORIENTED_EDGE('',*,*,#502,.F.);
#169=ORIENTED_EDGE('',*,*,#469,.F.);
#170=ORIENTED_EDGE('',*,*,#503,.F.);
#171=ORIENTED_EDGE('',*,*,#497,.T.);
#172=ORIENTED_EDGE('',*,*,#504,.F.);
#173=ORIENTED_EDGE('',*,*,#442,.T.);
#174=ORIENTED_EDGE('',*,*,#505,.F.);
#175=ORIENTED_EDGE('',*,*,#474,.T.);
#176=ORIENTED_EDGE('',*,*,#506,.F.);
#177=ORIENTED_EDGE('',*,*,#440,.F.);
#178=ORIENTED_EDGE('',*,*,#507,.T.);
#179=ORIENTED_EDGE('',*,*,#508,.T.);
#180=ORIENTED_EDGE('',*,*,#484,.F.);
#181=ORIENTED_EDGE('',*,*,#509,.T.);
#182=ORIENTED_EDGE('',*,*,#510,.T.);
#183=ORIENTED_EDGE('',*,*,#511,.F.);
#184=ORIENTED_EDGE('',*,*,#424,.T.);
#185=ORIENTED_EDGE('',*,*,#512,.T.);
#186=ORIENTED_EDGE('',*,*,#513,.T.);
#187=ORIENTED_EDGE('',*,*,#514,.F.);
#188=ORIENTED_EDGE('',*,*,#425,.T.);
#189=ORIENTED_EDGE('',*,*,#511,.T.);
#190=ORIENTED_EDGE('',*,*,#515,.T.);
#191=ORIENTED_EDGE('',*,*,#516,.F.);
#192=ORIENTED_EDGE('',*,*,#426,.T.);
#193=ORIENTED_EDGE('',*,*,#514,.T.);
#194=ORIENTED_EDGE('',*,*,#517,.T.);
#195=ORIENTED_EDGE('',*,*,#518,.F.);
#196=ORIENTED_EDGE('',*,*,#427,.T.);
#197=ORIENTED_EDGE('',*,*,#516,.T.);
#198=ORIENTED_EDGE('',*,*,#519,.T.);
#199=ORIENTED_EDGE('',*,*,#520,.F.);
#200=ORIENTED_EDGE('',*,*,#428,.T.);
#201=ORIENTED_EDGE('',*,*,#518,.T.);
#202=ORIENTED_EDGE('',*,*,#521,.T.);
#203=ORIENTED_EDGE('',*,*,#522,.F.);
#204=ORIENTED_EDGE('',*,*,#429,.T.);
#205=ORIENTED_EDGE('',*,*,#520,.T.);
#206=ORIENTED_EDGE('',*,*,#523,.T.);
#207=ORIENTED_EDGE('',*,*,#524,.F.);
#208=ORIENTED_EDGE('',*,*,#430,.T.);
#209=ORIENTED_EDGE('',*,*,#522,.T.);
#210=ORIENTED_EDGE('',*,*,#525,.T.);
#211=ORIENTED_EDGE('',*,*,#512,.F.);
#212=ORIENTED_EDGE('',*,*,#431,.T.);
#213=ORIENTED_EDGE('',*,*,#524,.T.);
#214=ORIENTED_EDGE('',*,*,#526,.T.);
#215=ORIENTED_EDGE('',*,*,#527,.T.);
#216=ORIENTED_EDGE('',*,*,#528,.T.);
#217=ORIENTED_EDGE('',*,*,#529,.T.);
#218=ORIENTED_EDGE('',*,*,#498,.T.);
#219=ORIENTED_EDGE('',*,*,#503,.T.);
#220=ORIENTED_EDGE('',*,*,#468,.T.);
#221=ORIENTED_EDGE('',*,*,#501,.T.);
#222=ORIENTED_EDGE('',*,*,#494,.F.);
#223=ORIENTED_EDGE('',*,*,#530,.F.);
#224=ORIENTED_EDGE('',*,*,#530,.T.);
#225=ORIENTED_EDGE('',*,*,#529,.F.);
#226=ORIENTED_EDGE('',*,*,#492,.F.);
#227=ORIENTED_EDGE('',*,*,#531,.F.);
#228=ORIENTED_EDGE('',*,*,#531,.T.);
#229=ORIENTED_EDGE('',*,*,#528,.F.);
#230=ORIENTED_EDGE('',*,*,#490,.F.);
#231=ORIENTED_EDGE('',*,*,#532,.F.);
#232=ORIENTED_EDGE('',*,*,#532,.T.);
#233=ORIENTED_EDGE('',*,*,#527,.F.);
#234=ORIENTED_EDGE('',*,*,#488,.F.);
#235=ORIENTED_EDGE('',*,*,#533,.F.);
#236=ORIENTED_EDGE('',*,*,#533,.T.);
#237=ORIENTED_EDGE('',*,*,#526,.F.);
#238=ORIENTED_EDGE('',*,*,#482,.T.);
#239=ORIENTED_EDGE('',*,*,#534,.F.);
#240=ORIENTED_EDGE('',*,*,#535,.F.);
#241=ORIENTED_EDGE('',*,*,#536,.T.);
#242=ORIENTED_EDGE('',*,*,#481,.T.);
#243=ORIENTED_EDGE('',*,*,#537,.F.);
#244=ORIENTED_EDGE('',*,*,#538,.F.);
#245=ORIENTED_EDGE('',*,*,#534,.T.);
#246=ORIENTED_EDGE('',*,*,#480,.T.);
#247=ORIENTED_EDGE('',*,*,#539,.F.);
#248=ORIENTED_EDGE('',*,*,#540,.F.);
#249=ORIENTED_EDGE('',*,*,#537,.T.);
#250=ORIENTED_EDGE('',*,*,#479,.T.);
#251=ORIENTED_EDGE('',*,*,#541,.F.);
#252=ORIENTED_EDGE('',*,*,#542,.F.);
#253=ORIENTED_EDGE('',*,*,#539,.T.);
#254=ORIENTED_EDGE('',*,*,#478,.T.);
#255=ORIENTED_EDGE('',*,*,#543,.F.);
#256=ORIENTED_EDGE('',*,*,#544,.F.);
#257=ORIENTED_EDGE('',*,*,#541,.T.);
#258=ORIENTED_EDGE('',*,*,#477,.T.);
#259=ORIENTED_EDGE('',*,*,#545,.F.);
#260=ORIENTED_EDGE('',*,*,#546,.F.);
#261=ORIENTED_EDGE('',*,*,#543,.T.);
#262=ORIENTED_EDGE('',*,*,#476,.T.);
#263=ORIENTED_EDGE('',*,*,#547,.F.);
#264=ORIENTED_EDGE('',*,*,#548,.F.);
#265=ORIENTED_EDGE('',*,*,#545,.T.);
#266=ORIENTED_EDGE('',*,*,#513,.F.);
#267=ORIENTED_EDGE('',*,*,#510,.F.);
#268=ORIENTED_EDGE('',*,*,#525,.F.);
#269=ORIENTED_EDGE('',*,*,#523,.F.);
#270=ORIENTED_EDGE('',*,*,#521,.F.);
#271=ORIENTED_EDGE('',*,*,#519,.F.);
#272=ORIENTED_EDGE('',*,*,#517,.F.);
#273=ORIENTED_EDGE('',*,*,#515,.F.);
#274=ORIENTED_EDGE('',*,*,#549,.T.);
#275=ORIENTED_EDGE('',*,*,#535,.T.);
#276=ORIENTED_EDGE('',*,*,#538,.T.);
#277=ORIENTED_EDGE('',*,*,#540,.T.);
#278=ORIENTED_EDGE('',*,*,#542,.T.);
#279=ORIENTED_EDGE('',*,*,#544,.T.);
#280=ORIENTED_EDGE('',*,*,#546,.T.);
#281=ORIENTED_EDGE('',*,*,#548,.T.);
#282=ORIENTED_EDGE('',*,*,#549,.F.);
#283=ORIENTED_EDGE('',*,*,#547,.T.);
#284=ORIENTED_EDGE('',*,*,#475,.T.);
#285=ORIENTED_EDGE('',*,*,#505,.T.);
#286=ORIENTED_EDGE('',*,*,#441,.F.);
#287=ORIENTED_EDGE('',*,*,#509,.F.);
#288=ORIENTED_EDGE('',*,*,#483,.T.);
#289=ORIENTED_EDGE('',*,*,#536,.F.);
#290=ORIENTED_EDGE('',*,*,#508,.F.);
#291=ORIENTED_EDGE('',*,*,#550,.T.);
#292=ORIENTED_EDGE('',*,*,#507,.F.);
#293=ORIENTED_EDGE('',*,*,#439,.F.);
#294=ORIENTED_EDGE('',*,*,#551,.T.);
#295=ORIENTED_EDGE('',*,*,#485,.T.);
#296=ORIENTED_EDGE('',*,*,#465,.F.);
#297=ORIENTED_EDGE('',*,*,#487,.F.);
#298=ORIENTED_EDGE('',*,*,#552,.T.);
#299=ORIENTED_EDGE('',*,*,#437,.T.);
#300=ORIENTED_EDGE('',*,*,#551,.F.);
#301=ORIENTED_EDGE('',*,*,#438,.T.);
#302=ORIENTED_EDGE('',*,*,#552,.F.);
#303=ORIENTED_EDGE('',*,*,#486,.T.);
#304=ORIENTED_EDGE('',*,*,#504,.T.);
#305=ORIENTED_EDGE('',*,*,#553,.T.);
#306=ORIENTED_EDGE('',*,*,#506,.T.);
#307=ORIENTED_EDGE('',*,*,#473,.F.);
#308=ORIENTED_EDGE('',*,*,#554,.F.);
#309=ORIENTED_EDGE('',*,*,#443,.T.);
#310=ORIENTED_EDGE('',*,*,#461,.T.);
#311=ORIENTED_EDGE('',*,*,#445,.F.);
#312=ORIENTED_EDGE('',*,*,#555,.F.);
#313=ORIENTED_EDGE('',*,*,#471,.T.);
#314=ORIENTED_EDGE('',*,*,#554,.T.);
#315=ORIENTED_EDGE('',*,*,#472,.F.);
#316=ORIENTED_EDGE('',*,*,#555,.T.);
#317=ORIENTED_EDGE('',*,*,#444,.F.);
#318=ORIENTED_EDGE('',*,*,#553,.F.);
#319=ORIENTED_EDGE('',*,*,#550,.F.);
#320=ORIENTED_EDGE('',*,*,#489,.F.);
#321=ORIENTED_EDGE('',*,*,#491,.F.);
#322=ORIENTED_EDGE('',*,*,#493,.F.);
#323=ORIENTED_EDGE('',*,*,#495,.F.);
#324=ORIENTED_EDGE('',*,*,#435,.F.);
#325=ORIENTED_EDGE('',*,*,#451,.F.);
#326=ORIENTED_EDGE('',*,*,#457,.F.);
#327=ORIENTED_EDGE('',*,*,#459,.F.);
#328=ORIENTED_EDGE('',*,*,#447,.F.);
#329=ORIENTED_EDGE('',*,*,#460,.T.);
#330=ORIENTED_EDGE('',*,*,#470,.T.);
#331=ORIENTED_EDGE('',*,*,#502,.T.);
#332=ORIENTED_EDGE('',*,*,#496,.T.);
#333=ORIENTED_EDGE('',*,*,#500,.T.);
#334=ORIENTED_EDGE('',*,*,#466,.T.);
#335=ORIENTED_EDGE('',*,*,#463,.F.);
#336=ORIENTED_EDGE('',*,*,#556,.F.);
#337=ORIENTED_EDGE('',*,*,#557,.F.);
#338=ORIENTED_EDGE('',*,*,#558,.F.);
#339=ORIENTED_EDGE('',*,*,#559,.F.);
#340=ORIENTED_EDGE('',*,*,#449,.F.);
#341=ORIENTED_EDGE('',*,*,#560,.T.);
#342=ORIENTED_EDGE('',*,*,#561,.T.);
#343=ORIENTED_EDGE('',*,*,#562,.F.);
#344=ORIENTED_EDGE('',*,*,#563,.F.);
#345=ORIENTED_EDGE('',*,*,#564,.T.);
#346=ORIENTED_EDGE('',*,*,#565,.F.);
#347=ORIENTED_EDGE('',*,*,#566,.F.);
#348=ORIENTED_EDGE('',*,*,#567,.F.);
#349=ORIENTED_EDGE('',*,*,#568,.F.);
#350=ORIENTED_EDGE('',*,*,#569,.F.);
#351=ORIENTED_EDGE('',*,*,#570,.T.);
#352=ORIENTED_EDGE('',*,*,#452,.F.);
#353=ORIENTED_EDGE('',*,*,#433,.F.);
#354=ORIENTED_EDGE('',*,*,#458,.F.);
#355=ORIENTED_EDGE('',*,*,#455,.F.);
#356=ORIENTED_EDGE('',*,*,#560,.F.);
#357=ORIENTED_EDGE('',*,*,#448,.T.);
#358=ORIENTED_EDGE('',*,*,#571,.T.);
#359=ORIENTED_EDGE('',*,*,#572,.T.);
#360=ORIENTED_EDGE('',*,*,#573,.T.);
#361=ORIENTED_EDGE('',*,*,#453,.T.);
#362=ORIENTED_EDGE('',*,*,#570,.F.);
#363=ORIENTED_EDGE('',*,*,#574,.F.);
#364=ORIENTED_EDGE('',*,*,#569,.T.);
#365=ORIENTED_EDGE('',*,*,#575,.F.);
#366=ORIENTED_EDGE('',*,*,#576,.F.);
#367=ORIENTED_EDGE('',*,*,#574,.T.);
#368=ORIENTED_EDGE('',*,*,#568,.T.);
#369=ORIENTED_EDGE('',*,*,#577,.F.);
#370=ORIENTED_EDGE('',*,*,#578,.F.);
#371=ORIENTED_EDGE('',*,*,#575,.T.);
#372=ORIENTED_EDGE('',*,*,#567,.T.);
#373=ORIENTED_EDGE('',*,*,#579,.F.);
#374=ORIENTED_EDGE('',*,*,#580,.F.);
#375=ORIENTED_EDGE('',*,*,#577,.T.);
#376=ORIENTED_EDGE('',*,*,#566,.T.);
#377=ORIENTED_EDGE('',*,*,#581,.F.);
#378=ORIENTED_EDGE('',*,*,#582,.F.);
#379=ORIENTED_EDGE('',*,*,#579,.T.);
#380=ORIENTED_EDGE('',*,*,#565,.T.);
#381=ORIENTED_EDGE('',*,*,#583,.F.);
#382=ORIENTED_EDGE('',*,*,#584,.F.);
#383=ORIENTED_EDGE('',*,*,#581,.T.);
#384=ORIENTED_EDGE('',*,*,#564,.F.);
#385=ORIENTED_EDGE('',*,*,#585,.F.);
#386=ORIENTED_EDGE('',*,*,#586,.T.);
#387=ORIENTED_EDGE('',*,*,#583,.T.);
#388=ORIENTED_EDGE('',*,*,#563,.T.);
#389=ORIENTED_EDGE('',*,*,#587,.F.);
#390=ORIENTED_EDGE('',*,*,#588,.F.);
#391=ORIENTED_EDGE('',*,*,#585,.T.);
#392=ORIENTED_EDGE('',*,*,#562,.T.);
#393=ORIENTED_EDGE('',*,*,#589,.F.);
#394=ORIENTED_EDGE('',*,*,#590,.F.);
#395=ORIENTED_EDGE('',*,*,#587,.T.);
#396=ORIENTED_EDGE('',*,*,#561,.F.);
#397=ORIENTED_EDGE('',*,*,#572,.F.);
#398=ORIENTED_EDGE('',*,*,#591,.T.);
#399=ORIENTED_EDGE('',*,*,#589,.T.);
#400=ORIENTED_EDGE('',*,*,#571,.F.);
#401=ORIENTED_EDGE('',*,*,#454,.T.);
#402=ORIENTED_EDGE('',*,*,#573,.F.);
#403=ORIENTED_EDGE('',*,*,#576,.T.);
#404=ORIENTED_EDGE('',*,*,#578,.T.);
#405=ORIENTED_EDGE('',*,*,#580,.T.);
#406=ORIENTED_EDGE('',*,*,#582,.T.);
#407=ORIENTED_EDGE('',*,*,#584,.T.);
#408=ORIENTED_EDGE('',*,*,#586,.F.);
#409=ORIENTED_EDGE('',*,*,#588,.T.);
#410=ORIENTED_EDGE('',*,*,#590,.T.);
#411=ORIENTED_EDGE('',*,*,#591,.F.);
#412=ORIENTED_EDGE('',*,*,#592,.F.);
#413=ORIENTED_EDGE('',*,*,#559,.T.);
#414=ORIENTED_EDGE('',*,*,#592,.T.);
#415=ORIENTED_EDGE('',*,*,#593,.F.);
#416=ORIENTED_EDGE('',*,*,#558,.T.);
#417=ORIENTED_EDGE('',*,*,#593,.T.);
#418=ORIENTED_EDGE('',*,*,#594,.F.);
#419=ORIENTED_EDGE('',*,*,#557,.T.);
#420=ORIENTED_EDGE('',*,*,#594,.T.);
#421=ORIENTED_EDGE('',*,*,#595,.F.);
#422=ORIENTED_EDGE('',*,*,#556,.T.);
#423=ORIENTED_EDGE('',*,*,#595,.T.);
#424=EDGE_CURVE('',#596,#597,#718,.T.);
#425=EDGE_CURVE('',#598,#596,#38,.T.);
#426=EDGE_CURVE('',#599,#598,#719,.T.);
#427=EDGE_CURVE('',#600,#599,#39,.T.);
#428=EDGE_CURVE('',#601,#600,#720,.T.);
#429=EDGE_CURVE('',#602,#601,#40,.T.);
#430=EDGE_CURVE('',#603,#602,#721,.T.);
#431=EDGE_CURVE('',#597,#603,#41,.T.);
#432=EDGE_CURVE('',#604,#605,#722,.T.);
#433=EDGE_CURVE('',#604,#606,#723,.T.);
#434=EDGE_CURVE('',#606,#607,#724,.T.);
#435=EDGE_CURVE('',#607,#608,#725,.T.);
#436=EDGE_CURVE('',#608,#609,#726,.T.);
#437=EDGE_CURVE('',#610,#609,#727,.T.);
#438=EDGE_CURVE('',#611,#610,#728,.T.);
#439=EDGE_CURVE('',#611,#612,#729,.F.);
#440=EDGE_CURVE('',#612,#613,#730,.T.);
#441=EDGE_CURVE('',#613,#614,#731,.T.);
#442=EDGE_CURVE('',#615,#614,#732,.T.);
#443=EDGE_CURVE('',#616,#615,#733,.T.);
#444=EDGE_CURVE('',#616,#617,#734,.T.);
#445=EDGE_CURVE('',#617,#618,#735,.T.);
#446=EDGE_CURVE('',#619,#618,#736,.T.);
#447=EDGE_CURVE('',#619,#605,#737,.T.);
#448=EDGE_CURVE('',#620,#621,#738,.T.);
#449=EDGE_CURVE('',#620,#622,#739,.T.);
#450=EDGE_CURVE('',#622,#623,#740,.T.);
#451=EDGE_CURVE('',#623,#607,#741,.T.);
#452=EDGE_CURVE('',#606,#624,#742,.T.);
#453=EDGE_CURVE('',#625,#624,#743,.T.);
#454=EDGE_CURVE('',#621,#625,#744,.T.);
#455=EDGE_CURVE('',#622,#626,#745,.T.);
#456=EDGE_CURVE('',#626,#627,#746,.T.);
#457=EDGE_CURVE('',#627,#623,#747,.T.);
#458=EDGE_CURVE('',#626,#604,#748,.T.);
#459=EDGE_CURVE('',#605,#627,#749,.T.);
#460=EDGE_CURVE('',#619,#628,#750,.T.);
#461=EDGE_CURVE('',#629,#618,#751,.T.);
#462=EDGE_CURVE('',#629,#628,#752,.T.);
#463=EDGE_CURVE('',#608,#630,#753,.T.);
#464=EDGE_CURVE('',#631,#630,#754,.T.);
#465=EDGE_CURVE('',#631,#609,#755,.T.);
#466=EDGE_CURVE('',#632,#630,#756,.T.);
#467=EDGE_CURVE('',#633,#632,#757,.T.);
#468=EDGE_CURVE('',#634,#633,#758,.T.);
#469=EDGE_CURVE('',#634,#635,#759,.T.);
#470=EDGE_CURVE('',#628,#635,#760,.T.);
#471=EDGE_CURVE('',#636,#629,#761,.T.);
#472=EDGE_CURVE('',#636,#637,#762,.F.);
#473=EDGE_CURVE('',#637,#638,#763,.T.);
#474=EDGE_CURVE('',#639,#638,#764,.T.);
#475=EDGE_CURVE('',#640,#639,#765,.T.);
#476=EDGE_CURVE('',#641,#640,#42,.T.);
#477=EDGE_CURVE('',#642,#641,#766,.T.);
#478=EDGE_CURVE('',#643,#642,#43,.T.);
#479=EDGE_CURVE('',#644,#643,#767,.T.);
#480=EDGE_CURVE('',#645,#644,#44,.T.);
#481=EDGE_CURVE('',#646,#645,#768,.T.);
#482=EDGE_CURVE('',#647,#646,#45,.T.);
#483=EDGE_CURVE('',#648,#647,#769,.T.);
#484=EDGE_CURVE('',#648,#649,#770,.T.);
#485=EDGE_CURVE('',#650,#649,#771,.T.);
#486=EDGE_CURVE('',#651,#650,#772,.T.);
#487=EDGE_CURVE('',#651,#631,#773,.F.);
#488=EDGE_CURVE('',#652,#652,#46,.T.);
#489=EDGE_CURVE('',#653,#653,#47,.T.);
#490=EDGE_CURVE('',#654,#654,#48,.T.);
#491=EDGE_CURVE('',#655,#655,#49,.T.);
#492=EDGE_CURVE('',#656,#656,#50,.T.);
#493=EDGE_CURVE('',#657,#657,#51,.T.);
#494=EDGE_CURVE('',#658,#658,#52,.T.);
#495=EDGE_CURVE('',#659,#659,#53,.T.);
#496=EDGE_CURVE('',#660,#661,#774,.T.);
#497=EDGE_CURVE('',#662,#660,#775,.T.);
#498=EDGE_CURVE('',#663,#662,#776,.T.);
#499=EDGE_CURVE('',#663,#661,#777,.T.);
#500=EDGE_CURVE('',#661,#632,#778,.T.);
#501=EDGE_CURVE('',#633,#663,#779,.T.);
#502=EDGE_CURVE('',#635,#660,#780,.T.);
#503=EDGE_CURVE('',#662,#634,#781,.T.);
#504=EDGE_CURVE('',#615,#664,#782,.T.);
#505=EDGE_CURVE('',#639,#614,#783,.T.);
#506=EDGE_CURVE('',#664,#638,#784,.T.);
#507=EDGE_CURVE('',#612,#665,#785,.T.);
#508=EDGE_CURVE('',#665,#649,#786,.T.);
#509=EDGE_CURVE('',#648,#613,#787,.T.);
#510=EDGE_CURVE('',#666,#667,#788,.T.);
#511=EDGE_CURVE('',#596,#667,#789,.T.);
#512=EDGE_CURVE('',#597,#666,#790,.T.);
#513=EDGE_CURVE('',#667,#668,#54,.T.);
#514=EDGE_CURVE('',#598,#668,#791,.T.);
#515=EDGE_CURVE('',#668,#669,#792,.T.);
#516=EDGE_CURVE('',#599,#669,#793,.T.);
#517=EDGE_CURVE('',#669,#670,#55,.T.);
#518=EDGE_CURVE('',#600,#670,#794,.T.);
#519=EDGE_CURVE('',#670,#671,#795,.T.);
#520=EDGE_CURVE('',#601,#671,#796,.T.);
#521=EDGE_CURVE('',#671,#672,#56,.T.);
#522=EDGE_CURVE('',#602,#672,#797,.T.);
#523=EDGE_CURVE('',#672,#673,#798,.T.);
#524=EDGE_CURVE('',#603,#673,#799,.T.);
#525=EDGE_CURVE('',#673,#666,#57,.T.);
#526=EDGE_CURVE('',#674,#674,#58,.T.);
#527=EDGE_CURVE('',#675,#675,#59,.T.);
#528=EDGE_CURVE('',#676,#676,#60,.T.);
#529=EDGE_CURVE('',#677,#677,#61,.T.);
#530=EDGE_CURVE('',#678,#678,#62,.T.);
#531=EDGE_CURVE('',#679,#679,#63,.T.);
#532=EDGE_CURVE('',#680,#680,#64,.T.);
#533=EDGE_CURVE('',#681,#681,#65,.T.);
#534=EDGE_CURVE('',#682,#646,#800,.T.);
#535=EDGE_CURVE('',#683,#682,#66,.T.);
#536=EDGE_CURVE('',#683,#647,#801,.T.);
#537=EDGE_CURVE('',#684,#645,#802,.T.);
#538=EDGE_CURVE('',#682,#684,#803,.T.);
#539=EDGE_CURVE('',#685,#644,#804,.T.);
#540=EDGE_CURVE('',#684,#685,#67,.T.);
#541=EDGE_CURVE('',#686,#643,#805,.T.);
#542=EDGE_CURVE('',#685,#686,#806,.T.);
#543=EDGE_CURVE('',#687,#642,#807,.T.);
#544=EDGE_CURVE('',#686,#687,#68,.T.);
#545=EDGE_CURVE('',#688,#641,#808,.T.);
#546=EDGE_CURVE('',#687,#688,#809,.T.);
#547=EDGE_CURVE('',#689,#640,#810,.T.);
#548=EDGE_CURVE('',#688,#689,#69,.T.);
#549=EDGE_CURVE('',#689,#683,#811,.T.);
#550=EDGE_CURVE('',#665,#665,#70,.T.);
#551=EDGE_CURVE('',#611,#650,#812,.T.);
#552=EDGE_CURVE('',#651,#610,#813,.T.);
#553=EDGE_CURVE('',#664,#664,#71,.T.);
#554=EDGE_CURVE('',#616,#637,#814,.T.);
#555=EDGE_CURVE('',#636,#617,#815,.T.);
#556=EDGE_CURVE('',#690,#690,#72,.F.);
#557=EDGE_CURVE('',#691,#691,#73,.F.);
#558=EDGE_CURVE('',#692,#692,#74,.F.);
#559=EDGE_CURVE('',#693,#693,#75,.F.);
#560=EDGE_CURVE('',#620,#694,#816,.T.);
#561=EDGE_CURVE('',#694,#695,#817,.T.);
#562=EDGE_CURVE('',#696,#695,#818,.T.);
#563=EDGE_CURVE('',#697,#696,#819,.T.);
#564=EDGE_CURVE('',#697,#698,#820,.T.);
#565=EDGE_CURVE('',#699,#698,#821,.T.);
#566=EDGE_CURVE('',#700,#699,#822,.T.);
#567=EDGE_CURVE('',#701,#700,#823,.T.);
#568=EDGE_CURVE('',#702,#701,#824,.T.);
#569=EDGE_CURVE('',#703,#702,#825,.T.);
#570=EDGE_CURVE('',#703,#624,#826,.T.);
#571=EDGE_CURVE('',#621,#704,#827,.T.);
#572=EDGE_CURVE('',#704,#694,#828,.T.);
#573=EDGE_CURVE('',#705,#625,#829,.T.);
#574=EDGE_CURVE('',#705,#703,#830,.T.);
#575=EDGE_CURVE('',#706,#702,#831,.T.);
#576=EDGE_CURVE('',#705,#706,#832,.T.);
#577=EDGE_CURVE('',#707,#701,#833,.T.);
#578=EDGE_CURVE('',#706,#707,#834,.T.);
#579=EDGE_CURVE('',#708,#700,#835,.T.);
#580=EDGE_CURVE('',#707,#708,#836,.T.);
#581=EDGE_CURVE('',#709,#699,#837,.T.);
#582=EDGE_CURVE('',#708,#709,#838,.T.);
#583=EDGE_CURVE('',#710,#698,#839,.T.);
#584=EDGE_CURVE('',#709,#710,#840,.T.);
#585=EDGE_CURVE('',#711,#697,#841,.T.);
#586=EDGE_CURVE('',#711,#710,#842,.T.);
#587=EDGE_CURVE('',#712,#696,#843,.T.);
#588=EDGE_CURVE('',#711,#712,#844,.T.);
#589=EDGE_CURVE('',#713,#695,#845,.T.);
#590=EDGE_CURVE('',#712,#713,#846,.T.);
#591=EDGE_CURVE('',#704,#713,#847,.T.);
#592=EDGE_CURVE('',#714,#714,#76,.T.);
#593=EDGE_CURVE('',#715,#715,#77,.T.);
#594=EDGE_CURVE('',#716,#716,#78,.T.);
#595=EDGE_CURVE('',#717,#717,#79,.T.);
#596=VERTEX_POINT('',#1790);
#597=VERTEX_POINT('',#1791);
#598=VERTEX_POINT('',#1793);
#599=VERTEX_POINT('',#1795);
#600=VERTEX_POINT('',#1797);
#601=VERTEX_POINT('',#1799);
#602=VERTEX_POINT('',#1801);
#603=VERTEX_POINT('',#1803);
#604=VERTEX_POINT('',#1806);
#605=VERTEX_POINT('',#1807);
#606=VERTEX_POINT('',#1809);
#607=VERTEX_POINT('',#1811);
#608=VERTEX_POINT('',#1813);
#609=VERTEX_POINT('',#1815);
#610=VERTEX_POINT('',#1817);
#611=VERTEX_POINT('',#1819);
#612=VERTEX_POINT('',#1821);
#613=VERTEX_POINT('',#1823);
#614=VERTEX_POINT('',#1825);
#615=VERTEX_POINT('',#1827);
#616=VERTEX_POINT('',#1829);
#617=VERTEX_POINT('',#1831);
#618=VERTEX_POINT('',#1833);
#619=VERTEX_POINT('',#1835);
#620=VERTEX_POINT('',#1839);
#621=VERTEX_POINT('',#1840);
#622=VERTEX_POINT('',#1842);
#623=VERTEX_POINT('',#1844);
#624=VERTEX_POINT('',#1847);
#625=VERTEX_POINT('',#1849);
#626=VERTEX_POINT('',#1853);
#627=VERTEX_POINT('',#1855);
#628=VERTEX_POINT('',#1862);
#629=VERTEX_POINT('',#1864);
#630=VERTEX_POINT('',#1868);
#631=VERTEX_POINT('',#1870);
#632=VERTEX_POINT('',#1874);
#633=VERTEX_POINT('',#1876);
#634=VERTEX_POINT('',#1878);
#635=VERTEX_POINT('',#1880);
#636=VERTEX_POINT('',#1883);
#637=VERTEX_POINT('',#1885);
#638=VERTEX_POINT('',#1887);
#639=VERTEX_POINT('',#1889);
#640=VERTEX_POINT('',#1891);
#641=VERTEX_POINT('',#1893);
#642=VERTEX_POINT('',#1895);
#643=VERTEX_POINT('',#1897);
#644=VERTEX_POINT('',#1899);
#645=VERTEX_POINT('',#1901);
#646=VERTEX_POINT('',#1903);
#647=VERTEX_POINT('',#1905);
#648=VERTEX_POINT('',#1907);
#649=VERTEX_POINT('',#1909);
#650=VERTEX_POINT('',#1911);
#651=VERTEX_POINT('',#1913);
#652=VERTEX_POINT('',#1917);
#653=VERTEX_POINT('',#1919);
#654=VERTEX_POINT('',#1922);
#655=VERTEX_POINT('',#1924);
#656=VERTEX_POINT('',#1927);
#657=VERTEX_POINT('',#1929);
#658=VERTEX_POINT('',#1932);
#659=VERTEX_POINT('',#1934);
#660=VERTEX_POINT('',#1937);
#661=VERTEX_POINT('',#1938);
#662=VERTEX_POINT('',#1940);
#663=VERTEX_POINT('',#1942);
#664=VERTEX_POINT('',#1952);
#665=VERTEX_POINT('',#1957);
#666=VERTEX_POINT('',#1962);
#667=VERTEX_POINT('',#1963);
#668=VERTEX_POINT('',#1968);
#669=VERTEX_POINT('',#1972);
#670=VERTEX_POINT('',#1976);
#671=VERTEX_POINT('',#1980);
#672=VERTEX_POINT('',#1984);
#673=VERTEX_POINT('',#1988);
#674=VERTEX_POINT('',#1994);
#675=VERTEX_POINT('',#1996);
#676=VERTEX_POINT('',#1998);
#677=VERTEX_POINT('',#2000);
#678=VERTEX_POINT('',#2003);
#679=VERTEX_POINT('',#2007);
#680=VERTEX_POINT('',#2011);
#681=VERTEX_POINT('',#2015);
#682=VERTEX_POINT('',#2019);
#683=VERTEX_POINT('',#2021);
#684=VERTEX_POINT('',#2025);
#685=VERTEX_POINT('',#2029);
#686=VERTEX_POINT('',#2033);
#687=VERTEX_POINT('',#2037);
#688=VERTEX_POINT('',#2041);
#689=VERTEX_POINT('',#2045);
#690=VERTEX_POINT('',#2067);
#691=VERTEX_POINT('',#2069);
#692=VERTEX_POINT('',#2071);
#693=VERTEX_POINT('',#2073);
#694=VERTEX_POINT('',#2075);
#695=VERTEX_POINT('',#2077);
#696=VERTEX_POINT('',#2079);
#697=VERTEX_POINT('',#2081);
#698=VERTEX_POINT('',#2083);
#699=VERTEX_POINT('',#2085);
#700=VERTEX_POINT('',#2087);
#701=VERTEX_POINT('',#2089);
#702=VERTEX_POINT('',#2091);
#703=VERTEX_POINT('',#2093);
#704=VERTEX_POINT('',#2097);
#705=VERTEX_POINT('',#2101);
#706=VERTEX_POINT('',#2105);
#707=VERTEX_POINT('',#2109);
#708=VERTEX_POINT('',#2113);
#709=VERTEX_POINT('',#2117);
#710=VERTEX_POINT('',#2121);
#711=VERTEX_POINT('',#2125);
#712=VERTEX_POINT('',#2129);
#713=VERTEX_POINT('',#2133);
#714=VERTEX_POINT('',#2140);
#715=VERTEX_POINT('',#2144);
#716=VERTEX_POINT('',#2148);
#717=VERTEX_POINT('',#2152);
#718=LINE('',#1789,#848);
#719=LINE('',#1794,#849);
#720=LINE('',#1798,#850);
#721=LINE('',#1802,#851);
#722=LINE('',#1805,#852);
#723=LINE('',#1808,#853);
#724=LINE('',#1810,#854);
#725=LINE('',#1812,#855);
#726=LINE('',#1814,#856);
#727=LINE('',#1816,#857);
#728=LINE('',#1818,#858);
#729=LINE('',#1820,#859);
#730=LINE('',#1822,#860);
#731=LINE('',#1824,#861);
#732=LINE('',#1826,#862);
#733=LINE('',#1828,#863);
#734=LINE('',#1830,#864);
#735=LINE('',#1832,#865);
#736=LINE('',#1834,#866);
#737=LINE('',#1836,#867);
#738=LINE('',#1838,#868);
#739=LINE('',#1841,#869);
#740=LINE('',#1843,#870);
#741=LINE('',#1845,#871);
#742=LINE('',#1846,#872);
#743=LINE('',#1848,#873);
#744=LINE('',#1850,#874);
#745=LINE('',#1852,#875);
#746=LINE('',#1854,#876);
#747=LINE('',#1856,#877);
#748=LINE('',#1858,#878);
#749=LINE('',#1859,#879);
#750=LINE('',#1861,#880);
#751=LINE('',#1863,#881);
#752=LINE('',#1865,#882);
#753=LINE('',#1867,#883);
#754=LINE('',#1869,#884);
#755=LINE('',#1871,#885);
#756=LINE('',#1873,#886);
#757=LINE('',#1875,#887);
#758=LINE('',#1877,#888);
#759=LINE('',#1879,#889);
#760=LINE('',#1881,#890);
#761=LINE('',#1882,#891);
#762=LINE('',#1884,#892);
#763=LINE('',#1886,#893);
#764=LINE('',#1888,#894);
#765=LINE('',#1890,#895);
#766=LINE('',#1894,#896);
#767=LINE('',#1898,#897);
#768=LINE('',#1902,#898);
#769=LINE('',#1906,#899);
#770=LINE('',#1908,#900);
#771=LINE('',#1910,#901);
#772=LINE('',#1912,#902);
#773=LINE('',#1914,#903);
#774=LINE('',#1936,#904);
#775=LINE('',#1939,#905);
#776=LINE('',#1941,#906);
#777=LINE('',#1943,#907);
#778=LINE('',#1945,#908);
#779=LINE('',#1946,#909);
#780=LINE('',#1948,#910);
#781=LINE('',#1949,#911);
#782=LINE('',#1951,#912);
#783=LINE('',#1953,#913);
#784=LINE('',#1954,#914);
#785=LINE('',#1956,#915);
#786=LINE('',#1958,#916);
#787=LINE('',#1959,#917);
#788=LINE('',#1961,#918);
#789=LINE('',#1964,#919);
#790=LINE('',#1965,#920);
#791=LINE('',#1969,#921);
#792=LINE('',#1971,#922);
#793=LINE('',#1973,#923);
#794=LINE('',#1977,#924);
#795=LINE('',#1979,#925);
#796=LINE('',#1981,#926);
#797=LINE('',#1985,#927);
#798=LINE('',#1987,#928);
#799=LINE('',#1989,#929);
#800=LINE('',#2018,#930);
#801=LINE('',#2022,#931);
#802=LINE('',#2024,#932);
#803=LINE('',#2026,#933);
#804=LINE('',#2028,#934);
#805=LINE('',#2032,#935);
#806=LINE('',#2034,#936);
#807=LINE('',#2036,#937);
#808=LINE('',#2040,#938);
#809=LINE('',#2042,#939);
#810=LINE('',#2044,#940);
#811=LINE('',#2048,#941);
#812=LINE('',#2052,#942);
#813=LINE('',#2054,#943);
#814=LINE('',#2058,#944);
#815=LINE('',#2060,#945);
#816=LINE('',#2074,#946);
#817=LINE('',#2076,#947);
#818=LINE('',#2078,#948);
#819=LINE('',#2080,#949);
#820=LINE('',#2082,#950);
#821=LINE('',#2084,#951);
#822=LINE('',#2086,#952);
#823=LINE('',#2088,#953);
#824=LINE('',#2090,#954);
#825=LINE('',#2092,#955);
#826=LINE('',#2094,#956);
#827=LINE('',#2096,#957);
#828=LINE('',#2098,#958);
#829=LINE('',#2100,#959);
#830=LINE('',#2102,#960);
#831=LINE('',#2104,#961);
#832=LINE('',#2106,#962);
#833=LINE('',#2108,#963);
#834=LINE('',#2110,#964);
#835=LINE('',#2112,#965);
#836=LINE('',#2114,#966);
#837=LINE('',#2116,#967);
#838=LINE('',#2118,#968);
#839=LINE('',#2120,#969);
#840=LINE('',#2122,#970);
#841=LINE('',#2124,#971);
#842=LINE('',#2126,#972);
#843=LINE('',#2128,#973);
#844=LINE('',#2130,#974);
#845=LINE('',#2132,#975);
#846=LINE('',#2134,#976);
#847=LINE('',#2136,#977);
#848=VECTOR('',#1431,1.);
#849=VECTOR('',#1434,1.);
#850=VECTOR('',#1437,1.);
#851=VECTOR('',#1440,1.);
#852=VECTOR('',#1443,1.);
#853=VECTOR('',#1444,1.);
#854=VECTOR('',#1445,1.);
#855=VECTOR('',#1446,1.);
#856=VECTOR('',#1447,1.);
#857=VECTOR('',#1448,1.);
#858=VECTOR('',#1449,1.);
#859=VECTOR('',#1450,1.);
#860=VECTOR('',#1451,1.);
#861=VECTOR('',#1452,1.);
#862=VECTOR('',#1453,1.);
#863=VECTOR('',#1454,1.);
#864=VECTOR('',#1455,1.);
#865=VECTOR('',#1456,1.);
#866=VECTOR('',#1457,1.);
#867=VECTOR('',#1458,1.);
#868=VECTOR('',#1461,1.);
#869=VECTOR('',#1462,1.);
#870=VECTOR('',#1463,1.);
#871=VECTOR('',#1464,1.);
#872=VECTOR('',#1465,1.);
#873=VECTOR('',#1466,1.);
#874=VECTOR('',#1467,1.);
#875=VECTOR('',#1470,1.);
#876=VECTOR('',#1471,1.);
#877=VECTOR('',#1472,1.);
#878=VECTOR('',#1475,1.);
#879=VECTOR('',#1476,1.);
#880=VECTOR('',#1479,1.);
#881=VECTOR('',#1480,1.);
#882=VECTOR('',#1481,1.);
#883=VECTOR('',#1484,1.);
#884=VECTOR('',#1485,1.);
#885=VECTOR('',#1486,1.);
#886=VECTOR('',#1489,1.);
#887=VECTOR('',#1490,1.);
#888=VECTOR('',#1491,1.);
#889=VECTOR('',#1492,1.);
#890=VECTOR('',#1493,1.);
#891=VECTOR('',#1494,1.);
#892=VECTOR('',#1495,1.);
#893=VECTOR('',#1496,1.);
#894=VECTOR('',#1497,1.);
#895=VECTOR('',#1498,1.);
#896=VECTOR('',#1501,1.);
#897=VECTOR('',#1504,1.);
#898=VECTOR('',#1507,1.);
#899=VECTOR('',#1510,1.);
#900=VECTOR('',#1511,1.);
#901=VECTOR('',#1512,1.);
#902=VECTOR('',#1513,1.);
#903=VECTOR('',#1514,1.);
#904=VECTOR('',#1541,1.);
#905=VECTOR('',#1542,1.);
#906=VECTOR('',#1543,1.);
#907=VECTOR('',#1544,1.);
#908=VECTOR('',#1547,1.);
#909=VECTOR('',#1548,1.);
#910=VECTOR('',#1551,1.);
#911=VECTOR('',#1552,1.);
#912=VECTOR('',#1555,1.);
#913=VECTOR('',#1556,1.);
#914=VECTOR('',#1557,1.);
#915=VECTOR('',#1560,1.);
#916=VECTOR('',#1561,1.);
#917=VECTOR('',#1562,1.);
#918=VECTOR('',#1565,1.);
#919=VECTOR('',#1566,1.);
#920=VECTOR('',#1567,1.);
#921=VECTOR('',#1572,1.);
#922=VECTOR('',#1575,1.);
#923=VECTOR('',#1576,1.);
#924=VECTOR('',#1581,1.);
#925=VECTOR('',#1584,1.);
#926=VECTOR('',#1585,1.);
#927=VECTOR('',#1590,1.);
#928=VECTOR('',#1593,1.);
#929=VECTOR('',#1594,1.);
#930=VECTOR('',#1635,1.);
#931=VECTOR('',#1638,1.);
#932=VECTOR('',#1641,1.);
#933=VECTOR('',#1642,1.);
#934=VECTOR('',#1645,1.);
#935=VECTOR('',#1650,1.);
#936=VECTOR('',#1651,1.);
#937=VECTOR('',#1654,1.);
#938=VECTOR('',#1659,1.);
#939=VECTOR('',#1660,1.);
#940=VECTOR('',#1663,1.);
#941=VECTOR('',#1668,1.);
#942=VECTOR('',#1675,1.);
#943=VECTOR('',#1678,1.);
#944=VECTOR('',#1685,1.);
#945=VECTOR('',#1688,1.);
#946=VECTOR('',#1707,1.);
#947=VECTOR('',#1708,1.);
#948=VECTOR('',#1709,1.);
#949=VECTOR('',#1710,1.);
#950=VECTOR('',#1711,1.);
#951=VECTOR('',#1712,1.);
#952=VECTOR('',#1713,1.);
#953=VECTOR('',#1714,1.);
#954=VECTOR('',#1715,1.);
#955=VECTOR('',#1716,1.);
#956=VECTOR('',#1717,1.);
#957=VECTOR('',#1720,1.);
#958=VECTOR('',#1721,1.);
#959=VECTOR('',#1724,1.);
#960=VECTOR('',#1725,1.);
#961=VECTOR('',#1728,1.);
#962=VECTOR('',#1729,1.);
#963=VECTOR('',#1732,1.);
#964=VECTOR('',#1733,1.);
#965=VECTOR('',#1736,1.);
#966=VECTOR('',#1737,1.);
#967=VECTOR('',#1740,1.);
#968=VECTOR('',#1741,1.);
#969=VECTOR('',#1744,1.);
#970=VECTOR('',#1745,1.);
#971=VECTOR('',#1748,1.);
#972=VECTOR('',#1749,1.);
#973=VECTOR('',#1752,1.);
#974=VECTOR('',#1753,1.);
#975=VECTOR('',#1756,1.);
#976=VECTOR('',#1757,1.);
#977=VECTOR('',#1760,1.);
#978=EDGE_LOOP('',(#80,#81,#82,#83,#84,#85,#86,#87));
#979=EDGE_LOOP('',(#88,#89,#90,#91,#92,#93,#94,#95,#96,#97,#98,#99,#100,
#101,#102,#103));
#980=EDGE_LOOP('',(#104,#105,#106,#107,#108,#109,#110,#111));
#981=EDGE_LOOP('',(#112,#113,#114,#115));
#982=EDGE_LOOP('',(#116,#117,#118,#119));
#983=EDGE_LOOP('',(#120,#121,#122,#123));
#984=EDGE_LOOP('',(#124,#125,#126,#127));
#985=EDGE_LOOP('',(#128,#129,#130,#131,#132,#133,#134,#135,#136,#137,#138,
#139,#140,#141,#142,#143,#144,#145,#146,#147,#148,#149,#150,#151));
#986=EDGE_LOOP('',(#152));
#987=EDGE_LOOP('',(#153));
#988=EDGE_LOOP('',(#154));
#989=EDGE_LOOP('',(#155));
#990=EDGE_LOOP('',(#156));
#991=EDGE_LOOP('',(#157));
#992=EDGE_LOOP('',(#158));
#993=EDGE_LOOP('',(#159));
#994=EDGE_LOOP('',(#160,#161,#162,#163));
#995=EDGE_LOOP('',(#164,#165,#166,#167));
#996=EDGE_LOOP('',(#168,#169,#170,#171));
#997=EDGE_LOOP('',(#172,#173,#174,#175,#176));
#998=EDGE_LOOP('',(#177,#178,#179,#180,#181));
#999=EDGE_LOOP('',(#182,#183,#184,#185));
#1000=EDGE_LOOP('',(#186,#187,#188,#189));
#1001=EDGE_LOOP('',(#190,#191,#192,#193));
#1002=EDGE_LOOP('',(#194,#195,#196,#197));
#1003=EDGE_LOOP('',(#198,#199,#200,#201));
#1004=EDGE_LOOP('',(#202,#203,#204,#205));
#1005=EDGE_LOOP('',(#206,#207,#208,#209));
#1006=EDGE_LOOP('',(#210,#211,#212,#213));
#1007=EDGE_LOOP('',(#214));
#1008=EDGE_LOOP('',(#215));
#1009=EDGE_LOOP('',(#216));
#1010=EDGE_LOOP('',(#217));
#1011=EDGE_LOOP('',(#218,#219,#220,#221));
#1012=EDGE_LOOP('',(#222));
#1013=EDGE_LOOP('',(#223));
#1014=EDGE_LOOP('',(#224));
#1015=EDGE_LOOP('',(#225));
#1016=EDGE_LOOP('',(#226));
#1017=EDGE_LOOP('',(#227));
#1018=EDGE_LOOP('',(#228));
#1019=EDGE_LOOP('',(#229));
#1020=EDGE_LOOP('',(#230));
#1021=EDGE_LOOP('',(#231));
#1022=EDGE_LOOP('',(#232));
#1023=EDGE_LOOP('',(#233));
#1024=EDGE_LOOP('',(#234));
#1025=EDGE_LOOP('',(#235));
#1026=EDGE_LOOP('',(#236));
#1027=EDGE_LOOP('',(#237));
#1028=EDGE_LOOP('',(#238,#239,#240,#241));
#1029=EDGE_LOOP('',(#242,#243,#244,#245));
#1030=EDGE_LOOP('',(#246,#247,#248,#249));
#1031=EDGE_LOOP('',(#250,#251,#252,#253));
#1032=EDGE_LOOP('',(#254,#255,#256,#257));
#1033=EDGE_LOOP('',(#258,#259,#260,#261));
#1034=EDGE_LOOP('',(#262,#263,#264,#265));
#1035=EDGE_LOOP('',(#266,#267,#268,#269,#270,#271,#272,#273));
#1036=EDGE_LOOP('',(#274,#275,#276,#277,#278,#279,#280,#281));
#1037=EDGE_LOOP('',(#282,#283,#284,#285,#286,#287,#288,#289));
#1038=EDGE_LOOP('',(#290,#291,#292,#293,#294,#295));
#1039=EDGE_LOOP('',(#296,#297,#298,#299));
#1040=EDGE_LOOP('',(#300,#301,#302,#303));
#1041=EDGE_LOOP('',(#304,#305,#306,#307,#308,#309));
#1042=EDGE_LOOP('',(#310,#311,#312,#313));
#1043=EDGE_LOOP('',(#314,#315,#316,#317));
#1044=EDGE_LOOP('',(#318));
#1045=EDGE_LOOP('',(#319));
#1046=EDGE_LOOP('',(#320));
#1047=EDGE_LOOP('',(#321));
#1048=EDGE_LOOP('',(#322));
#1049=EDGE_LOOP('',(#323));
#1050=EDGE_LOOP('',(#324,#325,#326,#327,#328,#329,#330,#331,#332,#333,#334,
#335));
#1051=EDGE_LOOP('',(#336));
#1052=EDGE_LOOP('',(#337));
#1053=EDGE_LOOP('',(#338));
#1054=EDGE_LOOP('',(#339));
#1055=EDGE_LOOP('',(#340,#341,#342,#343,#344,#345,#346,#347,#348,#349,#350,
#351,#352,#353,#354,#355));
#1056=EDGE_LOOP('',(#356,#357,#358,#359));
#1057=EDGE_LOOP('',(#360,#361,#362,#363));
#1058=EDGE_LOOP('',(#364,#365,#366,#367));
#1059=EDGE_LOOP('',(#368,#369,#370,#371));
#1060=EDGE_LOOP('',(#372,#373,#374,#375));
#1061=EDGE_LOOP('',(#376,#377,#378,#379));
#1062=EDGE_LOOP('',(#380,#381,#382,#383));
#1063=EDGE_LOOP('',(#384,#385,#386,#387));
#1064=EDGE_LOOP('',(#388,#389,#390,#391));
#1065=EDGE_LOOP('',(#392,#393,#394,#395));
#1066=EDGE_LOOP('',(#396,#397,#398,#399));
#1067=EDGE_LOOP('',(#400,#401,#402,#403,#404,#405,#406,#407,#408,#409,#410,
#411));
#1068=EDGE_LOOP('',(#412));
#1069=EDGE_LOOP('',(#413));
#1070=EDGE_LOOP('',(#414));
#1071=EDGE_LOOP('',(#415));
#1072=EDGE_LOOP('',(#416));
#1073=EDGE_LOOP('',(#417));
#1074=EDGE_LOOP('',(#418));
#1075=EDGE_LOOP('',(#419));
#1076=EDGE_LOOP('',(#420));
#1077=EDGE_LOOP('',(#421));
#1078=EDGE_LOOP('',(#422));
#1079=EDGE_LOOP('',(#423));
#1080=FACE_BOUND('',#978,.T.);
#1081=FACE_BOUND('',#979,.T.);
#1082=FACE_BOUND('',#980,.T.);
#1083=FACE_BOUND('',#981,.T.);
#1084=FACE_BOUND('',#982,.T.);
#1085=FACE_BOUND('',#983,.T.);
#1086=FACE_BOUND('',#984,.T.);
#1087=FACE_BOUND('',#985,.T.);
#1088=FACE_BOUND('',#986,.T.);
#1089=FACE_BOUND('',#987,.T.);
#1090=FACE_BOUND('',#988,.T.);
#1091=FACE_BOUND('',#989,.T.);
#1092=FACE_BOUND('',#990,.T.);
#1093=FACE_BOUND('',#991,.T.);
#1094=FACE_BOUND('',#992,.T.);
#1095=FACE_BOUND('',#993,.T.);
#1096=FACE_BOUND('',#994,.T.);
#1097=FACE_BOUND('',#995,.T.);
#1098=FACE_BOUND('',#996,.T.);
#1099=FACE_BOUND('',#997,.T.);
#1100=FACE_BOUND('',#998,.T.);
#1101=FACE_BOUND('',#999,.T.);
#1102=FACE_BOUND('',#1000,.T.);
#1103=FACE_BOUND('',#1001,.T.);
#1104=FACE_BOUND('',#1002,.T.);
#1105=FACE_BOUND('',#1003,.T.);
#1106=FACE_BOUND('',#1004,.T.);
#1107=FACE_BOUND('',#1005,.T.);
#1108=FACE_BOUND('',#1006,.T.);
#1109=FACE_BOUND('',#1007,.T.);
#1110=FACE_BOUND('',#1008,.T.);
#1111=FACE_BOUND('',#1009,.T.);
#1112=FACE_BOUND('',#1010,.T.);
#1113=FACE_BOUND('',#1011,.T.);
#1114=FACE_BOUND('',#1012,.T.);
#1115=FACE_BOUND('',#1013,.T.);
#1116=FACE_BOUND('',#1014,.T.);
#1117=FACE_BOUND('',#1015,.T.);
#1118=FACE_BOUND('',#1016,.T.);
#1119=FACE_BOUND('',#1017,.T.);
#1120=FACE_BOUND('',#1018,.T.);
#1121=FACE_BOUND('',#1019,.T.);
#1122=FACE_BOUND('',#1020,.T.);
#1123=FACE_BOUND('',#1021,.T.);
#1124=FACE_BOUND('',#1022,.T.);
#1125=FACE_BOUND('',#1023,.T.);
#1126=FACE_BOUND('',#1024,.T.);
#1127=FACE_BOUND('',#1025,.T.);
#1128=FACE_BOUND('',#1026,.T.);
#1129=FACE_BOUND('',#1027,.T.);
#1130=FACE_BOUND('',#1028,.T.);
#1131=FACE_BOUND('',#1029,.T.);
#1132=FACE_BOUND('',#1030,.T.);
#1133=FACE_BOUND('',#1031,.T.);
#1134=FACE_BOUND('',#1032,.T.);
#1135=FACE_BOUND('',#1033,.T.);
#1136=FACE_BOUND('',#1034,.T.);
#1137=FACE_BOUND('',#1035,.T.);
#1138=FACE_BOUND('',#1036,.T.);
#1139=FACE_BOUND('',#1037,.T.);
#1140=FACE_BOUND('',#1038,.T.);
#1141=FACE_BOUND('',#1039,.T.);
#1142=FACE_BOUND('',#1040,.T.);
#1143=FACE_BOUND('',#1041,.T.);
#1144=FACE_BOUND('',#1042,.T.);
#1145=FACE_BOUND('',#1043,.T.);
#1146=FACE_BOUND('',#1044,.T.);
#1147=FACE_BOUND('',#1045,.T.);
#1148=FACE_BOUND('',#1046,.T.);
#1149=FACE_BOUND('',#1047,.T.);
#1150=FACE_BOUND('',#1048,.T.);
#1151=FACE_BOUND('',#1049,.T.);
#1152=FACE_BOUND('',#1050,.T.);
#1153=FACE_BOUND('',#1051,.T.);
#1154=FACE_BOUND('',#1052,.T.);
#1155=FACE_BOUND('',#1053,.T.);
#1156=FACE_BOUND('',#1054,.T.);
#1157=FACE_BOUND('',#1055,.T.);
#1158=FACE_BOUND('',#1056,.T.);
#1159=FACE_BOUND('',#1057,.T.);
#1160=FACE_BOUND('',#1058,.T.);
#1161=FACE_BOUND('',#1059,.T.);
#1162=FACE_BOUND('',#1060,.T.);
#1163=FACE_BOUND('',#1061,.T.);
#1164=FACE_BOUND('',#1062,.T.);
#1165=FACE_BOUND('',#1063,.T.);
#1166=FACE_BOUND('',#1064,.T.);
#1167=FACE_BOUND('',#1065,.T.);
#1168=FACE_BOUND('',#1066,.T.);
#1169=FACE_BOUND('',#1067,.T.);
#1170=FACE_BOUND('',#1068,.T.);
#1171=FACE_BOUND('',#1069,.T.);
#1172=FACE_BOUND('',#1070,.T.);
#1173=FACE_BOUND('',#1071,.T.);
#1174=FACE_BOUND('',#1072,.T.);
#1175=FACE_BOUND('',#1073,.T.);
#1176=FACE_BOUND('',#1074,.T.);
#1177=FACE_BOUND('',#1075,.T.);
#1178=FACE_BOUND('',#1076,.T.);
#1179=FACE_BOUND('',#1077,.T.);
#1180=FACE_BOUND('',#1078,.T.);
#1181=FACE_BOUND('',#1079,.T.);
#1182=PLANE('',#1313);
#1183=PLANE('',#1318);
#1184=PLANE('',#1319);
#1185=PLANE('',#1320);
#1186=PLANE('',#1321);
#1187=PLANE('',#1322);
#1188=PLANE('',#1323);
#1189=PLANE('',#1340);
#1190=PLANE('',#1341);
#1191=PLANE('',#1342);
#1192=PLANE('',#1343);
#1193=PLANE('',#1344);
#1194=PLANE('',#1345);
#1195=PLANE('',#1348);
#1196=PLANE('',#1351);
#1197=PLANE('',#1354);
#1198=PLANE('',#1357);
#1199=PLANE('',#1376);
#1200=PLANE('',#1379);
#1201=PLANE('',#1382);
#1202=PLANE('',#1385);
#1203=PLANE('',#1386);
#1204=PLANE('',#1387);
#1205=PLANE('',#1389);
#1206=PLANE('',#1390);
#1207=PLANE('',#1391);
#1208=PLANE('',#1393);
#1209=PLANE('',#1394);
#1210=PLANE('',#1397);
#1211=PLANE('',#1398);
#1212=PLANE('',#1403);
#1213=PLANE('',#1404);
#1214=PLANE('',#1405);
#1215=PLANE('',#1406);
#1216=PLANE('',#1407);
#1217=PLANE('',#1408);
#1218=PLANE('',#1409);
#1219=PLANE('',#1410);
#1220=PLANE('',#1411);
#1221=PLANE('',#1412);
#1222=PLANE('',#1413);
#1223=PLANE('',#1414);
#1224=PLANE('',#1417);
#1225=PLANE('',#1420);
#1226=PLANE('',#1423);
#1227=PLANE('',#1426);
#1228=ADVANCED_FACE('',(#1080,#1081),#1182,.T.);
#1229=ADVANCED_FACE('',(#1082),#1183,.T.);
#1230=ADVANCED_FACE('',(#1083),#1184,.T.);
#1231=ADVANCED_FACE('',(#1084),#1185,.T.);
#1232=ADVANCED_FACE('',(#1085),#1186,.F.);
#1233=ADVANCED_FACE('',(#1086),#1187,.T.);
#1234=ADVANCED_FACE('',(#1087),#1188,.F.);
#1235=ADVANCED_FACE('',(#1088,#1089),#18,.F.);
#1236=ADVANCED_FACE('',(#1090,#1091),#19,.F.);
#1237=ADVANCED_FACE('',(#1092,#1093),#20,.F.);
#1238=ADVANCED_FACE('',(#1094,#1095),#21,.F.);
#1239=ADVANCED_FACE('',(#1096),#1189,.F.);
#1240=ADVANCED_FACE('',(#1097),#1190,.F.);
#1241=ADVANCED_FACE('',(#1098),#1191,.F.);
#1242=ADVANCED_FACE('',(#1099),#1192,.F.);
#1243=ADVANCED_FACE('',(#1100),#1193,.T.);
#1244=ADVANCED_FACE('',(#1101),#1194,.F.);
#1245=ADVANCED_FACE('',(#1102),#22,.F.);
#1246=ADVANCED_FACE('',(#1103),#1195,.F.);
#1247=ADVANCED_FACE('',(#1104),#23,.F.);
#1248=ADVANCED_FACE('',(#1105),#1196,.F.);
#1249=ADVANCED_FACE('',(#1106),#24,.F.);
#1250=ADVANCED_FACE('',(#1107),#1197,.F.);
#1251=ADVANCED_FACE('',(#1108),#25,.F.);
#1252=ADVANCED_FACE('',(#1109,#1110,#1111,#1112,#1113),#1198,.F.);
#1253=ADVANCED_FACE('',(#1114,#1115),#14,.F.);
#1254=ADVANCED_FACE('',(#1116,#1117),#26,.F.);
#1255=ADVANCED_FACE('',(#1118,#1119),#15,.F.);
#1256=ADVANCED_FACE('',(#1120,#1121),#27,.F.);
#1257=ADVANCED_FACE('',(#1122,#1123),#16,.F.);
#1258=ADVANCED_FACE('',(#1124,#1125),#28,.F.);
#1259=ADVANCED_FACE('',(#1126,#1127),#17,.F.);
#1260=ADVANCED_FACE('',(#1128,#1129),#29,.F.);
#1261=ADVANCED_FACE('',(#1130),#30,.F.);
#1262=ADVANCED_FACE('',(#1131),#1199,.F.);
#1263=ADVANCED_FACE('',(#1132),#31,.F.);
#1264=ADVANCED_FACE('',(#1133),#1200,.F.);
#1265=ADVANCED_FACE('',(#1134),#32,.F.);
#1266=ADVANCED_FACE('',(#1135),#1201,.F.);
#1267=ADVANCED_FACE('',(#1136),#33,.F.);
#1268=ADVANCED_FACE('',(#1137,#1138),#1202,.T.);
#1269=ADVANCED_FACE('',(#1139),#1203,.T.);
#1270=ADVANCED_FACE('',(#1140),#1204,.T.);
#1271=ADVANCED_FACE('',(#1141),#1205,.T.);
#1272=ADVANCED_FACE('',(#1142),#1206,.T.);
#1273=ADVANCED_FACE('',(#1143),#1207,.F.);
#1274=ADVANCED_FACE('',(#1144),#1208,.F.);
#1275=ADVANCED_FACE('',(#1145),#1209,.T.);
#1276=ADVANCED_FACE('',(#1146),#12,.F.);
#1277=ADVANCED_FACE('',(#1147),#13,.F.);
#1278=ADVANCED_FACE('',(#1148,#1149,#1150,#1151,#1152),#1210,.T.);
#1279=ADVANCED_FACE('',(#1153,#1154,#1155,#1156,#1157),#1211,.F.);
#1280=ADVANCED_FACE('',(#1158),#1212,.T.);
#1281=ADVANCED_FACE('',(#1159),#1213,.T.);
#1282=ADVANCED_FACE('',(#1160),#1214,.F.);
#1283=ADVANCED_FACE('',(#1161),#1215,.F.);
#1284=ADVANCED_FACE('',(#1162),#1216,.F.);
#1285=ADVANCED_FACE('',(#1163),#1217,.F.);
#1286=ADVANCED_FACE('',(#1164),#1218,.F.);
#1287=ADVANCED_FACE('',(#1165),#1219,.T.);
#1288=ADVANCED_FACE('',(#1166),#1220,.F.);
#1289=ADVANCED_FACE('',(#1167),#1221,.F.);
#1290=ADVANCED_FACE('',(#1168),#1222,.T.);
#1291=ADVANCED_FACE('',(#1169),#1223,.T.);
#1292=ADVANCED_FACE('',(#1170,#1171),#34,.T.);
#1293=ADVANCED_FACE('',(#1172),#1224,.T.);
#1294=ADVANCED_FACE('',(#1173,#1174),#35,.T.);
#1295=ADVANCED_FACE('',(#1175),#1225,.T.);
#1296=ADVANCED_FACE('',(#1176,#1177),#36,.T.);
#1297=ADVANCED_FACE('',(#1178),#1226,.T.);
#1298=ADVANCED_FACE('',(#1179,#1180),#37,.T.);
#1299=ADVANCED_FACE('',(#1181),#1227,.T.);
#1300=CLOSED_SHELL('',(#1228,#1229,#1230,#1231,#1232,#1233,#1234,#1235,
#1236,#1237,#1238,#1239,#1240,#1241,#1242,#1243,#1244,#1245,#1246,#1247,
#1248,#1249,#1250,#1251,#1252,#1253,#1254,#1255,#1256,#1257,#1258,#1259,
#1260,#1261,#1262,#1263,#1264,#1265,#1266,#1267,#1268,#1269,#1270,#1271,
#1272,#1273,#1274,#1275,#1276,#1277,#1278,#1279,#1280,#1281,#1282,#1283,
#1284,#1285,#1286,#1287,#1288,#1289,#1290,#1291,#1292,#1293,#1294,#1295,
#1296,#1297,#1298,#1299));
#1301=STYLED_ITEM('',(#1302),#1309);
#1302=PRESENTATION_STYLE_ASSIGNMENT((#1303));
#1303=SURFACE_STYLE_USAGE(.BOTH.,#1304);
#1304=SURFACE_SIDE_STYLE('',(#1305));
#1305=SURFACE_STYLE_FILL_AREA(#1306);
#1306=FILL_AREA_STYLE('',(#1307));
#1307=FILL_AREA_STYLE_COLOUR('',#1308);
#1308=COLOUR_RGB('',0.917647058823529,0.917647058823529,0.917647058823529);
#1309=MANIFOLD_SOLID_BREP('Main_Case',#1300);
#1310=SHAPE_DEFINITION_REPRESENTATION(#2160,#1311);
#1311=SHAPE_REPRESENTATION('Main_Case',(#1312),#2155);
#1312=AXIS2_PLACEMENT_3D('',#1787,#1427,#1428);
#1313=AXIS2_PLACEMENT_3D('',#1788,#1429,#1430);
#1314=AXIS2_PLACEMENT_3D('',#1792,#1432,#1433);
#1315=AXIS2_PLACEMENT_3D('',#1796,#1435,#1436);
#1316=AXIS2_PLACEMENT_3D('',#1800,#1438,#1439);
#1317=AXIS2_PLACEMENT_3D('',#1804,#1441,#1442);
#1318=AXIS2_PLACEMENT_3D('',#1837,#1459,#1460);
#1319=AXIS2_PLACEMENT_3D('',#1851,#1468,#1469);
#1320=AXIS2_PLACEMENT_3D('',#1857,#1473,#1474);
#1321=AXIS2_PLACEMENT_3D('',#1860,#1477,#1478);
#1322=AXIS2_PLACEMENT_3D('',#1866,#1482,#1483);
#1323=AXIS2_PLACEMENT_3D('',#1872,#1487,#1488);
#1324=AXIS2_PLACEMENT_3D('',#1892,#1499,#1500);
#1325=AXIS2_PLACEMENT_3D('',#1896,#1502,#1503);
#1326=AXIS2_PLACEMENT_3D('',#1900,#1505,#1506);
#1327=AXIS2_PLACEMENT_3D('',#1904,#1508,#1509);
#1328=AXIS2_PLACEMENT_3D('',#1915,#1515,#1516);
#1329=AXIS2_PLACEMENT_3D('',#1916,#1517,#1518);
#1330=AXIS2_PLACEMENT_3D('',#1918,#1519,#1520);
#1331=AXIS2_PLACEMENT_3D('',#1920,#1521,#1522);
#1332=AXIS2_PLACEMENT_3D('',#1921,#1523,#1524);
#1333=AXIS2_PLACEMENT_3D('',#1923,#1525,#1526);
#1334=AXIS2_PLACEMENT_3D('',#1925,#1527,#1528);
#1335=AXIS2_PLACEMENT_3D('',#1926,#1529,#1530);
#1336=AXIS2_PLACEMENT_3D('',#1928,#1531,#1532);
#1337=AXIS2_PLACEMENT_3D('',#1930,#1533,#1534);
#1338=AXIS2_PLACEMENT_3D('',#1931,#1535,#1536);
#1339=AXIS2_PLACEMENT_3D('',#1933,#1537,#1538);
#1340=AXIS2_PLACEMENT_3D('',#1935,#1539,#1540);
#1341=AXIS2_PLACEMENT_3D('',#1944,#1545,#1546);
#1342=AXIS2_PLACEMENT_3D('',#1947,#1549,#1550);
#1343=AXIS2_PLACEMENT_3D('',#1950,#1553,#1554);
#1344=AXIS2_PLACEMENT_3D('',#1955,#1558,#1559);
#1345=AXIS2_PLACEMENT_3D('',#1960,#1563,#1564);
#1346=AXIS2_PLACEMENT_3D('',#1966,#1568,#1569);
#1347=AXIS2_PLACEMENT_3D('',#1967,#1570,#1571);
#1348=AXIS2_PLACEMENT_3D('',#1970,#1573,#1574);
#1349=AXIS2_PLACEMENT_3D('',#1974,#1577,#1578);
#1350=AXIS2_PLACEMENT_3D('',#1975,#1579,#1580);
#1351=AXIS2_PLACEMENT_3D('',#1978,#1582,#1583);
#1352=AXIS2_PLACEMENT_3D('',#1982,#1586,#1587);
#1353=AXIS2_PLACEMENT_3D('',#1983,#1588,#1589);
#1354=AXIS2_PLACEMENT_3D('',#1986,#1591,#1592);
#1355=AXIS2_PLACEMENT_3D('',#1990,#1595,#1596);
#1356=AXIS2_PLACEMENT_3D('',#1991,#1597,#1598);
#1357=AXIS2_PLACEMENT_3D('',#1992,#1599,#1600);
#1358=AXIS2_PLACEMENT_3D('',#1993,#1601,#1602);
#1359=AXIS2_PLACEMENT_3D('',#1995,#1603,#1604);
#1360=AXIS2_PLACEMENT_3D('',#1997,#1605,#1606);
#1361=AXIS2_PLACEMENT_3D('',#1999,#1607,#1608);
#1362=AXIS2_PLACEMENT_3D('',#2001,#1609,#1610);
#1363=AXIS2_PLACEMENT_3D('',#2002,#1611,#1612);
#1364=AXIS2_PLACEMENT_3D('',#2004,#1613,#1614);
#1365=AXIS2_PLACEMENT_3D('',#2005,#1615,#1616);
#1366=AXIS2_PLACEMENT_3D('',#2006,#1617,#1618);
#1367=AXIS2_PLACEMENT_3D('',#2008,#1619,#1620);
#1368=AXIS2_PLACEMENT_3D('',#2009,#1621,#1622);
#1369=AXIS2_PLACEMENT_3D('',#2010,#1623,#1624);
#1370=AXIS2_PLACEMENT_3D('',#2012,#1625,#1626);
#1371=AXIS2_PLACEMENT_3D('',#2013,#1627,#1628);
#1372=AXIS2_PLACEMENT_3D('',#2014,#1629,#1630);
#1373=AXIS2_PLACEMENT_3D('',#2016,#1631,#1632);
#1374=AXIS2_PLACEMENT_3D('',#2017,#1633,#1634);
#1375=AXIS2_PLACEMENT_3D('',#2020,#1636,#1637);
#1376=AXIS2_PLACEMENT_3D('',#2023,#1639,#1640);
#1377=AXIS2_PLACEMENT_3D('',#2027,#1643,#1644);
#1378=AXIS2_PLACEMENT_3D('',#2030,#1646,#1647);
#1379=AXIS2_PLACEMENT_3D('',#2031,#1648,#1649);
#1380=AXIS2_PLACEMENT_3D('',#2035,#1652,#1653);
#1381=AXIS2_PLACEMENT_3D('',#2038,#1655,#1656);
#1382=AXIS2_PLACEMENT_3D('',#2039,#1657,#1658);
#1383=AXIS2_PLACEMENT_3D('',#2043,#1661,#1662);
#1384=AXIS2_PLACEMENT_3D('',#2046,#1664,#1665);
#1385=AXIS2_PLACEMENT_3D('',#2047,#1666,#1667);
#1386=AXIS2_PLACEMENT_3D('',#2049,#1669,#1670);
#1387=AXIS2_PLACEMENT_3D('',#2050,#1671,#1672);
#1388=AXIS2_PLACEMENT_3D('',#2051,#1673,#1674);
#1389=AXIS2_PLACEMENT_3D('',#2053,#1676,#1677);
#1390=AXIS2_PLACEMENT_3D('',#2055,#1679,#1680);
#1391=AXIS2_PLACEMENT_3D('',#2056,#1681,#1682);
#1392=AXIS2_PLACEMENT_3D('',#2057,#1683,#1684);
#1393=AXIS2_PLACEMENT_3D('',#2059,#1686,#1687);
#1394=AXIS2_PLACEMENT_3D('',#2061,#1689,#1690);
#1395=AXIS2_PLACEMENT_3D('',#2062,#1691,#1692);
#1396=AXIS2_PLACEMENT_3D('',#2063,#1693,#1694);
#1397=AXIS2_PLACEMENT_3D('',#2064,#1695,#1696);
#1398=AXIS2_PLACEMENT_3D('',#2065,#1697,#1698);
#1399=AXIS2_PLACEMENT_3D('',#2066,#1699,#1700);
#1400=AXIS2_PLACEMENT_3D('',#2068,#1701,#1702);
#1401=AXIS2_PLACEMENT_3D('',#2070,#1703,#1704);
#1402=AXIS2_PLACEMENT_3D('',#2072,#1705,#1706);
#1403=AXIS2_PLACEMENT_3D('',#2095,#1718,#1719);
#1404=AXIS2_PLACEMENT_3D('',#2099,#1722,#1723);
#1405=AXIS2_PLACEMENT_3D('',#2103,#1726,#1727);
#1406=AXIS2_PLACEMENT_3D('',#2107,#1730,#1731);
#1407=AXIS2_PLACEMENT_3D('',#2111,#1734,#1735);
#1408=AXIS2_PLACEMENT_3D('',#2115,#1738,#1739);
#1409=AXIS2_PLACEMENT_3D('',#2119,#1742,#1743);
#1410=AXIS2_PLACEMENT_3D('',#2123,#1746,#1747);
#1411=AXIS2_PLACEMENT_3D('',#2127,#1750,#1751);
#1412=AXIS2_PLACEMENT_3D('',#2131,#1754,#1755);
#1413=AXIS2_PLACEMENT_3D('',#2135,#1758,#1759);
#1414=AXIS2_PLACEMENT_3D('',#2137,#1761,#1762);
#1415=AXIS2_PLACEMENT_3D('',#2138,#1763,#1764);
#1416=AXIS2_PLACEMENT_3D('',#2139,#1765,#1766);
#1417=AXIS2_PLACEMENT_3D('',#2141,#1767,#1768);
#1418=AXIS2_PLACEMENT_3D('',#2142,#1769,#1770);
#1419=AXIS2_PLACEMENT_3D('',#2143,#1771,#1772);
#1420=AXIS2_PLACEMENT_3D('',#2145,#1773,#1774);
#1421=AXIS2_PLACEMENT_3D('',#2146,#1775,#1776);
#1422=AXIS2_PLACEMENT_3D('',#2147,#1777,#1778);
#1423=AXIS2_PLACEMENT_3D('',#2149,#1779,#1780);
#1424=AXIS2_PLACEMENT_3D('',#2150,#1781,#1782);
#1425=AXIS2_PLACEMENT_3D('',#2151,#1783,#1784);
#1426=AXIS2_PLACEMENT_3D('',#2153,#1785,#1786);
#1427=DIRECTION('',(0.,0.,1.));
#1428=DIRECTION('',(1.,0.,0.));
#1429=DIRECTION('',(0.999999992029881,-0.000126254655137407,0.));
#1430=DIRECTION('',(0.000126254655137407,0.999999992029881,0.));
#1431=DIRECTION('',(-0.000126254655137407,-0.999999992029881,0.));
#1432=DIRECTION('',(0.999999992029881,-0.000126254655137407,0.));
#1433=DIRECTION('',(0.000126254655137407,0.999999992029881,0.));
#1434=DIRECTION('',(-1.34623960620603E-12,-1.06628907584531E-8,1.));
#1435=DIRECTION('',(0.999999992029881,-0.000126254655137407,0.));
#1436=DIRECTION('',(0.000126254655137407,0.999999992029881,0.));
#1437=DIRECTION('',(0.000126254655137407,0.999999992029881,0.));
#1438=DIRECTION('',(0.999999992029881,-0.000126254655137407,0.));
#1439=DIRECTION('',(0.000126254655137407,0.999999992029881,0.));
#1440=DIRECTION('',(1.34623960620603E-12,1.06628907584531E-8,-1.));
#1441=DIRECTION('',(0.999999992029881,-0.000126254655137407,0.));
#1442=DIRECTION('',(0.000126254655137407,0.999999992029881,0.));
#1443=DIRECTION('',(0.,0.,1.));
#1444=DIRECTION('',(0.000126254655137407,0.999999992029881,0.));
#1445=DIRECTION('',(0.,0.,1.));
#1446=DIRECTION('',(-0.000126254655137407,-0.999999992029881,0.));
#1447=DIRECTION('',(0.,0.,-1.));
#1448=DIRECTION('',(-0.000126254655137407,-0.999999992029881,-1.99106284066023E-20));
#1449=DIRECTION('',(0.,0.,1.));
#1450=DIRECTION('',(0.000126254655137407,0.999999992029881,0.));
#1451=DIRECTION('',(0.,0.,-1.));
#1452=DIRECTION('',(-0.000126254655137407,-0.999999992029881,0.));
#1453=DIRECTION('',(0.,0.,-1.));
#1454=DIRECTION('',(0.000126254655137407,0.999999992029881,1.99106284066023E-20));
#1455=DIRECTION('',(0.,0.,1.));
#1456=DIRECTION('',(0.000126254655137407,0.999999992029881,0.));
#1457=DIRECTION('',(0.,0.,-1.));
#1458=DIRECTION('',(-0.000126254655137407,-0.999999992029881,0.));
#1459=DIRECTION('',(9.99999995000604E-5,-0.999999995,0.));
#1460=DIRECTION('',(0.999999995,9.99999995000604E-5,0.));
#1461=DIRECTION('',(0.,0.,1.));
#1462=DIRECTION('',(0.999999995,9.99999995000605E-5,0.));
#1463=DIRECTION('',(0.,0.,1.));
#1464=DIRECTION('',(-0.999999995,-9.99999995000604E-5,0.));
#1465=DIRECTION('',(0.999999995,9.99999995000605E-5,0.));
#1466=DIRECTION('',(0.,0.,-1.));
#1467=DIRECTION('',(-0.999999995,-9.99999995000604E-5,0.));
#1468=DIRECTION('',(-0.999999992030887,0.000126246685018355,0.));
#1469=DIRECTION('',(-0.000126246685018355,-0.999999992030887,0.));
#1470=DIRECTION('',(-0.000126246685018355,-0.999999992030887,0.));
#1471=DIRECTION('',(0.,0.,1.));
#1472=DIRECTION('',(0.000126246685018355,0.999999992030887,0.));
#1473=DIRECTION('',(-7.97077906833938E-13,1.,0.));
#1474=DIRECTION('',(-1.,-7.97077906833938E-13,0.));
#1475=DIRECTION('',(-1.,-7.97077906833938E-13,0.));
#1476=DIRECTION('',(1.,7.97077906833938E-13,0.));
#1477=DIRECTION('',(0.,-1.,0.));
#1478=DIRECTION('',(0.,0.,-1.));
#1479=DIRECTION('',(-1.,0.,0.));
#1480=DIRECTION('',(1.,0.,1.57702132922805E-16));
#1481=DIRECTION('',(0.,0.,1.));
#1482=DIRECTION('',(0.,-1.,0.));
#1483=DIRECTION('',(0.,0.,-1.));
#1484=DIRECTION('',(-1.,0.,0.));
#1485=DIRECTION('',(0.,0.,1.));
#1486=DIRECTION('',(1.,0.,1.57702132922805E-16));
#1487=DIRECTION('',(0.999999992029881,-0.000126254655137494,0.));
#1488=DIRECTION('',(0.000126254655137494,0.999999992029881,0.));
#1489=DIRECTION('',(-0.000126254655137494,-0.999999992029881,0.));
#1490=DIRECTION('',(0.,0.,1.));
#1491=DIRECTION('',(0.000126254655137494,0.999999992029881,0.));
#1492=DIRECTION('',(0.,0.,1.));
#1493=DIRECTION('',(-0.000126254655137494,-0.999999992029881,0.));
#1494=DIRECTION('',(0.000126254655137494,0.999999992029881,1.99106284066159E-20));
#1495=DIRECTION('',(0.,0.,1.));
#1496=DIRECTION('',(0.000126254655137494,0.999999992029881,0.));
#1497=DIRECTION('',(0.,0.,1.));
#1498=DIRECTION('',(-0.000126254655137494,-0.999999992029881,0.));
#1499=DIRECTION('',(-0.999999992029881,0.000126254655137494,0.));
#1500=DIRECTION('',(-0.000126254655137494,-0.999999992029881,0.));
#1501=DIRECTION('',(-1.34623960620696E-12,-1.06628907584531E-8,1.));
#1502=DIRECTION('',(-0.999999992029881,0.000126254655137494,0.));
#1503=DIRECTION('',(-0.000126254655137494,-0.999999992029881,0.));
#1504=DIRECTION('',(-0.000126254655137494,-0.999999992029881,0.));
#1505=DIRECTION('',(-0.999999992029881,0.000126254655137494,0.));
#1506=DIRECTION('',(-0.000126254655137494,-0.999999992029881,0.));
#1507=DIRECTION('',(1.34623960620696E-12,1.06628907584531E-8,-1.));
#1508=DIRECTION('',(-0.999999992029881,0.000126254655137494,0.));
#1509=DIRECTION('',(-0.000126254655137494,-0.999999992029881,0.));
#1510=DIRECTION('',(-0.000126254655137494,-0.999999992029881,0.));
#1511=DIRECTION('',(0.,0.,1.));
#1512=DIRECTION('',(-0.000126254655137494,-0.999999992029881,-1.99106284066159E-20));
#1513=DIRECTION('',(0.,0.,-1.));
#1514=DIRECTION('',(0.000126254655137494,0.999999992029881,0.));
#1515=DIRECTION('',(0.,0.,-1.));
#1516=DIRECTION('',(-1.,0.,0.));
#1517=DIRECTION('',(0.,0.,-1.));
#1518=DIRECTION('',(-1.,0.,0.));
#1519=DIRECTION('',(0.,0.,1.));
#1520=DIRECTION('',(1.,0.,0.));
#1521=DIRECTION('',(0.,0.,-1.));
#1522=DIRECTION('',(-1.,0.,0.));
#1523=DIRECTION('',(0.,0.,-1.));
#1524=DIRECTION('',(-1.,0.,0.));
#1525=DIRECTION('',(0.,0.,1.));
#1526=DIRECTION('',(1.,0.,0.));
#1527=DIRECTION('',(0.,0.,-1.));
#1528=DIRECTION('',(-1.,0.,0.));
#1529=DIRECTION('',(0.,0.,-1.));
#1530=DIRECTION('',(-1.,0.,0.));
#1531=DIRECTION('',(0.,0.,1.));
#1532=DIRECTION('',(1.,0.,0.));
#1533=DIRECTION('',(0.,0.,-1.));
#1534=DIRECTION('',(-1.,0.,0.));
#1535=DIRECTION('',(0.,0.,-1.));
#1536=DIRECTION('',(-1.,0.,0.));
#1537=DIRECTION('',(0.,0.,1.));
#1538=DIRECTION('',(1.,0.,0.));
#1539=DIRECTION('',(-0.999999992030887,0.000126246685018394,0.));
#1540=DIRECTION('',(-0.000126246685018394,-0.999999992030887,0.));
#1541=DIRECTION('',(0.000126246685018394,0.999999992030887,0.));
#1542=DIRECTION('',(0.,0.,1.));
#1543=DIRECTION('',(-0.000126246685018394,-0.999999992030887,0.));
#1544=DIRECTION('',(0.,0.,1.));
#1545=DIRECTION('',(9.99999995000848E-5,-0.999999995,0.));
#1546=DIRECTION('',(0.999999995,9.99999995000848E-5,0.));
#1547=DIRECTION('',(-0.999999995,-9.99999995000848E-5,0.));
#1548=DIRECTION('',(0.999999995,9.99999995000848E-5,0.));
#1549=DIRECTION('',(-7.97103889075094E-13,1.,0.));
#1550=DIRECTION('',(-1.,-7.97103889075094E-13,0.));
#1551=DIRECTION('',(1.,7.97103889075094E-13,0.));
#1552=DIRECTION('',(-1.,-7.97103889075094E-13,0.));
#1553=DIRECTION('',(0.,-1.,0.));
#1554=DIRECTION('',(0.,0.,-1.));
#1555=DIRECTION('',(-1.,0.,-1.57702132922805E-16));
#1556=DIRECTION('',(1.,0.,0.));
#1557=DIRECTION('',(-1.,0.,-1.57702132922805E-16));
#1558=DIRECTION('',(0.,-1.,0.));
#1559=DIRECTION('',(0.,0.,-1.));
#1560=DIRECTION('',(-1.,0.,-1.57702132922805E-16));
#1561=DIRECTION('',(-1.,0.,-1.57702132922805E-16));
#1562=DIRECTION('',(1.,0.,0.));
#1563=DIRECTION('',(0.,0.,1.));
#1564=DIRECTION('',(1.,0.,0.));
#1565=DIRECTION('',(0.000126254655137494,0.999999992029881,0.));
#1566=DIRECTION('',(-0.999999992029881,0.000126254655137494,0.));
#1567=DIRECTION('',(-0.999999992029881,0.000126254655137494,0.));
#1568=DIRECTION('',(-0.999999992029881,0.000126254655137494,0.));
#1569=DIRECTION('',(-0.000126254655137494,-0.999999992029881,0.));
#1570=DIRECTION('',(-0.999999992029881,0.000126254655137494,0.));
#1571=DIRECTION('',(-0.000126254655137494,-0.999999992029881,0.));
#1572=DIRECTION('',(-0.999999992029881,0.000126254655137494,0.));
#1573=DIRECTION('',(0.000126254655137494,0.999999992029881,1.06628908434376E-8));
#1574=DIRECTION('',(-0.999999992029881,0.000126254655137494,0.));
#1575=DIRECTION('',(1.34623960620696E-12,1.06628907584531E-8,-1.));
#1576=DIRECTION('',(-0.999999992029881,0.000126254655137494,0.));
#1577=DIRECTION('',(-0.999999992029881,0.000126254655137494,0.));
#1578=DIRECTION('',(-0.000126254655137494,-0.999999992029881,0.));
#1579=DIRECTION('',(-0.999999992029881,0.000126254655137494,0.));
#1580=DIRECTION('',(-0.000126254655137494,-0.999999992029881,0.));
#1581=DIRECTION('',(-0.999999992029881,0.000126254655137494,0.));
#1582=DIRECTION('',(0.,0.,-1.));
#1583=DIRECTION('',(-1.,0.,0.));
#1584=DIRECTION('',(-0.000126254655137494,-0.999999992029881,0.));
#1585=DIRECTION('',(-0.999999992029881,0.000126254655137494,0.));
#1586=DIRECTION('',(-0.999999992029881,0.000126254655137494,0.));
#1587=DIRECTION('',(-0.000126254655137494,-0.999999992029881,0.));
#1588=DIRECTION('',(-0.999999992029881,0.000126254655137494,0.));
#1589=DIRECTION('',(-0.000126254655137494,-0.999999992029881,0.));
#1590=DIRECTION('',(-0.999999992029881,0.000126254655137494,0.));
#1591=DIRECTION('',(-0.000126254655137494,-0.999999992029881,-1.06628908434376E-8));
#1592=DIRECTION('',(0.999999992029881,-0.000126254655137494,0.));
#1593=DIRECTION('',(-1.34623960620696E-12,-1.06628907584531E-8,1.));
#1594=DIRECTION('',(-0.999999992029881,0.000126254655137494,0.));
#1595=DIRECTION('',(-0.999999992029881,0.000126254655137494,0.));
#1596=DIRECTION('',(-0.000126254655137494,-0.999999992029881,0.));
#1597=DIRECTION('',(-0.999999992029881,0.000126254655137494,0.));
#1598=DIRECTION('',(-0.000126254655137494,-0.999999992029881,0.));
#1599=DIRECTION('',(0.,0.,1.));
#1600=DIRECTION('',(1.,0.,0.));
#1601=DIRECTION('',(0.,0.,1.));
#1602=DIRECTION('',(1.,0.,0.));
#1603=DIRECTION('',(0.,0.,1.));
#1604=DIRECTION('',(1.,0.,0.));
#1605=DIRECTION('',(0.,0.,1.));
#1606=DIRECTION('',(1.,0.,0.));
#1607=DIRECTION('',(0.,0.,1.));
#1608=DIRECTION('',(1.,0.,0.));
#1609=DIRECTION('',(0.,0.,-1.));
#1610=DIRECTION('',(-1.,0.,0.));
#1611=DIRECTION('',(0.,0.,1.));
#1612=DIRECTION('',(1.,0.,0.));
#1613=DIRECTION('',(0.,0.,1.));
#1614=DIRECTION('',(1.,0.,0.));
#1615=DIRECTION('',(0.,0.,-1.));
#1616=DIRECTION('',(-1.,0.,0.));
#1617=DIRECTION('',(0.,0.,1.));
#1618=DIRECTION('',(1.,0.,0.));
#1619=DIRECTION('',(0.,0.,1.));
#1620=DIRECTION('',(1.,0.,0.));
#1621=DIRECTION('',(0.,0.,-1.));
#1622=DIRECTION('',(-1.,0.,0.));
#1623=DIRECTION('',(0.,0.,1.));
#1624=DIRECTION('',(1.,0.,0.));
#1625=DIRECTION('',(0.,0.,1.));
#1626=DIRECTION('',(1.,0.,0.));
#1627=DIRECTION('',(0.,0.,-1.));
#1628=DIRECTION('',(-1.,0.,0.));
#1629=DIRECTION('',(0.,0.,1.));
#1630=DIRECTION('',(1.,0.,0.));
#1631=DIRECTION('',(0.,0.,1.));
#1632=DIRECTION('',(1.,0.,0.));
#1633=DIRECTION('',(-0.999999992029881,0.000126254655137494,0.));
#1634=DIRECTION('',(-0.000126254655137494,-0.999999992029881,0.));
#1635=DIRECTION('',(-0.999999992029881,0.000126254655137494,0.));
#1636=DIRECTION('',(-0.999999992029881,0.000126254655137494,0.));
#1637=DIRECTION('',(-0.000126254655137494,-0.999999992029881,0.));
#1638=DIRECTION('',(-0.999999992029881,0.000126254655137494,0.));
#1639=DIRECTION('',(0.000126254655137494,0.999999992029881,1.06628908434376E-8));
#1640=DIRECTION('',(-0.999999992029881,0.000126254655137494,0.));
#1641=DIRECTION('',(-0.999999992029881,0.000126254655137494,0.));
#1642=DIRECTION('',(1.34623960620696E-12,1.06628907584531E-8,-1.));
#1643=DIRECTION('',(-0.999999992029881,0.000126254655137494,0.));
#1644=DIRECTION('',(-0.000126254655137494,-0.999999992029881,0.));
#1645=DIRECTION('',(-0.999999992029881,0.000126254655137494,0.));
#1646=DIRECTION('',(-0.999999992029881,0.000126254655137494,0.));
#1647=DIRECTION('',(-0.000126254655137494,-0.999999992029881,0.));
#1648=DIRECTION('',(0.,0.,-1.));
#1649=DIRECTION('',(-1.,0.,0.));
#1650=DIRECTION('',(-0.999999992029881,0.000126254655137494,0.));
#1651=DIRECTION('',(-0.000126254655137494,-0.999999992029881,0.));
#1652=DIRECTION('',(-0.999999992029881,0.000126254655137494,0.));
#1653=DIRECTION('',(-0.000126254655137494,-0.999999992029881,0.));
#1654=DIRECTION('',(-0.999999992029881,0.000126254655137494,0.));
#1655=DIRECTION('',(-0.999999992029881,0.000126254655137494,0.));
#1656=DIRECTION('',(-0.000126254655137494,-0.999999992029881,0.));
#1657=DIRECTION('',(-0.000126254655137494,-0.999999992029881,-1.06628908434376E-8));
#1658=DIRECTION('',(0.999999992029881,-0.000126254655137494,0.));
#1659=DIRECTION('',(-0.999999992029881,0.000126254655137494,0.));
#1660=DIRECTION('',(-1.34623960620696E-12,-1.06628907584531E-8,1.));
#1661=DIRECTION('',(-0.999999992029881,0.000126254655137494,0.));
#1662=DIRECTION('',(-0.000126254655137494,-0.999999992029881,0.));
#1663=DIRECTION('',(-0.999999992029881,0.000126254655137494,0.));
#1664=DIRECTION('',(-0.999999992029881,0.000126254655137494,0.));
#1665=DIRECTION('',(-0.000126254655137494,-0.999999992029881,0.));
#1666=DIRECTION('',(-0.999999992029881,0.000126254655137494,0.));
#1667=DIRECTION('',(-0.000126254655137494,-0.999999992029881,0.));
#1668=DIRECTION('',(0.000126254655137494,0.999999992029881,3.36708752298195E-17));
#1669=DIRECTION('',(0.,0.,1.));
#1670=DIRECTION('',(1.,0.,0.));
#1671=DIRECTION('',(-1.57702132922805E-16,0.,1.));
#1672=DIRECTION('',(1.,0.,1.57702132922805E-16));
#1673=DIRECTION('',(1.57702132922805E-16,0.,-1.));
#1674=DIRECTION('',(-1.,0.,-1.57702132922805E-16));
#1675=DIRECTION('',(-1.,0.,-1.57702132922805E-16));
#1676=DIRECTION('',(1.57702132922805E-16,0.,-1.));
#1677=DIRECTION('',(-1.,0.,-1.57702132922805E-16));
#1678=DIRECTION('',(1.,0.,1.57702132922805E-16));
#1679=DIRECTION('',(0.,-1.,0.));
#1680=DIRECTION('',(1.,0.,0.));
#1681=DIRECTION('',(1.57702132922805E-16,0.,-1.));
#1682=DIRECTION('',(-1.,0.,-1.57702132922805E-16));
#1683=DIRECTION('',(1.57702132922805E-16,0.,-1.));
#1684=DIRECTION('',(-1.,0.,-1.57702132922805E-16));
#1685=DIRECTION('',(-1.,0.,-1.57702132922805E-16));
#1686=DIRECTION('',(-1.57702132922805E-16,0.,1.));
#1687=DIRECTION('',(1.,0.,1.57702132922805E-16));
#1688=DIRECTION('',(1.,0.,1.57702132922805E-16));
#1689=DIRECTION('',(0.,1.,0.));
#1690=DIRECTION('',(1.,0.,0.));
#1691=DIRECTION('',(1.57702132922805E-16,0.,-1.));
#1692=DIRECTION('',(-1.,0.,-1.57702132922805E-16));
#1693=DIRECTION('',(1.57702132922805E-16,0.,-1.));
#1694=DIRECTION('',(-1.,0.,-1.57702132922805E-16));
#1695=DIRECTION('',(0.,0.,1.));
#1696=DIRECTION('',(1.,0.,0.));
#1697=DIRECTION('',(0.,0.,-1.));
#1698=DIRECTION('',(1.,0.,0.));
#1699=DIRECTION('',(0.,0.,-1.));
#1700=DIRECTION('',(-1.,0.,0.));
#1701=DIRECTION('',(0.,0.,-1.));
#1702=DIRECTION('',(-1.,0.,0.));
#1703=DIRECTION('',(0.,0.,-1.));
#1704=DIRECTION('',(-1.,0.,0.));
#1705=DIRECTION('',(0.,0.,-1.));
#1706=DIRECTION('',(-1.,0.,0.));
#1707=DIRECTION('',(-0.000326246678899793,-0.999999946781551,0.));
#1708=DIRECTION('',(-0.99999998,0.000199999998000068,0.));
#1709=DIRECTION('',(-0.000326246678900383,-0.999999946781551,0.));
#1710=DIRECTION('',(-0.999999946781551,0.000326246678901411,0.));
#1711=DIRECTION('',(-0.000326246678899766,-0.999999946781551,0.));
#1712=DIRECTION('',(-0.99999998,0.00019999999800011,0.));
#1713=DIRECTION('',(-0.000326246678899857,-0.999999946781551,0.));
#1714=DIRECTION('',(0.999999995,-9.99999995000652E-5,0.));
#1715=DIRECTION('',(0.000326246678899836,0.999999946781551,0.));
#1716=DIRECTION('',(0.999999946781551,-0.000326246678885798,0.));
#1717=DIRECTION('',(0.000326246678899812,0.999999946781551,0.));
#1718=DIRECTION('',(0.999999946781551,-0.000326246678899793,0.));
#1719=DIRECTION('',(0.000326246678899793,0.999999946781551,0.));
#1720=DIRECTION('',(-0.000326246678899793,-0.999999946781551,0.));
#1721=DIRECTION('',(0.,0.,-1.));
#1722=DIRECTION('',(-0.999999946781551,0.000326246678899812,0.));
#1723=DIRECTION('',(-0.000326246678899812,-0.999999946781551,0.));
#1724=DIRECTION('',(0.000326246678899812,0.999999946781551,0.));
#1725=DIRECTION('',(0.,0.,-1.));
#1726=DIRECTION('',(0.000326246678885798,0.999999946781551,0.));
#1727=DIRECTION('',(-0.999999946781551,0.000326246678885798,0.));
#1728=DIRECTION('',(0.,0.,-1.));
#1729=DIRECTION('',(0.999999946781551,-0.000326246678885798,0.));
#1730=DIRECTION('',(-0.999999946781551,0.000326246678899836,0.));
#1731=DIRECTION('',(-0.000326246678899836,-0.999999946781551,0.));
#1732=DIRECTION('',(0.,0.,-1.));
#1733=DIRECTION('',(0.000326246678899836,0.999999946781551,0.));
#1734=DIRECTION('',(9.99999995000652E-5,0.999999995,0.));
#1735=DIRECTION('',(-0.999999995,9.99999995000652E-5,0.));
#1736=DIRECTION('',(0.,0.,-1.));
#1737=DIRECTION('',(0.999999995,-9.99999995000652E-5,0.));
#1738=DIRECTION('',(0.999999946781551,-0.000326246678899857,0.));
#1739=DIRECTION('',(0.000326246678899857,0.999999946781551,0.));
#1740=DIRECTION('',(0.,0.,-1.));
#1741=DIRECTION('',(-0.000326246678899857,-0.999999946781551,0.));
#1742=DIRECTION('',(-0.00019999999800011,-0.99999998,0.));
#1743=DIRECTION('',(0.99999998,-0.00019999999800011,0.));
#1744=DIRECTION('',(0.,0.,-1.));
#1745=DIRECTION('',(-0.99999998,0.00019999999800011,0.));
#1746=DIRECTION('',(0.999999946781551,-0.000326246678899766,0.));
#1747=DIRECTION('',(0.000326246678899766,0.999999946781551,0.));
#1748=DIRECTION('',(0.,0.,-1.));
#1749=DIRECTION('',(-0.000326246678899766,-0.999999946781551,0.));
#1750=DIRECTION('',(-0.000326246678901411,-0.999999946781551,0.));
#1751=DIRECTION('',(0.999999946781551,-0.000326246678901411,0.));
#1752=DIRECTION('',(0.,0.,-1.));
#1753=DIRECTION('',(-0.999999946781551,0.000326246678901411,0.));
#1754=DIRECTION('',(0.999999946781551,-0.000326246678900383,0.));
#1755=DIRECTION('',(0.000326246678900383,0.999999946781551,0.));
#1756=DIRECTION('',(0.,0.,-1.));
#1757=DIRECTION('',(-0.000326246678900383,-0.999999946781551,0.));
#1758=DIRECTION('',(-0.000199999998000068,-0.99999998,0.));
#1759=DIRECTION('',(0.99999998,-0.000199999998000068,0.));
#1760=DIRECTION('',(-0.99999998,0.000199999998000068,0.));
#1761=DIRECTION('',(0.,0.,1.));
#1762=DIRECTION('',(1.,0.,0.));
#1763=DIRECTION('',(0.,0.,-1.));
#1764=DIRECTION('',(-1.,0.,0.));
#1765=DIRECTION('',(0.,0.,1.));
#1766=DIRECTION('',(1.,0.,0.));
#1767=DIRECTION('',(0.,0.,1.));
#1768=DIRECTION('',(1.,0.,0.));
#1769=DIRECTION('',(0.,0.,-1.));
#1770=DIRECTION('',(-1.,0.,0.));
#1771=DIRECTION('',(0.,0.,1.));
#1772=DIRECTION('',(1.,0.,0.));
#1773=DIRECTION('',(0.,0.,1.));
#1774=DIRECTION('',(1.,0.,0.));
#1775=DIRECTION('',(0.,0.,-1.));
#1776=DIRECTION('',(-1.,0.,0.));
#1777=DIRECTION('',(0.,0.,1.));
#1778=DIRECTION('',(1.,0.,0.));
#1779=DIRECTION('',(0.,0.,1.));
#1780=DIRECTION('',(1.,0.,0.));
#1781=DIRECTION('',(0.,0.,-1.));
#1782=DIRECTION('',(-1.,0.,0.));
#1783=DIRECTION('',(0.,0.,1.));
#1784=DIRECTION('',(1.,0.,0.));
#1785=DIRECTION('',(0.,0.,1.));
#1786=DIRECTION('',(1.,0.,0.));
#1787=CARTESIAN_POINT('',(0.,0.,0.));
#1788=CARTESIAN_POINT('',(-0.050399999690096,-5.01999651533053E-6,0.));
#1789=CARTESIAN_POINT('',(-0.050399999690096,-5.01999651533053E-6,0.00671));
#1790=CARTESIAN_POINT('',(-0.050402375173292,-0.0188200345753509,0.00671));
#1791=CARTESIAN_POINT('',(-0.0504031882532636,-0.0252600344651316,0.00671));
#1792=CARTESIAN_POINT('',(-0.050402375173292,-0.0188200345753509,0.00546));
#1793=CARTESIAN_POINT('',(-0.050402217354973,-0.0175700345853136,0.00546000001332862));
#1794=CARTESIAN_POINT('',(-0.0504022173549657,-0.0175700345270942,-1.87293834955082E-10));
#1795=CARTESIAN_POINT('',(-0.0504022173549721,-0.0175700345777429,0.00475000001332862));
#1796=CARTESIAN_POINT('',(-0.050402375173291,-0.0188200345677802,0.00475));
#1797=CARTESIAN_POINT('',(-0.050402375173291,-0.0188200345677802,0.0035));
#1798=CARTESIAN_POINT('',(-0.050399999690096,-5.01999651533053E-6,0.0035));
#1799=CARTESIAN_POINT('',(-0.0504031882532627,-0.0252600344575609,0.0035));
#1800=CARTESIAN_POINT('',(-0.0504031882532627,-0.0252600344575609,0.00475));
#1801=CARTESIAN_POINT('',(-0.0504033460715816,-0.0265100344475983,0.00474999998667139));
#1802=CARTESIAN_POINT('',(-0.0504033460715752,-0.0265100343969495,-2.82620078381757E-10));
#1803=CARTESIAN_POINT('',(-0.0504033460715825,-0.0265100344551689,0.00545999998667139));
#1804=CARTESIAN_POINT('',(-0.0504031882532636,-0.0252600344651316,0.00546));
#1805=CARTESIAN_POINT('',(-0.0504050498738171,-0.04000500000008,0.));
#1806=CARTESIAN_POINT('',(-0.0504050498738171,-0.04000500000008,0.0025));
#1807=CARTESIAN_POINT('',(-0.0504050498738171,-0.04000500000008,0.013));
#1808=CARTESIAN_POINT('',(-0.050399999690096,-5.01999651533053E-6,0.0025));
#1809=CARTESIAN_POINT('',(-0.0503949495063749,0.0399949600070494,0.0025));
#1810=CARTESIAN_POINT('',(-0.0503949495063749,0.0399949600070494,0.));
#1811=CARTESIAN_POINT('',(-0.0503949495063749,0.0399949600070494,0.013));
#1812=CARTESIAN_POINT('',(-0.050399999690096,-5.01999651533053E-6,0.013));
#1813=CARTESIAN_POINT('',(-0.0504010835837943,-0.008590000000002,0.013));
#1814=CARTESIAN_POINT('',(-0.0504010835837943,-0.008590000000002,0.));
#1815=CARTESIAN_POINT('',(-0.0504010835837943,-0.008590000000002,0.01143));
#1816=CARTESIAN_POINT('',(-0.0504009573729759,-0.00759034721624387,0.01143));
#1817=CARTESIAN_POINT('',(-0.0504009573291382,-0.007590000000002,0.01143));
#1818=CARTESIAN_POINT('',(-0.0504009573291382,-0.007590000000002,0.01063));
#1819=CARTESIAN_POINT('',(-0.0504009573291382,-0.007590000000002,0.00983));
#1820=CARTESIAN_POINT('',(-0.050399999690096,-5.01999651533053E-6,0.00983));
#1821=CARTESIAN_POINT('',(-0.0504010835837943,-0.008590000000002,0.00983));
#1822=CARTESIAN_POINT('',(-0.0504010835837943,-0.008590000000002,0.));
#1823=CARTESIAN_POINT('',(-0.0504010835837943,-0.008590000000002,0.00826));
#1824=CARTESIAN_POINT('',(-0.050399999690096,-5.01999651533053E-6,0.00826));
#1825=CARTESIAN_POINT('',(-0.0504044798340446,-0.035490000000002,0.00826));
#1826=CARTESIAN_POINT('',(-0.0504044798340446,-0.035490000000002,0.));
#1827=CARTESIAN_POINT('',(-0.0504027817089195,-0.035490000000002,0.00983));
#1828=CARTESIAN_POINT('',(-0.050399999690096,-5.01999651533053E-6,0.00983));
#1829=CARTESIAN_POINT('',(-0.0504046060886727,-0.0364899997776357,0.00983));
#1830=CARTESIAN_POINT('',(-0.0504046060886446,-0.0364899995552694,0.));
#1831=CARTESIAN_POINT('',(-0.0504046060886727,-0.0364899997776357,0.01143));
#1832=CARTESIAN_POINT('',(-0.050399999690096,-5.01999651533053E-6,0.01143));
#1833=CARTESIAN_POINT('',(-0.0504027817089195,-0.035490000000002,0.01143));
#1834=CARTESIAN_POINT('',(-0.0504044798340446,-0.035490000000002,0.));
#1835=CARTESIAN_POINT('',(-0.0504044798340446,-0.035490000000002,0.013));
#1836=CARTESIAN_POINT('',(-0.050399999690096,-5.01999651533053E-6,0.013));
#1837=CARTESIAN_POINT('',(5.05050026892301E-6,0.04000000000705,0.));
#1838=CARTESIAN_POINT('',(0.050004872763785,0.0400049999892764,0.));
#1839=CARTESIAN_POINT('',(0.0500048727637849,0.0400049999892764,0.0025));
#1840=CARTESIAN_POINT('',(0.0500048727637849,0.0400049999892764,0.00799));
#1841=CARTESIAN_POINT('',(5.05050026892301E-6,0.04000000000705,0.0025));
#1842=CARTESIAN_POINT('',(0.0504050505069127,0.0400050400070507,0.0025));
#1843=CARTESIAN_POINT('',(0.0504050505069127,0.0400050400070507,0.));
#1844=CARTESIAN_POINT('',(0.0504050505069127,0.0400050400070507,0.013));
#1845=CARTESIAN_POINT('',(5.05050026892301E-6,0.04000000000705,0.013));
#1846=CARTESIAN_POINT('',(5.05050026892301E-6,0.04000000000705,0.0025));
#1847=CARTESIAN_POINT('',(-0.0499951343923827,0.0399949999885608,0.0025));
#1848=CARTESIAN_POINT('',(-0.0499951343923827,0.0399949999885608,0.));
#1849=CARTESIAN_POINT('',(-0.0499951343923827,0.0399949999885608,0.00799));
#1850=CARTESIAN_POINT('',(5.05050026892301E-6,0.04000000000705,0.00799));
#1851=CARTESIAN_POINT('',(0.050400000005713,2.00035255130959E-8,0.));
#1852=CARTESIAN_POINT('',(0.050400000005713,2.00035255130959E-8,0.0025));
#1853=CARTESIAN_POINT('',(0.0503949495045132,-0.040005,0.0025));
#1854=CARTESIAN_POINT('',(0.0503949495045132,-0.040005,0.));
#1855=CARTESIAN_POINT('',(0.0503949495045132,-0.040005,0.013));
#1856=CARTESIAN_POINT('',(0.050400000005713,2.00035255130959E-8,0.013));
#1857=CARTESIAN_POINT('',(-5.05018465192172E-6,-0.0400050000000398,0.));
#1858=CARTESIAN_POINT('',(-5.05018465192172E-6,-0.0400050000000398,0.0025));
#1859=CARTESIAN_POINT('',(-5.05018465192172E-6,-0.0400050000000398,0.013));
#1860=CARTESIAN_POINT('',(-0.04130108362763,-0.035490000000002,0.00826));
#1861=CARTESIAN_POINT('',(-0.04130108362763,-0.035490000000002,0.013));
#1862=CARTESIAN_POINT('',(-0.0559044798778803,-0.035490000000002,0.013));
#1863=CARTESIAN_POINT('',(-0.0531510836057122,-0.035490000000002,0.01143));
#1864=CARTESIAN_POINT('',(-0.0559027817527551,-0.035490000000002,0.01143));
#1865=CARTESIAN_POINT('',(-0.0559044798778803,-0.035490000000002,0.00826));
#1866=CARTESIAN_POINT('',(-0.04130108362763,-0.008590000000002,0.00826));
#1867=CARTESIAN_POINT('',(-0.04130108362763,-0.008590000000002,0.013));
#1868=CARTESIAN_POINT('',(-0.05590108362763,-0.008590000000002,0.013));
#1869=CARTESIAN_POINT('',(-0.05590108362763,-0.008590000000002,0.00826));
#1870=CARTESIAN_POINT('',(-0.05590108362763,-0.008590000000002,0.01143));
#1871=CARTESIAN_POINT('',(-0.0531510836057122,-0.008590000000002,0.01143));
#1872=CARTESIAN_POINT('',(-0.0558999997686456,-5.29494805315972E-6,0.));
#1873=CARTESIAN_POINT('',(-0.0558999997686456,-5.29494805315972E-6,0.013));
#1874=CARTESIAN_POINT('',(-0.0558942552190296,0.0454944101039781,0.013));
#1875=CARTESIAN_POINT('',(-0.0558942552190296,0.0454944101039781,0.));
#1876=CARTESIAN_POINT('',(-0.0558942552190296,0.0454944101039781,0.));
#1877=CARTESIAN_POINT('',(-0.0558999997686456,-5.29494805315972E-6,0.));
#1878=CARTESIAN_POINT('',(-0.0559057443182615,-0.0455050000000844,0.));
#1879=CARTESIAN_POINT('',(-0.0559057443182615,-0.0455050000000844,0.));
#1880=CARTESIAN_POINT('',(-0.0559057443182615,-0.0455050000000844,0.013));
#1881=CARTESIAN_POINT('',(-0.0558999997686456,-5.29494805315972E-6,0.013));
#1882=CARTESIAN_POINT('',(-0.0559046060886446,-0.0364896523549678,0.01143));
#1883=CARTESIAN_POINT('',(-0.0559046061325083,-0.0364899997776357,0.01143));
#1884=CARTESIAN_POINT('',(-0.0559046061324802,-0.0364899995552694,0.));
#1885=CARTESIAN_POINT('',(-0.0559046061325083,-0.0364899997776357,0.00983));
#1886=CARTESIAN_POINT('',(-0.0558999997686456,-5.29494805315972E-6,0.00983));
#1887=CARTESIAN_POINT('',(-0.0559027817527551,-0.035490000000002,0.00983));
#1888=CARTESIAN_POINT('',(-0.0559044798778803,-0.035490000000002,0.00826));
#1889=CARTESIAN_POINT('',(-0.0559044798778803,-0.035490000000002,0.00826));
#1890=CARTESIAN_POINT('',(-0.0558999997686456,-5.29494805315972E-6,0.00826));
#1891=CARTESIAN_POINT('',(-0.055903188209428,-0.0252593400645284,0.00826));
#1892=CARTESIAN_POINT('',(-0.055903188209428,-0.0252593400645284,0.00546));
#1893=CARTESIAN_POINT('',(-0.0559035417224624,-0.028059340042212,0.00545999997014391));
#1894=CARTESIAN_POINT('',(-0.0559035417224619,-0.0280593400384267,0.00510499997014391));
#1895=CARTESIAN_POINT('',(-0.0559035417224614,-0.0280593400346413,0.00474999997014391));
#1896=CARTESIAN_POINT('',(-0.055903188209427,-0.0252593400569577,0.00475));
#1897=CARTESIAN_POINT('',(-0.055903188209427,-0.0252593400569577,0.00195));
#1898=CARTESIAN_POINT('',(-0.0559027816694412,-0.0220393401120673,0.00195));
#1899=CARTESIAN_POINT('',(-0.0559023751294554,-0.018819340167177,0.00195));
#1900=CARTESIAN_POINT('',(-0.0559023751294554,-0.018819340167177,0.00475));
#1901=CARTESIAN_POINT('',(-0.055902021616421,-0.0160193401894934,0.0047500000298561));
#1902=CARTESIAN_POINT('',(-0.0559020216164215,-0.0160193401932786,0.0051050000298561));
#1903=CARTESIAN_POINT('',(-0.055902021616422,-0.016019340197064,0.0054600000298561));
#1904=CARTESIAN_POINT('',(-0.0559023751294564,-0.0188193401747477,0.00546));
#1905=CARTESIAN_POINT('',(-0.0559023751294563,-0.0188193401747477,0.00826));
#1906=CARTESIAN_POINT('',(-0.0558999997686456,-5.29494805315972E-6,0.00826));
#1907=CARTESIAN_POINT('',(-0.05590108362763,-0.008590000000002,0.00826));
#1908=CARTESIAN_POINT('',(-0.05590108362763,-0.008590000000002,0.00826));
#1909=CARTESIAN_POINT('',(-0.05590108362763,-0.008590000000002,0.00983));
#1910=CARTESIAN_POINT('',(-0.0558999997686456,-5.29494805315972E-6,0.00983));
#1911=CARTESIAN_POINT('',(-0.0559009573729738,-0.007590000000002,0.00983));
#1912=CARTESIAN_POINT('',(-0.0559009573729738,-0.007590000000002,0.));
#1913=CARTESIAN_POINT('',(-0.0559009573729738,-0.007590000000002,0.01143));
#1914=CARTESIAN_POINT('',(-0.0558999997686456,-5.29494805315972E-6,0.01143));
#1915=CARTESIAN_POINT('',(-0.0531446023627022,0.0427446850555137,0.016));
#1916=CARTESIAN_POINT('',(-0.0531446023627022,0.0427446850555138,0.00439055940236791));
#1917=CARTESIAN_POINT('',(-0.0548446023627022,0.0427446850555138,0.00439055940236791));
#1918=CARTESIAN_POINT('',(-0.0531446023627022,0.0427446850555137,0.013));
#1919=CARTESIAN_POINT('',(-0.0514446023627022,0.0427446850555137,0.013));
#1920=CARTESIAN_POINT('',(0.0531553977419384,0.0427553150555242,0.016));
#1921=CARTESIAN_POINT('',(0.0531553977419384,0.042755315055579,0.00439055940236791));
#1922=CARTESIAN_POINT('',(0.0514553977419384,0.042755315055579,0.00439055940236791));
#1923=CARTESIAN_POINT('',(0.0531553977419384,0.0427553150555242,0.013));
#1924=CARTESIAN_POINT('',(0.0548553977419384,0.0427553150555242,0.013));
#1925=CARTESIAN_POINT('',(0.0531446023480417,-0.0427549999999975,0.016));
#1926=CARTESIAN_POINT('',(0.0531446023480417,-0.0427549999999975,0.00439055940236791));
#1927=CARTESIAN_POINT('',(0.0514446023480417,-0.0427549999999975,0.00439055940236791));
#1928=CARTESIAN_POINT('',(0.0531446023480417,-0.0427549999999975,0.013));
#1929=CARTESIAN_POINT('',(0.0548446023480417,-0.0427549999999975,0.013));
#1930=CARTESIAN_POINT('',(-0.0531553970960393,-0.0427550000000822,0.016));
#1931=CARTESIAN_POINT('',(-0.0531553970960393,-0.0427550000000822,0.00439055940236791));
#1932=CARTESIAN_POINT('',(-0.0548553970960393,-0.0427550000000822,0.00439055940236791));
#1933=CARTESIAN_POINT('',(-0.0531553970960393,-0.0427550000000822,0.013));
#1934=CARTESIAN_POINT('',(-0.0514553970960393,-0.0427550000000822,0.013));
#1935=CARTESIAN_POINT('',(0.0559000000842671,2.95052001227092E-7,0.));
#1936=CARTESIAN_POINT('',(0.0559000000842671,2.95052001227092E-7,0.013));
#1937=CARTESIAN_POINT('',(0.0558942551915702,-0.0455049999999953,0.013));
#1938=CARTESIAN_POINT('',(0.055905744976964,0.0455055901039977,0.013));
#1939=CARTESIAN_POINT('',(0.0558942551915702,-0.0455049999999953,0.));
#1940=CARTESIAN_POINT('',(0.0558942551915702,-0.0455049999999953,0.));
#1941=CARTESIAN_POINT('',(0.0559000000842671,2.95052001227092E-7,0.));
#1942=CARTESIAN_POINT('',(0.055905744976964,0.0455055901039977,0.));
#1943=CARTESIAN_POINT('',(0.055905744976964,0.0455055901039977,0.));
#1944=CARTESIAN_POINT('',(5.74487896720308E-6,0.0455000001039879,0.));
#1945=CARTESIAN_POINT('',(5.74487896720308E-6,0.0455000001039879,0.013));
#1946=CARTESIAN_POINT('',(5.74487896720308E-6,0.0455000001039879,0.));
#1947=CARTESIAN_POINT('',(-5.74456334565682E-6,-0.0455050000000399,0.));
#1948=CARTESIAN_POINT('',(-5.74456334565682E-6,-0.0455050000000399,0.013));
#1949=CARTESIAN_POINT('',(-5.74456334565682E-6,-0.0455050000000399,0.));
#1950=CARTESIAN_POINT('',(-0.04130108362763,-0.035490000000002,0.00826));
#1951=CARTESIAN_POINT('',(-0.0531510836057122,-0.035490000000002,0.00983));
#1952=CARTESIAN_POINT('',(-0.0514044798340176,-0.035490000000002,0.00983));
#1953=CARTESIAN_POINT('',(-0.04130108362763,-0.035490000000002,0.00826));
#1954=CARTESIAN_POINT('',(-0.0531510836057122,-0.035490000000002,0.00983));
#1955=CARTESIAN_POINT('',(-0.04130108362763,-0.008590000000002,0.00826));
#1956=CARTESIAN_POINT('',(-0.0531510836057122,-0.008590000000002,0.00983));
#1957=CARTESIAN_POINT('',(-0.0512711012493569,-0.008590000000002,0.00983));
#1958=CARTESIAN_POINT('',(-0.0531510836057122,-0.008590000000002,0.00983));
#1959=CARTESIAN_POINT('',(-0.04130108362763,-0.008590000000002,0.00826));
#1960=CARTESIAN_POINT('',(-0.0500027817164659,-0.0220400850221033,0.00671));
#1961=CARTESIAN_POINT('',(-0.0524027816973376,-0.022039782010931,0.00671));
#1962=CARTESIAN_POINT('',(-0.0524031882373234,-0.0252597819558214,0.00671));
#1963=CARTESIAN_POINT('',(-0.0524023751573518,-0.0188197820660407,0.00671));
#1964=CARTESIAN_POINT('',(-0.0500023751764801,-0.0188200850772129,0.00671));
#1965=CARTESIAN_POINT('',(-0.0500031882564517,-0.0252600849669937,0.00671));
#1966=CARTESIAN_POINT('',(-0.0500023751764801,-0.0188200850772129,0.00546));
#1967=CARTESIAN_POINT('',(-0.0524023751573518,-0.0188197820660407,0.00546));
#1968=CARTESIAN_POINT('',(-0.0524022173390328,-0.0175697820760033,0.00546000001332862));
#1969=CARTESIAN_POINT('',(-0.0500022173581611,-0.0175700850871756,0.00546000001332862));
#1970=CARTESIAN_POINT('',(-0.0500022173581607,-0.0175700850833903,0.00510500001332862));
#1971=CARTESIAN_POINT('',(-0.0524022173390324,-0.017569782072218,0.00510500001332862));
#1972=CARTESIAN_POINT('',(-0.0524022173390319,-0.0175697820684327,0.00475000001332862));
#1973=CARTESIAN_POINT('',(-0.0500022173581602,-0.017570085079605,0.00475000001332862));
#1974=CARTESIAN_POINT('',(-0.0500023751764791,-0.0188200850696423,0.00475));
#1975=CARTESIAN_POINT('',(-0.0524023751573508,-0.01881978205847,0.00475));
#1976=CARTESIAN_POINT('',(-0.0524023751573508,-0.01881978205847,0.0035));
#1977=CARTESIAN_POINT('',(-0.0500023751764791,-0.0188200850696423,0.0035));
#1978=CARTESIAN_POINT('',(-0.0500027817164649,-0.0220400850145327,0.0035));
#1979=CARTESIAN_POINT('',(-0.0524027816973366,-0.0220397820033604,0.0035));
#1980=CARTESIAN_POINT('',(-0.0524031882373225,-0.0252597819482507,0.0035));
#1981=CARTESIAN_POINT('',(-0.0500031882564507,-0.025260084959423,0.0035));
#1982=CARTESIAN_POINT('',(-0.0500031882564507,-0.025260084959423,0.00475));
#1983=CARTESIAN_POINT('',(-0.0524031882373225,-0.0252597819482507,0.00475));
#1984=CARTESIAN_POINT('',(-0.0524033460556414,-0.0265097819382881,0.00474999998667139));
#1985=CARTESIAN_POINT('',(-0.0500033460747697,-0.0265100849494604,0.00474999998667139));
#1986=CARTESIAN_POINT('',(-0.0500033460747701,-0.0265100849532457,0.00510499998667139));
#1987=CARTESIAN_POINT('',(-0.0524033460556419,-0.0265097819420733,0.00510499998667139));
#1988=CARTESIAN_POINT('',(-0.0524033460556423,-0.0265097819458587,0.00545999998667139));
#1989=CARTESIAN_POINT('',(-0.0500033460747706,-0.026510084957031,0.00545999998667139));
#1990=CARTESIAN_POINT('',(-0.0500031882564517,-0.0252600849669937,0.00546));
#1991=CARTESIAN_POINT('',(-0.0524031882373234,-0.0252597819558214,0.00546));
#1992=CARTESIAN_POINT('',(3.29351219907625E-10,2.95051956644698E-7,0.));
#1993=CARTESIAN_POINT('',(-0.0531446023627022,0.0427446850555138,0.));
#1994=CARTESIAN_POINT('',(-0.0507946023627022,0.0427446850555138,0.));
#1995=CARTESIAN_POINT('',(0.0531553977419384,0.042755315055579,0.));
#1996=CARTESIAN_POINT('',(0.0555053977419384,0.042755315055579,0.));
#1997=CARTESIAN_POINT('',(0.0531446023480417,-0.0427549999999975,0.));
#1998=CARTESIAN_POINT('',(0.0554946023480417,-0.0427549999999975,0.));
#1999=CARTESIAN_POINT('',(-0.0531553970960393,-0.0427550000000822,0.));
#2000=CARTESIAN_POINT('',(-0.0508053970960393,-0.0427550000000822,0.));
#2001=CARTESIAN_POINT('',(-0.0531553970960393,-0.0427550000000822,0.004));
#2002=CARTESIAN_POINT('',(-0.0531553970960393,-0.0427550000000822,0.004));
#2003=CARTESIAN_POINT('',(-0.0508053970960393,-0.0427550000000822,0.004));
#2004=CARTESIAN_POINT('',(-0.0531553970960393,-0.0427550000000822,0.));
#2005=CARTESIAN_POINT('',(0.0531446023480417,-0.0427549999999975,0.004));
#2006=CARTESIAN_POINT('',(0.0531446023480417,-0.0427549999999975,0.004));
#2007=CARTESIAN_POINT('',(0.0554946023480417,-0.0427549999999975,0.004));
#2008=CARTESIAN_POINT('',(0.0531446023480417,-0.0427549999999975,0.));
#2009=CARTESIAN_POINT('',(0.0531553977419384,0.042755315055579,0.004));
#2010=CARTESIAN_POINT('',(0.0531553977419384,0.042755315055579,0.004));
#2011=CARTESIAN_POINT('',(0.0555053977419384,0.042755315055579,0.004));
#2012=CARTESIAN_POINT('',(0.0531553977419384,0.042755315055579,0.));
#2013=CARTESIAN_POINT('',(-0.0531446023627022,0.0427446850555138,0.004));
#2014=CARTESIAN_POINT('',(-0.0531446023627022,0.0427446850555138,0.004));
#2015=CARTESIAN_POINT('',(-0.0507946023627022,0.0427446850555138,0.004));
#2016=CARTESIAN_POINT('',(-0.0531446023627022,0.0427446850555138,0.));
#2017=CARTESIAN_POINT('',(-0.0524023751573518,-0.0188197820660407,0.00546));
#2018=CARTESIAN_POINT('',(-0.0524020216443174,-0.016019782088357,0.0054600000298561));
#2019=CARTESIAN_POINT('',(-0.0524020216443174,-0.016019782088357,0.0054600000298561));
#2020=CARTESIAN_POINT('',(-0.0524023751573518,-0.0188197820660407,0.00546));
#2021=CARTESIAN_POINT('',(-0.0524023751573518,-0.0188197820660407,0.00826));
#2022=CARTESIAN_POINT('',(-0.0524023751573518,-0.0188197820660407,0.00826));
#2023=CARTESIAN_POINT('',(-0.0524020216443169,-0.0160197820845716,0.0051050000298561));
#2024=CARTESIAN_POINT('',(-0.0524020216443164,-0.0160197820807863,0.0047500000298561));
#2025=CARTESIAN_POINT('',(-0.0524020216443164,-0.0160197820807863,0.0047500000298561));
#2026=CARTESIAN_POINT('',(-0.0524020216443169,-0.0160197820845716,0.0051050000298561));
#2027=CARTESIAN_POINT('',(-0.0524023751573508,-0.01881978205847,0.00475));
#2028=CARTESIAN_POINT('',(-0.0524023751573508,-0.01881978205847,0.00195));
#2029=CARTESIAN_POINT('',(-0.0524023751573508,-0.01881978205847,0.00195));
#2030=CARTESIAN_POINT('',(-0.0524023751573508,-0.01881978205847,0.00475));
#2031=CARTESIAN_POINT('',(-0.0524027816973366,-0.0220397820033604,0.00195));
#2032=CARTESIAN_POINT('',(-0.0524031882373225,-0.0252597819482507,0.00195));
#2033=CARTESIAN_POINT('',(-0.0524031882373225,-0.0252597819482507,0.00195));
#2034=CARTESIAN_POINT('',(-0.0524027816973366,-0.0220397820033604,0.00195));
#2035=CARTESIAN_POINT('',(-0.0524031882373225,-0.0252597819482507,0.00475));
#2036=CARTESIAN_POINT('',(-0.0524035417503568,-0.0280597819259343,0.00474999997014391));
#2037=CARTESIAN_POINT('',(-0.0524035417503568,-0.0280597819259343,0.00474999997014391));
#2038=CARTESIAN_POINT('',(-0.0524031882373225,-0.0252597819482507,0.00475));
#2039=CARTESIAN_POINT('',(-0.0524035417503573,-0.0280597819297197,0.00510499997014391));
#2040=CARTESIAN_POINT('',(-0.0524035417503578,-0.028059781933505,0.00545999997014391));
#2041=CARTESIAN_POINT('',(-0.0524035417503578,-0.028059781933505,0.00545999997014391));
#2042=CARTESIAN_POINT('',(-0.0524035417503573,-0.0280597819297197,0.00510499997014391));
#2043=CARTESIAN_POINT('',(-0.0524031882373234,-0.0252597819558214,0.00546));
#2044=CARTESIAN_POINT('',(-0.0524031882373234,-0.0252597819558214,0.00826));
#2045=CARTESIAN_POINT('',(-0.0524031882373234,-0.0252597819558214,0.00826));
#2046=CARTESIAN_POINT('',(-0.0524031882373234,-0.0252597819558214,0.00546));
#2047=CARTESIAN_POINT('',(-0.052399999796541,-5.73683934614299E-6,0.008));
#2048=CARTESIAN_POINT('',(-0.0524027816973376,-0.022039782010931,0.00826));
#2049=CARTESIAN_POINT('',(-0.04130108362763,-0.022040000000002,0.00826));
#2050=CARTESIAN_POINT('',(-0.0531510836057122,-0.007590000000002,0.00983));
#2051=CARTESIAN_POINT('',(-0.0512711012493569,-0.00819000000000202,0.00983));
#2052=CARTESIAN_POINT('',(-0.0531510836057122,-0.007590000000002,0.00983));
#2053=CARTESIAN_POINT('',(-0.0531510836057122,-0.007590000000002,0.01143));
#2054=CARTESIAN_POINT('',(-0.0531510836057122,-0.007590000000002,0.01143));
#2055=CARTESIAN_POINT('',(-0.0531510836057122,-0.007590000000002,0.01063));
#2056=CARTESIAN_POINT('',(-0.0531510836057122,-0.036490000000002,0.00983));
#2057=CARTESIAN_POINT('',(-0.0514044798340176,-0.0358900000079721,0.00983));
#2058=CARTESIAN_POINT('',(-0.0531510836057122,-0.036490000000002,0.00983));
#2059=CARTESIAN_POINT('',(-0.0531510836057122,-0.036490000000002,0.01143));
#2060=CARTESIAN_POINT('',(-0.0531510836057122,-0.036490000000002,0.01143));
#2061=CARTESIAN_POINT('',(-0.0531510836057122,-0.036490000000002,0.01063));
#2062=CARTESIAN_POINT('',(-0.0514044798340176,-0.0358900000079721,0.00983));
#2063=CARTESIAN_POINT('',(-0.0512711012493569,-0.00819000000000202,0.00983));
#2064=CARTESIAN_POINT('',(-4.83493405225785E-6,-3.80999904000742E-6,0.013));
#2065=CARTESIAN_POINT('',(3.29351219907625E-10,2.95051956644698E-7,0.0025));
#2066=CARTESIAN_POINT('',(0.0264587497034669,-0.0213224999785423,0.0025));
#2067=CARTESIAN_POINT('',(0.0244587497034669,-0.0213224999785423,0.0025));
#2068=CARTESIAN_POINT('',(0.0264587497034669,0.0168175000214577,0.0025));
#2069=CARTESIAN_POINT('',(0.0244587497034669,0.0168175000214577,0.0025));
#2070=CARTESIAN_POINT('',(-0.0116812502965331,0.0168175000214577,0.0025));
#2071=CARTESIAN_POINT('',(-0.0136812502965331,0.0168175000214577,0.0025));
#2072=CARTESIAN_POINT('',(-0.0116812502965331,-0.0213224999785423,0.0025));
#2073=CARTESIAN_POINT('',(-0.0136812502965331,-0.0213224999785423,0.0025));
#2074=CARTESIAN_POINT('',(0.0499920790001792,0.000790001792100072,0.0025));
#2075=CARTESIAN_POINT('',(0.0499791580003584,-0.0388149964158,0.0025));
#2076=CARTESIAN_POINT('',(-2.08406840249351E-5,-0.0388049964159631,0.0025));
#2077=CARTESIAN_POINT('',(-0.0500208393684082,-0.0387949964161262,0.0025));
#2078=CARTESIAN_POINT('',(-0.050019727682841,-0.0353874965703134,0.0025));
#2079=CARTESIAN_POINT('',(-0.0500186159972738,-0.0319799967245005,0.0025));
#2080=CARTESIAN_POINT('',(-0.0490186160504922,-0.0319803229711794,0.0025));
#2081=CARTESIAN_POINT('',(-0.0480186161037107,-0.0319806492178583,0.0025));
#2082=CARTESIAN_POINT('',(-0.0480194015014088,-0.0343880228622412,0.0025));
#2083=CARTESIAN_POINT('',(-0.048020186899107,-0.0367953965066241,0.0025));
#2084=CARTESIAN_POINT('',(-2.01881906619072E-5,-0.0368049965064618,0.0025));
#2085=CARTESIAN_POINT('',(0.0479798105177832,-0.0368145965062995,0.0025));
#2086=CARTESIAN_POINT('',(0.0479920789916106,0.000790301774477031,0.0025));
#2087=CARTESIAN_POINT('',(0.0480043474654379,0.0383952000552534,0.0025));
#2088=CARTESIAN_POINT('',(4.34719100879389E-6,0.0384000000552809,0.0025));
#2089=CARTESIAN_POINT('',(-0.0479956530834204,0.0384048000553084,0.0025));
#2090=CARTESIAN_POINT('',(-0.0480036274417394,0.0139620749322937,0.0025));
#2091=CARTESIAN_POINT('',(-0.0480116018000584,-0.010480650190721,0.0025));
#2092=CARTESIAN_POINT('',(-0.04901160174684,-0.0104803239440421,0.0025));
#2093=CARTESIAN_POINT('',(-0.0500116016936215,-0.0104799976973632,0.0025));
#2094=CARTESIAN_POINT('',(-0.0500033011624275,0.0149625011513499,0.0025));
#2095=CARTESIAN_POINT('',(0.0499920790001792,0.000790001792100072,0.00799));
#2096=CARTESIAN_POINT('',(0.0499920790001792,0.000790001792100072,0.00799));
#2097=CARTESIAN_POINT('',(0.0499791580003584,-0.0388149964158,0.00799));
#2098=CARTESIAN_POINT('',(0.0499791580003584,-0.0388149964158,0.00799));
#2099=CARTESIAN_POINT('',(-0.0500033011624275,0.0149625011513499,0.00799));
#2100=CARTESIAN_POINT('',(-0.0500033011624275,0.0149625011513499,0.00799));
#2101=CARTESIAN_POINT('',(-0.0500116016936215,-0.0104799976973632,0.00799));
#2102=CARTESIAN_POINT('',(-0.0500116016936215,-0.0104799976973632,0.00799));
#2103=CARTESIAN_POINT('',(-0.04901160174684,-0.0104803239440421,0.00799));
#2104=CARTESIAN_POINT('',(-0.0480116018000584,-0.010480650190721,0.00799));
#2105=CARTESIAN_POINT('',(-0.0480116018000584,-0.010480650190721,0.00799));
#2106=CARTESIAN_POINT('',(-0.04901160174684,-0.0104803239440421,0.00799));
#2107=CARTESIAN_POINT('',(-0.0480036274417394,0.0139620749322937,0.00799));
#2108=CARTESIAN_POINT('',(-0.0479956530834204,0.0384048000553084,0.00799));
#2109=CARTESIAN_POINT('',(-0.0479956530834204,0.0384048000553084,0.00799));
#2110=CARTESIAN_POINT('',(-0.0480036274417394,0.0139620749322937,0.00799));
#2111=CARTESIAN_POINT('',(4.34719100879389E-6,0.0384000000552809,0.00799));
#2112=CARTESIAN_POINT('',(0.0480043474654379,0.0383952000552534,0.00799));
#2113=CARTESIAN_POINT('',(0.0480043474654379,0.0383952000552534,0.00799));
#2114=CARTESIAN_POINT('',(4.34719100879389E-6,0.0384000000552809,0.00799));
#2115=CARTESIAN_POINT('',(0.0479920789916106,0.000790301774477031,0.00799));
#2116=CARTESIAN_POINT('',(0.0479798105177832,-0.0368145965062995,0.00799));
#2117=CARTESIAN_POINT('',(0.0479798105177832,-0.0368145965062995,0.00799));
#2118=CARTESIAN_POINT('',(0.0479920789916106,0.000790301774477031,0.00799));
#2119=CARTESIAN_POINT('',(-2.01881906619072E-5,-0.0368049965064618,0.00799));
#2120=CARTESIAN_POINT('',(-0.048020186899107,-0.0367953965066241,0.00799));
#2121=CARTESIAN_POINT('',(-0.048020186899107,-0.0367953965066241,0.00799));
#2122=CARTESIAN_POINT('',(-2.01881906619072E-5,-0.0368049965064618,0.00799));
#2123=CARTESIAN_POINT('',(-0.0480194015014088,-0.0343880228622412,0.00799));
#2124=CARTESIAN_POINT('',(-0.0480186161037107,-0.0319806492178583,0.00799));
#2125=CARTESIAN_POINT('',(-0.0480186161037107,-0.0319806492178583,0.00799));
#2126=CARTESIAN_POINT('',(-0.0480194015014088,-0.0343880228622412,0.00799));
#2127=CARTESIAN_POINT('',(-0.0490186160504922,-0.0319803229711794,0.00799));
#2128=CARTESIAN_POINT('',(-0.0500186159972738,-0.0319799967245005,0.00799));
#2129=CARTESIAN_POINT('',(-0.0500186159972738,-0.0319799967245005,0.00799));
#2130=CARTESIAN_POINT('',(-0.0490186160504922,-0.0319803229711794,0.00799));
#2131=CARTESIAN_POINT('',(-0.050019727682841,-0.0353874965703134,0.00799));
#2132=CARTESIAN_POINT('',(-0.0500208393684082,-0.0387949964161262,0.00799));
#2133=CARTESIAN_POINT('',(-0.0500208393684082,-0.0387949964161262,0.00799));
#2134=CARTESIAN_POINT('',(-0.050019727682841,-0.0353874965703134,0.00799));
#2135=CARTESIAN_POINT('',(-2.08406840249351E-5,-0.0388049964159631,0.00799));
#2136=CARTESIAN_POINT('',(-2.08406840249351E-5,-0.0388049964159631,0.00799));
#2137=CARTESIAN_POINT('',(-7.91968420412598E-6,0.000795001792131565,0.00799));
#2138=CARTESIAN_POINT('',(-0.0116812502965331,-0.0213224999785423,0.00799));
#2139=CARTESIAN_POINT('',(-0.0116812502965331,-0.0213224999785423,0.00799));
#2140=CARTESIAN_POINT('',(-0.0096812502965331,-0.0213224999785423,0.00799));
#2141=CARTESIAN_POINT('',(-7.91968420412598E-6,0.000795001792131565,0.00799));
#2142=CARTESIAN_POINT('',(-0.0116812502965331,0.0168175000214577,0.00799));
#2143=CARTESIAN_POINT('',(-0.0116812502965331,0.0168175000214577,0.00799));
#2144=CARTESIAN_POINT('',(-0.0096812502965331,0.0168175000214577,0.00799));
#2145=CARTESIAN_POINT('',(-7.91968420412598E-6,0.000795001792131565,0.00799));
#2146=CARTESIAN_POINT('',(0.0264587497034669,0.0168175000214577,0.00799));
#2147=CARTESIAN_POINT('',(0.0264587497034669,0.0168175000214577,0.00799));
#2148=CARTESIAN_POINT('',(0.0284587497034669,0.0168175000214577,0.00799));
#2149=CARTESIAN_POINT('',(-7.91968420412598E-6,0.000795001792131565,0.00799));
#2150=CARTESIAN_POINT('',(0.0264587497034669,-0.0213224999785423,0.00799));
#2151=CARTESIAN_POINT('',(0.0264587497034669,-0.0213224999785423,0.00799));
#2152=CARTESIAN_POINT('',(0.0284587497034669,-0.0213224999785423,0.00799));
#2153=CARTESIAN_POINT('',(-7.91968420412598E-6,0.000795001792131565,0.00799));
#2154=MECHANICAL_DESIGN_GEOMETRIC_PRESENTATION_REPRESENTATION('',(#1301),
#2155);
#2155=(
GEOMETRIC_REPRESENTATION_CONTEXT(3)
GLOBAL_UNCERTAINTY_ASSIGNED_CONTEXT((#2156))
GLOBAL_UNIT_ASSIGNED_CONTEXT((#2159,#2158,#2157))
REPRESENTATION_CONTEXT('Main_Case','TOP_LEVEL_ASSEMBLY_PART')
);
#2156=UNCERTAINTY_MEASURE_WITH_UNIT(LENGTH_MEASURE(2.33962502502738E-5),
#2159,'DISTANCE_ACCURACY_VALUE','Maximum Tolerance applied to model');
#2157=(
NAMED_UNIT(*)
SI_UNIT($,.STERADIAN.)
SOLID_ANGLE_UNIT()
);
#2158=(
NAMED_UNIT(*)
PLANE_ANGLE_UNIT()
SI_UNIT($,.RADIAN.)
);
#2159=(
LENGTH_UNIT()
NAMED_UNIT(*)
SI_UNIT($,.METRE.)
);
#2160=PRODUCT_DEFINITION_SHAPE('','',#2161);
#2161=PRODUCT_DEFINITION('','',#2163,#2162);
#2162=PRODUCT_DEFINITION_CONTEXT('',#2169,'design');
#2163=PRODUCT_DEFINITION_FORMATION_WITH_SPECIFIED_SOURCE('','',#2165,
 .NOT_KNOWN.);
#2164=PRODUCT_RELATED_PRODUCT_CATEGORY('','',(#2165));
#2165=PRODUCT('Main_Case','Main_Case','Main_Case',(#2167));
#2166=PRODUCT_CATEGORY('','');
#2167=PRODUCT_CONTEXT('',#2169,'mechanical');
#2168=APPLICATION_PROTOCOL_DEFINITION('international standard',
'ap242_managed_model_based_3d_engineering',2020,#2169);
#2169=APPLICATION_CONTEXT('managed model based 3d engineering');
ENDSEC;
END-ISO-10303-21;
