ISO-10303-21;
HEADER;
/* Generated by software containing ST-Developer
 * from STEP Tools, Inc. (www.steptools.com) 
 */
/* OPTION: using custom renumber hook */

FILE_DESCRIPTION(
/* description */ ('STEP AP242 Edition 2',
'CAx-IF Rec.Pracs.---Representation and Presentation of Product Manufa
cturing Information (PMI)---4.0---2014-10-13',
'CAx-IF Rec.Pracs.---3D Tessellated Geometry---0.4---2014-09-14','2;1',
'CAx-IF Rec.Pracs.---User Defined Attributes---1.5---2016-08-15'),
/* implementation_level */ '2;1');

FILE_NAME(
/* name */ 'Printing - Custom_Insert',
/* time_stamp */ '2026-08-19T17:02:45Z',
/* author */ (''),
/* organization */ (''),
/* preprocessor_version */ 'ST-DEVELOPER v20',
/* originating_system */ 'ONSHAPE BY PTC INC, 1.219',
/* authorisation */ '  ');

FILE_SCHEMA (('AP242_MANAGED_MODEL_BASED_3D_ENGINEERING_MIM_LF { 1 0 10303 442 3 1 4 }'));
ENDSEC;

DATA;
#10=SHAPE_REPRESENTATION_RELATIONSHIP('','',#365,#11);
#11=ADVANCED_BREP_SHAPE_REPRESENTATION('',(#363),#575);
#12=SPHERICAL_SURFACE('',#385,0.0004);
#13=SPHERICAL_SURFACE('',#386,0.0004);
#14=CIRCLE('',#374,0.0004);
#15=CIRCLE('',#378,0.0004);
#16=ORIENTED_EDGE('',*,*,#112,.F.);
#17=ORIENTED_EDGE('',*,*,#113,.T.);
#18=ORIENTED_EDGE('',*,*,#114,.T.);
#19=ORIENTED_EDGE('',*,*,#115,.F.);
#20=ORIENTED_EDGE('',*,*,#116,.F.);
#21=ORIENTED_EDGE('',*,*,#117,.F.);
#22=ORIENTED_EDGE('',*,*,#118,.T.);
#23=ORIENTED_EDGE('',*,*,#119,.T.);
#24=ORIENTED_EDGE('',*,*,#120,.T.);
#25=ORIENTED_EDGE('',*,*,#121,.T.);
#26=ORIENTED_EDGE('',*,*,#122,.F.);
#27=ORIENTED_EDGE('',*,*,#123,.T.);
#28=ORIENTED_EDGE('',*,*,#124,.T.);
#29=ORIENTED_EDGE('',*,*,#125,.T.);
#30=ORIENTED_EDGE('',*,*,#126,.T.);
#31=ORIENTED_EDGE('',*,*,#127,.F.);
#32=ORIENTED_EDGE('',*,*,#128,.F.);
#33=ORIENTED_EDGE('',*,*,#129,.F.);
#34=ORIENTED_EDGE('',*,*,#130,.T.);
#35=ORIENTED_EDGE('',*,*,#131,.F.);
#36=ORIENTED_EDGE('',*,*,#120,.F.);
#37=ORIENTED_EDGE('',*,*,#119,.F.);
#38=ORIENTED_EDGE('',*,*,#118,.F.);
#39=ORIENTED_EDGE('',*,*,#132,.T.);
#40=ORIENTED_EDGE('',*,*,#126,.F.);
#41=ORIENTED_EDGE('',*,*,#133,.T.);
#42=ORIENTED_EDGE('',*,*,#115,.T.);
#43=ORIENTED_EDGE('',*,*,#134,.F.);
#44=ORIENTED_EDGE('',*,*,#135,.F.);
#45=ORIENTED_EDGE('',*,*,#136,.F.);
#46=ORIENTED_EDGE('',*,*,#123,.F.);
#47=ORIENTED_EDGE('',*,*,#137,.F.);
#48=ORIENTED_EDGE('',*,*,#138,.F.);
#49=ORIENTED_EDGE('',*,*,#139,.T.);
#50=ORIENTED_EDGE('',*,*,#140,.T.);
#51=ORIENTED_EDGE('',*,*,#141,.T.);
#52=ORIENTED_EDGE('',*,*,#142,.T.);
#53=ORIENTED_EDGE('',*,*,#129,.T.);
#54=ORIENTED_EDGE('',*,*,#142,.F.);
#55=ORIENTED_EDGE('',*,*,#143,.F.);
#56=ORIENTED_EDGE('',*,*,#141,.F.);
#57=ORIENTED_EDGE('',*,*,#144,.T.);
#58=ORIENTED_EDGE('',*,*,#145,.T.);
#59=ORIENTED_EDGE('',*,*,#130,.F.);
#60=ORIENTED_EDGE('',*,*,#146,.T.);
#61=ORIENTED_EDGE('',*,*,#121,.F.);
#62=ORIENTED_EDGE('',*,*,#131,.T.);
#63=ORIENTED_EDGE('',*,*,#145,.F.);
#64=ORIENTED_EDGE('',*,*,#147,.T.);
#65=ORIENTED_EDGE('',*,*,#132,.F.);
#66=ORIENTED_EDGE('',*,*,#117,.T.);
#67=ORIENTED_EDGE('',*,*,#148,.F.);
#68=ORIENTED_EDGE('',*,*,#138,.T.);
#69=ORIENTED_EDGE('',*,*,#149,.F.);
#70=ORIENTED_EDGE('',*,*,#137,.T.);
#71=ORIENTED_EDGE('',*,*,#122,.T.);
#72=ORIENTED_EDGE('',*,*,#147,.F.);
#73=ORIENTED_EDGE('',*,*,#150,.F.);
#74=ORIENTED_EDGE('',*,*,#151,.F.);
#75=ORIENTED_EDGE('',*,*,#152,.T.);
#76=ORIENTED_EDGE('',*,*,#153,.F.);
#77=ORIENTED_EDGE('',*,*,#127,.T.);
#78=ORIENTED_EDGE('',*,*,#134,.T.);
#79=ORIENTED_EDGE('',*,*,#114,.F.);
#80=ORIENTED_EDGE('',*,*,#153,.T.);
#81=ORIENTED_EDGE('',*,*,#154,.F.);
#82=ORIENTED_EDGE('',*,*,#139,.F.);
#83=ORIENTED_EDGE('',*,*,#128,.T.);
#84=ORIENTED_EDGE('',*,*,#155,.T.);
#85=ORIENTED_EDGE('',*,*,#112,.T.);
#86=ORIENTED_EDGE('',*,*,#133,.F.);
#87=ORIENTED_EDGE('',*,*,#125,.F.);
#88=ORIENTED_EDGE('',*,*,#156,.T.);
#89=ORIENTED_EDGE('',*,*,#157,.F.);
#90=ORIENTED_EDGE('',*,*,#156,.F.);
#91=ORIENTED_EDGE('',*,*,#124,.F.);
#92=ORIENTED_EDGE('',*,*,#136,.T.);
#93=ORIENTED_EDGE('',*,*,#158,.T.);
#94=ORIENTED_EDGE('',*,*,#151,.T.);
#95=ORIENTED_EDGE('',*,*,#113,.F.);
#96=ORIENTED_EDGE('',*,*,#155,.F.);
#97=ORIENTED_EDGE('',*,*,#159,.T.);
#98=ORIENTED_EDGE('',*,*,#144,.F.);
#99=ORIENTED_EDGE('',*,*,#140,.F.);
#100=ORIENTED_EDGE('',*,*,#154,.T.);
#101=ORIENTED_EDGE('',*,*,#152,.F.);
#102=ORIENTED_EDGE('',*,*,#159,.F.);
#103=ORIENTED_EDGE('',*,*,#157,.T.);
#104=ORIENTED_EDGE('',*,*,#158,.F.);
#105=ORIENTED_EDGE('',*,*,#135,.T.);
#106=ORIENTED_EDGE('',*,*,#150,.T.);
#107=ORIENTED_EDGE('',*,*,#148,.T.);
#108=ORIENTED_EDGE('',*,*,#116,.T.);
#109=ORIENTED_EDGE('',*,*,#146,.F.);
#110=ORIENTED_EDGE('',*,*,#149,.T.);
#111=ORIENTED_EDGE('',*,*,#143,.T.);
#112=EDGE_CURVE('',#160,#161,#192,.T.);
#113=EDGE_CURVE('',#160,#162,#193,.T.);
#114=EDGE_CURVE('',#162,#163,#194,.T.);
#115=EDGE_CURVE('',#161,#163,#195,.T.);
#116=EDGE_CURVE('',#164,#165,#196,.T.);
#117=EDGE_CURVE('',#166,#164,#197,.T.);
#118=EDGE_CURVE('',#166,#167,#198,.T.);
#119=EDGE_CURVE('',#167,#168,#199,.T.);
#120=EDGE_CURVE('',#168,#169,#200,.T.);
#121=EDGE_CURVE('',#169,#165,#201,.T.);
#122=EDGE_CURVE('',#170,#171,#202,.T.);
#123=EDGE_CURVE('',#170,#172,#203,.T.);
#124=EDGE_CURVE('',#172,#173,#204,.T.);
#125=EDGE_CURVE('',#173,#174,#205,.T.);
#126=EDGE_CURVE('',#174,#175,#206,.T.);
#127=EDGE_CURVE('',#176,#175,#207,.T.);
#128=EDGE_CURVE('',#177,#176,#208,.T.);
#129=EDGE_CURVE('',#178,#177,#209,.T.);
#130=EDGE_CURVE('',#178,#179,#210,.T.);
#131=EDGE_CURVE('',#169,#179,#211,.T.);
#132=EDGE_CURVE('',#166,#171,#212,.T.);
#133=EDGE_CURVE('',#174,#161,#213,.T.);
#134=EDGE_CURVE('',#175,#163,#214,.T.);
#135=EDGE_CURVE('',#180,#181,#215,.T.);
#136=EDGE_CURVE('',#172,#180,#216,.T.);
#137=EDGE_CURVE('',#182,#170,#217,.T.);
#138=EDGE_CURVE('',#181,#182,#218,.T.);
#139=EDGE_CURVE('',#177,#183,#219,.T.);
#140=EDGE_CURVE('',#183,#184,#220,.T.);
#141=EDGE_CURVE('',#184,#185,#221,.T.);
#142=EDGE_CURVE('',#185,#178,#222,.T.);
#143=EDGE_CURVE('',#185,#185,#14,.T.);
#144=EDGE_CURVE('',#184,#186,#223,.T.);
#145=EDGE_CURVE('',#186,#179,#224,.T.);
#146=EDGE_CURVE('',#186,#165,#225,.T.);
#147=EDGE_CURVE('',#187,#171,#226,.T.);
#148=EDGE_CURVE('',#187,#164,#227,.T.);
#149=EDGE_CURVE('',#182,#182,#15,.T.);
#150=EDGE_CURVE('',#181,#187,#228,.T.);
#151=EDGE_CURVE('',#188,#162,#229,.T.);
#152=EDGE_CURVE('',#188,#189,#230,.T.);
#153=EDGE_CURVE('',#176,#189,#231,.T.);
#154=EDGE_CURVE('',#183,#189,#232,.T.);
#155=EDGE_CURVE('',#190,#160,#233,.T.);
#156=EDGE_CURVE('',#173,#191,#234,.T.);
#157=EDGE_CURVE('',#190,#191,#235,.T.);
#158=EDGE_CURVE('',#180,#191,#236,.T.);
#159=EDGE_CURVE('',#190,#188,#237,.T.);
#160=VERTEX_POINT('',#478);
#161=VERTEX_POINT('',#479);
#162=VERTEX_POINT('',#481);
#163=VERTEX_POINT('',#483);
#164=VERTEX_POINT('',#487);
#165=VERTEX_POINT('',#488);
#166=VERTEX_POINT('',#490);
#167=VERTEX_POINT('',#492);
#168=VERTEX_POINT('',#494);
#169=VERTEX_POINT('',#496);
#170=VERTEX_POINT('',#500);
#171=VERTEX_POINT('',#501);
#172=VERTEX_POINT('',#503);
#173=VERTEX_POINT('',#505);
#174=VERTEX_POINT('',#507);
#175=VERTEX_POINT('',#509);
#176=VERTEX_POINT('',#511);
#177=VERTEX_POINT('',#513);
#178=VERTEX_POINT('',#515);
#179=VERTEX_POINT('',#517);
#180=VERTEX_POINT('',#525);
#181=VERTEX_POINT('',#526);
#182=VERTEX_POINT('',#529);
#183=VERTEX_POINT('',#533);
#184=VERTEX_POINT('',#535);
#185=VERTEX_POINT('',#537);
#186=VERTEX_POINT('',#542);
#187=VERTEX_POINT('',#548);
#188=VERTEX_POINT('',#555);
#189=VERTEX_POINT('',#557);
#190=VERTEX_POINT('',#563);
#191=VERTEX_POINT('',#565);
#192=LINE('',#477,#238);
#193=LINE('',#480,#239);
#194=LINE('',#482,#240);
#195=LINE('',#484,#241);
#196=LINE('',#486,#242);
#197=LINE('',#489,#243);
#198=LINE('',#491,#244);
#199=LINE('',#493,#245);
#200=LINE('',#495,#246);
#201=LINE('',#497,#247);
#202=LINE('',#499,#248);
#203=LINE('',#502,#249);
#204=LINE('',#504,#250);
#205=LINE('',#506,#251);
#206=LINE('',#508,#252);
#207=LINE('',#510,#253);
#208=LINE('',#512,#254);
#209=LINE('',#514,#255);
#210=LINE('',#516,#256);
#211=LINE('',#518,#257);
#212=LINE('',#519,#258);
#213=LINE('',#521,#259);
#214=LINE('',#522,#260);
#215=LINE('',#524,#261);
#216=LINE('',#527,#262);
#217=LINE('',#528,#263);
#218=LINE('',#530,#264);
#219=LINE('',#532,#265);
#220=LINE('',#534,#266);
#221=LINE('',#536,#267);
#222=LINE('',#538,#268);
#223=LINE('',#541,#269);
#224=LINE('',#543,#270);
#225=LINE('',#545,#271);
#226=LINE('',#547,#272);
#227=LINE('',#549,#273);
#228=LINE('',#552,#274);
#229=LINE('',#554,#275);
#230=LINE('',#556,#276);
#231=LINE('',#558,#277);
#232=LINE('',#560,#278);
#233=LINE('',#562,#279);
#234=LINE('',#564,#280);
#235=LINE('',#566,#281);
#236=LINE('',#568,#282);
#237=LINE('',#570,#283);
#238=VECTOR('',#391,1.);
#239=VECTOR('',#392,1.);
#240=VECTOR('',#393,1.);
#241=VECTOR('',#394,1.);
#242=VECTOR('',#397,1.);
#243=VECTOR('',#398,1.);
#244=VECTOR('',#399,1.);
#245=VECTOR('',#400,1.);
#246=VECTOR('',#401,1.);
#247=VECTOR('',#402,1.);
#248=VECTOR('',#405,1.);
#249=VECTOR('',#406,1.);
#250=VECTOR('',#407,1.);
#251=VECTOR('',#408,1.);
#252=VECTOR('',#409,1.);
#253=VECTOR('',#410,1.);
#254=VECTOR('',#411,1.);
#255=VECTOR('',#412,1.);
#256=VECTOR('',#413,1.);
#257=VECTOR('',#414,1.);
#258=VECTOR('',#415,1.);
#259=VECTOR('',#418,1.);
#260=VECTOR('',#419,1.);
#261=VECTOR('',#422,1.);
#262=VECTOR('',#423,1.);
#263=VECTOR('',#424,1.);
#264=VECTOR('',#425,1.);
#265=VECTOR('',#428,1.);
#266=VECTOR('',#429,1.);
#267=VECTOR('',#430,1.);
#268=VECTOR('',#431,1.);
#269=VECTOR('',#436,1.);
#270=VECTOR('',#437,1.);
#271=VECTOR('',#440,1.);
#272=VECTOR('',#443,1.);
#273=VECTOR('',#444,1.);
#274=VECTOR('',#449,1.);
#275=VECTOR('',#452,1.);
#276=VECTOR('',#453,1.);
#277=VECTOR('',#454,1.);
#278=VECTOR('',#457,1.);
#279=VECTOR('',#460,1.);
#280=VECTOR('',#461,1.);
#281=VECTOR('',#462,1.);
#282=VECTOR('',#465,1.);
#283=VECTOR('',#468,1.);
#284=EDGE_LOOP('',(#16,#17,#18,#19));
#285=EDGE_LOOP('',(#20,#21,#22,#23,#24,#25));
#286=EDGE_LOOP('',(#26,#27,#28,#29,#30,#31,#32,#33,#34,#35,#36,#37,#38,
#39));
#287=EDGE_LOOP('',(#40,#41,#42,#43));
#288=EDGE_LOOP('',(#44,#45,#46,#47,#48));
#289=EDGE_LOOP('',(#49,#50,#51,#52,#53));
#290=EDGE_LOOP('',(#54,#55,#56,#57,#58,#59));
#291=EDGE_LOOP('',(#60,#61,#62,#63));
#292=EDGE_LOOP('',(#64,#65,#66,#67));
#293=EDGE_LOOP('',(#68,#69,#70,#71,#72,#73));
#294=EDGE_LOOP('',(#74,#75,#76,#77,#78,#79));
#295=EDGE_LOOP('',(#80,#81,#82,#83));
#296=EDGE_LOOP('',(#84,#85,#86,#87,#88,#89));
#297=EDGE_LOOP('',(#90,#91,#92,#93));
#298=EDGE_LOOP('',(#94,#95,#96,#97));
#299=EDGE_LOOP('',(#98,#99,#100,#101,#102,#103,#104,#105,#106,#107,#108,
#109));
#300=EDGE_LOOP('',(#110));
#301=EDGE_LOOP('',(#111));
#302=FACE_BOUND('',#284,.T.);
#303=FACE_BOUND('',#285,.T.);
#304=FACE_BOUND('',#286,.T.);
#305=FACE_BOUND('',#287,.T.);
#306=FACE_BOUND('',#288,.T.);
#307=FACE_BOUND('',#289,.T.);
#308=FACE_BOUND('',#290,.T.);
#309=FACE_BOUND('',#291,.T.);
#310=FACE_BOUND('',#292,.T.);
#311=FACE_BOUND('',#293,.T.);
#312=FACE_BOUND('',#294,.T.);
#313=FACE_BOUND('',#295,.T.);
#314=FACE_BOUND('',#296,.T.);
#315=FACE_BOUND('',#297,.T.);
#316=FACE_BOUND('',#298,.T.);
#317=FACE_BOUND('',#299,.T.);
#318=FACE_BOUND('',#300,.T.);
#319=FACE_BOUND('',#301,.T.);
#320=PLANE('',#367);
#321=PLANE('',#368);
#322=PLANE('',#369);
#323=PLANE('',#370);
#324=PLANE('',#371);
#325=PLANE('',#372);
#326=PLANE('',#373);
#327=PLANE('',#375);
#328=PLANE('',#376);
#329=PLANE('',#377);
#330=PLANE('',#379);
#331=PLANE('',#380);
#332=PLANE('',#381);
#333=PLANE('',#382);
#334=PLANE('',#383);
#335=PLANE('',#384);
#336=ADVANCED_FACE('',(#302),#320,.T.);
#337=ADVANCED_FACE('',(#303),#321,.F.);
#338=ADVANCED_FACE('',(#304),#322,.F.);
#339=ADVANCED_FACE('',(#305),#323,.T.);
#340=ADVANCED_FACE('',(#306),#324,.T.);
#341=ADVANCED_FACE('',(#307),#325,.F.);
#342=ADVANCED_FACE('',(#308),#326,.F.);
#343=ADVANCED_FACE('',(#309),#327,.F.);
#344=ADVANCED_FACE('',(#310),#328,.T.);
#345=ADVANCED_FACE('',(#311),#329,.T.);
#346=ADVANCED_FACE('',(#312),#330,.F.);
#347=ADVANCED_FACE('',(#313),#331,.F.);
#348=ADVANCED_FACE('',(#314),#332,.T.);
#349=ADVANCED_FACE('',(#315),#333,.T.);
#350=ADVANCED_FACE('',(#316),#334,.T.);
#351=ADVANCED_FACE('',(#317),#335,.F.);
#352=ADVANCED_FACE('',(#318),#12,.T.);
#353=ADVANCED_FACE('',(#319),#13,.T.);
#354=CLOSED_SHELL('',(#336,#337,#338,#339,#340,#341,#342,#343,#344,#345,
#346,#347,#348,#349,#350,#351,#352,#353));
#355=STYLED_ITEM('',(#356),#363);
#356=PRESENTATION_STYLE_ASSIGNMENT((#357));
#357=SURFACE_STYLE_USAGE(.BOTH.,#358);
#358=SURFACE_SIDE_STYLE('',(#359));
#359=SURFACE_STYLE_FILL_AREA(#360);
#360=FILL_AREA_STYLE('',(#361));
#361=FILL_AREA_STYLE_COLOUR('',#362);
#362=COLOUR_RGB('',0.980392156862745,0.713725490196078,0.00392156862745098);
#363=MANIFOLD_SOLID_BREP('Custom_Insert',#354);
#364=SHAPE_DEFINITION_REPRESENTATION(#580,#365);
#365=SHAPE_REPRESENTATION('Custom_Insert',(#366),#575);
#366=AXIS2_PLACEMENT_3D('',#475,#387,#388);
#367=AXIS2_PLACEMENT_3D('',#476,#389,#390);
#368=AXIS2_PLACEMENT_3D('',#485,#395,#396);
#369=AXIS2_PLACEMENT_3D('',#498,#403,#404);
#370=AXIS2_PLACEMENT_3D('',#520,#416,#417);
#371=AXIS2_PLACEMENT_3D('',#523,#420,#421);
#372=AXIS2_PLACEMENT_3D('',#531,#426,#427);
#373=AXIS2_PLACEMENT_3D('',#539,#432,#433);
#374=AXIS2_PLACEMENT_3D('',#540,#434,#435);
#375=AXIS2_PLACEMENT_3D('',#544,#438,#439);
#376=AXIS2_PLACEMENT_3D('',#546,#441,#442);
#377=AXIS2_PLACEMENT_3D('',#550,#445,#446);
#378=AXIS2_PLACEMENT_3D('',#551,#447,#448);
#379=AXIS2_PLACEMENT_3D('',#553,#450,#451);
#380=AXIS2_PLACEMENT_3D('',#559,#455,#456);
#381=AXIS2_PLACEMENT_3D('',#561,#458,#459);
#382=AXIS2_PLACEMENT_3D('',#567,#463,#464);
#383=AXIS2_PLACEMENT_3D('',#569,#466,#467);
#384=AXIS2_PLACEMENT_3D('',#571,#469,#470);
#385=AXIS2_PLACEMENT_3D('',#572,#471,#472);
#386=AXIS2_PLACEMENT_3D('',#573,#473,#474);
#387=DIRECTION('',(0.,0.,1.));
#388=DIRECTION('',(1.,0.,0.));
#389=DIRECTION('',(-6.12323399573677E-17,1.,-1.22464679914735E-16));
#390=DIRECTION('',(-7.49879891330929E-33,1.22464679914735E-16,1.));
#391=DIRECTION('',(7.49879891330929E-33,-1.22464679914735E-16,-1.));
#392=DIRECTION('',(1.,6.12323399573677E-17,0.));
#393=DIRECTION('',(7.49879891330929E-33,-1.22464679914735E-16,-1.));
#394=DIRECTION('',(1.,6.12323399573677E-17,0.));
#395=DIRECTION('',(7.49879891330929E-33,-1.22464679914735E-16,-1.));
#396=DIRECTION('',(-6.12323399573677E-17,1.,-1.22464679914735E-16));
#397=DIRECTION('',(0.999999992029881,0.000126254655137762,-1.54617359291839E-20));
#398=DIRECTION('',(-6.12323399573677E-17,1.,-1.22464679914735E-16));
#399=DIRECTION('',(1.,6.12323399573677E-17,0.));
#400=DIRECTION('',(1.,6.12323399573677E-17,0.));
#401=DIRECTION('',(1.,6.12323399573677E-17,0.));
#402=DIRECTION('',(-6.12323399573677E-17,1.,-1.22464679914735E-16));
#403=DIRECTION('',(-6.12323399573677E-17,1.,-1.22464679914735E-16));
#404=DIRECTION('',(-7.49879891330929E-33,1.22464679914735E-16,1.));
#405=DIRECTION('',(1.,6.12323399573677E-17,0.));
#406=DIRECTION('',(7.49879891330929E-33,-1.22464679914735E-16,-1.));
#407=DIRECTION('',(1.,6.12323399573677E-17,0.));
#408=DIRECTION('',(7.49879891330929E-33,-1.22464679914735E-16,-1.));
#409=DIRECTION('',(1.,6.12323399573677E-17,0.));
#410=DIRECTION('',(7.49879891330929E-33,-1.22464679914735E-16,-1.));
#411=DIRECTION('',(-1.,-6.12323399573677E-17,0.));
#412=DIRECTION('',(7.49879891330929E-33,-1.22464679914735E-16,-1.));
#413=DIRECTION('',(-1.,-6.12323399573677E-17,0.));
#414=DIRECTION('',(7.49879891330929E-33,-1.22464679914735E-16,-1.));
#415=DIRECTION('',(7.49879891330929E-33,-1.22464679914735E-16,-1.));
#416=DIRECTION('',(7.49879891330929E-33,-1.22464679914735E-16,-1.));
#417=DIRECTION('',(-6.12323399573677E-17,1.,-1.22464679914735E-16));
#418=DIRECTION('',(-6.12323399573677E-17,1.,-1.22464679914735E-16));
#419=DIRECTION('',(-6.12323399573677E-17,1.,-1.22464679914735E-16));
#420=DIRECTION('',(-1.,-6.12323399573677E-17,0.));
#421=DIRECTION('',(-7.49879891330929E-33,1.22464679914735E-16,1.));
#422=DIRECTION('',(-7.49879891330929E-33,1.22464679914735E-16,1.));
#423=DIRECTION('',(-6.12323399573677E-17,1.,-2.8016681283754E-16));
#424=DIRECTION('',(6.12323399573677E-17,-1.,2.8016681283754E-16));
#425=DIRECTION('',(6.12323399573677E-17,-1.,2.8016681283754E-16));
#426=DIRECTION('',(-1.,-6.12323399573677E-17,0.));
#427=DIRECTION('',(-7.49879891330929E-33,1.22464679914735E-16,1.));
#428=DIRECTION('',(-6.12323399573677E-17,1.,-2.8016681283754E-16));
#429=DIRECTION('',(-7.49879891330929E-33,1.22464679914735E-16,1.));
#430=DIRECTION('',(6.12323399573677E-17,-1.,2.8016681283754E-16));
#431=DIRECTION('',(6.12323399573677E-17,-1.,2.8016681283754E-16));
#432=DIRECTION('',(1.71552695284404E-32,-2.8016681283754E-16,-1.));
#433=DIRECTION('',(-6.12323399573677E-17,1.,-2.8016681283754E-16));
#434=DIRECTION('',(-1.71552695284404E-32,2.8016681283754E-16,1.));
#435=DIRECTION('',(6.12323399573677E-17,-1.,2.8016681283754E-16));
#436=DIRECTION('',(-0.999999992029881,-0.000126254655137762,3.53723643358325E-20));
#437=DIRECTION('',(6.12323399573677E-17,-1.,2.8016681283754E-16));
#438=DIRECTION('',(-1.,-6.12323399573677E-17,0.));
#439=DIRECTION('',(-7.49879891330929E-33,1.22464679914735E-16,1.));
#440=DIRECTION('',(-7.49879891330929E-33,1.22464679914735E-16,1.));
#441=DIRECTION('',(-1.,-6.12323399573677E-17,0.));
#442=DIRECTION('',(-7.49879891330929E-33,1.22464679914735E-16,1.));
#443=DIRECTION('',(6.12323399573677E-17,-1.,2.8016681283754E-16));
#444=DIRECTION('',(-7.49879891330929E-33,1.22464679914735E-16,1.));
#445=DIRECTION('',(-1.71552695284404E-32,2.8016681283754E-16,1.));
#446=DIRECTION('',(6.12323399573677E-17,-1.,2.8016681283754E-16));
#447=DIRECTION('',(-1.71552695284404E-32,2.8016681283754E-16,1.));
#448=DIRECTION('',(6.12323399573677E-17,-1.,2.8016681283754E-16));
#449=DIRECTION('',(0.999999992029881,0.000126254655137762,-3.53723643358325E-20));
#450=DIRECTION('',(-1.,-6.12323399573677E-17,0.));
#451=DIRECTION('',(-7.49879891330929E-33,1.22464679914735E-16,1.));
#452=DIRECTION('',(-6.12323399573677E-17,1.,-1.22464679914735E-16));
#453=DIRECTION('',(-7.49879891330929E-33,1.22464679914735E-16,1.));
#454=DIRECTION('',(-6.12323399573677E-17,1.,-2.8016681283754E-16));
#455=DIRECTION('',(-1.71552695284404E-32,2.8016681283754E-16,1.));
#456=DIRECTION('',(6.12323399573677E-17,-1.,2.8016681283754E-16));
#457=DIRECTION('',(-0.999999992029881,-0.000126254655137762,3.53723643358325E-20));
#458=DIRECTION('',(-1.,-6.12323399573677E-17,0.));
#459=DIRECTION('',(-7.49879891330929E-33,1.22464679914735E-16,1.));
#460=DIRECTION('',(-6.12323399573677E-17,1.,-1.22464679914735E-16));
#461=DIRECTION('',(-6.12323399573677E-17,1.,-2.8016681283754E-16));
#462=DIRECTION('',(-7.49879891330929E-33,1.22464679914735E-16,1.));
#463=DIRECTION('',(1.71552695284404E-32,-2.8016681283754E-16,-1.));
#464=DIRECTION('',(-6.12323399573677E-17,1.,-2.8016681283754E-16));
#465=DIRECTION('',(0.999999992029881,0.000126254655137762,-3.53723643358325E-20));
#466=DIRECTION('',(-7.49879891330929E-33,1.22464679914735E-16,1.));
#467=DIRECTION('',(-6.12323399573677E-17,1.,-1.22464679914735E-16));
#468=DIRECTION('',(0.999999992029881,0.000126254655137762,-1.54617359291839E-20));
#469=DIRECTION('',(0.000126254655137762,-0.999999992029881,1.22464678938677E-16));
#470=DIRECTION('',(-0.999999992029881,-0.000126254655137762,1.54617359291839E-20));
#471=DIRECTION('',(-1.71552695284404E-32,2.8016681283754E-16,1.));
#472=DIRECTION('',(6.12323399573677E-17,-1.,2.8016681283754E-16));
#473=DIRECTION('',(-1.71552695284404E-32,2.8016681283754E-16,1.));
#474=DIRECTION('',(6.12323399573677E-17,-1.,2.8016681283754E-16));
#475=CARTESIAN_POINT('',(0.,0.,0.));
#476=CARTESIAN_POINT('',(-0.055040000000002,0.00080445458311337,0.00774));
#477=CARTESIAN_POINT('',(-0.068290000000002,0.000804454583113366,0.00774));
#478=CARTESIAN_POINT('',(-0.068290000000002,0.000804454583113366,0.0028));
#479=CARTESIAN_POINT('',(-0.068290000000002,0.000804454583113366,-5.20417042793042E-18));
#480=CARTESIAN_POINT('',(-0.055040000000002,0.00080445458311337,0.0028));
#481=CARTESIAN_POINT('',(-0.041790000000002,0.00080445458311337,0.0028));
#482=CARTESIAN_POINT('',(-0.041790000000002,0.00080445458311337,0.00774));
#483=CARTESIAN_POINT('',(-0.041790000000002,0.00080445458311337,-5.20417042793042E-18));
#484=CARTESIAN_POINT('',(-0.055040000000002,0.00080445458311337,-5.20417042793042E-18));
#485=CARTESIAN_POINT('',(-0.055040000000002,-0.0137955454168866,0.00754));
#486=CARTESIAN_POINT('',(-0.055040000000002,-0.0228972434981761,0.00754));
#487=CARTESIAN_POINT('',(-0.068290000000002,-0.02289891637237,0.00754));
#488=CARTESIAN_POINT('',(-0.041790000000002,-0.0228955706239822,0.00754));
#489=CARTESIAN_POINT('',(-0.068290000000002,-0.0137955454168866,0.00754));
#490=CARTESIAN_POINT('',(-0.068290000000002,-0.0283955454168866,0.00754));
#491=CARTESIAN_POINT('',(-0.055040000000002,-0.0283955454168866,0.00754));
#492=CARTESIAN_POINT('',(-0.0582601977824779,-0.0283955454168866,0.00754));
#493=CARTESIAN_POINT('',(-0.055040000000002,-0.0283955454168866,0.00754));
#494=CARTESIAN_POINT('',(-0.0518184832457054,-0.0283955454168866,0.00754));
#495=CARTESIAN_POINT('',(-0.055040000000002,-0.0283955454168866,0.00754));
#496=CARTESIAN_POINT('',(-0.041790000000002,-0.0283955454168866,0.00754));
#497=CARTESIAN_POINT('',(-0.041790000000002,-0.0137955454168866,0.00754));
#498=CARTESIAN_POINT('',(-0.055040000000002,-0.0283955454168866,0.00774));
#499=CARTESIAN_POINT('',(-0.055040000000002,-0.0283955454168866,0.00597));
#500=CARTESIAN_POINT('',(-0.069290000000002,-0.0283955454168866,0.00597));
#501=CARTESIAN_POINT('',(-0.068290000000002,-0.0283955454168866,0.00597));
#502=CARTESIAN_POINT('',(-0.069290000000002,-0.0283955454168866,0.00774));
#503=CARTESIAN_POINT('',(-0.069290000000002,-0.0283955454168866,0.00477));
#504=CARTESIAN_POINT('',(-0.069490000000002,-0.0283955454168866,0.00477));
#505=CARTESIAN_POINT('',(-0.068290000000002,-0.0283955454168866,0.00477));
#506=CARTESIAN_POINT('',(-0.068290000000002,-0.0283955454168866,0.00774));
#507=CARTESIAN_POINT('',(-0.068290000000002,-0.0283955454168866,-1.7347234759768E-18));
#508=CARTESIAN_POINT('',(-0.055040000000002,-0.0283955454168866,-1.7347234759768E-18));
#509=CARTESIAN_POINT('',(-0.041790000000002,-0.0283955454168866,-1.7347234759768E-18));
#510=CARTESIAN_POINT('',(-0.041790000000002,-0.0283955454168866,0.00774));
#511=CARTESIAN_POINT('',(-0.041790000000002,-0.0283955454168866,0.00477));
#512=CARTESIAN_POINT('',(-0.040590000000002,-0.0283955454168866,0.00477));
#513=CARTESIAN_POINT('',(-0.040790000000002,-0.0283955454168866,0.00477));
#514=CARTESIAN_POINT('',(-0.040790000000002,-0.0283955454168866,0.00774));
#515=CARTESIAN_POINT('',(-0.040790000000002,-0.0283955454168866,0.00597));
#516=CARTESIAN_POINT('',(-0.055040000000002,-0.0283955454168866,0.00597));
#517=CARTESIAN_POINT('',(-0.041790000000002,-0.0283955454168866,0.00597));
#518=CARTESIAN_POINT('',(-0.041790000000002,-0.0283955454168866,0.00774));
#519=CARTESIAN_POINT('',(-0.068290000000002,-0.0283955454168866,0.00774));
#520=CARTESIAN_POINT('',(-0.055040000000002,-0.0137955454168866,-5.20417042793042E-18));
#521=CARTESIAN_POINT('',(-0.068290000000002,-0.0137955454168866,-5.20417042793042E-18));
#522=CARTESIAN_POINT('',(-0.041790000000002,-0.0137955454168866,-5.20417042793042E-18));
#523=CARTESIAN_POINT('',(-0.069290000000002,-0.0137955454168866,0.00774));
#524=CARTESIAN_POINT('',(-0.069290000000002,-0.0228990426270261,0.00774));
#525=CARTESIAN_POINT('',(-0.069290000000002,-0.0228990426270261,0.00477));
#526=CARTESIAN_POINT('',(-0.069290000000002,-0.0228990426270261,0.00597));
#527=CARTESIAN_POINT('',(-0.069290000000002,-0.0256455453949688,0.00477));
#528=CARTESIAN_POINT('',(-0.069290000000002,-0.0256455453949688,0.00597));
#529=CARTESIAN_POINT('',(-0.0692900000079721,-0.0238989416232743,0.00597));
#530=CARTESIAN_POINT('',(-0.069290000000002,-0.0256455453949688,0.00597));
#531=CARTESIAN_POINT('',(-0.040790000000002,-0.0137955454168866,0.00774));
#532=CARTESIAN_POINT('',(-0.040790000000002,-0.0137955454168866,0.00477));
#533=CARTESIAN_POINT('',(-0.040790000000002,-0.022895444369326,0.00477));
#534=CARTESIAN_POINT('',(-0.040790000000002,-0.022895444369326,0.00774));
#535=CARTESIAN_POINT('',(-0.040790000000002,-0.022895444369326,0.00597));
#536=CARTESIAN_POINT('',(-0.040790000000002,-0.0137955454168866,0.00597));
#537=CARTESIAN_POINT('',(-0.040790000000002,-0.0237655630386135,0.00597));
#538=CARTESIAN_POINT('',(-0.040790000000002,-0.0137955454168866,0.00597));
#539=CARTESIAN_POINT('',(-0.040590000000002,-0.0256455453949688,0.00597));
#540=CARTESIAN_POINT('',(-0.041190000000002,-0.0237655630386135,0.00597));
#541=CARTESIAN_POINT('',(-0.0405903472162438,-0.0228954191622325,0.00597));
#542=CARTESIAN_POINT('',(-0.041790000000002,-0.0228955706239822,0.00597));
#543=CARTESIAN_POINT('',(-0.041790000000002,-0.0137955454168866,0.00597));
#544=CARTESIAN_POINT('',(-0.041790000000002,-0.0137955454168866,0.00774));
#545=CARTESIAN_POINT('',(-0.041790000000002,-0.0228955706239822,0.00774));
#546=CARTESIAN_POINT('',(-0.068290000000002,-0.0137955454168866,0.00774));
#547=CARTESIAN_POINT('',(-0.068290000000002,-0.0256455453949688,0.00597));
#548=CARTESIAN_POINT('',(-0.068290000000002,-0.02289891637237,0.00597));
#549=CARTESIAN_POINT('',(-0.068290000000002,-0.02289891637237,0.00774));
#550=CARTESIAN_POINT('',(-0.069490000000002,-0.0256455453949688,0.00597));
#551=CARTESIAN_POINT('',(-0.0688900000079721,-0.0238989416232743,0.00597));
#552=CARTESIAN_POINT('',(-0.069490346755571,-0.0228990679217369,0.00597));
#553=CARTESIAN_POINT('',(-0.041790000000002,-0.0137955454168866,0.00774));
#554=CARTESIAN_POINT('',(-0.041790000000002,-0.0137955454168866,0.0028));
#555=CARTESIAN_POINT('',(-0.041790000000002,-0.0228955706239822,0.0028));
#556=CARTESIAN_POINT('',(-0.041790000000002,-0.0228955706239822,0.00774));
#557=CARTESIAN_POINT('',(-0.041790000000002,-0.0228955706239822,0.00477));
#558=CARTESIAN_POINT('',(-0.041790000000002,-0.0137955454168866,0.00477));
#559=CARTESIAN_POINT('',(-0.040590000000002,-0.0256455453949688,0.00477));
#560=CARTESIAN_POINT('',(-0.055040000000002,-0.0228972434981761,0.00477));
#561=CARTESIAN_POINT('',(-0.068290000000002,-0.0137955454168866,0.00774));
#562=CARTESIAN_POINT('',(-0.068290000000002,-0.0137955454168866,0.0028));
#563=CARTESIAN_POINT('',(-0.068290000000002,-0.02289891637237,0.0028));
#564=CARTESIAN_POINT('',(-0.068290000000002,-0.0256455453949688,0.00477));
#565=CARTESIAN_POINT('',(-0.068290000000002,-0.02289891637237,0.00477));
#566=CARTESIAN_POINT('',(-0.068290000000002,-0.02289891637237,0.00774));
#567=CARTESIAN_POINT('',(-0.069490000000002,-0.0256455453949688,0.00477));
#568=CARTESIAN_POINT('',(-0.055040000000002,-0.0228972434981761,0.00477));
#569=CARTESIAN_POINT('',(-0.0550414963400409,-0.0110454822676407,0.0028));
#570=CARTESIAN_POINT('',(-0.055040000000002,-0.0228972434981761,0.0028));
#571=CARTESIAN_POINT('',(-0.055040000000002,-0.0228972434981761,0.003));
#572=CARTESIAN_POINT('',(-0.0688900000079721,-0.0238989416232743,0.00597));
#573=CARTESIAN_POINT('',(-0.041190000000002,-0.0237655630386135,0.00597));
#574=MECHANICAL_DESIGN_GEOMETRIC_PRESENTATION_REPRESENTATION('',(#355),
#575);
#575=(
GEOMETRIC_REPRESENTATION_CONTEXT(3)
GLOBAL_UNCERTAINTY_ASSIGNED_CONTEXT((#576))
GLOBAL_UNIT_ASSIGNED_CONTEXT((#579,#578,#577))
REPRESENTATION_CONTEXT('Custom_Insert','TOP_LEVEL_ASSEMBLY_PART')
);
#576=UNCERTAINTY_MEASURE_WITH_UNIT(LENGTH_MEASURE(1.E-8),#579,
'DISTANCE_ACCURACY_VALUE','Maximum Tolerance applied to model');
#577=(
NAMED_UNIT(*)
SI_UNIT($,.STERADIAN.)
SOLID_ANGLE_UNIT()
);
#578=(
NAMED_UNIT(*)
PLANE_ANGLE_UNIT()
SI_UNIT($,.RADIAN.)
);
#579=(
LENGTH_UNIT()
NAMED_UNIT(*)
SI_UNIT($,.METRE.)
);
#580=PRODUCT_DEFINITION_SHAPE('','',#581);
#581=PRODUCT_DEFINITION('','',#583,#582);
#582=PRODUCT_DEFINITION_CONTEXT('',#589,'design');
#583=PRODUCT_DEFINITION_FORMATION_WITH_SPECIFIED_SOURCE('','',#585,
 .NOT_KNOWN.);
#584=PRODUCT_RELATED_PRODUCT_CATEGORY('','',(#585));
#585=PRODUCT('Custom_Insert','Custom_Insert','Custom_Insert',(#587));
#586=PRODUCT_CATEGORY('','');
#587=PRODUCT_CONTEXT('',#589,'mechanical');
#588=APPLICATION_PROTOCOL_DEFINITION('international standard',
'ap242_managed_model_based_3d_engineering',2020,#589);
#589=APPLICATION_CONTEXT('managed model based 3d engineering');
ENDSEC;
END-ISO-10303-21;
