ISO-10303-21;
HEADER;
/* Generated by software containing ST-Developer
 * from STEP Tools, Inc. (www.steptools.com) 
 */
/* OPTION: using custom renumber hook */

FILE_DESCRIPTION(
/* description */ ('STEP AP242 Edition 2',
'CAx-IF Rec.Pracs.---Representation and Presentation of Product Manufa
cturing Information (PMI)---4.0---2014-10-13',
'CAx-IF Rec.Pracs.---3D Tessellated Geometry---0.4---2014-09-14','2;1',
'CAx-IF Rec.Pracs.---User Defined Attributes---1.5---2016-08-15'),
/* implementation_level */ '2;1');

FILE_NAME(
/* name */ 'Part Studio 1 - Main_Case',
/* time_stamp */ '2026-07-28T17:00:28Z',
/* author */ (''),
/* organization */ (''),
/* preprocessor_version */ 'ST-DEVELOPER v20',
/* originating_system */ 'ONSHAPE BY PTC INC, 1.218',
/* authorisation */ '  ');

FILE_SCHEMA (('AP242_MANAGED_MODEL_BASED_3D_ENGINEERING_MIM_LF { 1 0 10303 442 3 1 4 }'));
ENDSEC;

DATA;
#10=SHAPE_REPRESENTATION_RELATIONSHIP('','',#971,#11);
#11=ADVANCED_BREP_SHAPE_REPRESENTATION('',(#969),#1599);
#12=SPHERICAL_SURFACE('',#1055,0.0004);
#13=SPHERICAL_SURFACE('',#1056,0.0004);
#14=CONICAL_SURFACE('',#1022,0.00235,1.02974425867665);
#15=CONICAL_SURFACE('',#1025,0.00235,1.02974425867665);
#16=CONICAL_SURFACE('',#1028,0.00235,1.02974425867665);
#17=CONICAL_SURFACE('',#1031,0.00235,1.02974425867665);
#18=CYLINDRICAL_SURFACE('',#988,0.0017);
#19=CYLINDRICAL_SURFACE('',#991,0.0017);
#20=CYLINDRICAL_SURFACE('',#994,0.0017);
#21=CYLINDRICAL_SURFACE('',#997,0.0017);
#22=CYLINDRICAL_SURFACE('',#1006,0.00125);
#23=CYLINDRICAL_SURFACE('',#1009,0.00125);
#24=CYLINDRICAL_SURFACE('',#1012,0.00125);
#25=CYLINDRICAL_SURFACE('',#1015,0.00125);
#26=CYLINDRICAL_SURFACE('',#1024,0.00235);
#27=CYLINDRICAL_SURFACE('',#1027,0.00235);
#28=CYLINDRICAL_SURFACE('',#1030,0.00235);
#29=CYLINDRICAL_SURFACE('',#1033,0.00235);
#30=CYLINDRICAL_SURFACE('',#1034,0.0028);
#31=CYLINDRICAL_SURFACE('',#1037,0.0028);
#32=CYLINDRICAL_SURFACE('',#1040,0.0028);
#33=CYLINDRICAL_SURFACE('',#1043,0.0028);
#34=CIRCLE('',#974,0.00125);
#35=CIRCLE('',#975,0.00125);
#36=CIRCLE('',#976,0.00125);
#37=CIRCLE('',#977,0.00125);
#38=CIRCLE('',#984,0.0028);
#39=CIRCLE('',#985,0.0028);
#40=CIRCLE('',#986,0.0028);
#41=CIRCLE('',#987,0.0028);
#42=CIRCLE('',#989,0.0017);
#43=CIRCLE('',#990,0.0017);
#44=CIRCLE('',#992,0.0017);
#45=CIRCLE('',#993,0.0017);
#46=CIRCLE('',#995,0.0017);
#47=CIRCLE('',#996,0.0017);
#48=CIRCLE('',#998,0.0017);
#49=CIRCLE('',#999,0.0017);
#50=CIRCLE('',#1007,0.00125);
#51=CIRCLE('',#1010,0.00125);
#52=CIRCLE('',#1013,0.00125);
#53=CIRCLE('',#1016,0.00125);
#54=CIRCLE('',#1018,0.00235);
#55=CIRCLE('',#1019,0.00235);
#56=CIRCLE('',#1020,0.00235);
#57=CIRCLE('',#1021,0.00235);
#58=CIRCLE('',#1023,0.00235);
#59=CIRCLE('',#1026,0.00235);
#60=CIRCLE('',#1029,0.00235);
#61=CIRCLE('',#1032,0.00235);
#62=CIRCLE('',#1035,0.0028);
#63=CIRCLE('',#1038,0.0028);
#64=CIRCLE('',#1041,0.0028);
#65=CIRCLE('',#1044,0.0028);
#66=CIRCLE('',#1048,0.0004);
#67=CIRCLE('',#1052,0.0004);
#68=ORIENTED_EDGE('',*,*,#324,.F.);
#69=ORIENTED_EDGE('',*,*,#325,.F.);
#70=ORIENTED_EDGE('',*,*,#326,.F.);
#71=ORIENTED_EDGE('',*,*,#327,.F.);
#72=ORIENTED_EDGE('',*,*,#328,.F.);
#73=ORIENTED_EDGE('',*,*,#329,.F.);
#74=ORIENTED_EDGE('',*,*,#330,.F.);
#75=ORIENTED_EDGE('',*,*,#331,.F.);
#76=ORIENTED_EDGE('',*,*,#332,.F.);
#77=ORIENTED_EDGE('',*,*,#333,.T.);
#78=ORIENTED_EDGE('',*,*,#334,.T.);
#79=ORIENTED_EDGE('',*,*,#335,.T.);
#80=ORIENTED_EDGE('',*,*,#336,.T.);
#81=ORIENTED_EDGE('',*,*,#337,.F.);
#82=ORIENTED_EDGE('',*,*,#338,.F.);
#83=ORIENTED_EDGE('',*,*,#339,.T.);
#84=ORIENTED_EDGE('',*,*,#340,.T.);
#85=ORIENTED_EDGE('',*,*,#341,.T.);
#86=ORIENTED_EDGE('',*,*,#342,.F.);
#87=ORIENTED_EDGE('',*,*,#343,.F.);
#88=ORIENTED_EDGE('',*,*,#344,.T.);
#89=ORIENTED_EDGE('',*,*,#345,.T.);
#90=ORIENTED_EDGE('',*,*,#346,.F.);
#91=ORIENTED_EDGE('',*,*,#347,.T.);
#92=ORIENTED_EDGE('',*,*,#334,.F.);
#93=ORIENTED_EDGE('',*,*,#348,.T.);
#94=ORIENTED_EDGE('',*,*,#349,.T.);
#95=ORIENTED_EDGE('',*,*,#350,.T.);
#96=ORIENTED_EDGE('',*,*,#349,.F.);
#97=ORIENTED_EDGE('',*,*,#351,.T.);
#98=ORIENTED_EDGE('',*,*,#352,.T.);
#99=ORIENTED_EDGE('',*,*,#353,.T.);
#100=ORIENTED_EDGE('',*,*,#352,.F.);
#101=ORIENTED_EDGE('',*,*,#354,.T.);
#102=ORIENTED_EDGE('',*,*,#332,.T.);
#103=ORIENTED_EDGE('',*,*,#355,.T.);
#104=ORIENTED_EDGE('',*,*,#356,.F.);
#105=ORIENTED_EDGE('',*,*,#346,.T.);
#106=ORIENTED_EDGE('',*,*,#357,.F.);
#107=ORIENTED_EDGE('',*,*,#358,.T.);
#108=ORIENTED_EDGE('',*,*,#336,.F.);
#109=ORIENTED_EDGE('',*,*,#359,.T.);
#110=ORIENTED_EDGE('',*,*,#360,.F.);
#111=ORIENTED_EDGE('',*,*,#361,.T.);
#112=ORIENTED_EDGE('',*,*,#362,.F.);
#113=ORIENTED_EDGE('',*,*,#363,.F.);
#114=ORIENTED_EDGE('',*,*,#364,.F.);
#115=ORIENTED_EDGE('',*,*,#365,.T.);
#116=ORIENTED_EDGE('',*,*,#366,.F.);
#117=ORIENTED_EDGE('',*,*,#358,.F.);
#118=ORIENTED_EDGE('',*,*,#367,.F.);
#119=ORIENTED_EDGE('',*,*,#368,.T.);
#120=ORIENTED_EDGE('',*,*,#369,.T.);
#121=ORIENTED_EDGE('',*,*,#370,.F.);
#122=ORIENTED_EDGE('',*,*,#371,.F.);
#123=ORIENTED_EDGE('',*,*,#372,.F.);
#124=ORIENTED_EDGE('',*,*,#373,.F.);
#125=ORIENTED_EDGE('',*,*,#374,.F.);
#126=ORIENTED_EDGE('',*,*,#375,.F.);
#127=ORIENTED_EDGE('',*,*,#376,.F.);
#128=ORIENTED_EDGE('',*,*,#377,.F.);
#129=ORIENTED_EDGE('',*,*,#378,.F.);
#130=ORIENTED_EDGE('',*,*,#379,.F.);
#131=ORIENTED_EDGE('',*,*,#380,.T.);
#132=ORIENTED_EDGE('',*,*,#381,.F.);
#133=ORIENTED_EDGE('',*,*,#382,.F.);
#134=ORIENTED_EDGE('',*,*,#383,.T.);
#135=ORIENTED_EDGE('',*,*,#360,.T.);
#136=ORIENTED_EDGE('',*,*,#384,.T.);
#137=ORIENTED_EDGE('',*,*,#385,.T.);
#138=ORIENTED_EDGE('',*,*,#386,.T.);
#139=ORIENTED_EDGE('',*,*,#387,.T.);
#140=ORIENTED_EDGE('',*,*,#388,.T.);
#141=ORIENTED_EDGE('',*,*,#389,.T.);
#142=ORIENTED_EDGE('',*,*,#390,.T.);
#143=ORIENTED_EDGE('',*,*,#391,.T.);
#144=ORIENTED_EDGE('',*,*,#392,.F.);
#145=ORIENTED_EDGE('',*,*,#393,.F.);
#146=ORIENTED_EDGE('',*,*,#394,.F.);
#147=ORIENTED_EDGE('',*,*,#395,.T.);
#148=ORIENTED_EDGE('',*,*,#396,.F.);
#149=ORIENTED_EDGE('',*,*,#395,.F.);
#150=ORIENTED_EDGE('',*,*,#397,.F.);
#151=ORIENTED_EDGE('',*,*,#363,.T.);
#152=ORIENTED_EDGE('',*,*,#398,.F.);
#153=ORIENTED_EDGE('',*,*,#365,.F.);
#154=ORIENTED_EDGE('',*,*,#399,.F.);
#155=ORIENTED_EDGE('',*,*,#393,.T.);
#156=ORIENTED_EDGE('',*,*,#400,.F.);
#157=ORIENTED_EDGE('',*,*,#342,.T.);
#158=ORIENTED_EDGE('',*,*,#401,.F.);
#159=ORIENTED_EDGE('',*,*,#370,.T.);
#160=ORIENTED_EDGE('',*,*,#402,.F.);
#161=ORIENTED_EDGE('',*,*,#340,.F.);
#162=ORIENTED_EDGE('',*,*,#403,.T.);
#163=ORIENTED_EDGE('',*,*,#404,.T.);
#164=ORIENTED_EDGE('',*,*,#380,.F.);
#165=ORIENTED_EDGE('',*,*,#405,.T.);
#166=ORIENTED_EDGE('',*,*,#406,.T.);
#167=ORIENTED_EDGE('',*,*,#407,.F.);
#168=ORIENTED_EDGE('',*,*,#324,.T.);
#169=ORIENTED_EDGE('',*,*,#408,.T.);
#170=ORIENTED_EDGE('',*,*,#409,.T.);
#171=ORIENTED_EDGE('',*,*,#410,.F.);
#172=ORIENTED_EDGE('',*,*,#325,.T.);
#173=ORIENTED_EDGE('',*,*,#407,.T.);
#174=ORIENTED_EDGE('',*,*,#411,.T.);
#175=ORIENTED_EDGE('',*,*,#412,.F.);
#176=ORIENTED_EDGE('',*,*,#326,.T.);
#177=ORIENTED_EDGE('',*,*,#410,.T.);
#178=ORIENTED_EDGE('',*,*,#413,.T.);
#179=ORIENTED_EDGE('',*,*,#414,.F.);
#180=ORIENTED_EDGE('',*,*,#327,.T.);
#181=ORIENTED_EDGE('',*,*,#412,.T.);
#182=ORIENTED_EDGE('',*,*,#415,.T.);
#183=ORIENTED_EDGE('',*,*,#416,.F.);
#184=ORIENTED_EDGE('',*,*,#328,.T.);
#185=ORIENTED_EDGE('',*,*,#414,.T.);
#186=ORIENTED_EDGE('',*,*,#417,.T.);
#187=ORIENTED_EDGE('',*,*,#418,.F.);
#188=ORIENTED_EDGE('',*,*,#329,.T.);
#189=ORIENTED_EDGE('',*,*,#416,.T.);
#190=ORIENTED_EDGE('',*,*,#419,.T.);
#191=ORIENTED_EDGE('',*,*,#420,.F.);
#192=ORIENTED_EDGE('',*,*,#330,.T.);
#193=ORIENTED_EDGE('',*,*,#418,.T.);
#194=ORIENTED_EDGE('',*,*,#421,.T.);
#195=ORIENTED_EDGE('',*,*,#408,.F.);
#196=ORIENTED_EDGE('',*,*,#331,.T.);
#197=ORIENTED_EDGE('',*,*,#420,.T.);
#198=ORIENTED_EDGE('',*,*,#422,.T.);
#199=ORIENTED_EDGE('',*,*,#423,.T.);
#200=ORIENTED_EDGE('',*,*,#424,.T.);
#201=ORIENTED_EDGE('',*,*,#425,.T.);
#202=ORIENTED_EDGE('',*,*,#394,.T.);
#203=ORIENTED_EDGE('',*,*,#399,.T.);
#204=ORIENTED_EDGE('',*,*,#364,.T.);
#205=ORIENTED_EDGE('',*,*,#397,.T.);
#206=ORIENTED_EDGE('',*,*,#390,.F.);
#207=ORIENTED_EDGE('',*,*,#426,.F.);
#208=ORIENTED_EDGE('',*,*,#426,.T.);
#209=ORIENTED_EDGE('',*,*,#425,.F.);
#210=ORIENTED_EDGE('',*,*,#388,.F.);
#211=ORIENTED_EDGE('',*,*,#427,.F.);
#212=ORIENTED_EDGE('',*,*,#427,.T.);
#213=ORIENTED_EDGE('',*,*,#424,.F.);
#214=ORIENTED_EDGE('',*,*,#386,.F.);
#215=ORIENTED_EDGE('',*,*,#428,.F.);
#216=ORIENTED_EDGE('',*,*,#428,.T.);
#217=ORIENTED_EDGE('',*,*,#423,.F.);
#218=ORIENTED_EDGE('',*,*,#384,.F.);
#219=ORIENTED_EDGE('',*,*,#429,.F.);
#220=ORIENTED_EDGE('',*,*,#429,.T.);
#221=ORIENTED_EDGE('',*,*,#422,.F.);
#222=ORIENTED_EDGE('',*,*,#378,.T.);
#223=ORIENTED_EDGE('',*,*,#430,.F.);
#224=ORIENTED_EDGE('',*,*,#431,.F.);
#225=ORIENTED_EDGE('',*,*,#432,.T.);
#226=ORIENTED_EDGE('',*,*,#377,.T.);
#227=ORIENTED_EDGE('',*,*,#433,.F.);
#228=ORIENTED_EDGE('',*,*,#434,.F.);
#229=ORIENTED_EDGE('',*,*,#430,.T.);
#230=ORIENTED_EDGE('',*,*,#376,.T.);
#231=ORIENTED_EDGE('',*,*,#435,.F.);
#232=ORIENTED_EDGE('',*,*,#436,.F.);
#233=ORIENTED_EDGE('',*,*,#433,.T.);
#234=ORIENTED_EDGE('',*,*,#375,.T.);
#235=ORIENTED_EDGE('',*,*,#437,.F.);
#236=ORIENTED_EDGE('',*,*,#438,.F.);
#237=ORIENTED_EDGE('',*,*,#435,.T.);
#238=ORIENTED_EDGE('',*,*,#374,.T.);
#239=ORIENTED_EDGE('',*,*,#439,.F.);
#240=ORIENTED_EDGE('',*,*,#440,.F.);
#241=ORIENTED_EDGE('',*,*,#437,.T.);
#242=ORIENTED_EDGE('',*,*,#373,.T.);
#243=ORIENTED_EDGE('',*,*,#441,.F.);
#244=ORIENTED_EDGE('',*,*,#442,.F.);
#245=ORIENTED_EDGE('',*,*,#439,.T.);
#246=ORIENTED_EDGE('',*,*,#372,.T.);
#247=ORIENTED_EDGE('',*,*,#443,.F.);
#248=ORIENTED_EDGE('',*,*,#444,.F.);
#249=ORIENTED_EDGE('',*,*,#441,.T.);
#250=ORIENTED_EDGE('',*,*,#409,.F.);
#251=ORIENTED_EDGE('',*,*,#406,.F.);
#252=ORIENTED_EDGE('',*,*,#421,.F.);
#253=ORIENTED_EDGE('',*,*,#419,.F.);
#254=ORIENTED_EDGE('',*,*,#417,.F.);
#255=ORIENTED_EDGE('',*,*,#415,.F.);
#256=ORIENTED_EDGE('',*,*,#413,.F.);
#257=ORIENTED_EDGE('',*,*,#411,.F.);
#258=ORIENTED_EDGE('',*,*,#445,.T.);
#259=ORIENTED_EDGE('',*,*,#431,.T.);
#260=ORIENTED_EDGE('',*,*,#434,.T.);
#261=ORIENTED_EDGE('',*,*,#436,.T.);
#262=ORIENTED_EDGE('',*,*,#438,.T.);
#263=ORIENTED_EDGE('',*,*,#440,.T.);
#264=ORIENTED_EDGE('',*,*,#442,.T.);
#265=ORIENTED_EDGE('',*,*,#444,.T.);
#266=ORIENTED_EDGE('',*,*,#445,.F.);
#267=ORIENTED_EDGE('',*,*,#443,.T.);
#268=ORIENTED_EDGE('',*,*,#371,.T.);
#269=ORIENTED_EDGE('',*,*,#401,.T.);
#270=ORIENTED_EDGE('',*,*,#341,.F.);
#271=ORIENTED_EDGE('',*,*,#405,.F.);
#272=ORIENTED_EDGE('',*,*,#379,.T.);
#273=ORIENTED_EDGE('',*,*,#432,.F.);
#274=ORIENTED_EDGE('',*,*,#404,.F.);
#275=ORIENTED_EDGE('',*,*,#446,.T.);
#276=ORIENTED_EDGE('',*,*,#403,.F.);
#277=ORIENTED_EDGE('',*,*,#339,.F.);
#278=ORIENTED_EDGE('',*,*,#447,.T.);
#279=ORIENTED_EDGE('',*,*,#381,.T.);
#280=ORIENTED_EDGE('',*,*,#361,.F.);
#281=ORIENTED_EDGE('',*,*,#383,.F.);
#282=ORIENTED_EDGE('',*,*,#448,.T.);
#283=ORIENTED_EDGE('',*,*,#337,.T.);
#284=ORIENTED_EDGE('',*,*,#447,.F.);
#285=ORIENTED_EDGE('',*,*,#338,.T.);
#286=ORIENTED_EDGE('',*,*,#448,.F.);
#287=ORIENTED_EDGE('',*,*,#382,.T.);
#288=ORIENTED_EDGE('',*,*,#400,.T.);
#289=ORIENTED_EDGE('',*,*,#449,.T.);
#290=ORIENTED_EDGE('',*,*,#402,.T.);
#291=ORIENTED_EDGE('',*,*,#369,.F.);
#292=ORIENTED_EDGE('',*,*,#450,.F.);
#293=ORIENTED_EDGE('',*,*,#343,.T.);
#294=ORIENTED_EDGE('',*,*,#357,.T.);
#295=ORIENTED_EDGE('',*,*,#345,.F.);
#296=ORIENTED_EDGE('',*,*,#451,.F.);
#297=ORIENTED_EDGE('',*,*,#367,.T.);
#298=ORIENTED_EDGE('',*,*,#450,.T.);
#299=ORIENTED_EDGE('',*,*,#368,.F.);
#300=ORIENTED_EDGE('',*,*,#451,.T.);
#301=ORIENTED_EDGE('',*,*,#344,.F.);
#302=ORIENTED_EDGE('',*,*,#449,.F.);
#303=ORIENTED_EDGE('',*,*,#446,.F.);
#304=ORIENTED_EDGE('',*,*,#385,.F.);
#305=ORIENTED_EDGE('',*,*,#387,.F.);
#306=ORIENTED_EDGE('',*,*,#389,.F.);
#307=ORIENTED_EDGE('',*,*,#391,.F.);
#308=ORIENTED_EDGE('',*,*,#335,.F.);
#309=ORIENTED_EDGE('',*,*,#350,.F.);
#310=ORIENTED_EDGE('',*,*,#353,.F.);
#311=ORIENTED_EDGE('',*,*,#355,.F.);
#312=ORIENTED_EDGE('',*,*,#347,.F.);
#313=ORIENTED_EDGE('',*,*,#356,.T.);
#314=ORIENTED_EDGE('',*,*,#366,.T.);
#315=ORIENTED_EDGE('',*,*,#398,.T.);
#316=ORIENTED_EDGE('',*,*,#392,.T.);
#317=ORIENTED_EDGE('',*,*,#396,.T.);
#318=ORIENTED_EDGE('',*,*,#362,.T.);
#319=ORIENTED_EDGE('',*,*,#359,.F.);
#320=ORIENTED_EDGE('',*,*,#333,.F.);
#321=ORIENTED_EDGE('',*,*,#354,.F.);
#322=ORIENTED_EDGE('',*,*,#351,.F.);
#323=ORIENTED_EDGE('',*,*,#348,.F.);
#324=EDGE_CURVE('',#452,#453,#542,.T.);
#325=EDGE_CURVE('',#454,#452,#34,.T.);
#326=EDGE_CURVE('',#455,#454,#543,.T.);
#327=EDGE_CURVE('',#456,#455,#35,.T.);
#328=EDGE_CURVE('',#457,#456,#544,.T.);
#329=EDGE_CURVE('',#458,#457,#36,.T.);
#330=EDGE_CURVE('',#459,#458,#545,.T.);
#331=EDGE_CURVE('',#453,#459,#37,.T.);
#332=EDGE_CURVE('',#460,#461,#546,.T.);
#333=EDGE_CURVE('',#460,#462,#547,.T.);
#334=EDGE_CURVE('',#462,#463,#548,.T.);
#335=EDGE_CURVE('',#463,#464,#549,.T.);
#336=EDGE_CURVE('',#464,#465,#550,.T.);
#337=EDGE_CURVE('',#466,#465,#551,.T.);
#338=EDGE_CURVE('',#467,#466,#552,.T.);
#339=EDGE_CURVE('',#467,#468,#553,.F.);
#340=EDGE_CURVE('',#468,#469,#554,.T.);
#341=EDGE_CURVE('',#469,#470,#555,.T.);
#342=EDGE_CURVE('',#471,#470,#556,.T.);
#343=EDGE_CURVE('',#472,#471,#557,.T.);
#344=EDGE_CURVE('',#472,#473,#558,.T.);
#345=EDGE_CURVE('',#473,#474,#559,.T.);
#346=EDGE_CURVE('',#475,#474,#560,.T.);
#347=EDGE_CURVE('',#475,#461,#561,.T.);
#348=EDGE_CURVE('',#462,#476,#562,.T.);
#349=EDGE_CURVE('',#476,#477,#563,.T.);
#350=EDGE_CURVE('',#477,#463,#564,.T.);
#351=EDGE_CURVE('',#476,#478,#565,.T.);
#352=EDGE_CURVE('',#478,#479,#566,.T.);
#353=EDGE_CURVE('',#479,#477,#567,.T.);
#354=EDGE_CURVE('',#478,#460,#568,.T.);
#355=EDGE_CURVE('',#461,#479,#569,.T.);
#356=EDGE_CURVE('',#475,#480,#570,.T.);
#357=EDGE_CURVE('',#481,#474,#571,.T.);
#358=EDGE_CURVE('',#481,#480,#572,.T.);
#359=EDGE_CURVE('',#464,#482,#573,.T.);
#360=EDGE_CURVE('',#483,#482,#574,.T.);
#361=EDGE_CURVE('',#483,#465,#575,.T.);
#362=EDGE_CURVE('',#484,#482,#576,.T.);
#363=EDGE_CURVE('',#485,#484,#577,.T.);
#364=EDGE_CURVE('',#486,#485,#578,.T.);
#365=EDGE_CURVE('',#486,#487,#579,.T.);
#366=EDGE_CURVE('',#480,#487,#580,.T.);
#367=EDGE_CURVE('',#488,#481,#581,.T.);
#368=EDGE_CURVE('',#488,#489,#582,.F.);
#369=EDGE_CURVE('',#489,#490,#583,.T.);
#370=EDGE_CURVE('',#491,#490,#584,.T.);
#371=EDGE_CURVE('',#492,#491,#585,.T.);
#372=EDGE_CURVE('',#493,#492,#38,.T.);
#373=EDGE_CURVE('',#494,#493,#586,.T.);
#374=EDGE_CURVE('',#495,#494,#39,.T.);
#375=EDGE_CURVE('',#496,#495,#587,.T.);
#376=EDGE_CURVE('',#497,#496,#40,.T.);
#377=EDGE_CURVE('',#498,#497,#588,.T.);
#378=EDGE_CURVE('',#499,#498,#41,.T.);
#379=EDGE_CURVE('',#500,#499,#589,.T.);
#380=EDGE_CURVE('',#500,#501,#590,.T.);
#381=EDGE_CURVE('',#502,#501,#591,.T.);
#382=EDGE_CURVE('',#503,#502,#592,.T.);
#383=EDGE_CURVE('',#503,#483,#593,.F.);
#384=EDGE_CURVE('',#504,#504,#42,.T.);
#385=EDGE_CURVE('',#505,#505,#43,.T.);
#386=EDGE_CURVE('',#506,#506,#44,.T.);
#387=EDGE_CURVE('',#507,#507,#45,.T.);
#388=EDGE_CURVE('',#508,#508,#46,.T.);
#389=EDGE_CURVE('',#509,#509,#47,.T.);
#390=EDGE_CURVE('',#510,#510,#48,.T.);
#391=EDGE_CURVE('',#511,#511,#49,.T.);
#392=EDGE_CURVE('',#512,#513,#594,.T.);
#393=EDGE_CURVE('',#514,#512,#595,.T.);
#394=EDGE_CURVE('',#515,#514,#596,.T.);
#395=EDGE_CURVE('',#515,#513,#597,.T.);
#396=EDGE_CURVE('',#513,#484,#598,.T.);
#397=EDGE_CURVE('',#485,#515,#599,.T.);
#398=EDGE_CURVE('',#487,#512,#600,.T.);
#399=EDGE_CURVE('',#514,#486,#601,.T.);
#400=EDGE_CURVE('',#471,#516,#602,.T.);
#401=EDGE_CURVE('',#491,#470,#603,.T.);
#402=EDGE_CURVE('',#516,#490,#604,.T.);
#403=EDGE_CURVE('',#468,#517,#605,.T.);
#404=EDGE_CURVE('',#517,#501,#606,.T.);
#405=EDGE_CURVE('',#500,#469,#607,.T.);
#406=EDGE_CURVE('',#518,#519,#608,.T.);
#407=EDGE_CURVE('',#452,#519,#609,.T.);
#408=EDGE_CURVE('',#453,#518,#610,.T.);
#409=EDGE_CURVE('',#519,#520,#50,.T.);
#410=EDGE_CURVE('',#454,#520,#611,.T.);
#411=EDGE_CURVE('',#520,#521,#612,.T.);
#412=EDGE_CURVE('',#455,#521,#613,.T.);
#413=EDGE_CURVE('',#521,#522,#51,.T.);
#414=EDGE_CURVE('',#456,#522,#614,.T.);
#415=EDGE_CURVE('',#522,#523,#615,.T.);
#416=EDGE_CURVE('',#457,#523,#616,.T.);
#417=EDGE_CURVE('',#523,#524,#52,.T.);
#418=EDGE_CURVE('',#458,#524,#617,.T.);
#419=EDGE_CURVE('',#524,#525,#618,.T.);
#420=EDGE_CURVE('',#459,#525,#619,.T.);
#421=EDGE_CURVE('',#525,#518,#53,.T.);
#422=EDGE_CURVE('',#526,#526,#54,.T.);
#423=EDGE_CURVE('',#527,#527,#55,.T.);
#424=EDGE_CURVE('',#528,#528,#56,.T.);
#425=EDGE_CURVE('',#529,#529,#57,.T.);
#426=EDGE_CURVE('',#530,#530,#58,.T.);
#427=EDGE_CURVE('',#531,#531,#59,.T.);
#428=EDGE_CURVE('',#532,#532,#60,.T.);
#429=EDGE_CURVE('',#533,#533,#61,.T.);
#430=EDGE_CURVE('',#534,#498,#620,.T.);
#431=EDGE_CURVE('',#535,#534,#62,.T.);
#432=EDGE_CURVE('',#535,#499,#621,.T.);
#433=EDGE_CURVE('',#536,#497,#622,.T.);
#434=EDGE_CURVE('',#534,#536,#623,.T.);
#435=EDGE_CURVE('',#537,#496,#624,.T.);
#436=EDGE_CURVE('',#536,#537,#63,.T.);
#437=EDGE_CURVE('',#538,#495,#625,.T.);
#438=EDGE_CURVE('',#537,#538,#626,.T.);
#439=EDGE_CURVE('',#539,#494,#627,.T.);
#440=EDGE_CURVE('',#538,#539,#64,.T.);
#441=EDGE_CURVE('',#540,#493,#628,.T.);
#442=EDGE_CURVE('',#539,#540,#629,.T.);
#443=EDGE_CURVE('',#541,#492,#630,.T.);
#444=EDGE_CURVE('',#540,#541,#65,.T.);
#445=EDGE_CURVE('',#541,#535,#631,.T.);
#446=EDGE_CURVE('',#517,#517,#66,.T.);
#447=EDGE_CURVE('',#467,#502,#632,.T.);
#448=EDGE_CURVE('',#503,#466,#633,.T.);
#449=EDGE_CURVE('',#516,#516,#67,.T.);
#450=EDGE_CURVE('',#472,#489,#634,.T.);
#451=EDGE_CURVE('',#488,#473,#635,.T.);
#452=VERTEX_POINT('',#1330);
#453=VERTEX_POINT('',#1331);
#454=VERTEX_POINT('',#1333);
#455=VERTEX_POINT('',#1335);
#456=VERTEX_POINT('',#1337);
#457=VERTEX_POINT('',#1339);
#458=VERTEX_POINT('',#1341);
#459=VERTEX_POINT('',#1343);
#460=VERTEX_POINT('',#1346);
#461=VERTEX_POINT('',#1347);
#462=VERTEX_POINT('',#1349);
#463=VERTEX_POINT('',#1351);
#464=VERTEX_POINT('',#1353);
#465=VERTEX_POINT('',#1355);
#466=VERTEX_POINT('',#1357);
#467=VERTEX_POINT('',#1359);
#468=VERTEX_POINT('',#1361);
#469=VERTEX_POINT('',#1363);
#470=VERTEX_POINT('',#1365);
#471=VERTEX_POINT('',#1367);
#472=VERTEX_POINT('',#1369);
#473=VERTEX_POINT('',#1371);
#474=VERTEX_POINT('',#1373);
#475=VERTEX_POINT('',#1375);
#476=VERTEX_POINT('',#1379);
#477=VERTEX_POINT('',#1381);
#478=VERTEX_POINT('',#1385);
#479=VERTEX_POINT('',#1387);
#480=VERTEX_POINT('',#1394);
#481=VERTEX_POINT('',#1396);
#482=VERTEX_POINT('',#1400);
#483=VERTEX_POINT('',#1402);
#484=VERTEX_POINT('',#1406);
#485=VERTEX_POINT('',#1408);
#486=VERTEX_POINT('',#1410);
#487=VERTEX_POINT('',#1412);
#488=VERTEX_POINT('',#1415);
#489=VERTEX_POINT('',#1417);
#490=VERTEX_POINT('',#1419);
#491=VERTEX_POINT('',#1421);
#492=VERTEX_POINT('',#1423);
#493=VERTEX_POINT('',#1425);
#494=VERTEX_POINT('',#1427);
#495=VERTEX_POINT('',#1429);
#496=VERTEX_POINT('',#1431);
#497=VERTEX_POINT('',#1433);
#498=VERTEX_POINT('',#1435);
#499=VERTEX_POINT('',#1437);
#500=VERTEX_POINT('',#1439);
#501=VERTEX_POINT('',#1441);
#502=VERTEX_POINT('',#1443);
#503=VERTEX_POINT('',#1445);
#504=VERTEX_POINT('',#1449);
#505=VERTEX_POINT('',#1451);
#506=VERTEX_POINT('',#1454);
#507=VERTEX_POINT('',#1456);
#508=VERTEX_POINT('',#1459);
#509=VERTEX_POINT('',#1461);
#510=VERTEX_POINT('',#1464);
#511=VERTEX_POINT('',#1466);
#512=VERTEX_POINT('',#1469);
#513=VERTEX_POINT('',#1470);
#514=VERTEX_POINT('',#1472);
#515=VERTEX_POINT('',#1474);
#516=VERTEX_POINT('',#1484);
#517=VERTEX_POINT('',#1489);
#518=VERTEX_POINT('',#1494);
#519=VERTEX_POINT('',#1495);
#520=VERTEX_POINT('',#1500);
#521=VERTEX_POINT('',#1504);
#522=VERTEX_POINT('',#1508);
#523=VERTEX_POINT('',#1512);
#524=VERTEX_POINT('',#1516);
#525=VERTEX_POINT('',#1520);
#526=VERTEX_POINT('',#1526);
#527=VERTEX_POINT('',#1528);
#528=VERTEX_POINT('',#1530);
#529=VERTEX_POINT('',#1532);
#530=VERTEX_POINT('',#1535);
#531=VERTEX_POINT('',#1539);
#532=VERTEX_POINT('',#1543);
#533=VERTEX_POINT('',#1547);
#534=VERTEX_POINT('',#1551);
#535=VERTEX_POINT('',#1553);
#536=VERTEX_POINT('',#1557);
#537=VERTEX_POINT('',#1561);
#538=VERTEX_POINT('',#1565);
#539=VERTEX_POINT('',#1569);
#540=VERTEX_POINT('',#1573);
#541=VERTEX_POINT('',#1577);
#542=LINE('',#1329,#636);
#543=LINE('',#1334,#637);
#544=LINE('',#1338,#638);
#545=LINE('',#1342,#639);
#546=LINE('',#1345,#640);
#547=LINE('',#1348,#641);
#548=LINE('',#1350,#642);
#549=LINE('',#1352,#643);
#550=LINE('',#1354,#644);
#551=LINE('',#1356,#645);
#552=LINE('',#1358,#646);
#553=LINE('',#1360,#647);
#554=LINE('',#1362,#648);
#555=LINE('',#1364,#649);
#556=LINE('',#1366,#650);
#557=LINE('',#1368,#651);
#558=LINE('',#1370,#652);
#559=LINE('',#1372,#653);
#560=LINE('',#1374,#654);
#561=LINE('',#1376,#655);
#562=LINE('',#1378,#656);
#563=LINE('',#1380,#657);
#564=LINE('',#1382,#658);
#565=LINE('',#1384,#659);
#566=LINE('',#1386,#660);
#567=LINE('',#1388,#661);
#568=LINE('',#1390,#662);
#569=LINE('',#1391,#663);
#570=LINE('',#1393,#664);
#571=LINE('',#1395,#665);
#572=LINE('',#1397,#666);
#573=LINE('',#1399,#667);
#574=LINE('',#1401,#668);
#575=LINE('',#1403,#669);
#576=LINE('',#1405,#670);
#577=LINE('',#1407,#671);
#578=LINE('',#1409,#672);
#579=LINE('',#1411,#673);
#580=LINE('',#1413,#674);
#581=LINE('',#1414,#675);
#582=LINE('',#1416,#676);
#583=LINE('',#1418,#677);
#584=LINE('',#1420,#678);
#585=LINE('',#1422,#679);
#586=LINE('',#1426,#680);
#587=LINE('',#1430,#681);
#588=LINE('',#1434,#682);
#589=LINE('',#1438,#683);
#590=LINE('',#1440,#684);
#591=LINE('',#1442,#685);
#592=LINE('',#1444,#686);
#593=LINE('',#1446,#687);
#594=LINE('',#1468,#688);
#595=LINE('',#1471,#689);
#596=LINE('',#1473,#690);
#597=LINE('',#1475,#691);
#598=LINE('',#1477,#692);
#599=LINE('',#1478,#693);
#600=LINE('',#1480,#694);
#601=LINE('',#1481,#695);
#602=LINE('',#1483,#696);
#603=LINE('',#1485,#697);
#604=LINE('',#1486,#698);
#605=LINE('',#1488,#699);
#606=LINE('',#1490,#700);
#607=LINE('',#1491,#701);
#608=LINE('',#1493,#702);
#609=LINE('',#1496,#703);
#610=LINE('',#1497,#704);
#611=LINE('',#1501,#705);
#612=LINE('',#1503,#706);
#613=LINE('',#1505,#707);
#614=LINE('',#1509,#708);
#615=LINE('',#1511,#709);
#616=LINE('',#1513,#710);
#617=LINE('',#1517,#711);
#618=LINE('',#1519,#712);
#619=LINE('',#1521,#713);
#620=LINE('',#1550,#714);
#621=LINE('',#1554,#715);
#622=LINE('',#1556,#716);
#623=LINE('',#1558,#717);
#624=LINE('',#1560,#718);
#625=LINE('',#1564,#719);
#626=LINE('',#1566,#720);
#627=LINE('',#1568,#721);
#628=LINE('',#1572,#722);
#629=LINE('',#1574,#723);
#630=LINE('',#1576,#724);
#631=LINE('',#1580,#725);
#632=LINE('',#1584,#726);
#633=LINE('',#1586,#727);
#634=LINE('',#1590,#728);
#635=LINE('',#1592,#729);
#636=VECTOR('',#1063,1.);
#637=VECTOR('',#1066,1.);
#638=VECTOR('',#1069,1.);
#639=VECTOR('',#1072,1.);
#640=VECTOR('',#1075,1.);
#641=VECTOR('',#1076,1.);
#642=VECTOR('',#1077,1.);
#643=VECTOR('',#1078,1.);
#644=VECTOR('',#1079,1.);
#645=VECTOR('',#1080,1.);
#646=VECTOR('',#1081,1.);
#647=VECTOR('',#1082,1.);
#648=VECTOR('',#1083,1.);
#649=VECTOR('',#1084,1.);
#650=VECTOR('',#1085,1.);
#651=VECTOR('',#1086,1.);
#652=VECTOR('',#1087,1.);
#653=VECTOR('',#1088,1.);
#654=VECTOR('',#1089,1.);
#655=VECTOR('',#1090,1.);
#656=VECTOR('',#1093,1.);
#657=VECTOR('',#1094,1.);
#658=VECTOR('',#1095,1.);
#659=VECTOR('',#1098,1.);
#660=VECTOR('',#1099,1.);
#661=VECTOR('',#1100,1.);
#662=VECTOR('',#1103,1.);
#663=VECTOR('',#1104,1.);
#664=VECTOR('',#1107,1.);
#665=VECTOR('',#1108,1.);
#666=VECTOR('',#1109,1.);
#667=VECTOR('',#1112,1.);
#668=VECTOR('',#1113,1.);
#669=VECTOR('',#1114,1.);
#670=VECTOR('',#1117,1.);
#671=VECTOR('',#1118,1.);
#672=VECTOR('',#1119,1.);
#673=VECTOR('',#1120,1.);
#674=VECTOR('',#1121,1.);
#675=VECTOR('',#1122,1.);
#676=VECTOR('',#1123,1.);
#677=VECTOR('',#1124,1.);
#678=VECTOR('',#1125,1.);
#679=VECTOR('',#1126,1.);
#680=VECTOR('',#1129,1.);
#681=VECTOR('',#1132,1.);
#682=VECTOR('',#1135,1.);
#683=VECTOR('',#1138,1.);
#684=VECTOR('',#1139,1.);
#685=VECTOR('',#1140,1.);
#686=VECTOR('',#1141,1.);
#687=VECTOR('',#1142,1.);
#688=VECTOR('',#1169,1.);
#689=VECTOR('',#1170,1.);
#690=VECTOR('',#1171,1.);
#691=VECTOR('',#1172,1.);
#692=VECTOR('',#1175,1.);
#693=VECTOR('',#1176,1.);
#694=VECTOR('',#1179,1.);
#695=VECTOR('',#1180,1.);
#696=VECTOR('',#1183,1.);
#697=VECTOR('',#1184,1.);
#698=VECTOR('',#1185,1.);
#699=VECTOR('',#1188,1.);
#700=VECTOR('',#1189,1.);
#701=VECTOR('',#1190,1.);
#702=VECTOR('',#1193,1.);
#703=VECTOR('',#1194,1.);
#704=VECTOR('',#1195,1.);
#705=VECTOR('',#1200,1.);
#706=VECTOR('',#1203,1.);
#707=VECTOR('',#1204,1.);
#708=VECTOR('',#1209,1.);
#709=VECTOR('',#1212,1.);
#710=VECTOR('',#1213,1.);
#711=VECTOR('',#1218,1.);
#712=VECTOR('',#1221,1.);
#713=VECTOR('',#1222,1.);
#714=VECTOR('',#1263,1.);
#715=VECTOR('',#1266,1.);
#716=VECTOR('',#1269,1.);
#717=VECTOR('',#1270,1.);
#718=VECTOR('',#1273,1.);
#719=VECTOR('',#1278,1.);
#720=VECTOR('',#1279,1.);
#721=VECTOR('',#1282,1.);
#722=VECTOR('',#1287,1.);
#723=VECTOR('',#1288,1.);
#724=VECTOR('',#1291,1.);
#725=VECTOR('',#1296,1.);
#726=VECTOR('',#1303,1.);
#727=VECTOR('',#1306,1.);
#728=VECTOR('',#1313,1.);
#729=VECTOR('',#1316,1.);
#730=EDGE_LOOP('',(#68,#69,#70,#71,#72,#73,#74,#75));
#731=EDGE_LOOP('',(#76,#77,#78,#79,#80,#81,#82,#83,#84,#85,#86,#87,#88,
#89,#90,#91));
#732=EDGE_LOOP('',(#92,#93,#94,#95));
#733=EDGE_LOOP('',(#96,#97,#98,#99));
#734=EDGE_LOOP('',(#100,#101,#102,#103));
#735=EDGE_LOOP('',(#104,#105,#106,#107));
#736=EDGE_LOOP('',(#108,#109,#110,#111));
#737=EDGE_LOOP('',(#112,#113,#114,#115,#116,#117,#118,#119,#120,#121,#122,
#123,#124,#125,#126,#127,#128,#129,#130,#131,#132,#133,#134,#135));
#738=EDGE_LOOP('',(#136));
#739=EDGE_LOOP('',(#137));
#740=EDGE_LOOP('',(#138));
#741=EDGE_LOOP('',(#139));
#742=EDGE_LOOP('',(#140));
#743=EDGE_LOOP('',(#141));
#744=EDGE_LOOP('',(#142));
#745=EDGE_LOOP('',(#143));
#746=EDGE_LOOP('',(#144,#145,#146,#147));
#747=EDGE_LOOP('',(#148,#149,#150,#151));
#748=EDGE_LOOP('',(#152,#153,#154,#155));
#749=EDGE_LOOP('',(#156,#157,#158,#159,#160));
#750=EDGE_LOOP('',(#161,#162,#163,#164,#165));
#751=EDGE_LOOP('',(#166,#167,#168,#169));
#752=EDGE_LOOP('',(#170,#171,#172,#173));
#753=EDGE_LOOP('',(#174,#175,#176,#177));
#754=EDGE_LOOP('',(#178,#179,#180,#181));
#755=EDGE_LOOP('',(#182,#183,#184,#185));
#756=EDGE_LOOP('',(#186,#187,#188,#189));
#757=EDGE_LOOP('',(#190,#191,#192,#193));
#758=EDGE_LOOP('',(#194,#195,#196,#197));
#759=EDGE_LOOP('',(#198));
#760=EDGE_LOOP('',(#199));
#761=EDGE_LOOP('',(#200));
#762=EDGE_LOOP('',(#201));
#763=EDGE_LOOP('',(#202,#203,#204,#205));
#764=EDGE_LOOP('',(#206));
#765=EDGE_LOOP('',(#207));
#766=EDGE_LOOP('',(#208));
#767=EDGE_LOOP('',(#209));
#768=EDGE_LOOP('',(#210));
#769=EDGE_LOOP('',(#211));
#770=EDGE_LOOP('',(#212));
#771=EDGE_LOOP('',(#213));
#772=EDGE_LOOP('',(#214));
#773=EDGE_LOOP('',(#215));
#774=EDGE_LOOP('',(#216));
#775=EDGE_LOOP('',(#217));
#776=EDGE_LOOP('',(#218));
#777=EDGE_LOOP('',(#219));
#778=EDGE_LOOP('',(#220));
#779=EDGE_LOOP('',(#221));
#780=EDGE_LOOP('',(#222,#223,#224,#225));
#781=EDGE_LOOP('',(#226,#227,#228,#229));
#782=EDGE_LOOP('',(#230,#231,#232,#233));
#783=EDGE_LOOP('',(#234,#235,#236,#237));
#784=EDGE_LOOP('',(#238,#239,#240,#241));
#785=EDGE_LOOP('',(#242,#243,#244,#245));
#786=EDGE_LOOP('',(#246,#247,#248,#249));
#787=EDGE_LOOP('',(#250,#251,#252,#253,#254,#255,#256,#257));
#788=EDGE_LOOP('',(#258,#259,#260,#261,#262,#263,#264,#265));
#789=EDGE_LOOP('',(#266,#267,#268,#269,#270,#271,#272,#273));
#790=EDGE_LOOP('',(#274,#275,#276,#277,#278,#279));
#791=EDGE_LOOP('',(#280,#281,#282,#283));
#792=EDGE_LOOP('',(#284,#285,#286,#287));
#793=EDGE_LOOP('',(#288,#289,#290,#291,#292,#293));
#794=EDGE_LOOP('',(#294,#295,#296,#297));
#795=EDGE_LOOP('',(#298,#299,#300,#301));
#796=EDGE_LOOP('',(#302));
#797=EDGE_LOOP('',(#303));
#798=EDGE_LOOP('',(#304));
#799=EDGE_LOOP('',(#305));
#800=EDGE_LOOP('',(#306));
#801=EDGE_LOOP('',(#307));
#802=EDGE_LOOP('',(#308,#309,#310,#311,#312,#313,#314,#315,#316,#317,#318,
#319));
#803=EDGE_LOOP('',(#320,#321,#322,#323));
#804=FACE_BOUND('',#730,.T.);
#805=FACE_BOUND('',#731,.T.);
#806=FACE_BOUND('',#732,.T.);
#807=FACE_BOUND('',#733,.T.);
#808=FACE_BOUND('',#734,.T.);
#809=FACE_BOUND('',#735,.T.);
#810=FACE_BOUND('',#736,.T.);
#811=FACE_BOUND('',#737,.T.);
#812=FACE_BOUND('',#738,.T.);
#813=FACE_BOUND('',#739,.T.);
#814=FACE_BOUND('',#740,.T.);
#815=FACE_BOUND('',#741,.T.);
#816=FACE_BOUND('',#742,.T.);
#817=FACE_BOUND('',#743,.T.);
#818=FACE_BOUND('',#744,.T.);
#819=FACE_BOUND('',#745,.T.);
#820=FACE_BOUND('',#746,.T.);
#821=FACE_BOUND('',#747,.T.);
#822=FACE_BOUND('',#748,.T.);
#823=FACE_BOUND('',#749,.T.);
#824=FACE_BOUND('',#750,.T.);
#825=FACE_BOUND('',#751,.T.);
#826=FACE_BOUND('',#752,.T.);
#827=FACE_BOUND('',#753,.T.);
#828=FACE_BOUND('',#754,.T.);
#829=FACE_BOUND('',#755,.T.);
#830=FACE_BOUND('',#756,.T.);
#831=FACE_BOUND('',#757,.T.);
#832=FACE_BOUND('',#758,.T.);
#833=FACE_BOUND('',#759,.T.);
#834=FACE_BOUND('',#760,.T.);
#835=FACE_BOUND('',#761,.T.);
#836=FACE_BOUND('',#762,.T.);
#837=FACE_BOUND('',#763,.T.);
#838=FACE_BOUND('',#764,.T.);
#839=FACE_BOUND('',#765,.T.);
#840=FACE_BOUND('',#766,.T.);
#841=FACE_BOUND('',#767,.T.);
#842=FACE_BOUND('',#768,.T.);
#843=FACE_BOUND('',#769,.T.);
#844=FACE_BOUND('',#770,.T.);
#845=FACE_BOUND('',#771,.T.);
#846=FACE_BOUND('',#772,.T.);
#847=FACE_BOUND('',#773,.T.);
#848=FACE_BOUND('',#774,.T.);
#849=FACE_BOUND('',#775,.T.);
#850=FACE_BOUND('',#776,.T.);
#851=FACE_BOUND('',#777,.T.);
#852=FACE_BOUND('',#778,.T.);
#853=FACE_BOUND('',#779,.T.);
#854=FACE_BOUND('',#780,.T.);
#855=FACE_BOUND('',#781,.T.);
#856=FACE_BOUND('',#782,.T.);
#857=FACE_BOUND('',#783,.T.);
#858=FACE_BOUND('',#784,.T.);
#859=FACE_BOUND('',#785,.T.);
#860=FACE_BOUND('',#786,.T.);
#861=FACE_BOUND('',#787,.T.);
#862=FACE_BOUND('',#788,.T.);
#863=FACE_BOUND('',#789,.T.);
#864=FACE_BOUND('',#790,.T.);
#865=FACE_BOUND('',#791,.T.);
#866=FACE_BOUND('',#792,.T.);
#867=FACE_BOUND('',#793,.T.);
#868=FACE_BOUND('',#794,.T.);
#869=FACE_BOUND('',#795,.T.);
#870=FACE_BOUND('',#796,.T.);
#871=FACE_BOUND('',#797,.T.);
#872=FACE_BOUND('',#798,.T.);
#873=FACE_BOUND('',#799,.T.);
#874=FACE_BOUND('',#800,.T.);
#875=FACE_BOUND('',#801,.T.);
#876=FACE_BOUND('',#802,.T.);
#877=FACE_BOUND('',#803,.T.);
#878=PLANE('',#973);
#879=PLANE('',#978);
#880=PLANE('',#979);
#881=PLANE('',#980);
#882=PLANE('',#981);
#883=PLANE('',#982);
#884=PLANE('',#983);
#885=PLANE('',#1000);
#886=PLANE('',#1001);
#887=PLANE('',#1002);
#888=PLANE('',#1003);
#889=PLANE('',#1004);
#890=PLANE('',#1005);
#891=PLANE('',#1008);
#892=PLANE('',#1011);
#893=PLANE('',#1014);
#894=PLANE('',#1017);
#895=PLANE('',#1036);
#896=PLANE('',#1039);
#897=PLANE('',#1042);
#898=PLANE('',#1045);
#899=PLANE('',#1046);
#900=PLANE('',#1047);
#901=PLANE('',#1049);
#902=PLANE('',#1050);
#903=PLANE('',#1051);
#904=PLANE('',#1053);
#905=PLANE('',#1054);
#906=PLANE('',#1057);
#907=PLANE('',#1058);
#908=ADVANCED_FACE('',(#804,#805),#878,.T.);
#909=ADVANCED_FACE('',(#806),#879,.T.);
#910=ADVANCED_FACE('',(#807),#880,.T.);
#911=ADVANCED_FACE('',(#808),#881,.T.);
#912=ADVANCED_FACE('',(#809),#882,.F.);
#913=ADVANCED_FACE('',(#810),#883,.T.);
#914=ADVANCED_FACE('',(#811),#884,.F.);
#915=ADVANCED_FACE('',(#812,#813),#18,.F.);
#916=ADVANCED_FACE('',(#814,#815),#19,.F.);
#917=ADVANCED_FACE('',(#816,#817),#20,.F.);
#918=ADVANCED_FACE('',(#818,#819),#21,.F.);
#919=ADVANCED_FACE('',(#820),#885,.F.);
#920=ADVANCED_FACE('',(#821),#886,.F.);
#921=ADVANCED_FACE('',(#822),#887,.F.);
#922=ADVANCED_FACE('',(#823),#888,.F.);
#923=ADVANCED_FACE('',(#824),#889,.T.);
#924=ADVANCED_FACE('',(#825),#890,.F.);
#925=ADVANCED_FACE('',(#826),#22,.F.);
#926=ADVANCED_FACE('',(#827),#891,.F.);
#927=ADVANCED_FACE('',(#828),#23,.F.);
#928=ADVANCED_FACE('',(#829),#892,.F.);
#929=ADVANCED_FACE('',(#830),#24,.F.);
#930=ADVANCED_FACE('',(#831),#893,.F.);
#931=ADVANCED_FACE('',(#832),#25,.F.);
#932=ADVANCED_FACE('',(#833,#834,#835,#836,#837),#894,.F.);
#933=ADVANCED_FACE('',(#838,#839),#14,.F.);
#934=ADVANCED_FACE('',(#840,#841),#26,.F.);
#935=ADVANCED_FACE('',(#842,#843),#15,.F.);
#936=ADVANCED_FACE('',(#844,#845),#27,.F.);
#937=ADVANCED_FACE('',(#846,#847),#16,.F.);
#938=ADVANCED_FACE('',(#848,#849),#28,.F.);
#939=ADVANCED_FACE('',(#850,#851),#17,.F.);
#940=ADVANCED_FACE('',(#852,#853),#29,.F.);
#941=ADVANCED_FACE('',(#854),#30,.F.);
#942=ADVANCED_FACE('',(#855),#895,.F.);
#943=ADVANCED_FACE('',(#856),#31,.F.);
#944=ADVANCED_FACE('',(#857),#896,.F.);
#945=ADVANCED_FACE('',(#858),#32,.F.);
#946=ADVANCED_FACE('',(#859),#897,.F.);
#947=ADVANCED_FACE('',(#860),#33,.F.);
#948=ADVANCED_FACE('',(#861,#862),#898,.T.);
#949=ADVANCED_FACE('',(#863),#899,.T.);
#950=ADVANCED_FACE('',(#864),#900,.T.);
#951=ADVANCED_FACE('',(#865),#901,.T.);
#952=ADVANCED_FACE('',(#866),#902,.T.);
#953=ADVANCED_FACE('',(#867),#903,.F.);
#954=ADVANCED_FACE('',(#868),#904,.F.);
#955=ADVANCED_FACE('',(#869),#905,.T.);
#956=ADVANCED_FACE('',(#870),#12,.F.);
#957=ADVANCED_FACE('',(#871),#13,.F.);
#958=ADVANCED_FACE('',(#872,#873,#874,#875,#876),#906,.T.);
#959=ADVANCED_FACE('',(#877),#907,.F.);
#960=CLOSED_SHELL('',(#908,#909,#910,#911,#912,#913,#914,#915,#916,#917,
#918,#919,#920,#921,#922,#923,#924,#925,#926,#927,#928,#929,#930,#931,#932,
#933,#934,#935,#936,#937,#938,#939,#940,#941,#942,#943,#944,#945,#946,#947,
#948,#949,#950,#951,#952,#953,#954,#955,#956,#957,#958,#959));
#961=STYLED_ITEM('',(#962),#969);
#962=PRESENTATION_STYLE_ASSIGNMENT((#963));
#963=SURFACE_STYLE_USAGE(.BOTH.,#964);
#964=SURFACE_SIDE_STYLE('',(#965));
#965=SURFACE_STYLE_FILL_AREA(#966);
#966=FILL_AREA_STYLE('',(#967));
#967=FILL_AREA_STYLE_COLOUR('',#968);
#968=COLOUR_RGB('',0.917647058823529,0.917647058823529,0.917647058823529);
#969=MANIFOLD_SOLID_BREP('Main_Case',#960);
#970=SHAPE_DEFINITION_REPRESENTATION(#1604,#971);
#971=SHAPE_REPRESENTATION('Main_Case',(#972),#1599);
#972=AXIS2_PLACEMENT_3D('',#1327,#1059,#1060);
#973=AXIS2_PLACEMENT_3D('',#1328,#1061,#1062);
#974=AXIS2_PLACEMENT_3D('',#1332,#1064,#1065);
#975=AXIS2_PLACEMENT_3D('',#1336,#1067,#1068);
#976=AXIS2_PLACEMENT_3D('',#1340,#1070,#1071);
#977=AXIS2_PLACEMENT_3D('',#1344,#1073,#1074);
#978=AXIS2_PLACEMENT_3D('',#1377,#1091,#1092);
#979=AXIS2_PLACEMENT_3D('',#1383,#1096,#1097);
#980=AXIS2_PLACEMENT_3D('',#1389,#1101,#1102);
#981=AXIS2_PLACEMENT_3D('',#1392,#1105,#1106);
#982=AXIS2_PLACEMENT_3D('',#1398,#1110,#1111);
#983=AXIS2_PLACEMENT_3D('',#1404,#1115,#1116);
#984=AXIS2_PLACEMENT_3D('',#1424,#1127,#1128);
#985=AXIS2_PLACEMENT_3D('',#1428,#1130,#1131);
#986=AXIS2_PLACEMENT_3D('',#1432,#1133,#1134);
#987=AXIS2_PLACEMENT_3D('',#1436,#1136,#1137);
#988=AXIS2_PLACEMENT_3D('',#1447,#1143,#1144);
#989=AXIS2_PLACEMENT_3D('',#1448,#1145,#1146);
#990=AXIS2_PLACEMENT_3D('',#1450,#1147,#1148);
#991=AXIS2_PLACEMENT_3D('',#1452,#1149,#1150);
#992=AXIS2_PLACEMENT_3D('',#1453,#1151,#1152);
#993=AXIS2_PLACEMENT_3D('',#1455,#1153,#1154);
#994=AXIS2_PLACEMENT_3D('',#1457,#1155,#1156);
#995=AXIS2_PLACEMENT_3D('',#1458,#1157,#1158);
#996=AXIS2_PLACEMENT_3D('',#1460,#1159,#1160);
#997=AXIS2_PLACEMENT_3D('',#1462,#1161,#1162);
#998=AXIS2_PLACEMENT_3D('',#1463,#1163,#1164);
#999=AXIS2_PLACEMENT_3D('',#1465,#1165,#1166);
#1000=AXIS2_PLACEMENT_3D('',#1467,#1167,#1168);
#1001=AXIS2_PLACEMENT_3D('',#1476,#1173,#1174);
#1002=AXIS2_PLACEMENT_3D('',#1479,#1177,#1178);
#1003=AXIS2_PLACEMENT_3D('',#1482,#1181,#1182);
#1004=AXIS2_PLACEMENT_3D('',#1487,#1186,#1187);
#1005=AXIS2_PLACEMENT_3D('',#1492,#1191,#1192);
#1006=AXIS2_PLACEMENT_3D('',#1498,#1196,#1197);
#1007=AXIS2_PLACEMENT_3D('',#1499,#1198,#1199);
#1008=AXIS2_PLACEMENT_3D('',#1502,#1201,#1202);
#1009=AXIS2_PLACEMENT_3D('',#1506,#1205,#1206);
#1010=AXIS2_PLACEMENT_3D('',#1507,#1207,#1208);
#1011=AXIS2_PLACEMENT_3D('',#1510,#1210,#1211);
#1012=AXIS2_PLACEMENT_3D('',#1514,#1214,#1215);
#1013=AXIS2_PLACEMENT_3D('',#1515,#1216,#1217);
#1014=AXIS2_PLACEMENT_3D('',#1518,#1219,#1220);
#1015=AXIS2_PLACEMENT_3D('',#1522,#1223,#1224);
#1016=AXIS2_PLACEMENT_3D('',#1523,#1225,#1226);
#1017=AXIS2_PLACEMENT_3D('',#1524,#1227,#1228);
#1018=AXIS2_PLACEMENT_3D('',#1525,#1229,#1230);
#1019=AXIS2_PLACEMENT_3D('',#1527,#1231,#1232);
#1020=AXIS2_PLACEMENT_3D('',#1529,#1233,#1234);
#1021=AXIS2_PLACEMENT_3D('',#1531,#1235,#1236);
#1022=AXIS2_PLACEMENT_3D('',#1533,#1237,#1238);
#1023=AXIS2_PLACEMENT_3D('',#1534,#1239,#1240);
#1024=AXIS2_PLACEMENT_3D('',#1536,#1241,#1242);
#1025=AXIS2_PLACEMENT_3D('',#1537,#1243,#1244);
#1026=AXIS2_PLACEMENT_3D('',#1538,#1245,#1246);
#1027=AXIS2_PLACEMENT_3D('',#1540,#1247,#1248);
#1028=AXIS2_PLACEMENT_3D('',#1541,#1249,#1250);
#1029=AXIS2_PLACEMENT_3D('',#1542,#1251,#1252);
#1030=AXIS2_PLACEMENT_3D('',#1544,#1253,#1254);
#1031=AXIS2_PLACEMENT_3D('',#1545,#1255,#1256);
#1032=AXIS2_PLACEMENT_3D('',#1546,#1257,#1258);
#1033=AXIS2_PLACEMENT_3D('',#1548,#1259,#1260);
#1034=AXIS2_PLACEMENT_3D('',#1549,#1261,#1262);
#1035=AXIS2_PLACEMENT_3D('',#1552,#1264,#1265);
#1036=AXIS2_PLACEMENT_3D('',#1555,#1267,#1268);
#1037=AXIS2_PLACEMENT_3D('',#1559,#1271,#1272);
#1038=AXIS2_PLACEMENT_3D('',#1562,#1274,#1275);
#1039=AXIS2_PLACEMENT_3D('',#1563,#1276,#1277);
#1040=AXIS2_PLACEMENT_3D('',#1567,#1280,#1281);
#1041=AXIS2_PLACEMENT_3D('',#1570,#1283,#1284);
#1042=AXIS2_PLACEMENT_3D('',#1571,#1285,#1286);
#1043=AXIS2_PLACEMENT_3D('',#1575,#1289,#1290);
#1044=AXIS2_PLACEMENT_3D('',#1578,#1292,#1293);
#1045=AXIS2_PLACEMENT_3D('',#1579,#1294,#1295);
#1046=AXIS2_PLACEMENT_3D('',#1581,#1297,#1298);
#1047=AXIS2_PLACEMENT_3D('',#1582,#1299,#1300);
#1048=AXIS2_PLACEMENT_3D('',#1583,#1301,#1302);
#1049=AXIS2_PLACEMENT_3D('',#1585,#1304,#1305);
#1050=AXIS2_PLACEMENT_3D('',#1587,#1307,#1308);
#1051=AXIS2_PLACEMENT_3D('',#1588,#1309,#1310);
#1052=AXIS2_PLACEMENT_3D('',#1589,#1311,#1312);
#1053=AXIS2_PLACEMENT_3D('',#1591,#1314,#1315);
#1054=AXIS2_PLACEMENT_3D('',#1593,#1317,#1318);
#1055=AXIS2_PLACEMENT_3D('',#1594,#1319,#1320);
#1056=AXIS2_PLACEMENT_3D('',#1595,#1321,#1322);
#1057=AXIS2_PLACEMENT_3D('',#1596,#1323,#1324);
#1058=AXIS2_PLACEMENT_3D('',#1597,#1325,#1326);
#1059=DIRECTION('',(0.,0.,1.));
#1060=DIRECTION('',(1.,0.,0.));
#1061=DIRECTION('',(0.999999992029881,-0.000126254655137407,0.));
#1062=DIRECTION('',(0.000126254655137407,0.999999992029881,0.));
#1063=DIRECTION('',(-0.000126254655137407,-0.999999992029881,0.));
#1064=DIRECTION('',(0.999999992029881,-0.000126254655137407,0.));
#1065=DIRECTION('',(0.000126254655137407,0.999999992029881,0.));
#1066=DIRECTION('',(-1.34623960620603E-12,-1.06628907584531E-8,1.));
#1067=DIRECTION('',(0.999999992029881,-0.000126254655137407,0.));
#1068=DIRECTION('',(0.000126254655137407,0.999999992029881,0.));
#1069=DIRECTION('',(0.000126254655137407,0.999999992029881,0.));
#1070=DIRECTION('',(0.999999992029881,-0.000126254655137407,0.));
#1071=DIRECTION('',(0.000126254655137407,0.999999992029881,0.));
#1072=DIRECTION('',(1.34623960620603E-12,1.06628907584531E-8,-1.));
#1073=DIRECTION('',(0.999999992029881,-0.000126254655137407,0.));
#1074=DIRECTION('',(0.000126254655137407,0.999999992029881,0.));
#1075=DIRECTION('',(0.,0.,1.));
#1076=DIRECTION('',(0.000126254655137407,0.999999992029881,0.));
#1077=DIRECTION('',(0.,0.,1.));
#1078=DIRECTION('',(-0.000126254655137407,-0.999999992029881,0.));
#1079=DIRECTION('',(0.,0.,-1.));
#1080=DIRECTION('',(-0.000126254655137407,-0.999999992029881,-1.99106284066023E-20));
#1081=DIRECTION('',(0.,0.,1.));
#1082=DIRECTION('',(0.000126254655137407,0.999999992029881,0.));
#1083=DIRECTION('',(0.,0.,-1.));
#1084=DIRECTION('',(-0.000126254655137407,-0.999999992029881,0.));
#1085=DIRECTION('',(0.,0.,-1.));
#1086=DIRECTION('',(0.000126254655137407,0.999999992029881,1.99106284066023E-20));
#1087=DIRECTION('',(0.,0.,1.));
#1088=DIRECTION('',(0.000126254655137407,0.999999992029881,0.));
#1089=DIRECTION('',(0.,0.,-1.));
#1090=DIRECTION('',(-0.000126254655137407,-0.999999992029881,0.));
#1091=DIRECTION('',(9.99999995000604E-5,-0.999999995,0.));
#1092=DIRECTION('',(0.999999995,9.99999995000604E-5,0.));
#1093=DIRECTION('',(0.999999995,9.99999995000605E-5,0.));
#1094=DIRECTION('',(0.,0.,1.));
#1095=DIRECTION('',(-0.999999995,-9.99999995000604E-5,0.));
#1096=DIRECTION('',(-0.999999992030887,0.000126246685018355,0.));
#1097=DIRECTION('',(-0.000126246685018355,-0.999999992030887,0.));
#1098=DIRECTION('',(-0.000126246685018355,-0.999999992030887,0.));
#1099=DIRECTION('',(0.,0.,1.));
#1100=DIRECTION('',(0.000126246685018355,0.999999992030887,0.));
#1101=DIRECTION('',(-7.97077906833938E-13,1.,0.));
#1102=DIRECTION('',(-1.,-7.97077906833938E-13,0.));
#1103=DIRECTION('',(-1.,-7.97077906833938E-13,0.));
#1104=DIRECTION('',(1.,7.97077906833938E-13,0.));
#1105=DIRECTION('',(0.,-1.,0.));
#1106=DIRECTION('',(0.,0.,-1.));
#1107=DIRECTION('',(-1.,0.,0.));
#1108=DIRECTION('',(1.,0.,1.57702132922805E-16));
#1109=DIRECTION('',(0.,0.,1.));
#1110=DIRECTION('',(0.,-1.,0.));
#1111=DIRECTION('',(0.,0.,-1.));
#1112=DIRECTION('',(-1.,0.,0.));
#1113=DIRECTION('',(0.,0.,1.));
#1114=DIRECTION('',(1.,0.,1.57702132922805E-16));
#1115=DIRECTION('',(0.999999992029881,-0.000126254655137494,0.));
#1116=DIRECTION('',(0.000126254655137494,0.999999992029881,0.));
#1117=DIRECTION('',(-0.000126254655137494,-0.999999992029881,0.));
#1118=DIRECTION('',(0.,0.,1.));
#1119=DIRECTION('',(0.000126254655137494,0.999999992029881,0.));
#1120=DIRECTION('',(0.,0.,1.));
#1121=DIRECTION('',(-0.000126254655137494,-0.999999992029881,0.));
#1122=DIRECTION('',(0.000126254655137494,0.999999992029881,1.99106284066159E-20));
#1123=DIRECTION('',(0.,0.,1.));
#1124=DIRECTION('',(0.000126254655137494,0.999999992029881,0.));
#1125=DIRECTION('',(0.,0.,1.));
#1126=DIRECTION('',(-0.000126254655137494,-0.999999992029881,0.));
#1127=DIRECTION('',(-0.999999992029881,0.000126254655137494,0.));
#1128=DIRECTION('',(-0.000126254655137494,-0.999999992029881,0.));
#1129=DIRECTION('',(-1.34623960620696E-12,-1.06628907584531E-8,1.));
#1130=DIRECTION('',(-0.999999992029881,0.000126254655137494,0.));
#1131=DIRECTION('',(-0.000126254655137494,-0.999999992029881,0.));
#1132=DIRECTION('',(-0.000126254655137494,-0.999999992029881,0.));
#1133=DIRECTION('',(-0.999999992029881,0.000126254655137494,0.));
#1134=DIRECTION('',(-0.000126254655137494,-0.999999992029881,0.));
#1135=DIRECTION('',(1.34623960620696E-12,1.06628907584531E-8,-1.));
#1136=DIRECTION('',(-0.999999992029881,0.000126254655137494,0.));
#1137=DIRECTION('',(-0.000126254655137494,-0.999999992029881,0.));
#1138=DIRECTION('',(-0.000126254655137494,-0.999999992029881,0.));
#1139=DIRECTION('',(0.,0.,1.));
#1140=DIRECTION('',(-0.000126254655137494,-0.999999992029881,-1.99106284066159E-20));
#1141=DIRECTION('',(0.,0.,-1.));
#1142=DIRECTION('',(0.000126254655137494,0.999999992029881,0.));
#1143=DIRECTION('',(0.,0.,-1.));
#1144=DIRECTION('',(-1.,0.,0.));
#1145=DIRECTION('',(0.,0.,-1.));
#1146=DIRECTION('',(-1.,0.,0.));
#1147=DIRECTION('',(0.,0.,1.));
#1148=DIRECTION('',(1.,0.,0.));
#1149=DIRECTION('',(0.,0.,-1.));
#1150=DIRECTION('',(-1.,0.,0.));
#1151=DIRECTION('',(0.,0.,-1.));
#1152=DIRECTION('',(-1.,0.,0.));
#1153=DIRECTION('',(0.,0.,1.));
#1154=DIRECTION('',(1.,0.,0.));
#1155=DIRECTION('',(0.,0.,-1.));
#1156=DIRECTION('',(-1.,0.,0.));
#1157=DIRECTION('',(0.,0.,-1.));
#1158=DIRECTION('',(-1.,0.,0.));
#1159=DIRECTION('',(0.,0.,1.));
#1160=DIRECTION('',(1.,0.,0.));
#1161=DIRECTION('',(0.,0.,-1.));
#1162=DIRECTION('',(-1.,0.,0.));
#1163=DIRECTION('',(0.,0.,-1.));
#1164=DIRECTION('',(-1.,0.,0.));
#1165=DIRECTION('',(0.,0.,1.));
#1166=DIRECTION('',(1.,0.,0.));
#1167=DIRECTION('',(-0.999999992030887,0.000126246685018394,0.));
#1168=DIRECTION('',(-0.000126246685018394,-0.999999992030887,0.));
#1169=DIRECTION('',(0.000126246685018394,0.999999992030887,0.));
#1170=DIRECTION('',(0.,0.,1.));
#1171=DIRECTION('',(-0.000126246685018394,-0.999999992030887,0.));
#1172=DIRECTION('',(0.,0.,1.));
#1173=DIRECTION('',(9.99999995000848E-5,-0.999999995,0.));
#1174=DIRECTION('',(0.999999995,9.99999995000848E-5,0.));
#1175=DIRECTION('',(-0.999999995,-9.99999995000848E-5,0.));
#1176=DIRECTION('',(0.999999995,9.99999995000848E-5,0.));
#1177=DIRECTION('',(-7.97103889075094E-13,1.,0.));
#1178=DIRECTION('',(-1.,-7.97103889075094E-13,0.));
#1179=DIRECTION('',(1.,7.97103889075094E-13,0.));
#1180=DIRECTION('',(-1.,-7.97103889075094E-13,0.));
#1181=DIRECTION('',(0.,-1.,0.));
#1182=DIRECTION('',(0.,0.,-1.));
#1183=DIRECTION('',(-1.,0.,-1.57702132922805E-16));
#1184=DIRECTION('',(1.,0.,0.));
#1185=DIRECTION('',(-1.,0.,-1.57702132922805E-16));
#1186=DIRECTION('',(0.,-1.,0.));
#1187=DIRECTION('',(0.,0.,-1.));
#1188=DIRECTION('',(-1.,0.,-1.57702132922805E-16));
#1189=DIRECTION('',(-1.,0.,-1.57702132922805E-16));
#1190=DIRECTION('',(1.,0.,0.));
#1191=DIRECTION('',(0.,0.,1.));
#1192=DIRECTION('',(1.,0.,0.));
#1193=DIRECTION('',(0.000126254655137494,0.999999992029881,0.));
#1194=DIRECTION('',(-0.999999992029881,0.000126254655137494,0.));
#1195=DIRECTION('',(-0.999999992029881,0.000126254655137494,0.));
#1196=DIRECTION('',(-0.999999992029881,0.000126254655137494,0.));
#1197=DIRECTION('',(-0.000126254655137494,-0.999999992029881,0.));
#1198=DIRECTION('',(-0.999999992029881,0.000126254655137494,0.));
#1199=DIRECTION('',(-0.000126254655137494,-0.999999992029881,0.));
#1200=DIRECTION('',(-0.999999992029881,0.000126254655137494,0.));
#1201=DIRECTION('',(0.000126254655137494,0.999999992029881,1.06628908434376E-8));
#1202=DIRECTION('',(-0.999999992029881,0.000126254655137494,0.));
#1203=DIRECTION('',(1.34623960620696E-12,1.06628907584531E-8,-1.));
#1204=DIRECTION('',(-0.999999992029881,0.000126254655137494,0.));
#1205=DIRECTION('',(-0.999999992029881,0.000126254655137494,0.));
#1206=DIRECTION('',(-0.000126254655137494,-0.999999992029881,0.));
#1207=DIRECTION('',(-0.999999992029881,0.000126254655137494,0.));
#1208=DIRECTION('',(-0.000126254655137494,-0.999999992029881,0.));
#1209=DIRECTION('',(-0.999999992029881,0.000126254655137494,0.));
#1210=DIRECTION('',(0.,0.,-1.));
#1211=DIRECTION('',(-1.,0.,0.));
#1212=DIRECTION('',(-0.000126254655137494,-0.999999992029881,0.));
#1213=DIRECTION('',(-0.999999992029881,0.000126254655137494,0.));
#1214=DIRECTION('',(-0.999999992029881,0.000126254655137494,0.));
#1215=DIRECTION('',(-0.000126254655137494,-0.999999992029881,0.));
#1216=DIRECTION('',(-0.999999992029881,0.000126254655137494,0.));
#1217=DIRECTION('',(-0.000126254655137494,-0.999999992029881,0.));
#1218=DIRECTION('',(-0.999999992029881,0.000126254655137494,0.));
#1219=DIRECTION('',(-0.000126254655137494,-0.999999992029881,-1.06628908434376E-8));
#1220=DIRECTION('',(0.999999992029881,-0.000126254655137494,0.));
#1221=DIRECTION('',(-1.34623960620696E-12,-1.06628907584531E-8,1.));
#1222=DIRECTION('',(-0.999999992029881,0.000126254655137494,0.));
#1223=DIRECTION('',(-0.999999992029881,0.000126254655137494,0.));
#1224=DIRECTION('',(-0.000126254655137494,-0.999999992029881,0.));
#1225=DIRECTION('',(-0.999999992029881,0.000126254655137494,0.));
#1226=DIRECTION('',(-0.000126254655137494,-0.999999992029881,0.));
#1227=DIRECTION('',(0.,0.,1.));
#1228=DIRECTION('',(1.,0.,0.));
#1229=DIRECTION('',(0.,0.,1.));
#1230=DIRECTION('',(1.,0.,0.));
#1231=DIRECTION('',(0.,0.,1.));
#1232=DIRECTION('',(1.,0.,0.));
#1233=DIRECTION('',(0.,0.,1.));
#1234=DIRECTION('',(1.,0.,0.));
#1235=DIRECTION('',(0.,0.,1.));
#1236=DIRECTION('',(1.,0.,0.));
#1237=DIRECTION('',(0.,0.,-1.));
#1238=DIRECTION('',(-1.,0.,0.));
#1239=DIRECTION('',(0.,0.,1.));
#1240=DIRECTION('',(1.,0.,0.));
#1241=DIRECTION('',(0.,0.,1.));
#1242=DIRECTION('',(1.,0.,0.));
#1243=DIRECTION('',(0.,0.,-1.));
#1244=DIRECTION('',(-1.,0.,0.));
#1245=DIRECTION('',(0.,0.,1.));
#1246=DIRECTION('',(1.,0.,0.));
#1247=DIRECTION('',(0.,0.,1.));
#1248=DIRECTION('',(1.,0.,0.));
#1249=DIRECTION('',(0.,0.,-1.));
#1250=DIRECTION('',(-1.,0.,0.));
#1251=DIRECTION('',(0.,0.,1.));
#1252=DIRECTION('',(1.,0.,0.));
#1253=DIRECTION('',(0.,0.,1.));
#1254=DIRECTION('',(1.,0.,0.));
#1255=DIRECTION('',(0.,0.,-1.));
#1256=DIRECTION('',(-1.,0.,0.));
#1257=DIRECTION('',(0.,0.,1.));
#1258=DIRECTION('',(1.,0.,0.));
#1259=DIRECTION('',(0.,0.,1.));
#1260=DIRECTION('',(1.,0.,0.));
#1261=DIRECTION('',(-0.999999992029881,0.000126254655137494,0.));
#1262=DIRECTION('',(-0.000126254655137494,-0.999999992029881,0.));
#1263=DIRECTION('',(-0.999999992029881,0.000126254655137494,0.));
#1264=DIRECTION('',(-0.999999992029881,0.000126254655137494,0.));
#1265=DIRECTION('',(-0.000126254655137494,-0.999999992029881,0.));
#1266=DIRECTION('',(-0.999999992029881,0.000126254655137494,0.));
#1267=DIRECTION('',(0.000126254655137494,0.999999992029881,1.06628908434376E-8));
#1268=DIRECTION('',(-0.999999992029881,0.000126254655137494,0.));
#1269=DIRECTION('',(-0.999999992029881,0.000126254655137494,0.));
#1270=DIRECTION('',(1.34623960620696E-12,1.06628907584531E-8,-1.));
#1271=DIRECTION('',(-0.999999992029881,0.000126254655137494,0.));
#1272=DIRECTION('',(-0.000126254655137494,-0.999999992029881,0.));
#1273=DIRECTION('',(-0.999999992029881,0.000126254655137494,0.));
#1274=DIRECTION('',(-0.999999992029881,0.000126254655137494,0.));
#1275=DIRECTION('',(-0.000126254655137494,-0.999999992029881,0.));
#1276=DIRECTION('',(0.,0.,-1.));
#1277=DIRECTION('',(-1.,0.,0.));
#1278=DIRECTION('',(-0.999999992029881,0.000126254655137494,0.));
#1279=DIRECTION('',(-0.000126254655137494,-0.999999992029881,0.));
#1280=DIRECTION('',(-0.999999992029881,0.000126254655137494,0.));
#1281=DIRECTION('',(-0.000126254655137494,-0.999999992029881,0.));
#1282=DIRECTION('',(-0.999999992029881,0.000126254655137494,0.));
#1283=DIRECTION('',(-0.999999992029881,0.000126254655137494,0.));
#1284=DIRECTION('',(-0.000126254655137494,-0.999999992029881,0.));
#1285=DIRECTION('',(-0.000126254655137494,-0.999999992029881,-1.06628908434376E-8));
#1286=DIRECTION('',(0.999999992029881,-0.000126254655137494,0.));
#1287=DIRECTION('',(-0.999999992029881,0.000126254655137494,0.));
#1288=DIRECTION('',(-1.34623960620696E-12,-1.06628907584531E-8,1.));
#1289=DIRECTION('',(-0.999999992029881,0.000126254655137494,0.));
#1290=DIRECTION('',(-0.000126254655137494,-0.999999992029881,0.));
#1291=DIRECTION('',(-0.999999992029881,0.000126254655137494,0.));
#1292=DIRECTION('',(-0.999999992029881,0.000126254655137494,0.));
#1293=DIRECTION('',(-0.000126254655137494,-0.999999992029881,0.));
#1294=DIRECTION('',(-0.999999992029881,0.000126254655137494,0.));
#1295=DIRECTION('',(-0.000126254655137494,-0.999999992029881,0.));
#1296=DIRECTION('',(0.000126254655137494,0.999999992029881,3.36708752298195E-17));
#1297=DIRECTION('',(0.,0.,1.));
#1298=DIRECTION('',(1.,0.,0.));
#1299=DIRECTION('',(-1.57702132922805E-16,0.,1.));
#1300=DIRECTION('',(1.,0.,1.57702132922805E-16));
#1301=DIRECTION('',(1.57702132922805E-16,0.,-1.));
#1302=DIRECTION('',(-1.,0.,-1.57702132922805E-16));
#1303=DIRECTION('',(-1.,0.,-1.57702132922805E-16));
#1304=DIRECTION('',(1.57702132922805E-16,0.,-1.));
#1305=DIRECTION('',(-1.,0.,-1.57702132922805E-16));
#1306=DIRECTION('',(1.,0.,1.57702132922805E-16));
#1307=DIRECTION('',(0.,-1.,0.));
#1308=DIRECTION('',(1.,0.,0.));
#1309=DIRECTION('',(1.57702132922805E-16,0.,-1.));
#1310=DIRECTION('',(-1.,0.,-1.57702132922805E-16));
#1311=DIRECTION('',(1.57702132922805E-16,0.,-1.));
#1312=DIRECTION('',(-1.,0.,-1.57702132922805E-16));
#1313=DIRECTION('',(-1.,0.,-1.57702132922805E-16));
#1314=DIRECTION('',(-1.57702132922805E-16,0.,1.));
#1315=DIRECTION('',(1.,0.,1.57702132922805E-16));
#1316=DIRECTION('',(1.,0.,1.57702132922805E-16));
#1317=DIRECTION('',(0.,1.,0.));
#1318=DIRECTION('',(1.,0.,0.));
#1319=DIRECTION('',(1.57702132922805E-16,0.,-1.));
#1320=DIRECTION('',(-1.,0.,-1.57702132922805E-16));
#1321=DIRECTION('',(1.57702132922805E-16,0.,-1.));
#1322=DIRECTION('',(-1.,0.,-1.57702132922805E-16));
#1323=DIRECTION('',(0.,0.,1.));
#1324=DIRECTION('',(1.,0.,0.));
#1325=DIRECTION('',(0.,0.,-1.));
#1326=DIRECTION('',(1.,0.,0.));
#1327=CARTESIAN_POINT('',(0.,0.,0.));
#1328=CARTESIAN_POINT('',(-0.050399999690096,-5.01999651533053E-6,-0.00799));
#1329=CARTESIAN_POINT('',(-0.050399999690096,-5.01999651533053E-6,-0.00128));
#1330=CARTESIAN_POINT('',(-0.050402375173292,-0.0188200345753509,-0.00128));
#1331=CARTESIAN_POINT('',(-0.0504031882532636,-0.0252600344651316,-0.00128));
#1332=CARTESIAN_POINT('',(-0.050402375173292,-0.0188200345753509,-0.00253));
#1333=CARTESIAN_POINT('',(-0.050402217354973,-0.0175700345853136,-0.00252999998667139));
#1334=CARTESIAN_POINT('',(-0.0504022173549657,-0.0175700345270942,-0.00799000018729384));
#1335=CARTESIAN_POINT('',(-0.0504022173549721,-0.0175700345777429,-0.00323999998667138));
#1336=CARTESIAN_POINT('',(-0.050402375173291,-0.0188200345677802,-0.00324));
#1337=CARTESIAN_POINT('',(-0.050402375173291,-0.0188200345677802,-0.00449));
#1338=CARTESIAN_POINT('',(-0.050399999690096,-5.01999651533053E-6,-0.00449));
#1339=CARTESIAN_POINT('',(-0.0504031882532627,-0.0252600344575609,-0.00449));
#1340=CARTESIAN_POINT('',(-0.0504031882532627,-0.0252600344575609,-0.00324));
#1341=CARTESIAN_POINT('',(-0.0504033460715816,-0.0265100344475983,-0.00324000001332861));
#1342=CARTESIAN_POINT('',(-0.0504033460715752,-0.0265100343969495,-0.00799000028262008));
#1343=CARTESIAN_POINT('',(-0.0504033460715825,-0.0265100344551689,-0.00253000001332861));
#1344=CARTESIAN_POINT('',(-0.0504031882532636,-0.0252600344651316,-0.00253));
#1345=CARTESIAN_POINT('',(-0.0504050498738171,-0.04000500000008,-0.00799));
#1346=CARTESIAN_POINT('',(-0.0504050498738171,-0.04000500000008,-0.00549));
#1347=CARTESIAN_POINT('',(-0.0504050498738171,-0.04000500000008,0.00501));
#1348=CARTESIAN_POINT('',(-0.050399999690096,-5.01999651533053E-6,-0.00549));
#1349=CARTESIAN_POINT('',(-0.0503949495063749,0.0399949600070494,-0.00549));
#1350=CARTESIAN_POINT('',(-0.0503949495063749,0.0399949600070494,-0.00799));
#1351=CARTESIAN_POINT('',(-0.0503949495063749,0.0399949600070494,0.00501));
#1352=CARTESIAN_POINT('',(-0.050399999690096,-5.01999651533053E-6,0.00501));
#1353=CARTESIAN_POINT('',(-0.0504010835837943,-0.008590000000002,0.00501));
#1354=CARTESIAN_POINT('',(-0.0504010835837943,-0.008590000000002,-0.00799));
#1355=CARTESIAN_POINT('',(-0.0504010835837943,-0.008590000000002,0.00344));
#1356=CARTESIAN_POINT('',(-0.0504009573729759,-0.00759034721624387,0.00344));
#1357=CARTESIAN_POINT('',(-0.0504009573291382,-0.007590000000002,0.00344));
#1358=CARTESIAN_POINT('',(-0.0504009573291382,-0.007590000000002,0.00264));
#1359=CARTESIAN_POINT('',(-0.0504009573291382,-0.007590000000002,0.00184));
#1360=CARTESIAN_POINT('',(-0.050399999690096,-5.01999651533053E-6,0.00184));
#1361=CARTESIAN_POINT('',(-0.0504010835837943,-0.008590000000002,0.00184));
#1362=CARTESIAN_POINT('',(-0.0504010835837943,-0.008590000000002,-0.00799));
#1363=CARTESIAN_POINT('',(-0.0504010835837943,-0.008590000000002,0.00027));
#1364=CARTESIAN_POINT('',(-0.050399999690096,-5.01999651533053E-6,0.00027));
#1365=CARTESIAN_POINT('',(-0.0504044798340446,-0.035490000000002,0.00027));
#1366=CARTESIAN_POINT('',(-0.0504044798340446,-0.035490000000002,-0.00799));
#1367=CARTESIAN_POINT('',(-0.0504027817089195,-0.035490000000002,0.00184));
#1368=CARTESIAN_POINT('',(-0.050399999690096,-5.01999651533053E-6,0.00184));
#1369=CARTESIAN_POINT('',(-0.0504046060886727,-0.0364899997776357,0.00184));
#1370=CARTESIAN_POINT('',(-0.0504046060886446,-0.0364899995552694,-0.00799));
#1371=CARTESIAN_POINT('',(-0.0504046060886727,-0.0364899997776357,0.00344));
#1372=CARTESIAN_POINT('',(-0.050399999690096,-5.01999651533053E-6,0.00344));
#1373=CARTESIAN_POINT('',(-0.0504027817089195,-0.035490000000002,0.00344));
#1374=CARTESIAN_POINT('',(-0.0504044798340446,-0.035490000000002,-0.00799));
#1375=CARTESIAN_POINT('',(-0.0504044798340446,-0.035490000000002,0.00501));
#1376=CARTESIAN_POINT('',(-0.050399999690096,-5.01999651533053E-6,0.00501));
#1377=CARTESIAN_POINT('',(5.05050026892301E-6,0.04000000000705,-0.00799));
#1378=CARTESIAN_POINT('',(5.05050026892301E-6,0.04000000000705,-0.00549));
#1379=CARTESIAN_POINT('',(0.0504050505069127,0.0400050400070507,-0.00549));
#1380=CARTESIAN_POINT('',(0.0504050505069127,0.0400050400070507,-0.00799));
#1381=CARTESIAN_POINT('',(0.0504050505069127,0.0400050400070507,0.00501));
#1382=CARTESIAN_POINT('',(5.05050026892301E-6,0.04000000000705,0.00501));
#1383=CARTESIAN_POINT('',(0.050400000005713,2.00035255130959E-8,-0.00799));
#1384=CARTESIAN_POINT('',(0.050400000005713,2.00035255130959E-8,-0.00549));
#1385=CARTESIAN_POINT('',(0.0503949495045132,-0.040005,-0.00549));
#1386=CARTESIAN_POINT('',(0.0503949495045132,-0.040005,-0.00799));
#1387=CARTESIAN_POINT('',(0.0503949495045132,-0.040005,0.00501));
#1388=CARTESIAN_POINT('',(0.050400000005713,2.00035255130959E-8,0.00501));
#1389=CARTESIAN_POINT('',(-5.05018465192172E-6,-0.0400050000000398,-0.00799));
#1390=CARTESIAN_POINT('',(-5.05018465192172E-6,-0.0400050000000398,-0.00549));
#1391=CARTESIAN_POINT('',(-5.05018465192172E-6,-0.0400050000000398,0.00501));
#1392=CARTESIAN_POINT('',(-0.04130108362763,-0.035490000000002,0.00027));
#1393=CARTESIAN_POINT('',(-0.04130108362763,-0.035490000000002,0.00501));
#1394=CARTESIAN_POINT('',(-0.0559044798778803,-0.035490000000002,0.00501));
#1395=CARTESIAN_POINT('',(-0.0531510836057122,-0.035490000000002,0.00344));
#1396=CARTESIAN_POINT('',(-0.0559027817527551,-0.035490000000002,0.00344));
#1397=CARTESIAN_POINT('',(-0.0559044798778803,-0.035490000000002,0.00027));
#1398=CARTESIAN_POINT('',(-0.04130108362763,-0.008590000000002,0.00027));
#1399=CARTESIAN_POINT('',(-0.04130108362763,-0.008590000000002,0.00501));
#1400=CARTESIAN_POINT('',(-0.05590108362763,-0.008590000000002,0.00501));
#1401=CARTESIAN_POINT('',(-0.05590108362763,-0.008590000000002,0.00027));
#1402=CARTESIAN_POINT('',(-0.05590108362763,-0.008590000000002,0.00344));
#1403=CARTESIAN_POINT('',(-0.0531510836057122,-0.008590000000002,0.00344));
#1404=CARTESIAN_POINT('',(-0.0558999997686456,-5.29494805315972E-6,-0.00799));
#1405=CARTESIAN_POINT('',(-0.0558999997686456,-5.29494805315972E-6,0.00501));
#1406=CARTESIAN_POINT('',(-0.0558942552190296,0.0454944101039781,0.00501));
#1407=CARTESIAN_POINT('',(-0.0558942552190296,0.0454944101039781,-0.00799));
#1408=CARTESIAN_POINT('',(-0.0558942552190296,0.0454944101039781,-0.00799));
#1409=CARTESIAN_POINT('',(-0.0558999997686456,-5.29494805315972E-6,-0.00799));
#1410=CARTESIAN_POINT('',(-0.0559057443182615,-0.0455050000000844,-0.00799));
#1411=CARTESIAN_POINT('',(-0.0559057443182615,-0.0455050000000844,-0.00799));
#1412=CARTESIAN_POINT('',(-0.0559057443182615,-0.0455050000000844,0.00501));
#1413=CARTESIAN_POINT('',(-0.0558999997686456,-5.29494805315972E-6,0.00501));
#1414=CARTESIAN_POINT('',(-0.0559046060886446,-0.0364896523549678,0.00344));
#1415=CARTESIAN_POINT('',(-0.0559046061325083,-0.0364899997776357,0.00344));
#1416=CARTESIAN_POINT('',(-0.0559046061324802,-0.0364899995552694,-0.00799));
#1417=CARTESIAN_POINT('',(-0.0559046061325083,-0.0364899997776357,0.00184));
#1418=CARTESIAN_POINT('',(-0.0558999997686456,-5.29494805315972E-6,0.00184));
#1419=CARTESIAN_POINT('',(-0.0559027817527551,-0.035490000000002,0.00184));
#1420=CARTESIAN_POINT('',(-0.0559044798778803,-0.035490000000002,0.00027));
#1421=CARTESIAN_POINT('',(-0.0559044798778803,-0.035490000000002,0.00027));
#1422=CARTESIAN_POINT('',(-0.0558999997686456,-5.29494805315972E-6,0.00027));
#1423=CARTESIAN_POINT('',(-0.055903188209428,-0.0252593400645284,0.00027));
#1424=CARTESIAN_POINT('',(-0.055903188209428,-0.0252593400645284,-0.00253));
#1425=CARTESIAN_POINT('',(-0.0559035417224624,-0.028059340042212,-0.00253000002985609));
#1426=CARTESIAN_POINT('',(-0.0559035417224619,-0.0280593400384267,-0.00288500002985609));
#1427=CARTESIAN_POINT('',(-0.0559035417224614,-0.0280593400346413,-0.00324000002985609));
#1428=CARTESIAN_POINT('',(-0.055903188209427,-0.0252593400569577,-0.00324));
#1429=CARTESIAN_POINT('',(-0.055903188209427,-0.0252593400569577,-0.00604));
#1430=CARTESIAN_POINT('',(-0.0559027816694412,-0.0220393401120673,-0.00604));
#1431=CARTESIAN_POINT('',(-0.0559023751294554,-0.018819340167177,-0.00604));
#1432=CARTESIAN_POINT('',(-0.0559023751294554,-0.018819340167177,-0.00324));
#1433=CARTESIAN_POINT('',(-0.055902021616421,-0.0160193401894934,-0.0032399999701439));
#1434=CARTESIAN_POINT('',(-0.0559020216164215,-0.0160193401932786,-0.0028849999701439));
#1435=CARTESIAN_POINT('',(-0.055902021616422,-0.016019340197064,-0.0025299999701439));
#1436=CARTESIAN_POINT('',(-0.0559023751294564,-0.0188193401747477,-0.00253));
#1437=CARTESIAN_POINT('',(-0.0559023751294563,-0.0188193401747477,0.00027));
#1438=CARTESIAN_POINT('',(-0.0558999997686456,-5.29494805315972E-6,0.00027));
#1439=CARTESIAN_POINT('',(-0.05590108362763,-0.008590000000002,0.00027));
#1440=CARTESIAN_POINT('',(-0.05590108362763,-0.008590000000002,0.00027));
#1441=CARTESIAN_POINT('',(-0.05590108362763,-0.008590000000002,0.00184));
#1442=CARTESIAN_POINT('',(-0.0558999997686456,-5.29494805315972E-6,0.00184));
#1443=CARTESIAN_POINT('',(-0.0559009573729738,-0.007590000000002,0.00184));
#1444=CARTESIAN_POINT('',(-0.0559009573729738,-0.007590000000002,-0.00799));
#1445=CARTESIAN_POINT('',(-0.0559009573729738,-0.007590000000002,0.00344));
#1446=CARTESIAN_POINT('',(-0.0558999997686456,-5.29494805315972E-6,0.00344));
#1447=CARTESIAN_POINT('',(-0.0531446023627022,0.0427446850555137,0.00801));
#1448=CARTESIAN_POINT('',(-0.0531446023627022,0.0427446850555138,-0.00359944059763209));
#1449=CARTESIAN_POINT('',(-0.0548446023627022,0.0427446850555138,-0.00359944059763209));
#1450=CARTESIAN_POINT('',(-0.0531446023627022,0.0427446850555137,0.00501));
#1451=CARTESIAN_POINT('',(-0.0514446023627022,0.0427446850555137,0.00501));
#1452=CARTESIAN_POINT('',(0.0531553977419384,0.0427553150555242,0.00801));
#1453=CARTESIAN_POINT('',(0.0531553977419384,0.042755315055579,-0.00359944059763209));
#1454=CARTESIAN_POINT('',(0.0514553977419384,0.042755315055579,-0.00359944059763209));
#1455=CARTESIAN_POINT('',(0.0531553977419384,0.0427553150555242,0.00501));
#1456=CARTESIAN_POINT('',(0.0548553977419384,0.0427553150555242,0.00501));
#1457=CARTESIAN_POINT('',(0.0531446023480417,-0.0427549999999975,0.00801));
#1458=CARTESIAN_POINT('',(0.0531446023480417,-0.0427549999999975,-0.00359944059763209));
#1459=CARTESIAN_POINT('',(0.0514446023480417,-0.0427549999999975,-0.00359944059763209));
#1460=CARTESIAN_POINT('',(0.0531446023480417,-0.0427549999999975,0.00501));
#1461=CARTESIAN_POINT('',(0.0548446023480417,-0.0427549999999975,0.00501));
#1462=CARTESIAN_POINT('',(-0.0531553970960393,-0.0427550000000822,0.00801));
#1463=CARTESIAN_POINT('',(-0.0531553970960393,-0.0427550000000822,-0.00359944059763209));
#1464=CARTESIAN_POINT('',(-0.0548553970960393,-0.0427550000000822,-0.00359944059763209));
#1465=CARTESIAN_POINT('',(-0.0531553970960393,-0.0427550000000822,0.00501));
#1466=CARTESIAN_POINT('',(-0.0514553970960393,-0.0427550000000822,0.00501));
#1467=CARTESIAN_POINT('',(0.0559000000842671,2.95052001227092E-7,-0.00799));
#1468=CARTESIAN_POINT('',(0.0559000000842671,2.95052001227092E-7,0.00501));
#1469=CARTESIAN_POINT('',(0.0558942551915702,-0.0455049999999953,0.00501));
#1470=CARTESIAN_POINT('',(0.055905744976964,0.0455055901039977,0.00501));
#1471=CARTESIAN_POINT('',(0.0558942551915702,-0.0455049999999953,-0.00799));
#1472=CARTESIAN_POINT('',(0.0558942551915702,-0.0455049999999953,-0.00799));
#1473=CARTESIAN_POINT('',(0.0559000000842671,2.95052001227092E-7,-0.00799));
#1474=CARTESIAN_POINT('',(0.055905744976964,0.0455055901039977,-0.00799));
#1475=CARTESIAN_POINT('',(0.055905744976964,0.0455055901039977,-0.00799));
#1476=CARTESIAN_POINT('',(5.74487896720308E-6,0.0455000001039879,-0.00799));
#1477=CARTESIAN_POINT('',(5.74487896720308E-6,0.0455000001039879,0.00501));
#1478=CARTESIAN_POINT('',(5.74487896720308E-6,0.0455000001039879,-0.00799));
#1479=CARTESIAN_POINT('',(-5.74456334565682E-6,-0.0455050000000399,-0.00799));
#1480=CARTESIAN_POINT('',(-5.74456334565682E-6,-0.0455050000000399,0.00501));
#1481=CARTESIAN_POINT('',(-5.74456334565682E-6,-0.0455050000000399,-0.00799));
#1482=CARTESIAN_POINT('',(-0.04130108362763,-0.035490000000002,0.00027));
#1483=CARTESIAN_POINT('',(-0.0531510836057122,-0.035490000000002,0.00184));
#1484=CARTESIAN_POINT('',(-0.0514044798340176,-0.035490000000002,0.00184));
#1485=CARTESIAN_POINT('',(-0.04130108362763,-0.035490000000002,0.00027));
#1486=CARTESIAN_POINT('',(-0.0531510836057122,-0.035490000000002,0.00184));
#1487=CARTESIAN_POINT('',(-0.04130108362763,-0.008590000000002,0.00027));
#1488=CARTESIAN_POINT('',(-0.0531510836057122,-0.008590000000002,0.00184));
#1489=CARTESIAN_POINT('',(-0.0512711012493569,-0.008590000000002,0.00184));
#1490=CARTESIAN_POINT('',(-0.0531510836057122,-0.008590000000002,0.00184));
#1491=CARTESIAN_POINT('',(-0.04130108362763,-0.008590000000002,0.00027));
#1492=CARTESIAN_POINT('',(-0.0500027817164659,-0.0220400850221033,-0.00128));
#1493=CARTESIAN_POINT('',(-0.0524027816973376,-0.022039782010931,-0.00128));
#1494=CARTESIAN_POINT('',(-0.0524031882373234,-0.0252597819558214,-0.00128));
#1495=CARTESIAN_POINT('',(-0.0524023751573518,-0.0188197820660407,-0.00128));
#1496=CARTESIAN_POINT('',(-0.0500023751764801,-0.0188200850772129,-0.00128));
#1497=CARTESIAN_POINT('',(-0.0500031882564517,-0.0252600849669937,-0.00128));
#1498=CARTESIAN_POINT('',(-0.0500023751764801,-0.0188200850772129,-0.00253));
#1499=CARTESIAN_POINT('',(-0.0524023751573518,-0.0188197820660407,-0.00253));
#1500=CARTESIAN_POINT('',(-0.0524022173390328,-0.0175697820760033,-0.00252999998667139));
#1501=CARTESIAN_POINT('',(-0.0500022173581611,-0.0175700850871756,-0.00252999998667139));
#1502=CARTESIAN_POINT('',(-0.0500022173581607,-0.0175700850833903,-0.00288499998667138));
#1503=CARTESIAN_POINT('',(-0.0524022173390324,-0.017569782072218,-0.00288499998667138));
#1504=CARTESIAN_POINT('',(-0.0524022173390319,-0.0175697820684327,-0.00323999998667138));
#1505=CARTESIAN_POINT('',(-0.0500022173581602,-0.017570085079605,-0.00323999998667138));
#1506=CARTESIAN_POINT('',(-0.0500023751764791,-0.0188200850696423,-0.00324));
#1507=CARTESIAN_POINT('',(-0.0524023751573508,-0.01881978205847,-0.00324));
#1508=CARTESIAN_POINT('',(-0.0524023751573508,-0.01881978205847,-0.00449));
#1509=CARTESIAN_POINT('',(-0.0500023751764791,-0.0188200850696423,-0.00449));
#1510=CARTESIAN_POINT('',(-0.0500027817164649,-0.0220400850145327,-0.00449));
#1511=CARTESIAN_POINT('',(-0.0524027816973366,-0.0220397820033604,-0.00449));
#1512=CARTESIAN_POINT('',(-0.0524031882373225,-0.0252597819482507,-0.00449));
#1513=CARTESIAN_POINT('',(-0.0500031882564507,-0.025260084959423,-0.00449));
#1514=CARTESIAN_POINT('',(-0.0500031882564507,-0.025260084959423,-0.00324));
#1515=CARTESIAN_POINT('',(-0.0524031882373225,-0.0252597819482507,-0.00324));
#1516=CARTESIAN_POINT('',(-0.0524033460556414,-0.0265097819382881,-0.00324000001332861));
#1517=CARTESIAN_POINT('',(-0.0500033460747697,-0.0265100849494604,-0.00324000001332861));
#1518=CARTESIAN_POINT('',(-0.0500033460747701,-0.0265100849532457,-0.00288500001332861));
#1519=CARTESIAN_POINT('',(-0.0524033460556419,-0.0265097819420733,-0.00288500001332861));
#1520=CARTESIAN_POINT('',(-0.0524033460556423,-0.0265097819458587,-0.00253000001332861));
#1521=CARTESIAN_POINT('',(-0.0500033460747706,-0.026510084957031,-0.00253000001332861));
#1522=CARTESIAN_POINT('',(-0.0500031882564517,-0.0252600849669937,-0.00253));
#1523=CARTESIAN_POINT('',(-0.0524031882373234,-0.0252597819558214,-0.00253));
#1524=CARTESIAN_POINT('',(3.29351219907625E-10,2.95051956644698E-7,-0.00799));
#1525=CARTESIAN_POINT('',(-0.0531446023627022,0.0427446850555138,-0.00799));
#1526=CARTESIAN_POINT('',(-0.0507946023627022,0.0427446850555138,-0.00799));
#1527=CARTESIAN_POINT('',(0.0531553977419384,0.042755315055579,-0.00799));
#1528=CARTESIAN_POINT('',(0.0555053977419384,0.042755315055579,-0.00799));
#1529=CARTESIAN_POINT('',(0.0531446023480417,-0.0427549999999975,-0.00799));
#1530=CARTESIAN_POINT('',(0.0554946023480417,-0.0427549999999975,-0.00799));
#1531=CARTESIAN_POINT('',(-0.0531553970960393,-0.0427550000000822,-0.00799));
#1532=CARTESIAN_POINT('',(-0.0508053970960393,-0.0427550000000822,-0.00799));
#1533=CARTESIAN_POINT('',(-0.0531553970960393,-0.0427550000000822,-0.00399));
#1534=CARTESIAN_POINT('',(-0.0531553970960393,-0.0427550000000822,-0.00399));
#1535=CARTESIAN_POINT('',(-0.0508053970960393,-0.0427550000000822,-0.00399));
#1536=CARTESIAN_POINT('',(-0.0531553970960393,-0.0427550000000822,-0.00799));
#1537=CARTESIAN_POINT('',(0.0531446023480417,-0.0427549999999975,-0.00399));
#1538=CARTESIAN_POINT('',(0.0531446023480417,-0.0427549999999975,-0.00399));
#1539=CARTESIAN_POINT('',(0.0554946023480417,-0.0427549999999975,-0.00399));
#1540=CARTESIAN_POINT('',(0.0531446023480417,-0.0427549999999975,-0.00799));
#1541=CARTESIAN_POINT('',(0.0531553977419384,0.042755315055579,-0.00399));
#1542=CARTESIAN_POINT('',(0.0531553977419384,0.042755315055579,-0.00399));
#1543=CARTESIAN_POINT('',(0.0555053977419384,0.042755315055579,-0.00399));
#1544=CARTESIAN_POINT('',(0.0531553977419384,0.042755315055579,-0.00799));
#1545=CARTESIAN_POINT('',(-0.0531446023627022,0.0427446850555138,-0.00399));
#1546=CARTESIAN_POINT('',(-0.0531446023627022,0.0427446850555138,-0.00399));
#1547=CARTESIAN_POINT('',(-0.0507946023627022,0.0427446850555138,-0.00399));
#1548=CARTESIAN_POINT('',(-0.0531446023627022,0.0427446850555138,-0.00799));
#1549=CARTESIAN_POINT('',(-0.0524023751573518,-0.0188197820660407,-0.00253));
#1550=CARTESIAN_POINT('',(-0.0524020216443174,-0.016019782088357,-0.0025299999701439));
#1551=CARTESIAN_POINT('',(-0.0524020216443174,-0.016019782088357,-0.0025299999701439));
#1552=CARTESIAN_POINT('',(-0.0524023751573518,-0.0188197820660407,-0.00253));
#1553=CARTESIAN_POINT('',(-0.0524023751573518,-0.0188197820660407,0.00027));
#1554=CARTESIAN_POINT('',(-0.0524023751573518,-0.0188197820660407,0.00027));
#1555=CARTESIAN_POINT('',(-0.0524020216443169,-0.0160197820845716,-0.0028849999701439));
#1556=CARTESIAN_POINT('',(-0.0524020216443164,-0.0160197820807863,-0.0032399999701439));
#1557=CARTESIAN_POINT('',(-0.0524020216443164,-0.0160197820807863,-0.0032399999701439));
#1558=CARTESIAN_POINT('',(-0.0524020216443169,-0.0160197820845716,-0.0028849999701439));
#1559=CARTESIAN_POINT('',(-0.0524023751573508,-0.01881978205847,-0.00324));
#1560=CARTESIAN_POINT('',(-0.0524023751573508,-0.01881978205847,-0.00604));
#1561=CARTESIAN_POINT('',(-0.0524023751573508,-0.01881978205847,-0.00604));
#1562=CARTESIAN_POINT('',(-0.0524023751573508,-0.01881978205847,-0.00324));
#1563=CARTESIAN_POINT('',(-0.0524027816973366,-0.0220397820033604,-0.00604));
#1564=CARTESIAN_POINT('',(-0.0524031882373225,-0.0252597819482507,-0.00604));
#1565=CARTESIAN_POINT('',(-0.0524031882373225,-0.0252597819482507,-0.00604));
#1566=CARTESIAN_POINT('',(-0.0524027816973366,-0.0220397820033604,-0.00604));
#1567=CARTESIAN_POINT('',(-0.0524031882373225,-0.0252597819482507,-0.00324));
#1568=CARTESIAN_POINT('',(-0.0524035417503568,-0.0280597819259343,-0.00324000002985609));
#1569=CARTESIAN_POINT('',(-0.0524035417503568,-0.0280597819259343,-0.00324000002985609));
#1570=CARTESIAN_POINT('',(-0.0524031882373225,-0.0252597819482507,-0.00324));
#1571=CARTESIAN_POINT('',(-0.0524035417503573,-0.0280597819297197,-0.00288500002985609));
#1572=CARTESIAN_POINT('',(-0.0524035417503578,-0.028059781933505,-0.00253000002985609));
#1573=CARTESIAN_POINT('',(-0.0524035417503578,-0.028059781933505,-0.00253000002985609));
#1574=CARTESIAN_POINT('',(-0.0524035417503573,-0.0280597819297197,-0.00288500002985609));
#1575=CARTESIAN_POINT('',(-0.0524031882373234,-0.0252597819558214,-0.00253));
#1576=CARTESIAN_POINT('',(-0.0524031882373234,-0.0252597819558214,0.00027));
#1577=CARTESIAN_POINT('',(-0.0524031882373234,-0.0252597819558214,0.00027));
#1578=CARTESIAN_POINT('',(-0.0524031882373234,-0.0252597819558214,-0.00253));
#1579=CARTESIAN_POINT('',(-0.052399999796541,-5.73683934614299E-6,9.99999999999959E-6));
#1580=CARTESIAN_POINT('',(-0.0524027816973376,-0.022039782010931,0.00027));
#1581=CARTESIAN_POINT('',(-0.04130108362763,-0.022040000000002,0.00027));
#1582=CARTESIAN_POINT('',(-0.0531510836057122,-0.007590000000002,0.00184));
#1583=CARTESIAN_POINT('',(-0.0512711012493569,-0.00819000000000202,0.00184));
#1584=CARTESIAN_POINT('',(-0.0531510836057122,-0.007590000000002,0.00184));
#1585=CARTESIAN_POINT('',(-0.0531510836057122,-0.007590000000002,0.00344));
#1586=CARTESIAN_POINT('',(-0.0531510836057122,-0.007590000000002,0.00344));
#1587=CARTESIAN_POINT('',(-0.0531510836057122,-0.007590000000002,0.00264));
#1588=CARTESIAN_POINT('',(-0.0531510836057122,-0.036490000000002,0.00184));
#1589=CARTESIAN_POINT('',(-0.0514044798340176,-0.0358900000079721,0.00184));
#1590=CARTESIAN_POINT('',(-0.0531510836057122,-0.036490000000002,0.00184));
#1591=CARTESIAN_POINT('',(-0.0531510836057122,-0.036490000000002,0.00344));
#1592=CARTESIAN_POINT('',(-0.0531510836057122,-0.036490000000002,0.00344));
#1593=CARTESIAN_POINT('',(-0.0531510836057122,-0.036490000000002,0.00264));
#1594=CARTESIAN_POINT('',(-0.0514044798340176,-0.0358900000079721,0.00184));
#1595=CARTESIAN_POINT('',(-0.0512711012493569,-0.00819000000000202,0.00184));
#1596=CARTESIAN_POINT('',(-4.83493405225785E-6,-3.80999904000742E-6,0.00501));
#1597=CARTESIAN_POINT('',(3.29351219907625E-10,2.95051956644698E-7,-0.00549));
#1598=MECHANICAL_DESIGN_GEOMETRIC_PRESENTATION_REPRESENTATION('',(#961),
#1599);
#1599=(
GEOMETRIC_REPRESENTATION_CONTEXT(3)
GLOBAL_UNCERTAINTY_ASSIGNED_CONTEXT((#1600))
GLOBAL_UNIT_ASSIGNED_CONTEXT((#1603,#1602,#1601))
REPRESENTATION_CONTEXT('Main_Case','TOP_LEVEL_ASSEMBLY_PART')
);
#1600=UNCERTAINTY_MEASURE_WITH_UNIT(LENGTH_MEASURE(2.33962502502738E-5),
#1603,'DISTANCE_ACCURACY_VALUE','Maximum Tolerance applied to model');
#1601=(
NAMED_UNIT(*)
SI_UNIT($,.STERADIAN.)
SOLID_ANGLE_UNIT()
);
#1602=(
NAMED_UNIT(*)
PLANE_ANGLE_UNIT()
SI_UNIT($,.RADIAN.)
);
#1603=(
LENGTH_UNIT()
NAMED_UNIT(*)
SI_UNIT($,.METRE.)
);
#1604=PRODUCT_DEFINITION_SHAPE('','',#1605);
#1605=PRODUCT_DEFINITION('','',#1607,#1606);
#1606=PRODUCT_DEFINITION_CONTEXT('',#1613,'design');
#1607=PRODUCT_DEFINITION_FORMATION_WITH_SPECIFIED_SOURCE('','',#1609,
 .NOT_KNOWN.);
#1608=PRODUCT_RELATED_PRODUCT_CATEGORY('','',(#1609));
#1609=PRODUCT('Main_Case','Main_Case','Main_Case',(#1611));
#1610=PRODUCT_CATEGORY('','');
#1611=PRODUCT_CONTEXT('',#1613,'mechanical');
#1612=APPLICATION_PROTOCOL_DEFINITION('international standard',
'ap242_managed_model_based_3d_engineering',2020,#1613);
#1613=APPLICATION_CONTEXT('managed model based 3d engineering');
ENDSEC;
END-ISO-10303-21;
