ISO-10303-21;
HEADER;
/* Generated by software containing ST-Developer
 * from STEP Tools, Inc. (www.steptools.com) 
 */
/* OPTION: using custom renumber hook */

FILE_DESCRIPTION(
/* description */ ('STEP AP242 Edition 2',
'CAx-IF Rec.Pracs.---Representation and Presentation of Product Manufa
cturing Information (PMI)---4.0---2014-10-13',
'CAx-IF Rec.Pracs.---3D Tessellated Geometry---0.4---2014-09-14','2;1',
'CAx-IF Rec.Pracs.---User Defined Attributes---1.5---2016-08-15'),
/* implementation_level */ '2;1');

FILE_NAME(
/* name */ 'Part Studio 1 - Main_Case',
/* time_stamp */ '2026-07-28T22:59:30Z',
/* author */ (''),
/* organization */ (''),
/* preprocessor_version */ 'ST-DEVELOPER v20',
/* originating_system */ 'ONSHAPE BY PTC INC, 1.218',
/* authorisation */ '  ');

FILE_SCHEMA (('AP242_MANAGED_MODEL_BASED_3D_ENGINEERING_MIM_LF { 1 0 10303 442 3 1 4 }'));
ENDSEC;

DATA;
#10=SHAPE_REPRESENTATION_RELATIONSHIP('','',#1317,#11);
#11=ADVANCED_BREP_SHAPE_REPRESENTATION('',(#1315),#2165);
#12=SPHERICAL_SURFACE('',#1401,0.0004);
#13=SPHERICAL_SURFACE('',#1402,0.0004);
#14=CONICAL_SURFACE('',#1368,0.00235,1.02974425867665);
#15=CONICAL_SURFACE('',#1371,0.00235,1.02974425867665);
#16=CONICAL_SURFACE('',#1374,0.00235,1.02974425867665);
#17=CONICAL_SURFACE('',#1377,0.00235,1.02974425867665);
#18=CYLINDRICAL_SURFACE('',#1334,0.0017);
#19=CYLINDRICAL_SURFACE('',#1337,0.0017);
#20=CYLINDRICAL_SURFACE('',#1340,0.0017);
#21=CYLINDRICAL_SURFACE('',#1343,0.0017);
#22=CYLINDRICAL_SURFACE('',#1352,0.00125);
#23=CYLINDRICAL_SURFACE('',#1355,0.00125);
#24=CYLINDRICAL_SURFACE('',#1358,0.00125);
#25=CYLINDRICAL_SURFACE('',#1361,0.00125);
#26=CYLINDRICAL_SURFACE('',#1370,0.00235);
#27=CYLINDRICAL_SURFACE('',#1373,0.00235);
#28=CYLINDRICAL_SURFACE('',#1376,0.00235);
#29=CYLINDRICAL_SURFACE('',#1379,0.00235);
#30=CYLINDRICAL_SURFACE('',#1380,0.0028);
#31=CYLINDRICAL_SURFACE('',#1383,0.0028);
#32=CYLINDRICAL_SURFACE('',#1386,0.0028);
#33=CYLINDRICAL_SURFACE('',#1389,0.0028);
#34=CYLINDRICAL_SURFACE('',#1422,0.002);
#35=CYLINDRICAL_SURFACE('',#1425,0.002);
#36=CYLINDRICAL_SURFACE('',#1428,0.002);
#37=CYLINDRICAL_SURFACE('',#1431,0.002);
#38=CIRCLE('',#1320,0.00125);
#39=CIRCLE('',#1321,0.00125);
#40=CIRCLE('',#1322,0.00125);
#41=CIRCLE('',#1323,0.00125);
#42=CIRCLE('',#1330,0.0028);
#43=CIRCLE('',#1331,0.0028);
#44=CIRCLE('',#1332,0.0028);
#45=CIRCLE('',#1333,0.0028);
#46=CIRCLE('',#1335,0.0017);
#47=CIRCLE('',#1336,0.0017);
#48=CIRCLE('',#1338,0.0017);
#49=CIRCLE('',#1339,0.0017);
#50=CIRCLE('',#1341,0.0017);
#51=CIRCLE('',#1342,0.0017);
#52=CIRCLE('',#1344,0.0017);
#53=CIRCLE('',#1345,0.0017);
#54=CIRCLE('',#1353,0.00125);
#55=CIRCLE('',#1356,0.00125);
#56=CIRCLE('',#1359,0.00125);
#57=CIRCLE('',#1362,0.00125);
#58=CIRCLE('',#1364,0.00235);
#59=CIRCLE('',#1365,0.00235);
#60=CIRCLE('',#1366,0.00235);
#61=CIRCLE('',#1367,0.00235);
#62=CIRCLE('',#1369,0.00235);
#63=CIRCLE('',#1372,0.00235);
#64=CIRCLE('',#1375,0.00235);
#65=CIRCLE('',#1378,0.00235);
#66=CIRCLE('',#1381,0.0028);
#67=CIRCLE('',#1384,0.0028);
#68=CIRCLE('',#1387,0.0028);
#69=CIRCLE('',#1390,0.0028);
#70=CIRCLE('',#1394,0.0004);
#71=CIRCLE('',#1398,0.0004);
#72=CIRCLE('',#1405,0.002);
#73=CIRCLE('',#1406,0.002);
#74=CIRCLE('',#1407,0.002);
#75=CIRCLE('',#1408,0.002);
#76=CIRCLE('',#1423,0.002);
#77=CIRCLE('',#1426,0.002);
#78=CIRCLE('',#1429,0.002);
#79=CIRCLE('',#1432,0.002);
#80=ORIENTED_EDGE('',*,*,#424,.F.);
#81=ORIENTED_EDGE('',*,*,#425,.F.);
#82=ORIENTED_EDGE('',*,*,#426,.F.);
#83=ORIENTED_EDGE('',*,*,#427,.F.);
#84=ORIENTED_EDGE('',*,*,#428,.F.);
#85=ORIENTED_EDGE('',*,*,#429,.F.);
#86=ORIENTED_EDGE('',*,*,#430,.F.);
#87=ORIENTED_EDGE('',*,*,#431,.F.);
#88=ORIENTED_EDGE('',*,*,#432,.F.);
#89=ORIENTED_EDGE('',*,*,#433,.T.);
#90=ORIENTED_EDGE('',*,*,#434,.T.);
#91=ORIENTED_EDGE('',*,*,#435,.T.);
#92=ORIENTED_EDGE('',*,*,#436,.T.);
#93=ORIENTED_EDGE('',*,*,#437,.F.);
#94=ORIENTED_EDGE('',*,*,#438,.F.);
#95=ORIENTED_EDGE('',*,*,#439,.T.);
#96=ORIENTED_EDGE('',*,*,#440,.T.);
#97=ORIENTED_EDGE('',*,*,#441,.T.);
#98=ORIENTED_EDGE('',*,*,#442,.F.);
#99=ORIENTED_EDGE('',*,*,#443,.F.);
#100=ORIENTED_EDGE('',*,*,#444,.T.);
#101=ORIENTED_EDGE('',*,*,#445,.T.);
#102=ORIENTED_EDGE('',*,*,#446,.F.);
#103=ORIENTED_EDGE('',*,*,#447,.T.);
#104=ORIENTED_EDGE('',*,*,#434,.F.);
#105=ORIENTED_EDGE('',*,*,#448,.T.);
#106=ORIENTED_EDGE('',*,*,#449,.T.);
#107=ORIENTED_EDGE('',*,*,#450,.T.);
#108=ORIENTED_EDGE('',*,*,#449,.F.);
#109=ORIENTED_EDGE('',*,*,#451,.T.);
#110=ORIENTED_EDGE('',*,*,#452,.T.);
#111=ORIENTED_EDGE('',*,*,#453,.T.);
#112=ORIENTED_EDGE('',*,*,#452,.F.);
#113=ORIENTED_EDGE('',*,*,#454,.T.);
#114=ORIENTED_EDGE('',*,*,#432,.T.);
#115=ORIENTED_EDGE('',*,*,#455,.T.);
#116=ORIENTED_EDGE('',*,*,#456,.F.);
#117=ORIENTED_EDGE('',*,*,#446,.T.);
#118=ORIENTED_EDGE('',*,*,#457,.F.);
#119=ORIENTED_EDGE('',*,*,#458,.T.);
#120=ORIENTED_EDGE('',*,*,#436,.F.);
#121=ORIENTED_EDGE('',*,*,#459,.T.);
#122=ORIENTED_EDGE('',*,*,#460,.F.);
#123=ORIENTED_EDGE('',*,*,#461,.T.);
#124=ORIENTED_EDGE('',*,*,#462,.F.);
#125=ORIENTED_EDGE('',*,*,#463,.F.);
#126=ORIENTED_EDGE('',*,*,#464,.F.);
#127=ORIENTED_EDGE('',*,*,#465,.T.);
#128=ORIENTED_EDGE('',*,*,#466,.F.);
#129=ORIENTED_EDGE('',*,*,#458,.F.);
#130=ORIENTED_EDGE('',*,*,#467,.F.);
#131=ORIENTED_EDGE('',*,*,#468,.T.);
#132=ORIENTED_EDGE('',*,*,#469,.T.);
#133=ORIENTED_EDGE('',*,*,#470,.F.);
#134=ORIENTED_EDGE('',*,*,#471,.F.);
#135=ORIENTED_EDGE('',*,*,#472,.F.);
#136=ORIENTED_EDGE('',*,*,#473,.F.);
#137=ORIENTED_EDGE('',*,*,#474,.F.);
#138=ORIENTED_EDGE('',*,*,#475,.F.);
#139=ORIENTED_EDGE('',*,*,#476,.F.);
#140=ORIENTED_EDGE('',*,*,#477,.F.);
#141=ORIENTED_EDGE('',*,*,#478,.F.);
#142=ORIENTED_EDGE('',*,*,#479,.F.);
#143=ORIENTED_EDGE('',*,*,#480,.T.);
#144=ORIENTED_EDGE('',*,*,#481,.F.);
#145=ORIENTED_EDGE('',*,*,#482,.F.);
#146=ORIENTED_EDGE('',*,*,#483,.T.);
#147=ORIENTED_EDGE('',*,*,#460,.T.);
#148=ORIENTED_EDGE('',*,*,#484,.T.);
#149=ORIENTED_EDGE('',*,*,#485,.T.);
#150=ORIENTED_EDGE('',*,*,#486,.T.);
#151=ORIENTED_EDGE('',*,*,#487,.T.);
#152=ORIENTED_EDGE('',*,*,#488,.T.);
#153=ORIENTED_EDGE('',*,*,#489,.T.);
#154=ORIENTED_EDGE('',*,*,#490,.T.);
#155=ORIENTED_EDGE('',*,*,#491,.T.);
#156=ORIENTED_EDGE('',*,*,#492,.F.);
#157=ORIENTED_EDGE('',*,*,#493,.F.);
#158=ORIENTED_EDGE('',*,*,#494,.F.);
#159=ORIENTED_EDGE('',*,*,#495,.T.);
#160=ORIENTED_EDGE('',*,*,#496,.F.);
#161=ORIENTED_EDGE('',*,*,#495,.F.);
#162=ORIENTED_EDGE('',*,*,#497,.F.);
#163=ORIENTED_EDGE('',*,*,#463,.T.);
#164=ORIENTED_EDGE('',*,*,#498,.F.);
#165=ORIENTED_EDGE('',*,*,#465,.F.);
#166=ORIENTED_EDGE('',*,*,#499,.F.);
#167=ORIENTED_EDGE('',*,*,#493,.T.);
#168=ORIENTED_EDGE('',*,*,#500,.F.);
#169=ORIENTED_EDGE('',*,*,#442,.T.);
#170=ORIENTED_EDGE('',*,*,#501,.F.);
#171=ORIENTED_EDGE('',*,*,#470,.T.);
#172=ORIENTED_EDGE('',*,*,#502,.F.);
#173=ORIENTED_EDGE('',*,*,#440,.F.);
#174=ORIENTED_EDGE('',*,*,#503,.T.);
#175=ORIENTED_EDGE('',*,*,#504,.T.);
#176=ORIENTED_EDGE('',*,*,#480,.F.);
#177=ORIENTED_EDGE('',*,*,#505,.T.);
#178=ORIENTED_EDGE('',*,*,#506,.T.);
#179=ORIENTED_EDGE('',*,*,#507,.F.);
#180=ORIENTED_EDGE('',*,*,#424,.T.);
#181=ORIENTED_EDGE('',*,*,#508,.T.);
#182=ORIENTED_EDGE('',*,*,#509,.T.);
#183=ORIENTED_EDGE('',*,*,#510,.F.);
#184=ORIENTED_EDGE('',*,*,#425,.T.);
#185=ORIENTED_EDGE('',*,*,#507,.T.);
#186=ORIENTED_EDGE('',*,*,#511,.T.);
#187=ORIENTED_EDGE('',*,*,#512,.F.);
#188=ORIENTED_EDGE('',*,*,#426,.T.);
#189=ORIENTED_EDGE('',*,*,#510,.T.);
#190=ORIENTED_EDGE('',*,*,#513,.T.);
#191=ORIENTED_EDGE('',*,*,#514,.F.);
#192=ORIENTED_EDGE('',*,*,#427,.T.);
#193=ORIENTED_EDGE('',*,*,#512,.T.);
#194=ORIENTED_EDGE('',*,*,#515,.T.);
#195=ORIENTED_EDGE('',*,*,#516,.F.);
#196=ORIENTED_EDGE('',*,*,#428,.T.);
#197=ORIENTED_EDGE('',*,*,#514,.T.);
#198=ORIENTED_EDGE('',*,*,#517,.T.);
#199=ORIENTED_EDGE('',*,*,#518,.F.);
#200=ORIENTED_EDGE('',*,*,#429,.T.);
#201=ORIENTED_EDGE('',*,*,#516,.T.);
#202=ORIENTED_EDGE('',*,*,#519,.T.);
#203=ORIENTED_EDGE('',*,*,#520,.F.);
#204=ORIENTED_EDGE('',*,*,#430,.T.);
#205=ORIENTED_EDGE('',*,*,#518,.T.);
#206=ORIENTED_EDGE('',*,*,#521,.T.);
#207=ORIENTED_EDGE('',*,*,#508,.F.);
#208=ORIENTED_EDGE('',*,*,#431,.T.);
#209=ORIENTED_EDGE('',*,*,#520,.T.);
#210=ORIENTED_EDGE('',*,*,#522,.T.);
#211=ORIENTED_EDGE('',*,*,#523,.T.);
#212=ORIENTED_EDGE('',*,*,#524,.T.);
#213=ORIENTED_EDGE('',*,*,#525,.T.);
#214=ORIENTED_EDGE('',*,*,#494,.T.);
#215=ORIENTED_EDGE('',*,*,#499,.T.);
#216=ORIENTED_EDGE('',*,*,#464,.T.);
#217=ORIENTED_EDGE('',*,*,#497,.T.);
#218=ORIENTED_EDGE('',*,*,#490,.F.);
#219=ORIENTED_EDGE('',*,*,#526,.F.);
#220=ORIENTED_EDGE('',*,*,#526,.T.);
#221=ORIENTED_EDGE('',*,*,#525,.F.);
#222=ORIENTED_EDGE('',*,*,#488,.F.);
#223=ORIENTED_EDGE('',*,*,#527,.F.);
#224=ORIENTED_EDGE('',*,*,#527,.T.);
#225=ORIENTED_EDGE('',*,*,#524,.F.);
#226=ORIENTED_EDGE('',*,*,#486,.F.);
#227=ORIENTED_EDGE('',*,*,#528,.F.);
#228=ORIENTED_EDGE('',*,*,#528,.T.);
#229=ORIENTED_EDGE('',*,*,#523,.F.);
#230=ORIENTED_EDGE('',*,*,#484,.F.);
#231=ORIENTED_EDGE('',*,*,#529,.F.);
#232=ORIENTED_EDGE('',*,*,#529,.T.);
#233=ORIENTED_EDGE('',*,*,#522,.F.);
#234=ORIENTED_EDGE('',*,*,#478,.T.);
#235=ORIENTED_EDGE('',*,*,#530,.F.);
#236=ORIENTED_EDGE('',*,*,#531,.F.);
#237=ORIENTED_EDGE('',*,*,#532,.T.);
#238=ORIENTED_EDGE('',*,*,#477,.T.);
#239=ORIENTED_EDGE('',*,*,#533,.F.);
#240=ORIENTED_EDGE('',*,*,#534,.F.);
#241=ORIENTED_EDGE('',*,*,#530,.T.);
#242=ORIENTED_EDGE('',*,*,#476,.T.);
#243=ORIENTED_EDGE('',*,*,#535,.F.);
#244=ORIENTED_EDGE('',*,*,#536,.F.);
#245=ORIENTED_EDGE('',*,*,#533,.T.);
#246=ORIENTED_EDGE('',*,*,#475,.T.);
#247=ORIENTED_EDGE('',*,*,#537,.F.);
#248=ORIENTED_EDGE('',*,*,#538,.F.);
#249=ORIENTED_EDGE('',*,*,#535,.T.);
#250=ORIENTED_EDGE('',*,*,#474,.T.);
#251=ORIENTED_EDGE('',*,*,#539,.F.);
#252=ORIENTED_EDGE('',*,*,#540,.F.);
#253=ORIENTED_EDGE('',*,*,#537,.T.);
#254=ORIENTED_EDGE('',*,*,#473,.T.);
#255=ORIENTED_EDGE('',*,*,#541,.F.);
#256=ORIENTED_EDGE('',*,*,#542,.F.);
#257=ORIENTED_EDGE('',*,*,#539,.T.);
#258=ORIENTED_EDGE('',*,*,#472,.T.);
#259=ORIENTED_EDGE('',*,*,#543,.F.);
#260=ORIENTED_EDGE('',*,*,#544,.F.);
#261=ORIENTED_EDGE('',*,*,#541,.T.);
#262=ORIENTED_EDGE('',*,*,#509,.F.);
#263=ORIENTED_EDGE('',*,*,#506,.F.);
#264=ORIENTED_EDGE('',*,*,#521,.F.);
#265=ORIENTED_EDGE('',*,*,#519,.F.);
#266=ORIENTED_EDGE('',*,*,#517,.F.);
#267=ORIENTED_EDGE('',*,*,#515,.F.);
#268=ORIENTED_EDGE('',*,*,#513,.F.);
#269=ORIENTED_EDGE('',*,*,#511,.F.);
#270=ORIENTED_EDGE('',*,*,#545,.T.);
#271=ORIENTED_EDGE('',*,*,#531,.T.);
#272=ORIENTED_EDGE('',*,*,#534,.T.);
#273=ORIENTED_EDGE('',*,*,#536,.T.);
#274=ORIENTED_EDGE('',*,*,#538,.T.);
#275=ORIENTED_EDGE('',*,*,#540,.T.);
#276=ORIENTED_EDGE('',*,*,#542,.T.);
#277=ORIENTED_EDGE('',*,*,#544,.T.);
#278=ORIENTED_EDGE('',*,*,#545,.F.);
#279=ORIENTED_EDGE('',*,*,#543,.T.);
#280=ORIENTED_EDGE('',*,*,#471,.T.);
#281=ORIENTED_EDGE('',*,*,#501,.T.);
#282=ORIENTED_EDGE('',*,*,#441,.F.);
#283=ORIENTED_EDGE('',*,*,#505,.F.);
#284=ORIENTED_EDGE('',*,*,#479,.T.);
#285=ORIENTED_EDGE('',*,*,#532,.F.);
#286=ORIENTED_EDGE('',*,*,#504,.F.);
#287=ORIENTED_EDGE('',*,*,#546,.T.);
#288=ORIENTED_EDGE('',*,*,#503,.F.);
#289=ORIENTED_EDGE('',*,*,#439,.F.);
#290=ORIENTED_EDGE('',*,*,#547,.T.);
#291=ORIENTED_EDGE('',*,*,#481,.T.);
#292=ORIENTED_EDGE('',*,*,#461,.F.);
#293=ORIENTED_EDGE('',*,*,#483,.F.);
#294=ORIENTED_EDGE('',*,*,#548,.T.);
#295=ORIENTED_EDGE('',*,*,#437,.T.);
#296=ORIENTED_EDGE('',*,*,#547,.F.);
#297=ORIENTED_EDGE('',*,*,#438,.T.);
#298=ORIENTED_EDGE('',*,*,#548,.F.);
#299=ORIENTED_EDGE('',*,*,#482,.T.);
#300=ORIENTED_EDGE('',*,*,#500,.T.);
#301=ORIENTED_EDGE('',*,*,#549,.T.);
#302=ORIENTED_EDGE('',*,*,#502,.T.);
#303=ORIENTED_EDGE('',*,*,#469,.F.);
#304=ORIENTED_EDGE('',*,*,#550,.F.);
#305=ORIENTED_EDGE('',*,*,#443,.T.);
#306=ORIENTED_EDGE('',*,*,#457,.T.);
#307=ORIENTED_EDGE('',*,*,#445,.F.);
#308=ORIENTED_EDGE('',*,*,#551,.F.);
#309=ORIENTED_EDGE('',*,*,#467,.T.);
#310=ORIENTED_EDGE('',*,*,#550,.T.);
#311=ORIENTED_EDGE('',*,*,#468,.F.);
#312=ORIENTED_EDGE('',*,*,#551,.T.);
#313=ORIENTED_EDGE('',*,*,#444,.F.);
#314=ORIENTED_EDGE('',*,*,#549,.F.);
#315=ORIENTED_EDGE('',*,*,#546,.F.);
#316=ORIENTED_EDGE('',*,*,#485,.F.);
#317=ORIENTED_EDGE('',*,*,#487,.F.);
#318=ORIENTED_EDGE('',*,*,#489,.F.);
#319=ORIENTED_EDGE('',*,*,#491,.F.);
#320=ORIENTED_EDGE('',*,*,#435,.F.);
#321=ORIENTED_EDGE('',*,*,#450,.F.);
#322=ORIENTED_EDGE('',*,*,#453,.F.);
#323=ORIENTED_EDGE('',*,*,#455,.F.);
#324=ORIENTED_EDGE('',*,*,#447,.F.);
#325=ORIENTED_EDGE('',*,*,#456,.T.);
#326=ORIENTED_EDGE('',*,*,#466,.T.);
#327=ORIENTED_EDGE('',*,*,#498,.T.);
#328=ORIENTED_EDGE('',*,*,#492,.T.);
#329=ORIENTED_EDGE('',*,*,#496,.T.);
#330=ORIENTED_EDGE('',*,*,#462,.T.);
#331=ORIENTED_EDGE('',*,*,#459,.F.);
#332=ORIENTED_EDGE('',*,*,#552,.F.);
#333=ORIENTED_EDGE('',*,*,#553,.F.);
#334=ORIENTED_EDGE('',*,*,#554,.F.);
#335=ORIENTED_EDGE('',*,*,#555,.F.);
#336=ORIENTED_EDGE('',*,*,#556,.F.);
#337=ORIENTED_EDGE('',*,*,#557,.T.);
#338=ORIENTED_EDGE('',*,*,#558,.T.);
#339=ORIENTED_EDGE('',*,*,#559,.T.);
#340=ORIENTED_EDGE('',*,*,#560,.T.);
#341=ORIENTED_EDGE('',*,*,#561,.T.);
#342=ORIENTED_EDGE('',*,*,#562,.F.);
#343=ORIENTED_EDGE('',*,*,#563,.T.);
#344=ORIENTED_EDGE('',*,*,#564,.T.);
#345=ORIENTED_EDGE('',*,*,#565,.F.);
#346=ORIENTED_EDGE('',*,*,#566,.F.);
#347=ORIENTED_EDGE('',*,*,#567,.F.);
#348=ORIENTED_EDGE('',*,*,#433,.F.);
#349=ORIENTED_EDGE('',*,*,#454,.F.);
#350=ORIENTED_EDGE('',*,*,#451,.F.);
#351=ORIENTED_EDGE('',*,*,#448,.F.);
#352=ORIENTED_EDGE('',*,*,#557,.F.);
#353=ORIENTED_EDGE('',*,*,#568,.F.);
#354=ORIENTED_EDGE('',*,*,#569,.T.);
#355=ORIENTED_EDGE('',*,*,#570,.T.);
#356=ORIENTED_EDGE('',*,*,#556,.T.);
#357=ORIENTED_EDGE('',*,*,#571,.F.);
#358=ORIENTED_EDGE('',*,*,#572,.F.);
#359=ORIENTED_EDGE('',*,*,#568,.T.);
#360=ORIENTED_EDGE('',*,*,#567,.T.);
#361=ORIENTED_EDGE('',*,*,#573,.F.);
#362=ORIENTED_EDGE('',*,*,#574,.F.);
#363=ORIENTED_EDGE('',*,*,#571,.T.);
#364=ORIENTED_EDGE('',*,*,#566,.T.);
#365=ORIENTED_EDGE('',*,*,#575,.F.);
#366=ORIENTED_EDGE('',*,*,#576,.F.);
#367=ORIENTED_EDGE('',*,*,#573,.T.);
#368=ORIENTED_EDGE('',*,*,#565,.T.);
#369=ORIENTED_EDGE('',*,*,#577,.F.);
#370=ORIENTED_EDGE('',*,*,#578,.F.);
#371=ORIENTED_EDGE('',*,*,#575,.T.);
#372=ORIENTED_EDGE('',*,*,#564,.F.);
#373=ORIENTED_EDGE('',*,*,#579,.F.);
#374=ORIENTED_EDGE('',*,*,#580,.T.);
#375=ORIENTED_EDGE('',*,*,#577,.T.);
#376=ORIENTED_EDGE('',*,*,#563,.F.);
#377=ORIENTED_EDGE('',*,*,#581,.F.);
#378=ORIENTED_EDGE('',*,*,#582,.T.);
#379=ORIENTED_EDGE('',*,*,#579,.T.);
#380=ORIENTED_EDGE('',*,*,#562,.T.);
#381=ORIENTED_EDGE('',*,*,#583,.F.);
#382=ORIENTED_EDGE('',*,*,#584,.F.);
#383=ORIENTED_EDGE('',*,*,#581,.T.);
#384=ORIENTED_EDGE('',*,*,#561,.F.);
#385=ORIENTED_EDGE('',*,*,#585,.F.);
#386=ORIENTED_EDGE('',*,*,#586,.T.);
#387=ORIENTED_EDGE('',*,*,#583,.T.);
#388=ORIENTED_EDGE('',*,*,#560,.F.);
#389=ORIENTED_EDGE('',*,*,#587,.F.);
#390=ORIENTED_EDGE('',*,*,#588,.T.);
#391=ORIENTED_EDGE('',*,*,#585,.T.);
#392=ORIENTED_EDGE('',*,*,#559,.F.);
#393=ORIENTED_EDGE('',*,*,#589,.F.);
#394=ORIENTED_EDGE('',*,*,#590,.T.);
#395=ORIENTED_EDGE('',*,*,#587,.T.);
#396=ORIENTED_EDGE('',*,*,#558,.F.);
#397=ORIENTED_EDGE('',*,*,#570,.F.);
#398=ORIENTED_EDGE('',*,*,#591,.T.);
#399=ORIENTED_EDGE('',*,*,#589,.T.);
#400=ORIENTED_EDGE('',*,*,#569,.F.);
#401=ORIENTED_EDGE('',*,*,#572,.T.);
#402=ORIENTED_EDGE('',*,*,#574,.T.);
#403=ORIENTED_EDGE('',*,*,#576,.T.);
#404=ORIENTED_EDGE('',*,*,#578,.T.);
#405=ORIENTED_EDGE('',*,*,#580,.F.);
#406=ORIENTED_EDGE('',*,*,#582,.F.);
#407=ORIENTED_EDGE('',*,*,#584,.T.);
#408=ORIENTED_EDGE('',*,*,#586,.F.);
#409=ORIENTED_EDGE('',*,*,#588,.F.);
#410=ORIENTED_EDGE('',*,*,#590,.F.);
#411=ORIENTED_EDGE('',*,*,#591,.F.);
#412=ORIENTED_EDGE('',*,*,#592,.F.);
#413=ORIENTED_EDGE('',*,*,#555,.T.);
#414=ORIENTED_EDGE('',*,*,#592,.T.);
#415=ORIENTED_EDGE('',*,*,#593,.F.);
#416=ORIENTED_EDGE('',*,*,#554,.T.);
#417=ORIENTED_EDGE('',*,*,#593,.T.);
#418=ORIENTED_EDGE('',*,*,#594,.F.);
#419=ORIENTED_EDGE('',*,*,#553,.T.);
#420=ORIENTED_EDGE('',*,*,#594,.T.);
#421=ORIENTED_EDGE('',*,*,#595,.F.);
#422=ORIENTED_EDGE('',*,*,#552,.T.);
#423=ORIENTED_EDGE('',*,*,#595,.T.);
#424=EDGE_CURVE('',#596,#597,#718,.T.);
#425=EDGE_CURVE('',#598,#596,#38,.T.);
#426=EDGE_CURVE('',#599,#598,#719,.T.);
#427=EDGE_CURVE('',#600,#599,#39,.T.);
#428=EDGE_CURVE('',#601,#600,#720,.T.);
#429=EDGE_CURVE('',#602,#601,#40,.T.);
#430=EDGE_CURVE('',#603,#602,#721,.T.);
#431=EDGE_CURVE('',#597,#603,#41,.T.);
#432=EDGE_CURVE('',#604,#605,#722,.T.);
#433=EDGE_CURVE('',#604,#606,#723,.T.);
#434=EDGE_CURVE('',#606,#607,#724,.T.);
#435=EDGE_CURVE('',#607,#608,#725,.T.);
#436=EDGE_CURVE('',#608,#609,#726,.T.);
#437=EDGE_CURVE('',#610,#609,#727,.T.);
#438=EDGE_CURVE('',#611,#610,#728,.T.);
#439=EDGE_CURVE('',#611,#612,#729,.F.);
#440=EDGE_CURVE('',#612,#613,#730,.T.);
#441=EDGE_CURVE('',#613,#614,#731,.T.);
#442=EDGE_CURVE('',#615,#614,#732,.T.);
#443=EDGE_CURVE('',#616,#615,#733,.T.);
#444=EDGE_CURVE('',#616,#617,#734,.T.);
#445=EDGE_CURVE('',#617,#618,#735,.T.);
#446=EDGE_CURVE('',#619,#618,#736,.T.);
#447=EDGE_CURVE('',#619,#605,#737,.T.);
#448=EDGE_CURVE('',#606,#620,#738,.T.);
#449=EDGE_CURVE('',#620,#621,#739,.T.);
#450=EDGE_CURVE('',#621,#607,#740,.T.);
#451=EDGE_CURVE('',#620,#622,#741,.T.);
#452=EDGE_CURVE('',#622,#623,#742,.T.);
#453=EDGE_CURVE('',#623,#621,#743,.T.);
#454=EDGE_CURVE('',#622,#604,#744,.T.);
#455=EDGE_CURVE('',#605,#623,#745,.T.);
#456=EDGE_CURVE('',#619,#624,#746,.T.);
#457=EDGE_CURVE('',#625,#618,#747,.T.);
#458=EDGE_CURVE('',#625,#624,#748,.T.);
#459=EDGE_CURVE('',#608,#626,#749,.T.);
#460=EDGE_CURVE('',#627,#626,#750,.T.);
#461=EDGE_CURVE('',#627,#609,#751,.T.);
#462=EDGE_CURVE('',#628,#626,#752,.T.);
#463=EDGE_CURVE('',#629,#628,#753,.T.);
#464=EDGE_CURVE('',#630,#629,#754,.T.);
#465=EDGE_CURVE('',#630,#631,#755,.T.);
#466=EDGE_CURVE('',#624,#631,#756,.T.);
#467=EDGE_CURVE('',#632,#625,#757,.T.);
#468=EDGE_CURVE('',#632,#633,#758,.F.);
#469=EDGE_CURVE('',#633,#634,#759,.T.);
#470=EDGE_CURVE('',#635,#634,#760,.T.);
#471=EDGE_CURVE('',#636,#635,#761,.T.);
#472=EDGE_CURVE('',#637,#636,#42,.T.);
#473=EDGE_CURVE('',#638,#637,#762,.T.);
#474=EDGE_CURVE('',#639,#638,#43,.T.);
#475=EDGE_CURVE('',#640,#639,#763,.T.);
#476=EDGE_CURVE('',#641,#640,#44,.T.);
#477=EDGE_CURVE('',#642,#641,#764,.T.);
#478=EDGE_CURVE('',#643,#642,#45,.T.);
#479=EDGE_CURVE('',#644,#643,#765,.T.);
#480=EDGE_CURVE('',#644,#645,#766,.T.);
#481=EDGE_CURVE('',#646,#645,#767,.T.);
#482=EDGE_CURVE('',#647,#646,#768,.T.);
#483=EDGE_CURVE('',#647,#627,#769,.F.);
#484=EDGE_CURVE('',#648,#648,#46,.T.);
#485=EDGE_CURVE('',#649,#649,#47,.T.);
#486=EDGE_CURVE('',#650,#650,#48,.T.);
#487=EDGE_CURVE('',#651,#651,#49,.T.);
#488=EDGE_CURVE('',#652,#652,#50,.T.);
#489=EDGE_CURVE('',#653,#653,#51,.T.);
#490=EDGE_CURVE('',#654,#654,#52,.T.);
#491=EDGE_CURVE('',#655,#655,#53,.T.);
#492=EDGE_CURVE('',#656,#657,#770,.T.);
#493=EDGE_CURVE('',#658,#656,#771,.T.);
#494=EDGE_CURVE('',#659,#658,#772,.T.);
#495=EDGE_CURVE('',#659,#657,#773,.T.);
#496=EDGE_CURVE('',#657,#628,#774,.T.);
#497=EDGE_CURVE('',#629,#659,#775,.T.);
#498=EDGE_CURVE('',#631,#656,#776,.T.);
#499=EDGE_CURVE('',#658,#630,#777,.T.);
#500=EDGE_CURVE('',#615,#660,#778,.T.);
#501=EDGE_CURVE('',#635,#614,#779,.T.);
#502=EDGE_CURVE('',#660,#634,#780,.T.);
#503=EDGE_CURVE('',#612,#661,#781,.T.);
#504=EDGE_CURVE('',#661,#645,#782,.T.);
#505=EDGE_CURVE('',#644,#613,#783,.T.);
#506=EDGE_CURVE('',#662,#663,#784,.T.);
#507=EDGE_CURVE('',#596,#663,#785,.T.);
#508=EDGE_CURVE('',#597,#662,#786,.T.);
#509=EDGE_CURVE('',#663,#664,#54,.T.);
#510=EDGE_CURVE('',#598,#664,#787,.T.);
#511=EDGE_CURVE('',#664,#665,#788,.T.);
#512=EDGE_CURVE('',#599,#665,#789,.T.);
#513=EDGE_CURVE('',#665,#666,#55,.T.);
#514=EDGE_CURVE('',#600,#666,#790,.T.);
#515=EDGE_CURVE('',#666,#667,#791,.T.);
#516=EDGE_CURVE('',#601,#667,#792,.T.);
#517=EDGE_CURVE('',#667,#668,#56,.T.);
#518=EDGE_CURVE('',#602,#668,#793,.T.);
#519=EDGE_CURVE('',#668,#669,#794,.T.);
#520=EDGE_CURVE('',#603,#669,#795,.T.);
#521=EDGE_CURVE('',#669,#662,#57,.T.);
#522=EDGE_CURVE('',#670,#670,#58,.T.);
#523=EDGE_CURVE('',#671,#671,#59,.T.);
#524=EDGE_CURVE('',#672,#672,#60,.T.);
#525=EDGE_CURVE('',#673,#673,#61,.T.);
#526=EDGE_CURVE('',#674,#674,#62,.T.);
#527=EDGE_CURVE('',#675,#675,#63,.T.);
#528=EDGE_CURVE('',#676,#676,#64,.T.);
#529=EDGE_CURVE('',#677,#677,#65,.T.);
#530=EDGE_CURVE('',#678,#642,#796,.T.);
#531=EDGE_CURVE('',#679,#678,#66,.T.);
#532=EDGE_CURVE('',#679,#643,#797,.T.);
#533=EDGE_CURVE('',#680,#641,#798,.T.);
#534=EDGE_CURVE('',#678,#680,#799,.T.);
#535=EDGE_CURVE('',#681,#640,#800,.T.);
#536=EDGE_CURVE('',#680,#681,#67,.T.);
#537=EDGE_CURVE('',#682,#639,#801,.T.);
#538=EDGE_CURVE('',#681,#682,#802,.T.);
#539=EDGE_CURVE('',#683,#638,#803,.T.);
#540=EDGE_CURVE('',#682,#683,#68,.T.);
#541=EDGE_CURVE('',#684,#637,#804,.T.);
#542=EDGE_CURVE('',#683,#684,#805,.T.);
#543=EDGE_CURVE('',#685,#636,#806,.T.);
#544=EDGE_CURVE('',#684,#685,#69,.T.);
#545=EDGE_CURVE('',#685,#679,#807,.T.);
#546=EDGE_CURVE('',#661,#661,#70,.T.);
#547=EDGE_CURVE('',#611,#646,#808,.T.);
#548=EDGE_CURVE('',#647,#610,#809,.T.);
#549=EDGE_CURVE('',#660,#660,#71,.T.);
#550=EDGE_CURVE('',#616,#633,#810,.T.);
#551=EDGE_CURVE('',#632,#617,#811,.T.);
#552=EDGE_CURVE('',#686,#686,#72,.F.);
#553=EDGE_CURVE('',#687,#687,#73,.F.);
#554=EDGE_CURVE('',#688,#688,#74,.F.);
#555=EDGE_CURVE('',#689,#689,#75,.F.);
#556=EDGE_CURVE('',#690,#691,#812,.T.);
#557=EDGE_CURVE('',#690,#692,#813,.T.);
#558=EDGE_CURVE('',#692,#693,#814,.T.);
#559=EDGE_CURVE('',#693,#694,#815,.T.);
#560=EDGE_CURVE('',#694,#695,#816,.T.);
#561=EDGE_CURVE('',#695,#696,#817,.T.);
#562=EDGE_CURVE('',#697,#696,#818,.T.);
#563=EDGE_CURVE('',#697,#698,#819,.T.);
#564=EDGE_CURVE('',#698,#699,#820,.T.);
#565=EDGE_CURVE('',#700,#699,#821,.T.);
#566=EDGE_CURVE('',#701,#700,#822,.T.);
#567=EDGE_CURVE('',#691,#701,#823,.T.);
#568=EDGE_CURVE('',#702,#690,#824,.T.);
#569=EDGE_CURVE('',#702,#703,#825,.T.);
#570=EDGE_CURVE('',#703,#692,#826,.T.);
#571=EDGE_CURVE('',#704,#691,#827,.T.);
#572=EDGE_CURVE('',#702,#704,#828,.T.);
#573=EDGE_CURVE('',#705,#701,#829,.T.);
#574=EDGE_CURVE('',#704,#705,#830,.T.);
#575=EDGE_CURVE('',#706,#700,#831,.T.);
#576=EDGE_CURVE('',#705,#706,#832,.T.);
#577=EDGE_CURVE('',#707,#699,#833,.T.);
#578=EDGE_CURVE('',#706,#707,#834,.T.);
#579=EDGE_CURVE('',#708,#698,#835,.T.);
#580=EDGE_CURVE('',#708,#707,#836,.T.);
#581=EDGE_CURVE('',#709,#697,#837,.T.);
#582=EDGE_CURVE('',#709,#708,#838,.T.);
#583=EDGE_CURVE('',#710,#696,#839,.T.);
#584=EDGE_CURVE('',#709,#710,#840,.T.);
#585=EDGE_CURVE('',#711,#695,#841,.T.);
#586=EDGE_CURVE('',#711,#710,#842,.T.);
#587=EDGE_CURVE('',#712,#694,#843,.T.);
#588=EDGE_CURVE('',#712,#711,#844,.T.);
#589=EDGE_CURVE('',#713,#693,#845,.T.);
#590=EDGE_CURVE('',#713,#712,#846,.T.);
#591=EDGE_CURVE('',#703,#713,#847,.T.);
#592=EDGE_CURVE('',#714,#714,#76,.T.);
#593=EDGE_CURVE('',#715,#715,#77,.T.);
#594=EDGE_CURVE('',#716,#716,#78,.T.);
#595=EDGE_CURVE('',#717,#717,#79,.T.);
#596=VERTEX_POINT('',#1799);
#597=VERTEX_POINT('',#1800);
#598=VERTEX_POINT('',#1802);
#599=VERTEX_POINT('',#1804);
#600=VERTEX_POINT('',#1806);
#601=VERTEX_POINT('',#1808);
#602=VERTEX_POINT('',#1810);
#603=VERTEX_POINT('',#1812);
#604=VERTEX_POINT('',#1815);
#605=VERTEX_POINT('',#1816);
#606=VERTEX_POINT('',#1818);
#607=VERTEX_POINT('',#1820);
#608=VERTEX_POINT('',#1822);
#609=VERTEX_POINT('',#1824);
#610=VERTEX_POINT('',#1826);
#611=VERTEX_POINT('',#1828);
#612=VERTEX_POINT('',#1830);
#613=VERTEX_POINT('',#1832);
#614=VERTEX_POINT('',#1834);
#615=VERTEX_POINT('',#1836);
#616=VERTEX_POINT('',#1838);
#617=VERTEX_POINT('',#1840);
#618=VERTEX_POINT('',#1842);
#619=VERTEX_POINT('',#1844);
#620=VERTEX_POINT('',#1848);
#621=VERTEX_POINT('',#1850);
#622=VERTEX_POINT('',#1854);
#623=VERTEX_POINT('',#1856);
#624=VERTEX_POINT('',#1863);
#625=VERTEX_POINT('',#1865);
#626=VERTEX_POINT('',#1869);
#627=VERTEX_POINT('',#1871);
#628=VERTEX_POINT('',#1875);
#629=VERTEX_POINT('',#1877);
#630=VERTEX_POINT('',#1879);
#631=VERTEX_POINT('',#1881);
#632=VERTEX_POINT('',#1884);
#633=VERTEX_POINT('',#1886);
#634=VERTEX_POINT('',#1888);
#635=VERTEX_POINT('',#1890);
#636=VERTEX_POINT('',#1892);
#637=VERTEX_POINT('',#1894);
#638=VERTEX_POINT('',#1896);
#639=VERTEX_POINT('',#1898);
#640=VERTEX_POINT('',#1900);
#641=VERTEX_POINT('',#1902);
#642=VERTEX_POINT('',#1904);
#643=VERTEX_POINT('',#1906);
#644=VERTEX_POINT('',#1908);
#645=VERTEX_POINT('',#1910);
#646=VERTEX_POINT('',#1912);
#647=VERTEX_POINT('',#1914);
#648=VERTEX_POINT('',#1918);
#649=VERTEX_POINT('',#1920);
#650=VERTEX_POINT('',#1923);
#651=VERTEX_POINT('',#1925);
#652=VERTEX_POINT('',#1928);
#653=VERTEX_POINT('',#1930);
#654=VERTEX_POINT('',#1933);
#655=VERTEX_POINT('',#1935);
#656=VERTEX_POINT('',#1938);
#657=VERTEX_POINT('',#1939);
#658=VERTEX_POINT('',#1941);
#659=VERTEX_POINT('',#1943);
#660=VERTEX_POINT('',#1953);
#661=VERTEX_POINT('',#1958);
#662=VERTEX_POINT('',#1963);
#663=VERTEX_POINT('',#1964);
#664=VERTEX_POINT('',#1969);
#665=VERTEX_POINT('',#1973);
#666=VERTEX_POINT('',#1977);
#667=VERTEX_POINT('',#1981);
#668=VERTEX_POINT('',#1985);
#669=VERTEX_POINT('',#1989);
#670=VERTEX_POINT('',#1995);
#671=VERTEX_POINT('',#1997);
#672=VERTEX_POINT('',#1999);
#673=VERTEX_POINT('',#2001);
#674=VERTEX_POINT('',#2004);
#675=VERTEX_POINT('',#2008);
#676=VERTEX_POINT('',#2012);
#677=VERTEX_POINT('',#2016);
#678=VERTEX_POINT('',#2020);
#679=VERTEX_POINT('',#2022);
#680=VERTEX_POINT('',#2026);
#681=VERTEX_POINT('',#2030);
#682=VERTEX_POINT('',#2034);
#683=VERTEX_POINT('',#2038);
#684=VERTEX_POINT('',#2042);
#685=VERTEX_POINT('',#2046);
#686=VERTEX_POINT('',#2068);
#687=VERTEX_POINT('',#2070);
#688=VERTEX_POINT('',#2072);
#689=VERTEX_POINT('',#2074);
#690=VERTEX_POINT('',#2076);
#691=VERTEX_POINT('',#2077);
#692=VERTEX_POINT('',#2079);
#693=VERTEX_POINT('',#2081);
#694=VERTEX_POINT('',#2083);
#695=VERTEX_POINT('',#2085);
#696=VERTEX_POINT('',#2087);
#697=VERTEX_POINT('',#2089);
#698=VERTEX_POINT('',#2091);
#699=VERTEX_POINT('',#2093);
#700=VERTEX_POINT('',#2095);
#701=VERTEX_POINT('',#2097);
#702=VERTEX_POINT('',#2101);
#703=VERTEX_POINT('',#2103);
#704=VERTEX_POINT('',#2107);
#705=VERTEX_POINT('',#2111);
#706=VERTEX_POINT('',#2115);
#707=VERTEX_POINT('',#2119);
#708=VERTEX_POINT('',#2123);
#709=VERTEX_POINT('',#2127);
#710=VERTEX_POINT('',#2131);
#711=VERTEX_POINT('',#2135);
#712=VERTEX_POINT('',#2139);
#713=VERTEX_POINT('',#2143);
#714=VERTEX_POINT('',#2150);
#715=VERTEX_POINT('',#2154);
#716=VERTEX_POINT('',#2158);
#717=VERTEX_POINT('',#2162);
#718=LINE('',#1798,#848);
#719=LINE('',#1803,#849);
#720=LINE('',#1807,#850);
#721=LINE('',#1811,#851);
#722=LINE('',#1814,#852);
#723=LINE('',#1817,#853);
#724=LINE('',#1819,#854);
#725=LINE('',#1821,#855);
#726=LINE('',#1823,#856);
#727=LINE('',#1825,#857);
#728=LINE('',#1827,#858);
#729=LINE('',#1829,#859);
#730=LINE('',#1831,#860);
#731=LINE('',#1833,#861);
#732=LINE('',#1835,#862);
#733=LINE('',#1837,#863);
#734=LINE('',#1839,#864);
#735=LINE('',#1841,#865);
#736=LINE('',#1843,#866);
#737=LINE('',#1845,#867);
#738=LINE('',#1847,#868);
#739=LINE('',#1849,#869);
#740=LINE('',#1851,#870);
#741=LINE('',#1853,#871);
#742=LINE('',#1855,#872);
#743=LINE('',#1857,#873);
#744=LINE('',#1859,#874);
#745=LINE('',#1860,#875);
#746=LINE('',#1862,#876);
#747=LINE('',#1864,#877);
#748=LINE('',#1866,#878);
#749=LINE('',#1868,#879);
#750=LINE('',#1870,#880);
#751=LINE('',#1872,#881);
#752=LINE('',#1874,#882);
#753=LINE('',#1876,#883);
#754=LINE('',#1878,#884);
#755=LINE('',#1880,#885);
#756=LINE('',#1882,#886);
#757=LINE('',#1883,#887);
#758=LINE('',#1885,#888);
#759=LINE('',#1887,#889);
#760=LINE('',#1889,#890);
#761=LINE('',#1891,#891);
#762=LINE('',#1895,#892);
#763=LINE('',#1899,#893);
#764=LINE('',#1903,#894);
#765=LINE('',#1907,#895);
#766=LINE('',#1909,#896);
#767=LINE('',#1911,#897);
#768=LINE('',#1913,#898);
#769=LINE('',#1915,#899);
#770=LINE('',#1937,#900);
#771=LINE('',#1940,#901);
#772=LINE('',#1942,#902);
#773=LINE('',#1944,#903);
#774=LINE('',#1946,#904);
#775=LINE('',#1947,#905);
#776=LINE('',#1949,#906);
#777=LINE('',#1950,#907);
#778=LINE('',#1952,#908);
#779=LINE('',#1954,#909);
#780=LINE('',#1955,#910);
#781=LINE('',#1957,#911);
#782=LINE('',#1959,#912);
#783=LINE('',#1960,#913);
#784=LINE('',#1962,#914);
#785=LINE('',#1965,#915);
#786=LINE('',#1966,#916);
#787=LINE('',#1970,#917);
#788=LINE('',#1972,#918);
#789=LINE('',#1974,#919);
#790=LINE('',#1978,#920);
#791=LINE('',#1980,#921);
#792=LINE('',#1982,#922);
#793=LINE('',#1986,#923);
#794=LINE('',#1988,#924);
#795=LINE('',#1990,#925);
#796=LINE('',#2019,#926);
#797=LINE('',#2023,#927);
#798=LINE('',#2025,#928);
#799=LINE('',#2027,#929);
#800=LINE('',#2029,#930);
#801=LINE('',#2033,#931);
#802=LINE('',#2035,#932);
#803=LINE('',#2037,#933);
#804=LINE('',#2041,#934);
#805=LINE('',#2043,#935);
#806=LINE('',#2045,#936);
#807=LINE('',#2049,#937);
#808=LINE('',#2053,#938);
#809=LINE('',#2055,#939);
#810=LINE('',#2059,#940);
#811=LINE('',#2061,#941);
#812=LINE('',#2075,#942);
#813=LINE('',#2078,#943);
#814=LINE('',#2080,#944);
#815=LINE('',#2082,#945);
#816=LINE('',#2084,#946);
#817=LINE('',#2086,#947);
#818=LINE('',#2088,#948);
#819=LINE('',#2090,#949);
#820=LINE('',#2092,#950);
#821=LINE('',#2094,#951);
#822=LINE('',#2096,#952);
#823=LINE('',#2098,#953);
#824=LINE('',#2100,#954);
#825=LINE('',#2102,#955);
#826=LINE('',#2104,#956);
#827=LINE('',#2106,#957);
#828=LINE('',#2108,#958);
#829=LINE('',#2110,#959);
#830=LINE('',#2112,#960);
#831=LINE('',#2114,#961);
#832=LINE('',#2116,#962);
#833=LINE('',#2118,#963);
#834=LINE('',#2120,#964);
#835=LINE('',#2122,#965);
#836=LINE('',#2124,#966);
#837=LINE('',#2126,#967);
#838=LINE('',#2128,#968);
#839=LINE('',#2130,#969);
#840=LINE('',#2132,#970);
#841=LINE('',#2134,#971);
#842=LINE('',#2136,#972);
#843=LINE('',#2138,#973);
#844=LINE('',#2140,#974);
#845=LINE('',#2142,#975);
#846=LINE('',#2144,#976);
#847=LINE('',#2146,#977);
#848=VECTOR('',#1438,1.);
#849=VECTOR('',#1441,1.);
#850=VECTOR('',#1444,1.);
#851=VECTOR('',#1447,1.);
#852=VECTOR('',#1450,1.);
#853=VECTOR('',#1451,1.);
#854=VECTOR('',#1452,1.);
#855=VECTOR('',#1453,1.);
#856=VECTOR('',#1454,1.);
#857=VECTOR('',#1455,1.);
#858=VECTOR('',#1456,1.);
#859=VECTOR('',#1457,1.);
#860=VECTOR('',#1458,1.);
#861=VECTOR('',#1459,1.);
#862=VECTOR('',#1460,1.);
#863=VECTOR('',#1461,1.);
#864=VECTOR('',#1462,1.);
#865=VECTOR('',#1463,1.);
#866=VECTOR('',#1464,1.);
#867=VECTOR('',#1465,1.);
#868=VECTOR('',#1468,1.);
#869=VECTOR('',#1469,1.);
#870=VECTOR('',#1470,1.);
#871=VECTOR('',#1473,1.);
#872=VECTOR('',#1474,1.);
#873=VECTOR('',#1475,1.);
#874=VECTOR('',#1478,1.);
#875=VECTOR('',#1479,1.);
#876=VECTOR('',#1482,1.);
#877=VECTOR('',#1483,1.);
#878=VECTOR('',#1484,1.);
#879=VECTOR('',#1487,1.);
#880=VECTOR('',#1488,1.);
#881=VECTOR('',#1489,1.);
#882=VECTOR('',#1492,1.);
#883=VECTOR('',#1493,1.);
#884=VECTOR('',#1494,1.);
#885=VECTOR('',#1495,1.);
#886=VECTOR('',#1496,1.);
#887=VECTOR('',#1497,1.);
#888=VECTOR('',#1498,1.);
#889=VECTOR('',#1499,1.);
#890=VECTOR('',#1500,1.);
#891=VECTOR('',#1501,1.);
#892=VECTOR('',#1504,1.);
#893=VECTOR('',#1507,1.);
#894=VECTOR('',#1510,1.);
#895=VECTOR('',#1513,1.);
#896=VECTOR('',#1514,1.);
#897=VECTOR('',#1515,1.);
#898=VECTOR('',#1516,1.);
#899=VECTOR('',#1517,1.);
#900=VECTOR('',#1544,1.);
#901=VECTOR('',#1545,1.);
#902=VECTOR('',#1546,1.);
#903=VECTOR('',#1547,1.);
#904=VECTOR('',#1550,1.);
#905=VECTOR('',#1551,1.);
#906=VECTOR('',#1554,1.);
#907=VECTOR('',#1555,1.);
#908=VECTOR('',#1558,1.);
#909=VECTOR('',#1559,1.);
#910=VECTOR('',#1560,1.);
#911=VECTOR('',#1563,1.);
#912=VECTOR('',#1564,1.);
#913=VECTOR('',#1565,1.);
#914=VECTOR('',#1568,1.);
#915=VECTOR('',#1569,1.);
#916=VECTOR('',#1570,1.);
#917=VECTOR('',#1575,1.);
#918=VECTOR('',#1578,1.);
#919=VECTOR('',#1579,1.);
#920=VECTOR('',#1584,1.);
#921=VECTOR('',#1587,1.);
#922=VECTOR('',#1588,1.);
#923=VECTOR('',#1593,1.);
#924=VECTOR('',#1596,1.);
#925=VECTOR('',#1597,1.);
#926=VECTOR('',#1638,1.);
#927=VECTOR('',#1641,1.);
#928=VECTOR('',#1644,1.);
#929=VECTOR('',#1645,1.);
#930=VECTOR('',#1648,1.);
#931=VECTOR('',#1653,1.);
#932=VECTOR('',#1654,1.);
#933=VECTOR('',#1657,1.);
#934=VECTOR('',#1662,1.);
#935=VECTOR('',#1663,1.);
#936=VECTOR('',#1666,1.);
#937=VECTOR('',#1671,1.);
#938=VECTOR('',#1678,1.);
#939=VECTOR('',#1681,1.);
#940=VECTOR('',#1688,1.);
#941=VECTOR('',#1691,1.);
#942=VECTOR('',#1710,1.);
#943=VECTOR('',#1711,1.);
#944=VECTOR('',#1712,1.);
#945=VECTOR('',#1713,1.);
#946=VECTOR('',#1714,1.);
#947=VECTOR('',#1715,1.);
#948=VECTOR('',#1716,1.);
#949=VECTOR('',#1717,1.);
#950=VECTOR('',#1718,1.);
#951=VECTOR('',#1719,1.);
#952=VECTOR('',#1720,1.);
#953=VECTOR('',#1721,1.);
#954=VECTOR('',#1724,1.);
#955=VECTOR('',#1725,1.);
#956=VECTOR('',#1726,1.);
#957=VECTOR('',#1729,1.);
#958=VECTOR('',#1730,1.);
#959=VECTOR('',#1733,1.);
#960=VECTOR('',#1734,1.);
#961=VECTOR('',#1737,1.);
#962=VECTOR('',#1738,1.);
#963=VECTOR('',#1741,1.);
#964=VECTOR('',#1742,1.);
#965=VECTOR('',#1745,1.);
#966=VECTOR('',#1746,1.);
#967=VECTOR('',#1749,1.);
#968=VECTOR('',#1750,1.);
#969=VECTOR('',#1753,1.);
#970=VECTOR('',#1754,1.);
#971=VECTOR('',#1757,1.);
#972=VECTOR('',#1758,1.);
#973=VECTOR('',#1761,1.);
#974=VECTOR('',#1762,1.);
#975=VECTOR('',#1765,1.);
#976=VECTOR('',#1766,1.);
#977=VECTOR('',#1769,1.);
#978=EDGE_LOOP('',(#80,#81,#82,#83,#84,#85,#86,#87));
#979=EDGE_LOOP('',(#88,#89,#90,#91,#92,#93,#94,#95,#96,#97,#98,#99,#100,
#101,#102,#103));
#980=EDGE_LOOP('',(#104,#105,#106,#107));
#981=EDGE_LOOP('',(#108,#109,#110,#111));
#982=EDGE_LOOP('',(#112,#113,#114,#115));
#983=EDGE_LOOP('',(#116,#117,#118,#119));
#984=EDGE_LOOP('',(#120,#121,#122,#123));
#985=EDGE_LOOP('',(#124,#125,#126,#127,#128,#129,#130,#131,#132,#133,#134,
#135,#136,#137,#138,#139,#140,#141,#142,#143,#144,#145,#146,#147));
#986=EDGE_LOOP('',(#148));
#987=EDGE_LOOP('',(#149));
#988=EDGE_LOOP('',(#150));
#989=EDGE_LOOP('',(#151));
#990=EDGE_LOOP('',(#152));
#991=EDGE_LOOP('',(#153));
#992=EDGE_LOOP('',(#154));
#993=EDGE_LOOP('',(#155));
#994=EDGE_LOOP('',(#156,#157,#158,#159));
#995=EDGE_LOOP('',(#160,#161,#162,#163));
#996=EDGE_LOOP('',(#164,#165,#166,#167));
#997=EDGE_LOOP('',(#168,#169,#170,#171,#172));
#998=EDGE_LOOP('',(#173,#174,#175,#176,#177));
#999=EDGE_LOOP('',(#178,#179,#180,#181));
#1000=EDGE_LOOP('',(#182,#183,#184,#185));
#1001=EDGE_LOOP('',(#186,#187,#188,#189));
#1002=EDGE_LOOP('',(#190,#191,#192,#193));
#1003=EDGE_LOOP('',(#194,#195,#196,#197));
#1004=EDGE_LOOP('',(#198,#199,#200,#201));
#1005=EDGE_LOOP('',(#202,#203,#204,#205));
#1006=EDGE_LOOP('',(#206,#207,#208,#209));
#1007=EDGE_LOOP('',(#210));
#1008=EDGE_LOOP('',(#211));
#1009=EDGE_LOOP('',(#212));
#1010=EDGE_LOOP('',(#213));
#1011=EDGE_LOOP('',(#214,#215,#216,#217));
#1012=EDGE_LOOP('',(#218));
#1013=EDGE_LOOP('',(#219));
#1014=EDGE_LOOP('',(#220));
#1015=EDGE_LOOP('',(#221));
#1016=EDGE_LOOP('',(#222));
#1017=EDGE_LOOP('',(#223));
#1018=EDGE_LOOP('',(#224));
#1019=EDGE_LOOP('',(#225));
#1020=EDGE_LOOP('',(#226));
#1021=EDGE_LOOP('',(#227));
#1022=EDGE_LOOP('',(#228));
#1023=EDGE_LOOP('',(#229));
#1024=EDGE_LOOP('',(#230));
#1025=EDGE_LOOP('',(#231));
#1026=EDGE_LOOP('',(#232));
#1027=EDGE_LOOP('',(#233));
#1028=EDGE_LOOP('',(#234,#235,#236,#237));
#1029=EDGE_LOOP('',(#238,#239,#240,#241));
#1030=EDGE_LOOP('',(#242,#243,#244,#245));
#1031=EDGE_LOOP('',(#246,#247,#248,#249));
#1032=EDGE_LOOP('',(#250,#251,#252,#253));
#1033=EDGE_LOOP('',(#254,#255,#256,#257));
#1034=EDGE_LOOP('',(#258,#259,#260,#261));
#1035=EDGE_LOOP('',(#262,#263,#264,#265,#266,#267,#268,#269));
#1036=EDGE_LOOP('',(#270,#271,#272,#273,#274,#275,#276,#277));
#1037=EDGE_LOOP('',(#278,#279,#280,#281,#282,#283,#284,#285));
#1038=EDGE_LOOP('',(#286,#287,#288,#289,#290,#291));
#1039=EDGE_LOOP('',(#292,#293,#294,#295));
#1040=EDGE_LOOP('',(#296,#297,#298,#299));
#1041=EDGE_LOOP('',(#300,#301,#302,#303,#304,#305));
#1042=EDGE_LOOP('',(#306,#307,#308,#309));
#1043=EDGE_LOOP('',(#310,#311,#312,#313));
#1044=EDGE_LOOP('',(#314));
#1045=EDGE_LOOP('',(#315));
#1046=EDGE_LOOP('',(#316));
#1047=EDGE_LOOP('',(#317));
#1048=EDGE_LOOP('',(#318));
#1049=EDGE_LOOP('',(#319));
#1050=EDGE_LOOP('',(#320,#321,#322,#323,#324,#325,#326,#327,#328,#329,#330,
#331));
#1051=EDGE_LOOP('',(#332));
#1052=EDGE_LOOP('',(#333));
#1053=EDGE_LOOP('',(#334));
#1054=EDGE_LOOP('',(#335));
#1055=EDGE_LOOP('',(#336,#337,#338,#339,#340,#341,#342,#343,#344,#345,#346,
#347));
#1056=EDGE_LOOP('',(#348,#349,#350,#351));
#1057=EDGE_LOOP('',(#352,#353,#354,#355));
#1058=EDGE_LOOP('',(#356,#357,#358,#359));
#1059=EDGE_LOOP('',(#360,#361,#362,#363));
#1060=EDGE_LOOP('',(#364,#365,#366,#367));
#1061=EDGE_LOOP('',(#368,#369,#370,#371));
#1062=EDGE_LOOP('',(#372,#373,#374,#375));
#1063=EDGE_LOOP('',(#376,#377,#378,#379));
#1064=EDGE_LOOP('',(#380,#381,#382,#383));
#1065=EDGE_LOOP('',(#384,#385,#386,#387));
#1066=EDGE_LOOP('',(#388,#389,#390,#391));
#1067=EDGE_LOOP('',(#392,#393,#394,#395));
#1068=EDGE_LOOP('',(#396,#397,#398,#399));
#1069=EDGE_LOOP('',(#400,#401,#402,#403,#404,#405,#406,#407,#408,#409,#410,
#411));
#1070=EDGE_LOOP('',(#412));
#1071=EDGE_LOOP('',(#413));
#1072=EDGE_LOOP('',(#414));
#1073=EDGE_LOOP('',(#415));
#1074=EDGE_LOOP('',(#416));
#1075=EDGE_LOOP('',(#417));
#1076=EDGE_LOOP('',(#418));
#1077=EDGE_LOOP('',(#419));
#1078=EDGE_LOOP('',(#420));
#1079=EDGE_LOOP('',(#421));
#1080=EDGE_LOOP('',(#422));
#1081=EDGE_LOOP('',(#423));
#1082=FACE_BOUND('',#978,.T.);
#1083=FACE_BOUND('',#979,.T.);
#1084=FACE_BOUND('',#980,.T.);
#1085=FACE_BOUND('',#981,.T.);
#1086=FACE_BOUND('',#982,.T.);
#1087=FACE_BOUND('',#983,.T.);
#1088=FACE_BOUND('',#984,.T.);
#1089=FACE_BOUND('',#985,.T.);
#1090=FACE_BOUND('',#986,.T.);
#1091=FACE_BOUND('',#987,.T.);
#1092=FACE_BOUND('',#988,.T.);
#1093=FACE_BOUND('',#989,.T.);
#1094=FACE_BOUND('',#990,.T.);
#1095=FACE_BOUND('',#991,.T.);
#1096=FACE_BOUND('',#992,.T.);
#1097=FACE_BOUND('',#993,.T.);
#1098=FACE_BOUND('',#994,.T.);
#1099=FACE_BOUND('',#995,.T.);
#1100=FACE_BOUND('',#996,.T.);
#1101=FACE_BOUND('',#997,.T.);
#1102=FACE_BOUND('',#998,.T.);
#1103=FACE_BOUND('',#999,.T.);
#1104=FACE_BOUND('',#1000,.T.);
#1105=FACE_BOUND('',#1001,.T.);
#1106=FACE_BOUND('',#1002,.T.);
#1107=FACE_BOUND('',#1003,.T.);
#1108=FACE_BOUND('',#1004,.T.);
#1109=FACE_BOUND('',#1005,.T.);
#1110=FACE_BOUND('',#1006,.T.);
#1111=FACE_BOUND('',#1007,.T.);
#1112=FACE_BOUND('',#1008,.T.);
#1113=FACE_BOUND('',#1009,.T.);
#1114=FACE_BOUND('',#1010,.T.);
#1115=FACE_BOUND('',#1011,.T.);
#1116=FACE_BOUND('',#1012,.T.);
#1117=FACE_BOUND('',#1013,.T.);
#1118=FACE_BOUND('',#1014,.T.);
#1119=FACE_BOUND('',#1015,.T.);
#1120=FACE_BOUND('',#1016,.T.);
#1121=FACE_BOUND('',#1017,.T.);
#1122=FACE_BOUND('',#1018,.T.);
#1123=FACE_BOUND('',#1019,.T.);
#1124=FACE_BOUND('',#1020,.T.);
#1125=FACE_BOUND('',#1021,.T.);
#1126=FACE_BOUND('',#1022,.T.);
#1127=FACE_BOUND('',#1023,.T.);
#1128=FACE_BOUND('',#1024,.T.);
#1129=FACE_BOUND('',#1025,.T.);
#1130=FACE_BOUND('',#1026,.T.);
#1131=FACE_BOUND('',#1027,.T.);
#1132=FACE_BOUND('',#1028,.T.);
#1133=FACE_BOUND('',#1029,.T.);
#1134=FACE_BOUND('',#1030,.T.);
#1135=FACE_BOUND('',#1031,.T.);
#1136=FACE_BOUND('',#1032,.T.);
#1137=FACE_BOUND('',#1033,.T.);
#1138=FACE_BOUND('',#1034,.T.);
#1139=FACE_BOUND('',#1035,.T.);
#1140=FACE_BOUND('',#1036,.T.);
#1141=FACE_BOUND('',#1037,.T.);
#1142=FACE_BOUND('',#1038,.T.);
#1143=FACE_BOUND('',#1039,.T.);
#1144=FACE_BOUND('',#1040,.T.);
#1145=FACE_BOUND('',#1041,.T.);
#1146=FACE_BOUND('',#1042,.T.);
#1147=FACE_BOUND('',#1043,.T.);
#1148=FACE_BOUND('',#1044,.T.);
#1149=FACE_BOUND('',#1045,.T.);
#1150=FACE_BOUND('',#1046,.T.);
#1151=FACE_BOUND('',#1047,.T.);
#1152=FACE_BOUND('',#1048,.T.);
#1153=FACE_BOUND('',#1049,.T.);
#1154=FACE_BOUND('',#1050,.T.);
#1155=FACE_BOUND('',#1051,.T.);
#1156=FACE_BOUND('',#1052,.T.);
#1157=FACE_BOUND('',#1053,.T.);
#1158=FACE_BOUND('',#1054,.T.);
#1159=FACE_BOUND('',#1055,.T.);
#1160=FACE_BOUND('',#1056,.T.);
#1161=FACE_BOUND('',#1057,.T.);
#1162=FACE_BOUND('',#1058,.T.);
#1163=FACE_BOUND('',#1059,.T.);
#1164=FACE_BOUND('',#1060,.T.);
#1165=FACE_BOUND('',#1061,.T.);
#1166=FACE_BOUND('',#1062,.T.);
#1167=FACE_BOUND('',#1063,.T.);
#1168=FACE_BOUND('',#1064,.T.);
#1169=FACE_BOUND('',#1065,.T.);
#1170=FACE_BOUND('',#1066,.T.);
#1171=FACE_BOUND('',#1067,.T.);
#1172=FACE_BOUND('',#1068,.T.);
#1173=FACE_BOUND('',#1069,.T.);
#1174=FACE_BOUND('',#1070,.T.);
#1175=FACE_BOUND('',#1071,.T.);
#1176=FACE_BOUND('',#1072,.T.);
#1177=FACE_BOUND('',#1073,.T.);
#1178=FACE_BOUND('',#1074,.T.);
#1179=FACE_BOUND('',#1075,.T.);
#1180=FACE_BOUND('',#1076,.T.);
#1181=FACE_BOUND('',#1077,.T.);
#1182=FACE_BOUND('',#1078,.T.);
#1183=FACE_BOUND('',#1079,.T.);
#1184=FACE_BOUND('',#1080,.T.);
#1185=FACE_BOUND('',#1081,.T.);
#1186=PLANE('',#1319);
#1187=PLANE('',#1324);
#1188=PLANE('',#1325);
#1189=PLANE('',#1326);
#1190=PLANE('',#1327);
#1191=PLANE('',#1328);
#1192=PLANE('',#1329);
#1193=PLANE('',#1346);
#1194=PLANE('',#1347);
#1195=PLANE('',#1348);
#1196=PLANE('',#1349);
#1197=PLANE('',#1350);
#1198=PLANE('',#1351);
#1199=PLANE('',#1354);
#1200=PLANE('',#1357);
#1201=PLANE('',#1360);
#1202=PLANE('',#1363);
#1203=PLANE('',#1382);
#1204=PLANE('',#1385);
#1205=PLANE('',#1388);
#1206=PLANE('',#1391);
#1207=PLANE('',#1392);
#1208=PLANE('',#1393);
#1209=PLANE('',#1395);
#1210=PLANE('',#1396);
#1211=PLANE('',#1397);
#1212=PLANE('',#1399);
#1213=PLANE('',#1400);
#1214=PLANE('',#1403);
#1215=PLANE('',#1404);
#1216=PLANE('',#1409);
#1217=PLANE('',#1410);
#1218=PLANE('',#1411);
#1219=PLANE('',#1412);
#1220=PLANE('',#1413);
#1221=PLANE('',#1414);
#1222=PLANE('',#1415);
#1223=PLANE('',#1416);
#1224=PLANE('',#1417);
#1225=PLANE('',#1418);
#1226=PLANE('',#1419);
#1227=PLANE('',#1420);
#1228=PLANE('',#1421);
#1229=PLANE('',#1424);
#1230=PLANE('',#1427);
#1231=PLANE('',#1430);
#1232=PLANE('',#1433);
#1233=ADVANCED_FACE('',(#1082,#1083),#1186,.T.);
#1234=ADVANCED_FACE('',(#1084),#1187,.T.);
#1235=ADVANCED_FACE('',(#1085),#1188,.T.);
#1236=ADVANCED_FACE('',(#1086),#1189,.T.);
#1237=ADVANCED_FACE('',(#1087),#1190,.F.);
#1238=ADVANCED_FACE('',(#1088),#1191,.T.);
#1239=ADVANCED_FACE('',(#1089),#1192,.F.);
#1240=ADVANCED_FACE('',(#1090,#1091),#18,.F.);
#1241=ADVANCED_FACE('',(#1092,#1093),#19,.F.);
#1242=ADVANCED_FACE('',(#1094,#1095),#20,.F.);
#1243=ADVANCED_FACE('',(#1096,#1097),#21,.F.);
#1244=ADVANCED_FACE('',(#1098),#1193,.F.);
#1245=ADVANCED_FACE('',(#1099),#1194,.F.);
#1246=ADVANCED_FACE('',(#1100),#1195,.F.);
#1247=ADVANCED_FACE('',(#1101),#1196,.F.);
#1248=ADVANCED_FACE('',(#1102),#1197,.T.);
#1249=ADVANCED_FACE('',(#1103),#1198,.F.);
#1250=ADVANCED_FACE('',(#1104),#22,.F.);
#1251=ADVANCED_FACE('',(#1105),#1199,.F.);
#1252=ADVANCED_FACE('',(#1106),#23,.F.);
#1253=ADVANCED_FACE('',(#1107),#1200,.F.);
#1254=ADVANCED_FACE('',(#1108),#24,.F.);
#1255=ADVANCED_FACE('',(#1109),#1201,.F.);
#1256=ADVANCED_FACE('',(#1110),#25,.F.);
#1257=ADVANCED_FACE('',(#1111,#1112,#1113,#1114,#1115),#1202,.F.);
#1258=ADVANCED_FACE('',(#1116,#1117),#14,.F.);
#1259=ADVANCED_FACE('',(#1118,#1119),#26,.F.);
#1260=ADVANCED_FACE('',(#1120,#1121),#15,.F.);
#1261=ADVANCED_FACE('',(#1122,#1123),#27,.F.);
#1262=ADVANCED_FACE('',(#1124,#1125),#16,.F.);
#1263=ADVANCED_FACE('',(#1126,#1127),#28,.F.);
#1264=ADVANCED_FACE('',(#1128,#1129),#17,.F.);
#1265=ADVANCED_FACE('',(#1130,#1131),#29,.F.);
#1266=ADVANCED_FACE('',(#1132),#30,.F.);
#1267=ADVANCED_FACE('',(#1133),#1203,.F.);
#1268=ADVANCED_FACE('',(#1134),#31,.F.);
#1269=ADVANCED_FACE('',(#1135),#1204,.F.);
#1270=ADVANCED_FACE('',(#1136),#32,.F.);
#1271=ADVANCED_FACE('',(#1137),#1205,.F.);
#1272=ADVANCED_FACE('',(#1138),#33,.F.);
#1273=ADVANCED_FACE('',(#1139,#1140),#1206,.T.);
#1274=ADVANCED_FACE('',(#1141),#1207,.T.);
#1275=ADVANCED_FACE('',(#1142),#1208,.T.);
#1276=ADVANCED_FACE('',(#1143),#1209,.T.);
#1277=ADVANCED_FACE('',(#1144),#1210,.T.);
#1278=ADVANCED_FACE('',(#1145),#1211,.F.);
#1279=ADVANCED_FACE('',(#1146),#1212,.F.);
#1280=ADVANCED_FACE('',(#1147),#1213,.T.);
#1281=ADVANCED_FACE('',(#1148),#12,.F.);
#1282=ADVANCED_FACE('',(#1149),#13,.F.);
#1283=ADVANCED_FACE('',(#1150,#1151,#1152,#1153,#1154),#1214,.T.);
#1284=ADVANCED_FACE('',(#1155,#1156,#1157,#1158,#1159,#1160),#1215,.F.);
#1285=ADVANCED_FACE('',(#1161),#1216,.T.);
#1286=ADVANCED_FACE('',(#1162),#1217,.F.);
#1287=ADVANCED_FACE('',(#1163),#1218,.F.);
#1288=ADVANCED_FACE('',(#1164),#1219,.F.);
#1289=ADVANCED_FACE('',(#1165),#1220,.F.);
#1290=ADVANCED_FACE('',(#1166),#1221,.T.);
#1291=ADVANCED_FACE('',(#1167),#1222,.T.);
#1292=ADVANCED_FACE('',(#1168),#1223,.F.);
#1293=ADVANCED_FACE('',(#1169),#1224,.T.);
#1294=ADVANCED_FACE('',(#1170),#1225,.T.);
#1295=ADVANCED_FACE('',(#1171),#1226,.T.);
#1296=ADVANCED_FACE('',(#1172),#1227,.T.);
#1297=ADVANCED_FACE('',(#1173),#1228,.T.);
#1298=ADVANCED_FACE('',(#1174,#1175),#34,.T.);
#1299=ADVANCED_FACE('',(#1176),#1229,.T.);
#1300=ADVANCED_FACE('',(#1177,#1178),#35,.T.);
#1301=ADVANCED_FACE('',(#1179),#1230,.T.);
#1302=ADVANCED_FACE('',(#1180,#1181),#36,.T.);
#1303=ADVANCED_FACE('',(#1182),#1231,.T.);
#1304=ADVANCED_FACE('',(#1183,#1184),#37,.T.);
#1305=ADVANCED_FACE('',(#1185),#1232,.T.);
#1306=CLOSED_SHELL('',(#1233,#1234,#1235,#1236,#1237,#1238,#1239,#1240,
#1241,#1242,#1243,#1244,#1245,#1246,#1247,#1248,#1249,#1250,#1251,#1252,
#1253,#1254,#1255,#1256,#1257,#1258,#1259,#1260,#1261,#1262,#1263,#1264,
#1265,#1266,#1267,#1268,#1269,#1270,#1271,#1272,#1273,#1274,#1275,#1276,
#1277,#1278,#1279,#1280,#1281,#1282,#1283,#1284,#1285,#1286,#1287,#1288,
#1289,#1290,#1291,#1292,#1293,#1294,#1295,#1296,#1297,#1298,#1299,#1300,
#1301,#1302,#1303,#1304,#1305));
#1307=STYLED_ITEM('',(#1308),#1315);
#1308=PRESENTATION_STYLE_ASSIGNMENT((#1309));
#1309=SURFACE_STYLE_USAGE(.BOTH.,#1310);
#1310=SURFACE_SIDE_STYLE('',(#1311));
#1311=SURFACE_STYLE_FILL_AREA(#1312);
#1312=FILL_AREA_STYLE('',(#1313));
#1313=FILL_AREA_STYLE_COLOUR('',#1314);
#1314=COLOUR_RGB('',0.917647058823529,0.917647058823529,0.917647058823529);
#1315=MANIFOLD_SOLID_BREP('Main_Case',#1306);
#1316=SHAPE_DEFINITION_REPRESENTATION(#2170,#1317);
#1317=SHAPE_REPRESENTATION('Main_Case',(#1318),#2165);
#1318=AXIS2_PLACEMENT_3D('',#1796,#1434,#1435);
#1319=AXIS2_PLACEMENT_3D('',#1797,#1436,#1437);
#1320=AXIS2_PLACEMENT_3D('',#1801,#1439,#1440);
#1321=AXIS2_PLACEMENT_3D('',#1805,#1442,#1443);
#1322=AXIS2_PLACEMENT_3D('',#1809,#1445,#1446);
#1323=AXIS2_PLACEMENT_3D('',#1813,#1448,#1449);
#1324=AXIS2_PLACEMENT_3D('',#1846,#1466,#1467);
#1325=AXIS2_PLACEMENT_3D('',#1852,#1471,#1472);
#1326=AXIS2_PLACEMENT_3D('',#1858,#1476,#1477);
#1327=AXIS2_PLACEMENT_3D('',#1861,#1480,#1481);
#1328=AXIS2_PLACEMENT_3D('',#1867,#1485,#1486);
#1329=AXIS2_PLACEMENT_3D('',#1873,#1490,#1491);
#1330=AXIS2_PLACEMENT_3D('',#1893,#1502,#1503);
#1331=AXIS2_PLACEMENT_3D('',#1897,#1505,#1506);
#1332=AXIS2_PLACEMENT_3D('',#1901,#1508,#1509);
#1333=AXIS2_PLACEMENT_3D('',#1905,#1511,#1512);
#1334=AXIS2_PLACEMENT_3D('',#1916,#1518,#1519);
#1335=AXIS2_PLACEMENT_3D('',#1917,#1520,#1521);
#1336=AXIS2_PLACEMENT_3D('',#1919,#1522,#1523);
#1337=AXIS2_PLACEMENT_3D('',#1921,#1524,#1525);
#1338=AXIS2_PLACEMENT_3D('',#1922,#1526,#1527);
#1339=AXIS2_PLACEMENT_3D('',#1924,#1528,#1529);
#1340=AXIS2_PLACEMENT_3D('',#1926,#1530,#1531);
#1341=AXIS2_PLACEMENT_3D('',#1927,#1532,#1533);
#1342=AXIS2_PLACEMENT_3D('',#1929,#1534,#1535);
#1343=AXIS2_PLACEMENT_3D('',#1931,#1536,#1537);
#1344=AXIS2_PLACEMENT_3D('',#1932,#1538,#1539);
#1345=AXIS2_PLACEMENT_3D('',#1934,#1540,#1541);
#1346=AXIS2_PLACEMENT_3D('',#1936,#1542,#1543);
#1347=AXIS2_PLACEMENT_3D('',#1945,#1548,#1549);
#1348=AXIS2_PLACEMENT_3D('',#1948,#1552,#1553);
#1349=AXIS2_PLACEMENT_3D('',#1951,#1556,#1557);
#1350=AXIS2_PLACEMENT_3D('',#1956,#1561,#1562);
#1351=AXIS2_PLACEMENT_3D('',#1961,#1566,#1567);
#1352=AXIS2_PLACEMENT_3D('',#1967,#1571,#1572);
#1353=AXIS2_PLACEMENT_3D('',#1968,#1573,#1574);
#1354=AXIS2_PLACEMENT_3D('',#1971,#1576,#1577);
#1355=AXIS2_PLACEMENT_3D('',#1975,#1580,#1581);
#1356=AXIS2_PLACEMENT_3D('',#1976,#1582,#1583);
#1357=AXIS2_PLACEMENT_3D('',#1979,#1585,#1586);
#1358=AXIS2_PLACEMENT_3D('',#1983,#1589,#1590);
#1359=AXIS2_PLACEMENT_3D('',#1984,#1591,#1592);
#1360=AXIS2_PLACEMENT_3D('',#1987,#1594,#1595);
#1361=AXIS2_PLACEMENT_3D('',#1991,#1598,#1599);
#1362=AXIS2_PLACEMENT_3D('',#1992,#1600,#1601);
#1363=AXIS2_PLACEMENT_3D('',#1993,#1602,#1603);
#1364=AXIS2_PLACEMENT_3D('',#1994,#1604,#1605);
#1365=AXIS2_PLACEMENT_3D('',#1996,#1606,#1607);
#1366=AXIS2_PLACEMENT_3D('',#1998,#1608,#1609);
#1367=AXIS2_PLACEMENT_3D('',#2000,#1610,#1611);
#1368=AXIS2_PLACEMENT_3D('',#2002,#1612,#1613);
#1369=AXIS2_PLACEMENT_3D('',#2003,#1614,#1615);
#1370=AXIS2_PLACEMENT_3D('',#2005,#1616,#1617);
#1371=AXIS2_PLACEMENT_3D('',#2006,#1618,#1619);
#1372=AXIS2_PLACEMENT_3D('',#2007,#1620,#1621);
#1373=AXIS2_PLACEMENT_3D('',#2009,#1622,#1623);
#1374=AXIS2_PLACEMENT_3D('',#2010,#1624,#1625);
#1375=AXIS2_PLACEMENT_3D('',#2011,#1626,#1627);
#1376=AXIS2_PLACEMENT_3D('',#2013,#1628,#1629);
#1377=AXIS2_PLACEMENT_3D('',#2014,#1630,#1631);
#1378=AXIS2_PLACEMENT_3D('',#2015,#1632,#1633);
#1379=AXIS2_PLACEMENT_3D('',#2017,#1634,#1635);
#1380=AXIS2_PLACEMENT_3D('',#2018,#1636,#1637);
#1381=AXIS2_PLACEMENT_3D('',#2021,#1639,#1640);
#1382=AXIS2_PLACEMENT_3D('',#2024,#1642,#1643);
#1383=AXIS2_PLACEMENT_3D('',#2028,#1646,#1647);
#1384=AXIS2_PLACEMENT_3D('',#2031,#1649,#1650);
#1385=AXIS2_PLACEMENT_3D('',#2032,#1651,#1652);
#1386=AXIS2_PLACEMENT_3D('',#2036,#1655,#1656);
#1387=AXIS2_PLACEMENT_3D('',#2039,#1658,#1659);
#1388=AXIS2_PLACEMENT_3D('',#2040,#1660,#1661);
#1389=AXIS2_PLACEMENT_3D('',#2044,#1664,#1665);
#1390=AXIS2_PLACEMENT_3D('',#2047,#1667,#1668);
#1391=AXIS2_PLACEMENT_3D('',#2048,#1669,#1670);
#1392=AXIS2_PLACEMENT_3D('',#2050,#1672,#1673);
#1393=AXIS2_PLACEMENT_3D('',#2051,#1674,#1675);
#1394=AXIS2_PLACEMENT_3D('',#2052,#1676,#1677);
#1395=AXIS2_PLACEMENT_3D('',#2054,#1679,#1680);
#1396=AXIS2_PLACEMENT_3D('',#2056,#1682,#1683);
#1397=AXIS2_PLACEMENT_3D('',#2057,#1684,#1685);
#1398=AXIS2_PLACEMENT_3D('',#2058,#1686,#1687);
#1399=AXIS2_PLACEMENT_3D('',#2060,#1689,#1690);
#1400=AXIS2_PLACEMENT_3D('',#2062,#1692,#1693);
#1401=AXIS2_PLACEMENT_3D('',#2063,#1694,#1695);
#1402=AXIS2_PLACEMENT_3D('',#2064,#1696,#1697);
#1403=AXIS2_PLACEMENT_3D('',#2065,#1698,#1699);
#1404=AXIS2_PLACEMENT_3D('',#2066,#1700,#1701);
#1405=AXIS2_PLACEMENT_3D('',#2067,#1702,#1703);
#1406=AXIS2_PLACEMENT_3D('',#2069,#1704,#1705);
#1407=AXIS2_PLACEMENT_3D('',#2071,#1706,#1707);
#1408=AXIS2_PLACEMENT_3D('',#2073,#1708,#1709);
#1409=AXIS2_PLACEMENT_3D('',#2099,#1722,#1723);
#1410=AXIS2_PLACEMENT_3D('',#2105,#1727,#1728);
#1411=AXIS2_PLACEMENT_3D('',#2109,#1731,#1732);
#1412=AXIS2_PLACEMENT_3D('',#2113,#1735,#1736);
#1413=AXIS2_PLACEMENT_3D('',#2117,#1739,#1740);
#1414=AXIS2_PLACEMENT_3D('',#2121,#1743,#1744);
#1415=AXIS2_PLACEMENT_3D('',#2125,#1747,#1748);
#1416=AXIS2_PLACEMENT_3D('',#2129,#1751,#1752);
#1417=AXIS2_PLACEMENT_3D('',#2133,#1755,#1756);
#1418=AXIS2_PLACEMENT_3D('',#2137,#1759,#1760);
#1419=AXIS2_PLACEMENT_3D('',#2141,#1763,#1764);
#1420=AXIS2_PLACEMENT_3D('',#2145,#1767,#1768);
#1421=AXIS2_PLACEMENT_3D('',#2147,#1770,#1771);
#1422=AXIS2_PLACEMENT_3D('',#2148,#1772,#1773);
#1423=AXIS2_PLACEMENT_3D('',#2149,#1774,#1775);
#1424=AXIS2_PLACEMENT_3D('',#2151,#1776,#1777);
#1425=AXIS2_PLACEMENT_3D('',#2152,#1778,#1779);
#1426=AXIS2_PLACEMENT_3D('',#2153,#1780,#1781);
#1427=AXIS2_PLACEMENT_3D('',#2155,#1782,#1783);
#1428=AXIS2_PLACEMENT_3D('',#2156,#1784,#1785);
#1429=AXIS2_PLACEMENT_3D('',#2157,#1786,#1787);
#1430=AXIS2_PLACEMENT_3D('',#2159,#1788,#1789);
#1431=AXIS2_PLACEMENT_3D('',#2160,#1790,#1791);
#1432=AXIS2_PLACEMENT_3D('',#2161,#1792,#1793);
#1433=AXIS2_PLACEMENT_3D('',#2163,#1794,#1795);
#1434=DIRECTION('',(0.,0.,1.));
#1435=DIRECTION('',(1.,0.,0.));
#1436=DIRECTION('',(0.999999992029881,-0.000126254655137407,0.));
#1437=DIRECTION('',(0.000126254655137407,0.999999992029881,0.));
#1438=DIRECTION('',(-0.000126254655137407,-0.999999992029881,0.));
#1439=DIRECTION('',(0.999999992029881,-0.000126254655137407,0.));
#1440=DIRECTION('',(0.000126254655137407,0.999999992029881,0.));
#1441=DIRECTION('',(-1.34623960620603E-12,-1.06628907584531E-8,1.));
#1442=DIRECTION('',(0.999999992029881,-0.000126254655137407,0.));
#1443=DIRECTION('',(0.000126254655137407,0.999999992029881,0.));
#1444=DIRECTION('',(0.000126254655137407,0.999999992029881,0.));
#1445=DIRECTION('',(0.999999992029881,-0.000126254655137407,0.));
#1446=DIRECTION('',(0.000126254655137407,0.999999992029881,0.));
#1447=DIRECTION('',(1.34623960620603E-12,1.06628907584531E-8,-1.));
#1448=DIRECTION('',(0.999999992029881,-0.000126254655137407,0.));
#1449=DIRECTION('',(0.000126254655137407,0.999999992029881,0.));
#1450=DIRECTION('',(0.,0.,1.));
#1451=DIRECTION('',(0.000126254655137407,0.999999992029881,0.));
#1452=DIRECTION('',(0.,0.,1.));
#1453=DIRECTION('',(-0.000126254655137407,-0.999999992029881,0.));
#1454=DIRECTION('',(0.,0.,-1.));
#1455=DIRECTION('',(-0.000126254655137407,-0.999999992029881,-1.99106284066023E-20));
#1456=DIRECTION('',(0.,0.,1.));
#1457=DIRECTION('',(0.000126254655137407,0.999999992029881,0.));
#1458=DIRECTION('',(0.,0.,-1.));
#1459=DIRECTION('',(-0.000126254655137407,-0.999999992029881,0.));
#1460=DIRECTION('',(0.,0.,-1.));
#1461=DIRECTION('',(0.000126254655137407,0.999999992029881,1.99106284066023E-20));
#1462=DIRECTION('',(0.,0.,1.));
#1463=DIRECTION('',(0.000126254655137407,0.999999992029881,0.));
#1464=DIRECTION('',(0.,0.,-1.));
#1465=DIRECTION('',(-0.000126254655137407,-0.999999992029881,0.));
#1466=DIRECTION('',(9.99999995000604E-5,-0.999999995,0.));
#1467=DIRECTION('',(0.999999995,9.99999995000604E-5,0.));
#1468=DIRECTION('',(0.999999995,9.99999995000605E-5,0.));
#1469=DIRECTION('',(0.,0.,1.));
#1470=DIRECTION('',(-0.999999995,-9.99999995000604E-5,0.));
#1471=DIRECTION('',(-0.999999992030887,0.000126246685018355,0.));
#1472=DIRECTION('',(-0.000126246685018355,-0.999999992030887,0.));
#1473=DIRECTION('',(-0.000126246685018355,-0.999999992030887,0.));
#1474=DIRECTION('',(0.,0.,1.));
#1475=DIRECTION('',(0.000126246685018355,0.999999992030887,0.));
#1476=DIRECTION('',(-7.97077906833938E-13,1.,0.));
#1477=DIRECTION('',(-1.,-7.97077906833938E-13,0.));
#1478=DIRECTION('',(-1.,-7.97077906833938E-13,0.));
#1479=DIRECTION('',(1.,7.97077906833938E-13,0.));
#1480=DIRECTION('',(0.,-1.,0.));
#1481=DIRECTION('',(0.,0.,-1.));
#1482=DIRECTION('',(-1.,0.,0.));
#1483=DIRECTION('',(1.,0.,1.57702132922805E-16));
#1484=DIRECTION('',(0.,0.,1.));
#1485=DIRECTION('',(0.,-1.,0.));
#1486=DIRECTION('',(0.,0.,-1.));
#1487=DIRECTION('',(-1.,0.,0.));
#1488=DIRECTION('',(0.,0.,1.));
#1489=DIRECTION('',(1.,0.,1.57702132922805E-16));
#1490=DIRECTION('',(0.999999992029881,-0.000126254655137494,0.));
#1491=DIRECTION('',(0.000126254655137494,0.999999992029881,0.));
#1492=DIRECTION('',(-0.000126254655137494,-0.999999992029881,0.));
#1493=DIRECTION('',(0.,0.,1.));
#1494=DIRECTION('',(0.000126254655137494,0.999999992029881,0.));
#1495=DIRECTION('',(0.,0.,1.));
#1496=DIRECTION('',(-0.000126254655137494,-0.999999992029881,0.));
#1497=DIRECTION('',(0.000126254655137494,0.999999992029881,1.99106284066159E-20));
#1498=DIRECTION('',(0.,0.,1.));
#1499=DIRECTION('',(0.000126254655137494,0.999999992029881,0.));
#1500=DIRECTION('',(0.,0.,1.));
#1501=DIRECTION('',(-0.000126254655137494,-0.999999992029881,0.));
#1502=DIRECTION('',(-0.999999992029881,0.000126254655137494,0.));
#1503=DIRECTION('',(-0.000126254655137494,-0.999999992029881,0.));
#1504=DIRECTION('',(-1.34623960620696E-12,-1.06628907584531E-8,1.));
#1505=DIRECTION('',(-0.999999992029881,0.000126254655137494,0.));
#1506=DIRECTION('',(-0.000126254655137494,-0.999999992029881,0.));
#1507=DIRECTION('',(-0.000126254655137494,-0.999999992029881,0.));
#1508=DIRECTION('',(-0.999999992029881,0.000126254655137494,0.));
#1509=DIRECTION('',(-0.000126254655137494,-0.999999992029881,0.));
#1510=DIRECTION('',(1.34623960620696E-12,1.06628907584531E-8,-1.));
#1511=DIRECTION('',(-0.999999992029881,0.000126254655137494,0.));
#1512=DIRECTION('',(-0.000126254655137494,-0.999999992029881,0.));
#1513=DIRECTION('',(-0.000126254655137494,-0.999999992029881,0.));
#1514=DIRECTION('',(0.,0.,1.));
#1515=DIRECTION('',(-0.000126254655137494,-0.999999992029881,-1.99106284066159E-20));
#1516=DIRECTION('',(0.,0.,-1.));
#1517=DIRECTION('',(0.000126254655137494,0.999999992029881,0.));
#1518=DIRECTION('',(0.,0.,-1.));
#1519=DIRECTION('',(-1.,0.,0.));
#1520=DIRECTION('',(0.,0.,-1.));
#1521=DIRECTION('',(-1.,0.,0.));
#1522=DIRECTION('',(0.,0.,1.));
#1523=DIRECTION('',(1.,0.,0.));
#1524=DIRECTION('',(0.,0.,-1.));
#1525=DIRECTION('',(-1.,0.,0.));
#1526=DIRECTION('',(0.,0.,-1.));
#1527=DIRECTION('',(-1.,0.,0.));
#1528=DIRECTION('',(0.,0.,1.));
#1529=DIRECTION('',(1.,0.,0.));
#1530=DIRECTION('',(0.,0.,-1.));
#1531=DIRECTION('',(-1.,0.,0.));
#1532=DIRECTION('',(0.,0.,-1.));
#1533=DIRECTION('',(-1.,0.,0.));
#1534=DIRECTION('',(0.,0.,1.));
#1535=DIRECTION('',(1.,0.,0.));
#1536=DIRECTION('',(0.,0.,-1.));
#1537=DIRECTION('',(-1.,0.,0.));
#1538=DIRECTION('',(0.,0.,-1.));
#1539=DIRECTION('',(-1.,0.,0.));
#1540=DIRECTION('',(0.,0.,1.));
#1541=DIRECTION('',(1.,0.,0.));
#1542=DIRECTION('',(-0.999999992030887,0.000126246685018394,0.));
#1543=DIRECTION('',(-0.000126246685018394,-0.999999992030887,0.));
#1544=DIRECTION('',(0.000126246685018394,0.999999992030887,0.));
#1545=DIRECTION('',(0.,0.,1.));
#1546=DIRECTION('',(-0.000126246685018394,-0.999999992030887,0.));
#1547=DIRECTION('',(0.,0.,1.));
#1548=DIRECTION('',(9.99999995000848E-5,-0.999999995,0.));
#1549=DIRECTION('',(0.999999995,9.99999995000848E-5,0.));
#1550=DIRECTION('',(-0.999999995,-9.99999995000848E-5,0.));
#1551=DIRECTION('',(0.999999995,9.99999995000848E-5,0.));
#1552=DIRECTION('',(-7.97103889075094E-13,1.,0.));
#1553=DIRECTION('',(-1.,-7.97103889075094E-13,0.));
#1554=DIRECTION('',(1.,7.97103889075094E-13,0.));
#1555=DIRECTION('',(-1.,-7.97103889075094E-13,0.));
#1556=DIRECTION('',(0.,-1.,0.));
#1557=DIRECTION('',(0.,0.,-1.));
#1558=DIRECTION('',(-1.,0.,-1.57702132922805E-16));
#1559=DIRECTION('',(1.,0.,0.));
#1560=DIRECTION('',(-1.,0.,-1.57702132922805E-16));
#1561=DIRECTION('',(0.,-1.,0.));
#1562=DIRECTION('',(0.,0.,-1.));
#1563=DIRECTION('',(-1.,0.,-1.57702132922805E-16));
#1564=DIRECTION('',(-1.,0.,-1.57702132922805E-16));
#1565=DIRECTION('',(1.,0.,0.));
#1566=DIRECTION('',(0.,0.,1.));
#1567=DIRECTION('',(1.,0.,0.));
#1568=DIRECTION('',(0.000126254655137494,0.999999992029881,0.));
#1569=DIRECTION('',(-0.999999992029881,0.000126254655137494,0.));
#1570=DIRECTION('',(-0.999999992029881,0.000126254655137494,0.));
#1571=DIRECTION('',(-0.999999992029881,0.000126254655137494,0.));
#1572=DIRECTION('',(-0.000126254655137494,-0.999999992029881,0.));
#1573=DIRECTION('',(-0.999999992029881,0.000126254655137494,0.));
#1574=DIRECTION('',(-0.000126254655137494,-0.999999992029881,0.));
#1575=DIRECTION('',(-0.999999992029881,0.000126254655137494,0.));
#1576=DIRECTION('',(0.000126254655137494,0.999999992029881,1.06628908434376E-8));
#1577=DIRECTION('',(-0.999999992029881,0.000126254655137494,0.));
#1578=DIRECTION('',(1.34623960620696E-12,1.06628907584531E-8,-1.));
#1579=DIRECTION('',(-0.999999992029881,0.000126254655137494,0.));
#1580=DIRECTION('',(-0.999999992029881,0.000126254655137494,0.));
#1581=DIRECTION('',(-0.000126254655137494,-0.999999992029881,0.));
#1582=DIRECTION('',(-0.999999992029881,0.000126254655137494,0.));
#1583=DIRECTION('',(-0.000126254655137494,-0.999999992029881,0.));
#1584=DIRECTION('',(-0.999999992029881,0.000126254655137494,0.));
#1585=DIRECTION('',(0.,0.,-1.));
#1586=DIRECTION('',(-1.,0.,0.));
#1587=DIRECTION('',(-0.000126254655137494,-0.999999992029881,0.));
#1588=DIRECTION('',(-0.999999992029881,0.000126254655137494,0.));
#1589=DIRECTION('',(-0.999999992029881,0.000126254655137494,0.));
#1590=DIRECTION('',(-0.000126254655137494,-0.999999992029881,0.));
#1591=DIRECTION('',(-0.999999992029881,0.000126254655137494,0.));
#1592=DIRECTION('',(-0.000126254655137494,-0.999999992029881,0.));
#1593=DIRECTION('',(-0.999999992029881,0.000126254655137494,0.));
#1594=DIRECTION('',(-0.000126254655137494,-0.999999992029881,-1.06628908434376E-8));
#1595=DIRECTION('',(0.999999992029881,-0.000126254655137494,0.));
#1596=DIRECTION('',(-1.34623960620696E-12,-1.06628907584531E-8,1.));
#1597=DIRECTION('',(-0.999999992029881,0.000126254655137494,0.));
#1598=DIRECTION('',(-0.999999992029881,0.000126254655137494,0.));
#1599=DIRECTION('',(-0.000126254655137494,-0.999999992029881,0.));
#1600=DIRECTION('',(-0.999999992029881,0.000126254655137494,0.));
#1601=DIRECTION('',(-0.000126254655137494,-0.999999992029881,0.));
#1602=DIRECTION('',(0.,0.,1.));
#1603=DIRECTION('',(1.,0.,0.));
#1604=DIRECTION('',(0.,0.,1.));
#1605=DIRECTION('',(1.,0.,0.));
#1606=DIRECTION('',(0.,0.,1.));
#1607=DIRECTION('',(1.,0.,0.));
#1608=DIRECTION('',(0.,0.,1.));
#1609=DIRECTION('',(1.,0.,0.));
#1610=DIRECTION('',(0.,0.,1.));
#1611=DIRECTION('',(1.,0.,0.));
#1612=DIRECTION('',(0.,0.,-1.));
#1613=DIRECTION('',(-1.,0.,0.));
#1614=DIRECTION('',(0.,0.,1.));
#1615=DIRECTION('',(1.,0.,0.));
#1616=DIRECTION('',(0.,0.,1.));
#1617=DIRECTION('',(1.,0.,0.));
#1618=DIRECTION('',(0.,0.,-1.));
#1619=DIRECTION('',(-1.,0.,0.));
#1620=DIRECTION('',(0.,0.,1.));
#1621=DIRECTION('',(1.,0.,0.));
#1622=DIRECTION('',(0.,0.,1.));
#1623=DIRECTION('',(1.,0.,0.));
#1624=DIRECTION('',(0.,0.,-1.));
#1625=DIRECTION('',(-1.,0.,0.));
#1626=DIRECTION('',(0.,0.,1.));
#1627=DIRECTION('',(1.,0.,0.));
#1628=DIRECTION('',(0.,0.,1.));
#1629=DIRECTION('',(1.,0.,0.));
#1630=DIRECTION('',(0.,0.,-1.));
#1631=DIRECTION('',(-1.,0.,0.));
#1632=DIRECTION('',(0.,0.,1.));
#1633=DIRECTION('',(1.,0.,0.));
#1634=DIRECTION('',(0.,0.,1.));
#1635=DIRECTION('',(1.,0.,0.));
#1636=DIRECTION('',(-0.999999992029881,0.000126254655137494,0.));
#1637=DIRECTION('',(-0.000126254655137494,-0.999999992029881,0.));
#1638=DIRECTION('',(-0.999999992029881,0.000126254655137494,0.));
#1639=DIRECTION('',(-0.999999992029881,0.000126254655137494,0.));
#1640=DIRECTION('',(-0.000126254655137494,-0.999999992029881,0.));
#1641=DIRECTION('',(-0.999999992029881,0.000126254655137494,0.));
#1642=DIRECTION('',(0.000126254655137494,0.999999992029881,1.06628908434376E-8));
#1643=DIRECTION('',(-0.999999992029881,0.000126254655137494,0.));
#1644=DIRECTION('',(-0.999999992029881,0.000126254655137494,0.));
#1645=DIRECTION('',(1.34623960620696E-12,1.06628907584531E-8,-1.));
#1646=DIRECTION('',(-0.999999992029881,0.000126254655137494,0.));
#1647=DIRECTION('',(-0.000126254655137494,-0.999999992029881,0.));
#1648=DIRECTION('',(-0.999999992029881,0.000126254655137494,0.));
#1649=DIRECTION('',(-0.999999992029881,0.000126254655137494,0.));
#1650=DIRECTION('',(-0.000126254655137494,-0.999999992029881,0.));
#1651=DIRECTION('',(0.,0.,-1.));
#1652=DIRECTION('',(-1.,0.,0.));
#1653=DIRECTION('',(-0.999999992029881,0.000126254655137494,0.));
#1654=DIRECTION('',(-0.000126254655137494,-0.999999992029881,0.));
#1655=DIRECTION('',(-0.999999992029881,0.000126254655137494,0.));
#1656=DIRECTION('',(-0.000126254655137494,-0.999999992029881,0.));
#1657=DIRECTION('',(-0.999999992029881,0.000126254655137494,0.));
#1658=DIRECTION('',(-0.999999992029881,0.000126254655137494,0.));
#1659=DIRECTION('',(-0.000126254655137494,-0.999999992029881,0.));
#1660=DIRECTION('',(-0.000126254655137494,-0.999999992029881,-1.06628908434376E-8));
#1661=DIRECTION('',(0.999999992029881,-0.000126254655137494,0.));
#1662=DIRECTION('',(-0.999999992029881,0.000126254655137494,0.));
#1663=DIRECTION('',(-1.34623960620696E-12,-1.06628907584531E-8,1.));
#1664=DIRECTION('',(-0.999999992029881,0.000126254655137494,0.));
#1665=DIRECTION('',(-0.000126254655137494,-0.999999992029881,0.));
#1666=DIRECTION('',(-0.999999992029881,0.000126254655137494,0.));
#1667=DIRECTION('',(-0.999999992029881,0.000126254655137494,0.));
#1668=DIRECTION('',(-0.000126254655137494,-0.999999992029881,0.));
#1669=DIRECTION('',(-0.999999992029881,0.000126254655137494,0.));
#1670=DIRECTION('',(-0.000126254655137494,-0.999999992029881,0.));
#1671=DIRECTION('',(0.000126254655137494,0.999999992029881,3.36708752298195E-17));
#1672=DIRECTION('',(0.,0.,1.));
#1673=DIRECTION('',(1.,0.,0.));
#1674=DIRECTION('',(-1.57702132922805E-16,0.,1.));
#1675=DIRECTION('',(1.,0.,1.57702132922805E-16));
#1676=DIRECTION('',(1.57702132922805E-16,0.,-1.));
#1677=DIRECTION('',(-1.,0.,-1.57702132922805E-16));
#1678=DIRECTION('',(-1.,0.,-1.57702132922805E-16));
#1679=DIRECTION('',(1.57702132922805E-16,0.,-1.));
#1680=DIRECTION('',(-1.,0.,-1.57702132922805E-16));
#1681=DIRECTION('',(1.,0.,1.57702132922805E-16));
#1682=DIRECTION('',(0.,-1.,0.));
#1683=DIRECTION('',(1.,0.,0.));
#1684=DIRECTION('',(1.57702132922805E-16,0.,-1.));
#1685=DIRECTION('',(-1.,0.,-1.57702132922805E-16));
#1686=DIRECTION('',(1.57702132922805E-16,0.,-1.));
#1687=DIRECTION('',(-1.,0.,-1.57702132922805E-16));
#1688=DIRECTION('',(-1.,0.,-1.57702132922805E-16));
#1689=DIRECTION('',(-1.57702132922805E-16,0.,1.));
#1690=DIRECTION('',(1.,0.,1.57702132922805E-16));
#1691=DIRECTION('',(1.,0.,1.57702132922805E-16));
#1692=DIRECTION('',(0.,1.,0.));
#1693=DIRECTION('',(1.,0.,0.));
#1694=DIRECTION('',(1.57702132922805E-16,0.,-1.));
#1695=DIRECTION('',(-1.,0.,-1.57702132922805E-16));
#1696=DIRECTION('',(1.57702132922805E-16,0.,-1.));
#1697=DIRECTION('',(-1.,0.,-1.57702132922805E-16));
#1698=DIRECTION('',(0.,0.,1.));
#1699=DIRECTION('',(1.,0.,0.));
#1700=DIRECTION('',(0.,0.,-1.));
#1701=DIRECTION('',(1.,0.,0.));
#1702=DIRECTION('',(0.,0.,-1.));
#1703=DIRECTION('',(-1.,0.,0.));
#1704=DIRECTION('',(0.,0.,-1.));
#1705=DIRECTION('',(-1.,0.,0.));
#1706=DIRECTION('',(0.,0.,-1.));
#1707=DIRECTION('',(-1.,0.,0.));
#1708=DIRECTION('',(0.,0.,-1.));
#1709=DIRECTION('',(-1.,0.,0.));
#1710=DIRECTION('',(0.000126246685018367,-0.999999992030887,0.));
#1711=DIRECTION('',(0.999999992030887,0.000126246685004487,0.));
#1712=DIRECTION('',(0.000126246685018401,-0.999999992030887,0.));
#1713=DIRECTION('',(0.999999995,-9.99999995000652E-5,0.));
#1714=DIRECTION('',(-0.000126246685018355,0.999999992030887,0.));
#1715=DIRECTION('',(-1.,1.44560290663269E-16,0.));
#1716=DIRECTION('',(-0.000126246685019088,0.999999992030887,0.));
#1717=DIRECTION('',(-0.999999992030887,-0.000126246685019232,0.));
#1718=DIRECTION('',(-0.000126246685018374,0.999999992030887,0.));
#1719=DIRECTION('',(-1.,1.38777878954157E-16,0.));
#1720=DIRECTION('',(-0.000126246685018369,0.999999992030887,0.));
#1721=DIRECTION('',(0.999999995,-9.99999995000978E-5,0.));
#1722=DIRECTION('',(-0.000126246685004487,0.999999992030887,0.));
#1723=DIRECTION('',(-0.999999992030887,-0.000126246685004487,0.));
#1724=DIRECTION('',(0.,0.,-1.));
#1725=DIRECTION('',(0.999999992030887,0.000126246685004487,0.));
#1726=DIRECTION('',(0.,0.,-1.));
#1727=DIRECTION('',(0.999999992030887,0.000126246685018367,0.));
#1728=DIRECTION('',(-0.000126246685018367,0.999999992030887,0.));
#1729=DIRECTION('',(0.,0.,-1.));
#1730=DIRECTION('',(0.000126246685018367,-0.999999992030887,0.));
#1731=DIRECTION('',(9.99999995000978E-5,0.999999995,0.));
#1732=DIRECTION('',(-0.999999995,9.99999995000978E-5,0.));
#1733=DIRECTION('',(0.,0.,-1.));
#1734=DIRECTION('',(0.999999995,-9.99999995000978E-5,0.));
#1735=DIRECTION('',(-0.999999992030887,-0.000126246685018369,0.));
#1736=DIRECTION('',(0.000126246685018369,-0.999999992030887,0.));
#1737=DIRECTION('',(0.,0.,-1.));
#1738=DIRECTION('',(-0.000126246685018369,0.999999992030887,0.));
#1739=DIRECTION('',(-1.38777878954157E-16,-1.,0.));
#1740=DIRECTION('',(1.,-1.38777878954157E-16,0.));
#1741=DIRECTION('',(0.,0.,-1.));
#1742=DIRECTION('',(-1.,1.38777878954157E-16,0.));
#1743=DIRECTION('',(-0.999999992030887,-0.000126246685018374,0.));
#1744=DIRECTION('',(0.000126246685018374,-0.999999992030887,0.));
#1745=DIRECTION('',(0.,0.,-1.));
#1746=DIRECTION('',(-0.000126246685018374,0.999999992030887,0.));
#1747=DIRECTION('',(0.000126246685019232,-0.999999992030887,0.));
#1748=DIRECTION('',(0.999999992030887,0.000126246685019232,0.));
#1749=DIRECTION('',(0.,0.,-1.));
#1750=DIRECTION('',(-0.999999992030887,-0.000126246685019232,0.));
#1751=DIRECTION('',(-0.999999992030887,-0.000126246685019088,0.));
#1752=DIRECTION('',(0.000126246685019088,-0.999999992030887,0.));
#1753=DIRECTION('',(0.,0.,-1.));
#1754=DIRECTION('',(-0.000126246685019088,0.999999992030887,0.));
#1755=DIRECTION('',(-1.44560290663269E-16,-1.,0.));
#1756=DIRECTION('',(1.,-1.44560290663269E-16,0.));
#1757=DIRECTION('',(0.,0.,-1.));
#1758=DIRECTION('',(-1.,1.44560290663269E-16,0.));
#1759=DIRECTION('',(-0.999999992030887,-0.000126246685018355,0.));
#1760=DIRECTION('',(0.000126246685018355,-0.999999992030887,0.));
#1761=DIRECTION('',(0.,0.,-1.));
#1762=DIRECTION('',(-0.000126246685018355,0.999999992030887,0.));
#1763=DIRECTION('',(9.99999995000652E-5,0.999999995,0.));
#1764=DIRECTION('',(-0.999999995,9.99999995000652E-5,0.));
#1765=DIRECTION('',(0.,0.,-1.));
#1766=DIRECTION('',(0.999999995,-9.99999995000652E-5,0.));
#1767=DIRECTION('',(0.999999992030887,0.000126246685018401,0.));
#1768=DIRECTION('',(-0.000126246685018401,0.999999992030887,0.));
#1769=DIRECTION('',(0.000126246685018401,-0.999999992030887,0.));
#1770=DIRECTION('',(0.,0.,1.));
#1771=DIRECTION('',(1.,0.,0.));
#1772=DIRECTION('',(0.,0.,-1.));
#1773=DIRECTION('',(-1.,0.,0.));
#1774=DIRECTION('',(0.,0.,1.));
#1775=DIRECTION('',(1.,0.,0.));
#1776=DIRECTION('',(0.,0.,1.));
#1777=DIRECTION('',(1.,0.,0.));
#1778=DIRECTION('',(0.,0.,-1.));
#1779=DIRECTION('',(-1.,0.,0.));
#1780=DIRECTION('',(0.,0.,1.));
#1781=DIRECTION('',(1.,0.,0.));
#1782=DIRECTION('',(0.,0.,1.));
#1783=DIRECTION('',(1.,0.,0.));
#1784=DIRECTION('',(0.,0.,-1.));
#1785=DIRECTION('',(-1.,0.,0.));
#1786=DIRECTION('',(0.,0.,1.));
#1787=DIRECTION('',(1.,0.,0.));
#1788=DIRECTION('',(0.,0.,1.));
#1789=DIRECTION('',(1.,0.,0.));
#1790=DIRECTION('',(0.,0.,-1.));
#1791=DIRECTION('',(-1.,0.,0.));
#1792=DIRECTION('',(0.,0.,1.));
#1793=DIRECTION('',(1.,0.,0.));
#1794=DIRECTION('',(0.,0.,1.));
#1795=DIRECTION('',(1.,0.,0.));
#1796=CARTESIAN_POINT('',(0.,0.,0.));
#1797=CARTESIAN_POINT('',(-0.050399999690096,-5.01999651533053E-6,-0.00799));
#1798=CARTESIAN_POINT('',(-0.050399999690096,-5.01999651533053E-6,-0.00128));
#1799=CARTESIAN_POINT('',(-0.050402375173292,-0.0188200345753509,-0.00128));
#1800=CARTESIAN_POINT('',(-0.0504031882532636,-0.0252600344651316,-0.00128));
#1801=CARTESIAN_POINT('',(-0.050402375173292,-0.0188200345753509,-0.00253));
#1802=CARTESIAN_POINT('',(-0.050402217354973,-0.0175700345853136,-0.00252999998667139));
#1803=CARTESIAN_POINT('',(-0.0504022173549657,-0.0175700345270942,-0.00799000018729384));
#1804=CARTESIAN_POINT('',(-0.0504022173549721,-0.0175700345777429,-0.00323999998667138));
#1805=CARTESIAN_POINT('',(-0.050402375173291,-0.0188200345677802,-0.00324));
#1806=CARTESIAN_POINT('',(-0.050402375173291,-0.0188200345677802,-0.00449));
#1807=CARTESIAN_POINT('',(-0.050399999690096,-5.01999651533053E-6,-0.00449));
#1808=CARTESIAN_POINT('',(-0.0504031882532627,-0.0252600344575609,-0.00449));
#1809=CARTESIAN_POINT('',(-0.0504031882532627,-0.0252600344575609,-0.00324));
#1810=CARTESIAN_POINT('',(-0.0504033460715816,-0.0265100344475983,-0.00324000001332861));
#1811=CARTESIAN_POINT('',(-0.0504033460715752,-0.0265100343969495,-0.00799000028262008));
#1812=CARTESIAN_POINT('',(-0.0504033460715825,-0.0265100344551689,-0.00253000001332861));
#1813=CARTESIAN_POINT('',(-0.0504031882532636,-0.0252600344651316,-0.00253));
#1814=CARTESIAN_POINT('',(-0.0504050498738171,-0.04000500000008,-0.00799));
#1815=CARTESIAN_POINT('',(-0.0504050498738171,-0.04000500000008,-0.00549));
#1816=CARTESIAN_POINT('',(-0.0504050498738171,-0.04000500000008,0.00501));
#1817=CARTESIAN_POINT('',(-0.050399999690096,-5.01999651533053E-6,-0.00549));
#1818=CARTESIAN_POINT('',(-0.0503949495063749,0.0399949600070494,-0.00549));
#1819=CARTESIAN_POINT('',(-0.0503949495063749,0.0399949600070494,-0.00799));
#1820=CARTESIAN_POINT('',(-0.0503949495063749,0.0399949600070494,0.00501));
#1821=CARTESIAN_POINT('',(-0.050399999690096,-5.01999651533053E-6,0.00501));
#1822=CARTESIAN_POINT('',(-0.0504010835837943,-0.008590000000002,0.00501));
#1823=CARTESIAN_POINT('',(-0.0504010835837943,-0.008590000000002,-0.00799));
#1824=CARTESIAN_POINT('',(-0.0504010835837943,-0.008590000000002,0.00344));
#1825=CARTESIAN_POINT('',(-0.0504009573729759,-0.00759034721624387,0.00344));
#1826=CARTESIAN_POINT('',(-0.0504009573291382,-0.007590000000002,0.00344));
#1827=CARTESIAN_POINT('',(-0.0504009573291382,-0.007590000000002,0.00264));
#1828=CARTESIAN_POINT('',(-0.0504009573291382,-0.007590000000002,0.00184));
#1829=CARTESIAN_POINT('',(-0.050399999690096,-5.01999651533053E-6,0.00184));
#1830=CARTESIAN_POINT('',(-0.0504010835837943,-0.008590000000002,0.00184));
#1831=CARTESIAN_POINT('',(-0.0504010835837943,-0.008590000000002,-0.00799));
#1832=CARTESIAN_POINT('',(-0.0504010835837943,-0.008590000000002,0.00027));
#1833=CARTESIAN_POINT('',(-0.050399999690096,-5.01999651533053E-6,0.00027));
#1834=CARTESIAN_POINT('',(-0.0504044798340446,-0.035490000000002,0.00027));
#1835=CARTESIAN_POINT('',(-0.0504044798340446,-0.035490000000002,-0.00799));
#1836=CARTESIAN_POINT('',(-0.0504027817089195,-0.035490000000002,0.00184));
#1837=CARTESIAN_POINT('',(-0.050399999690096,-5.01999651533053E-6,0.00184));
#1838=CARTESIAN_POINT('',(-0.0504046060886727,-0.0364899997776357,0.00184));
#1839=CARTESIAN_POINT('',(-0.0504046060886446,-0.0364899995552694,-0.00799));
#1840=CARTESIAN_POINT('',(-0.0504046060886727,-0.0364899997776357,0.00344));
#1841=CARTESIAN_POINT('',(-0.050399999690096,-5.01999651533053E-6,0.00344));
#1842=CARTESIAN_POINT('',(-0.0504027817089195,-0.035490000000002,0.00344));
#1843=CARTESIAN_POINT('',(-0.0504044798340446,-0.035490000000002,-0.00799));
#1844=CARTESIAN_POINT('',(-0.0504044798340446,-0.035490000000002,0.00501));
#1845=CARTESIAN_POINT('',(-0.050399999690096,-5.01999651533053E-6,0.00501));
#1846=CARTESIAN_POINT('',(5.05050026892301E-6,0.04000000000705,-0.00799));
#1847=CARTESIAN_POINT('',(5.05050026892301E-6,0.04000000000705,-0.00549));
#1848=CARTESIAN_POINT('',(0.0504050505069127,0.0400050400070507,-0.00549));
#1849=CARTESIAN_POINT('',(0.0504050505069127,0.0400050400070507,-0.00799));
#1850=CARTESIAN_POINT('',(0.0504050505069127,0.0400050400070507,0.00501));
#1851=CARTESIAN_POINT('',(5.05050026892301E-6,0.04000000000705,0.00501));
#1852=CARTESIAN_POINT('',(0.050400000005713,2.00035255130959E-8,-0.00799));
#1853=CARTESIAN_POINT('',(0.050400000005713,2.00035255130959E-8,-0.00549));
#1854=CARTESIAN_POINT('',(0.0503949495045132,-0.040005,-0.00549));
#1855=CARTESIAN_POINT('',(0.0503949495045132,-0.040005,-0.00799));
#1856=CARTESIAN_POINT('',(0.0503949495045132,-0.040005,0.00501));
#1857=CARTESIAN_POINT('',(0.050400000005713,2.00035255130959E-8,0.00501));
#1858=CARTESIAN_POINT('',(-5.05018465192172E-6,-0.0400050000000398,-0.00799));
#1859=CARTESIAN_POINT('',(-5.05018465192172E-6,-0.0400050000000398,-0.00549));
#1860=CARTESIAN_POINT('',(-5.05018465192172E-6,-0.0400050000000398,0.00501));
#1861=CARTESIAN_POINT('',(-0.04130108362763,-0.035490000000002,0.00027));
#1862=CARTESIAN_POINT('',(-0.04130108362763,-0.035490000000002,0.00501));
#1863=CARTESIAN_POINT('',(-0.0559044798778803,-0.035490000000002,0.00501));
#1864=CARTESIAN_POINT('',(-0.0531510836057122,-0.035490000000002,0.00344));
#1865=CARTESIAN_POINT('',(-0.0559027817527551,-0.035490000000002,0.00344));
#1866=CARTESIAN_POINT('',(-0.0559044798778803,-0.035490000000002,0.00027));
#1867=CARTESIAN_POINT('',(-0.04130108362763,-0.008590000000002,0.00027));
#1868=CARTESIAN_POINT('',(-0.04130108362763,-0.008590000000002,0.00501));
#1869=CARTESIAN_POINT('',(-0.05590108362763,-0.008590000000002,0.00501));
#1870=CARTESIAN_POINT('',(-0.05590108362763,-0.008590000000002,0.00027));
#1871=CARTESIAN_POINT('',(-0.05590108362763,-0.008590000000002,0.00344));
#1872=CARTESIAN_POINT('',(-0.0531510836057122,-0.008590000000002,0.00344));
#1873=CARTESIAN_POINT('',(-0.0558999997686456,-5.29494805315972E-6,-0.00799));
#1874=CARTESIAN_POINT('',(-0.0558999997686456,-5.29494805315972E-6,0.00501));
#1875=CARTESIAN_POINT('',(-0.0558942552190296,0.0454944101039781,0.00501));
#1876=CARTESIAN_POINT('',(-0.0558942552190296,0.0454944101039781,-0.00799));
#1877=CARTESIAN_POINT('',(-0.0558942552190296,0.0454944101039781,-0.00799));
#1878=CARTESIAN_POINT('',(-0.0558999997686456,-5.29494805315972E-6,-0.00799));
#1879=CARTESIAN_POINT('',(-0.0559057443182615,-0.0455050000000844,-0.00799));
#1880=CARTESIAN_POINT('',(-0.0559057443182615,-0.0455050000000844,-0.00799));
#1881=CARTESIAN_POINT('',(-0.0559057443182615,-0.0455050000000844,0.00501));
#1882=CARTESIAN_POINT('',(-0.0558999997686456,-5.29494805315972E-6,0.00501));
#1883=CARTESIAN_POINT('',(-0.0559046060886446,-0.0364896523549678,0.00344));
#1884=CARTESIAN_POINT('',(-0.0559046061325083,-0.0364899997776357,0.00344));
#1885=CARTESIAN_POINT('',(-0.0559046061324802,-0.0364899995552694,-0.00799));
#1886=CARTESIAN_POINT('',(-0.0559046061325083,-0.0364899997776357,0.00184));
#1887=CARTESIAN_POINT('',(-0.0558999997686456,-5.29494805315972E-6,0.00184));
#1888=CARTESIAN_POINT('',(-0.0559027817527551,-0.035490000000002,0.00184));
#1889=CARTESIAN_POINT('',(-0.0559044798778803,-0.035490000000002,0.00027));
#1890=CARTESIAN_POINT('',(-0.0559044798778803,-0.035490000000002,0.00027));
#1891=CARTESIAN_POINT('',(-0.0558999997686456,-5.29494805315972E-6,0.00027));
#1892=CARTESIAN_POINT('',(-0.055903188209428,-0.0252593400645284,0.00027));
#1893=CARTESIAN_POINT('',(-0.055903188209428,-0.0252593400645284,-0.00253));
#1894=CARTESIAN_POINT('',(-0.0559035417224624,-0.028059340042212,-0.00253000002985609));
#1895=CARTESIAN_POINT('',(-0.0559035417224619,-0.0280593400384267,-0.00288500002985609));
#1896=CARTESIAN_POINT('',(-0.0559035417224614,-0.0280593400346413,-0.00324000002985609));
#1897=CARTESIAN_POINT('',(-0.055903188209427,-0.0252593400569577,-0.00324));
#1898=CARTESIAN_POINT('',(-0.055903188209427,-0.0252593400569577,-0.00604));
#1899=CARTESIAN_POINT('',(-0.0559027816694412,-0.0220393401120673,-0.00604));
#1900=CARTESIAN_POINT('',(-0.0559023751294554,-0.018819340167177,-0.00604));
#1901=CARTESIAN_POINT('',(-0.0559023751294554,-0.018819340167177,-0.00324));
#1902=CARTESIAN_POINT('',(-0.055902021616421,-0.0160193401894934,-0.0032399999701439));
#1903=CARTESIAN_POINT('',(-0.0559020216164215,-0.0160193401932786,-0.0028849999701439));
#1904=CARTESIAN_POINT('',(-0.055902021616422,-0.016019340197064,-0.0025299999701439));
#1905=CARTESIAN_POINT('',(-0.0559023751294564,-0.0188193401747477,-0.00253));
#1906=CARTESIAN_POINT('',(-0.0559023751294563,-0.0188193401747477,0.00027));
#1907=CARTESIAN_POINT('',(-0.0558999997686456,-5.29494805315972E-6,0.00027));
#1908=CARTESIAN_POINT('',(-0.05590108362763,-0.008590000000002,0.00027));
#1909=CARTESIAN_POINT('',(-0.05590108362763,-0.008590000000002,0.00027));
#1910=CARTESIAN_POINT('',(-0.05590108362763,-0.008590000000002,0.00184));
#1911=CARTESIAN_POINT('',(-0.0558999997686456,-5.29494805315972E-6,0.00184));
#1912=CARTESIAN_POINT('',(-0.0559009573729738,-0.007590000000002,0.00184));
#1913=CARTESIAN_POINT('',(-0.0559009573729738,-0.007590000000002,-0.00799));
#1914=CARTESIAN_POINT('',(-0.0559009573729738,-0.007590000000002,0.00344));
#1915=CARTESIAN_POINT('',(-0.0558999997686456,-5.29494805315972E-6,0.00344));
#1916=CARTESIAN_POINT('',(-0.0531446023627022,0.0427446850555137,0.00801));
#1917=CARTESIAN_POINT('',(-0.0531446023627022,0.0427446850555138,-0.00359944059763209));
#1918=CARTESIAN_POINT('',(-0.0548446023627022,0.0427446850555138,-0.00359944059763209));
#1919=CARTESIAN_POINT('',(-0.0531446023627022,0.0427446850555137,0.00501));
#1920=CARTESIAN_POINT('',(-0.0514446023627022,0.0427446850555137,0.00501));
#1921=CARTESIAN_POINT('',(0.0531553977419384,0.0427553150555242,0.00801));
#1922=CARTESIAN_POINT('',(0.0531553977419384,0.042755315055579,-0.00359944059763209));
#1923=CARTESIAN_POINT('',(0.0514553977419384,0.042755315055579,-0.00359944059763209));
#1924=CARTESIAN_POINT('',(0.0531553977419384,0.0427553150555242,0.00501));
#1925=CARTESIAN_POINT('',(0.0548553977419384,0.0427553150555242,0.00501));
#1926=CARTESIAN_POINT('',(0.0531446023480417,-0.0427549999999975,0.00801));
#1927=CARTESIAN_POINT('',(0.0531446023480417,-0.0427549999999975,-0.00359944059763209));
#1928=CARTESIAN_POINT('',(0.0514446023480417,-0.0427549999999975,-0.00359944059763209));
#1929=CARTESIAN_POINT('',(0.0531446023480417,-0.0427549999999975,0.00501));
#1930=CARTESIAN_POINT('',(0.0548446023480417,-0.0427549999999975,0.00501));
#1931=CARTESIAN_POINT('',(-0.0531553970960393,-0.0427550000000822,0.00801));
#1932=CARTESIAN_POINT('',(-0.0531553970960393,-0.0427550000000822,-0.00359944059763209));
#1933=CARTESIAN_POINT('',(-0.0548553970960393,-0.0427550000000822,-0.00359944059763209));
#1934=CARTESIAN_POINT('',(-0.0531553970960393,-0.0427550000000822,0.00501));
#1935=CARTESIAN_POINT('',(-0.0514553970960393,-0.0427550000000822,0.00501));
#1936=CARTESIAN_POINT('',(0.0559000000842671,2.95052001227092E-7,-0.00799));
#1937=CARTESIAN_POINT('',(0.0559000000842671,2.95052001227092E-7,0.00501));
#1938=CARTESIAN_POINT('',(0.0558942551915702,-0.0455049999999953,0.00501));
#1939=CARTESIAN_POINT('',(0.055905744976964,0.0455055901039977,0.00501));
#1940=CARTESIAN_POINT('',(0.0558942551915702,-0.0455049999999953,-0.00799));
#1941=CARTESIAN_POINT('',(0.0558942551915702,-0.0455049999999953,-0.00799));
#1942=CARTESIAN_POINT('',(0.0559000000842671,2.95052001227092E-7,-0.00799));
#1943=CARTESIAN_POINT('',(0.055905744976964,0.0455055901039977,-0.00799));
#1944=CARTESIAN_POINT('',(0.055905744976964,0.0455055901039977,-0.00799));
#1945=CARTESIAN_POINT('',(5.74487896720308E-6,0.0455000001039879,-0.00799));
#1946=CARTESIAN_POINT('',(5.74487896720308E-6,0.0455000001039879,0.00501));
#1947=CARTESIAN_POINT('',(5.74487896720308E-6,0.0455000001039879,-0.00799));
#1948=CARTESIAN_POINT('',(-5.74456334565682E-6,-0.0455050000000399,-0.00799));
#1949=CARTESIAN_POINT('',(-5.74456334565682E-6,-0.0455050000000399,0.00501));
#1950=CARTESIAN_POINT('',(-5.74456334565682E-6,-0.0455050000000399,-0.00799));
#1951=CARTESIAN_POINT('',(-0.04130108362763,-0.035490000000002,0.00027));
#1952=CARTESIAN_POINT('',(-0.0531510836057122,-0.035490000000002,0.00184));
#1953=CARTESIAN_POINT('',(-0.0514044798340176,-0.035490000000002,0.00184));
#1954=CARTESIAN_POINT('',(-0.04130108362763,-0.035490000000002,0.00027));
#1955=CARTESIAN_POINT('',(-0.0531510836057122,-0.035490000000002,0.00184));
#1956=CARTESIAN_POINT('',(-0.04130108362763,-0.008590000000002,0.00027));
#1957=CARTESIAN_POINT('',(-0.0531510836057122,-0.008590000000002,0.00184));
#1958=CARTESIAN_POINT('',(-0.0512711012493569,-0.008590000000002,0.00184));
#1959=CARTESIAN_POINT('',(-0.0531510836057122,-0.008590000000002,0.00184));
#1960=CARTESIAN_POINT('',(-0.04130108362763,-0.008590000000002,0.00027));
#1961=CARTESIAN_POINT('',(-0.0500027817164659,-0.0220400850221033,-0.00128));
#1962=CARTESIAN_POINT('',(-0.0524027816973376,-0.022039782010931,-0.00128));
#1963=CARTESIAN_POINT('',(-0.0524031882373234,-0.0252597819558214,-0.00128));
#1964=CARTESIAN_POINT('',(-0.0524023751573518,-0.0188197820660407,-0.00128));
#1965=CARTESIAN_POINT('',(-0.0500023751764801,-0.0188200850772129,-0.00128));
#1966=CARTESIAN_POINT('',(-0.0500031882564517,-0.0252600849669937,-0.00128));
#1967=CARTESIAN_POINT('',(-0.0500023751764801,-0.0188200850772129,-0.00253));
#1968=CARTESIAN_POINT('',(-0.0524023751573518,-0.0188197820660407,-0.00253));
#1969=CARTESIAN_POINT('',(-0.0524022173390328,-0.0175697820760033,-0.00252999998667139));
#1970=CARTESIAN_POINT('',(-0.0500022173581611,-0.0175700850871756,-0.00252999998667139));
#1971=CARTESIAN_POINT('',(-0.0500022173581607,-0.0175700850833903,-0.00288499998667138));
#1972=CARTESIAN_POINT('',(-0.0524022173390324,-0.017569782072218,-0.00288499998667138));
#1973=CARTESIAN_POINT('',(-0.0524022173390319,-0.0175697820684327,-0.00323999998667138));
#1974=CARTESIAN_POINT('',(-0.0500022173581602,-0.017570085079605,-0.00323999998667138));
#1975=CARTESIAN_POINT('',(-0.0500023751764791,-0.0188200850696423,-0.00324));
#1976=CARTESIAN_POINT('',(-0.0524023751573508,-0.01881978205847,-0.00324));
#1977=CARTESIAN_POINT('',(-0.0524023751573508,-0.01881978205847,-0.00449));
#1978=CARTESIAN_POINT('',(-0.0500023751764791,-0.0188200850696423,-0.00449));
#1979=CARTESIAN_POINT('',(-0.0500027817164649,-0.0220400850145327,-0.00449));
#1980=CARTESIAN_POINT('',(-0.0524027816973366,-0.0220397820033604,-0.00449));
#1981=CARTESIAN_POINT('',(-0.0524031882373225,-0.0252597819482507,-0.00449));
#1982=CARTESIAN_POINT('',(-0.0500031882564507,-0.025260084959423,-0.00449));
#1983=CARTESIAN_POINT('',(-0.0500031882564507,-0.025260084959423,-0.00324));
#1984=CARTESIAN_POINT('',(-0.0524031882373225,-0.0252597819482507,-0.00324));
#1985=CARTESIAN_POINT('',(-0.0524033460556414,-0.0265097819382881,-0.00324000001332861));
#1986=CARTESIAN_POINT('',(-0.0500033460747697,-0.0265100849494604,-0.00324000001332861));
#1987=CARTESIAN_POINT('',(-0.0500033460747701,-0.0265100849532457,-0.00288500001332861));
#1988=CARTESIAN_POINT('',(-0.0524033460556419,-0.0265097819420733,-0.00288500001332861));
#1989=CARTESIAN_POINT('',(-0.0524033460556423,-0.0265097819458587,-0.00253000001332861));
#1990=CARTESIAN_POINT('',(-0.0500033460747706,-0.026510084957031,-0.00253000001332861));
#1991=CARTESIAN_POINT('',(-0.0500031882564517,-0.0252600849669937,-0.00253));
#1992=CARTESIAN_POINT('',(-0.0524031882373234,-0.0252597819558214,-0.00253));
#1993=CARTESIAN_POINT('',(3.29351219907625E-10,2.95051956644698E-7,-0.00799));
#1994=CARTESIAN_POINT('',(-0.0531446023627022,0.0427446850555138,-0.00799));
#1995=CARTESIAN_POINT('',(-0.0507946023627022,0.0427446850555138,-0.00799));
#1996=CARTESIAN_POINT('',(0.0531553977419384,0.042755315055579,-0.00799));
#1997=CARTESIAN_POINT('',(0.0555053977419384,0.042755315055579,-0.00799));
#1998=CARTESIAN_POINT('',(0.0531446023480417,-0.0427549999999975,-0.00799));
#1999=CARTESIAN_POINT('',(0.0554946023480417,-0.0427549999999975,-0.00799));
#2000=CARTESIAN_POINT('',(-0.0531553970960393,-0.0427550000000822,-0.00799));
#2001=CARTESIAN_POINT('',(-0.0508053970960393,-0.0427550000000822,-0.00799));
#2002=CARTESIAN_POINT('',(-0.0531553970960393,-0.0427550000000822,-0.00399));
#2003=CARTESIAN_POINT('',(-0.0531553970960393,-0.0427550000000822,-0.00399));
#2004=CARTESIAN_POINT('',(-0.0508053970960393,-0.0427550000000822,-0.00399));
#2005=CARTESIAN_POINT('',(-0.0531553970960393,-0.0427550000000822,-0.00799));
#2006=CARTESIAN_POINT('',(0.0531446023480417,-0.0427549999999975,-0.00399));
#2007=CARTESIAN_POINT('',(0.0531446023480417,-0.0427549999999975,-0.00399));
#2008=CARTESIAN_POINT('',(0.0554946023480417,-0.0427549999999975,-0.00399));
#2009=CARTESIAN_POINT('',(0.0531446023480417,-0.0427549999999975,-0.00799));
#2010=CARTESIAN_POINT('',(0.0531553977419384,0.042755315055579,-0.00399));
#2011=CARTESIAN_POINT('',(0.0531553977419384,0.042755315055579,-0.00399));
#2012=CARTESIAN_POINT('',(0.0555053977419384,0.042755315055579,-0.00399));
#2013=CARTESIAN_POINT('',(0.0531553977419384,0.042755315055579,-0.00799));
#2014=CARTESIAN_POINT('',(-0.0531446023627022,0.0427446850555138,-0.00399));
#2015=CARTESIAN_POINT('',(-0.0531446023627022,0.0427446850555138,-0.00399));
#2016=CARTESIAN_POINT('',(-0.0507946023627022,0.0427446850555138,-0.00399));
#2017=CARTESIAN_POINT('',(-0.0531446023627022,0.0427446850555138,-0.00799));
#2018=CARTESIAN_POINT('',(-0.0524023751573518,-0.0188197820660407,-0.00253));
#2019=CARTESIAN_POINT('',(-0.0524020216443174,-0.016019782088357,-0.0025299999701439));
#2020=CARTESIAN_POINT('',(-0.0524020216443174,-0.016019782088357,-0.0025299999701439));
#2021=CARTESIAN_POINT('',(-0.0524023751573518,-0.0188197820660407,-0.00253));
#2022=CARTESIAN_POINT('',(-0.0524023751573518,-0.0188197820660407,0.00027));
#2023=CARTESIAN_POINT('',(-0.0524023751573518,-0.0188197820660407,0.00027));
#2024=CARTESIAN_POINT('',(-0.0524020216443169,-0.0160197820845716,-0.0028849999701439));
#2025=CARTESIAN_POINT('',(-0.0524020216443164,-0.0160197820807863,-0.0032399999701439));
#2026=CARTESIAN_POINT('',(-0.0524020216443164,-0.0160197820807863,-0.0032399999701439));
#2027=CARTESIAN_POINT('',(-0.0524020216443169,-0.0160197820845716,-0.0028849999701439));
#2028=CARTESIAN_POINT('',(-0.0524023751573508,-0.01881978205847,-0.00324));
#2029=CARTESIAN_POINT('',(-0.0524023751573508,-0.01881978205847,-0.00604));
#2030=CARTESIAN_POINT('',(-0.0524023751573508,-0.01881978205847,-0.00604));
#2031=CARTESIAN_POINT('',(-0.0524023751573508,-0.01881978205847,-0.00324));
#2032=CARTESIAN_POINT('',(-0.0524027816973366,-0.0220397820033604,-0.00604));
#2033=CARTESIAN_POINT('',(-0.0524031882373225,-0.0252597819482507,-0.00604));
#2034=CARTESIAN_POINT('',(-0.0524031882373225,-0.0252597819482507,-0.00604));
#2035=CARTESIAN_POINT('',(-0.0524027816973366,-0.0220397820033604,-0.00604));
#2036=CARTESIAN_POINT('',(-0.0524031882373225,-0.0252597819482507,-0.00324));
#2037=CARTESIAN_POINT('',(-0.0524035417503568,-0.0280597819259343,-0.00324000002985609));
#2038=CARTESIAN_POINT('',(-0.0524035417503568,-0.0280597819259343,-0.00324000002985609));
#2039=CARTESIAN_POINT('',(-0.0524031882373225,-0.0252597819482507,-0.00324));
#2040=CARTESIAN_POINT('',(-0.0524035417503573,-0.0280597819297197,-0.00288500002985609));
#2041=CARTESIAN_POINT('',(-0.0524035417503578,-0.028059781933505,-0.00253000002985609));
#2042=CARTESIAN_POINT('',(-0.0524035417503578,-0.028059781933505,-0.00253000002985609));
#2043=CARTESIAN_POINT('',(-0.0524035417503573,-0.0280597819297197,-0.00288500002985609));
#2044=CARTESIAN_POINT('',(-0.0524031882373234,-0.0252597819558214,-0.00253));
#2045=CARTESIAN_POINT('',(-0.0524031882373234,-0.0252597819558214,0.00027));
#2046=CARTESIAN_POINT('',(-0.0524031882373234,-0.0252597819558214,0.00027));
#2047=CARTESIAN_POINT('',(-0.0524031882373234,-0.0252597819558214,-0.00253));
#2048=CARTESIAN_POINT('',(-0.052399999796541,-5.73683934614299E-6,9.99999999999959E-6));
#2049=CARTESIAN_POINT('',(-0.0524027816973376,-0.022039782010931,0.00027));
#2050=CARTESIAN_POINT('',(-0.04130108362763,-0.022040000000002,0.00027));
#2051=CARTESIAN_POINT('',(-0.0531510836057122,-0.007590000000002,0.00184));
#2052=CARTESIAN_POINT('',(-0.0512711012493569,-0.00819000000000202,0.00184));
#2053=CARTESIAN_POINT('',(-0.0531510836057122,-0.007590000000002,0.00184));
#2054=CARTESIAN_POINT('',(-0.0531510836057122,-0.007590000000002,0.00344));
#2055=CARTESIAN_POINT('',(-0.0531510836057122,-0.007590000000002,0.00344));
#2056=CARTESIAN_POINT('',(-0.0531510836057122,-0.007590000000002,0.00264));
#2057=CARTESIAN_POINT('',(-0.0531510836057122,-0.036490000000002,0.00184));
#2058=CARTESIAN_POINT('',(-0.0514044798340176,-0.0358900000079721,0.00184));
#2059=CARTESIAN_POINT('',(-0.0531510836057122,-0.036490000000002,0.00184));
#2060=CARTESIAN_POINT('',(-0.0531510836057122,-0.036490000000002,0.00344));
#2061=CARTESIAN_POINT('',(-0.0531510836057122,-0.036490000000002,0.00344));
#2062=CARTESIAN_POINT('',(-0.0531510836057122,-0.036490000000002,0.00264));
#2063=CARTESIAN_POINT('',(-0.0514044798340176,-0.0358900000079721,0.00184));
#2064=CARTESIAN_POINT('',(-0.0512711012493569,-0.00819000000000202,0.00184));
#2065=CARTESIAN_POINT('',(-4.83493405225785E-6,-3.80999904000742E-6,0.00501));
#2066=CARTESIAN_POINT('',(3.29351219907625E-10,2.95051956644698E-7,-0.00549));
#2067=CARTESIAN_POINT('',(0.0264587497034669,-0.0213224999785423,-0.00549));
#2068=CARTESIAN_POINT('',(0.0244587497034669,-0.0213224999785423,-0.00549));
#2069=CARTESIAN_POINT('',(0.0264587497034669,0.0168175000214577,-0.00549));
#2070=CARTESIAN_POINT('',(0.0244587497034669,0.0168175000214577,-0.00549));
#2071=CARTESIAN_POINT('',(-0.0116812502965331,0.0168175000214577,-0.00549));
#2072=CARTESIAN_POINT('',(-0.0136812502965331,0.0168175000214577,-0.00549));
#2073=CARTESIAN_POINT('',(-0.0116812502965331,-0.0213224999785423,-0.00549));
#2074=CARTESIAN_POINT('',(-0.0136812502965331,-0.0213224999785423,-0.00549));
#2075=CARTESIAN_POINT('',(-0.0499982126625426,-0.0141524999999674,-0.00549));
#2076=CARTESIAN_POINT('',(-0.0500014246938518,0.011290000000002,-0.00549));
#2077=CARTESIAN_POINT('',(-0.0499950006312334,-0.0395949999999368,-0.00549));
#2078=CARTESIAN_POINT('',(-0.0490014247018209,0.011290126246687,-0.00549));
#2079=CARTESIAN_POINT('',(-0.04800142470979,0.011290252493372,-0.00549));
#2080=CARTESIAN_POINT('',(-0.0479983388966062,-0.0131524737356598,-0.00549));
#2081=CARTESIAN_POINT('',(-0.0479952530834224,-0.0375951999646916,-0.00549));
#2082=CARTESIAN_POINT('',(4.74719100679311E-6,-0.0375999999647191,-0.00549));
#2083=CARTESIAN_POINT('',(0.0480047474654359,-0.0376047999647465,-0.00549));
#2084=CARTESIAN_POINT('',(0.0479999999714349,1.00017626687709E-7,-0.00549));
#2085=CARTESIAN_POINT('',(0.0479952524774338,0.037605,-0.00549));
#2086=CARTESIAN_POINT('',(-4.747191011234E-6,0.037605,-0.00549));
#2087=CARTESIAN_POINT('',(-0.0480047468594563,0.037605,-0.00549));
#2088=CARTESIAN_POINT('',(-0.0480044429364979,0.0351976262466851,-0.00549));
#2089=CARTESIAN_POINT('',(-0.0480041390135395,0.0327902524933701,-0.00549));
#2090=CARTESIAN_POINT('',(-0.0490041390055704,0.0327901262466851,-0.00549));
#2091=CARTESIAN_POINT('',(-0.0500041389976013,0.03279,-0.00549));
#2092=CARTESIAN_POINT('',(-0.0500045691831839,0.0361975,-0.00549));
#2093=CARTESIAN_POINT('',(-0.0500049993687666,0.039605,-0.00549));
#2094=CARTESIAN_POINT('',(-4.9996843832778E-6,0.039605,-0.00549));
#2095=CARTESIAN_POINT('',(0.049995,0.039605,-0.00549));
#2096=CARTESIAN_POINT('',(0.05,-7.63278329429795E-17,-0.00549));
#2097=CARTESIAN_POINT('',(0.050005,-0.039605,-0.00549));
#2098=CARTESIAN_POINT('',(4.99968438328474E-6,-0.0395999999999685,-0.00549));
#2099=CARTESIAN_POINT('',(-0.0490014247018209,0.011290126246687,0.));
#2100=CARTESIAN_POINT('',(-0.0500014246938518,0.011290000000002,0.));
#2101=CARTESIAN_POINT('',(-0.0500014246938518,0.011290000000002,0.));
#2102=CARTESIAN_POINT('',(-0.0490014247018209,0.011290126246687,0.));
#2103=CARTESIAN_POINT('',(-0.04800142470979,0.011290252493372,0.));
#2104=CARTESIAN_POINT('',(-0.04800142470979,0.011290252493372,0.));
#2105=CARTESIAN_POINT('',(-0.0499982126625426,-0.0141524999999674,0.));
#2106=CARTESIAN_POINT('',(-0.0499950006312334,-0.0395949999999368,0.));
#2107=CARTESIAN_POINT('',(-0.0499950006312334,-0.0395949999999368,0.));
#2108=CARTESIAN_POINT('',(-0.0499982126625426,-0.0141524999999674,0.));
#2109=CARTESIAN_POINT('',(4.99968438328474E-6,-0.0395999999999685,0.));
#2110=CARTESIAN_POINT('',(0.050005,-0.039605,0.));
#2111=CARTESIAN_POINT('',(0.050005,-0.039605,0.));
#2112=CARTESIAN_POINT('',(4.99968438328474E-6,-0.0395999999999685,0.));
#2113=CARTESIAN_POINT('',(0.05,-7.63278329429795E-17,0.));
#2114=CARTESIAN_POINT('',(0.049995,0.039605,0.));
#2115=CARTESIAN_POINT('',(0.049995,0.039605,0.));
#2116=CARTESIAN_POINT('',(0.05,-7.63278329429795E-17,0.));
#2117=CARTESIAN_POINT('',(-4.9996843832778E-6,0.039605,0.));
#2118=CARTESIAN_POINT('',(-0.0500049993687666,0.039605,0.));
#2119=CARTESIAN_POINT('',(-0.0500049993687666,0.039605,0.));
#2120=CARTESIAN_POINT('',(-4.9996843832778E-6,0.039605,0.));
#2121=CARTESIAN_POINT('',(-0.0500045691831839,0.0361975,0.));
#2122=CARTESIAN_POINT('',(-0.0500041389976013,0.03279,0.));
#2123=CARTESIAN_POINT('',(-0.0500041389976013,0.03279,0.));
#2124=CARTESIAN_POINT('',(-0.0500045691831839,0.0361975,0.));
#2125=CARTESIAN_POINT('',(-0.0490041390055704,0.0327901262466851,0.));
#2126=CARTESIAN_POINT('',(-0.0480041390135395,0.0327902524933701,0.));
#2127=CARTESIAN_POINT('',(-0.0480041390135395,0.0327902524933701,0.));
#2128=CARTESIAN_POINT('',(-0.0490041390055704,0.0327901262466851,0.));
#2129=CARTESIAN_POINT('',(-0.0480044429364979,0.0351976262466851,0.));
#2130=CARTESIAN_POINT('',(-0.0480047468594563,0.037605,0.));
#2131=CARTESIAN_POINT('',(-0.0480047468594563,0.037605,0.));
#2132=CARTESIAN_POINT('',(-0.0480044429364979,0.0351976262466851,0.));
#2133=CARTESIAN_POINT('',(-4.747191011234E-6,0.037605,0.));
#2134=CARTESIAN_POINT('',(0.0479952524774338,0.037605,0.));
#2135=CARTESIAN_POINT('',(0.0479952524774338,0.037605,0.));
#2136=CARTESIAN_POINT('',(-4.747191011234E-6,0.037605,0.));
#2137=CARTESIAN_POINT('',(0.0479999999714349,1.00017626687709E-7,0.));
#2138=CARTESIAN_POINT('',(0.0480047474654359,-0.0376047999647465,0.));
#2139=CARTESIAN_POINT('',(0.0480047474654359,-0.0376047999647465,0.));
#2140=CARTESIAN_POINT('',(0.0479999999714349,1.00017626687709E-7,0.));
#2141=CARTESIAN_POINT('',(4.74719100679311E-6,-0.0375999999647191,0.));
#2142=CARTESIAN_POINT('',(-0.0479952530834224,-0.0375951999646916,0.));
#2143=CARTESIAN_POINT('',(-0.0479952530834224,-0.0375951999646916,0.));
#2144=CARTESIAN_POINT('',(4.74719100679311E-6,-0.0375999999647191,0.));
#2145=CARTESIAN_POINT('',(-0.0479983388966062,-0.0131524737356598,0.));
#2146=CARTESIAN_POINT('',(-0.0479983388966062,-0.0131524737356598,0.));
#2147=CARTESIAN_POINT('',(3.15616720258927E-10,0.,0.));
#2148=CARTESIAN_POINT('',(-0.0116812502965331,-0.0213224999785423,0.));
#2149=CARTESIAN_POINT('',(-0.0116812502965331,-0.0213224999785423,0.));
#2150=CARTESIAN_POINT('',(-0.0096812502965331,-0.0213224999785423,0.));
#2151=CARTESIAN_POINT('',(3.15616720258927E-10,0.,0.));
#2152=CARTESIAN_POINT('',(-0.0116812502965331,0.0168175000214577,0.));
#2153=CARTESIAN_POINT('',(-0.0116812502965331,0.0168175000214577,0.));
#2154=CARTESIAN_POINT('',(-0.0096812502965331,0.0168175000214577,0.));
#2155=CARTESIAN_POINT('',(3.15616720258927E-10,0.,0.));
#2156=CARTESIAN_POINT('',(0.0264587497034669,0.0168175000214577,0.));
#2157=CARTESIAN_POINT('',(0.0264587497034669,0.0168175000214577,0.));
#2158=CARTESIAN_POINT('',(0.0284587497034669,0.0168175000214577,0.));
#2159=CARTESIAN_POINT('',(3.15616720258927E-10,0.,0.));
#2160=CARTESIAN_POINT('',(0.0264587497034669,-0.0213224999785423,0.));
#2161=CARTESIAN_POINT('',(0.0264587497034669,-0.0213224999785423,0.));
#2162=CARTESIAN_POINT('',(0.0284587497034669,-0.0213224999785423,0.));
#2163=CARTESIAN_POINT('',(3.15616720258927E-10,0.,0.));
#2164=MECHANICAL_DESIGN_GEOMETRIC_PRESENTATION_REPRESENTATION('',(#1307),
#2165);
#2165=(
GEOMETRIC_REPRESENTATION_CONTEXT(3)
GLOBAL_UNCERTAINTY_ASSIGNED_CONTEXT((#2166))
GLOBAL_UNIT_ASSIGNED_CONTEXT((#2169,#2168,#2167))
REPRESENTATION_CONTEXT('Main_Case','TOP_LEVEL_ASSEMBLY_PART')
);
#2166=UNCERTAINTY_MEASURE_WITH_UNIT(LENGTH_MEASURE(2.33962502502738E-5),
#2169,'DISTANCE_ACCURACY_VALUE','Maximum Tolerance applied to model');
#2167=(
NAMED_UNIT(*)
SI_UNIT($,.STERADIAN.)
SOLID_ANGLE_UNIT()
);
#2168=(
NAMED_UNIT(*)
PLANE_ANGLE_UNIT()
SI_UNIT($,.RADIAN.)
);
#2169=(
LENGTH_UNIT()
NAMED_UNIT(*)
SI_UNIT($,.METRE.)
);
#2170=PRODUCT_DEFINITION_SHAPE('','',#2171);
#2171=PRODUCT_DEFINITION('','',#2173,#2172);
#2172=PRODUCT_DEFINITION_CONTEXT('',#2179,'design');
#2173=PRODUCT_DEFINITION_FORMATION_WITH_SPECIFIED_SOURCE('','',#2175,
 .NOT_KNOWN.);
#2174=PRODUCT_RELATED_PRODUCT_CATEGORY('','',(#2175));
#2175=PRODUCT('Main_Case','Main_Case','Main_Case',(#2177));
#2176=PRODUCT_CATEGORY('','');
#2177=PRODUCT_CONTEXT('',#2179,'mechanical');
#2178=APPLICATION_PROTOCOL_DEFINITION('international standard',
'ap242_managed_model_based_3d_engineering',2020,#2179);
#2179=APPLICATION_CONTEXT('managed model based 3d engineering');
ENDSEC;
END-ISO-10303-21;
